<svg xmlns="http://www.w3.org/2000/svg" width="96" height="96" viewBox="0 0 96 96">
    <defs>
        <style>
            .cls-3{fill:#fff}.cls-4{fill:#15225c}.cls-5{fill:#6d39ff}
        </style>
    </defs>
    <g id="ic_x96_flight_complete" data-name="ic_x96_flight complete" transform="translate(-148 -149)">
        <g id="Rectangle_2734" data-name="Rectangle 2734" style="fill:red;stroke:#707070;opacity:.3">
            <path style="stroke:none" d="M0 0h96v96H0z" transform="translate(148 149)"/>
            <path style="fill:none" d="M.5.5h95v95H.5z" transform="translate(148 149)"/>
        </g>
        <g id="ico_airplane_ticket" data-name="ico/airplane ticket" transform="translate(153.999 160.805)">
            <path id="Path_2620" data-name="Path 2620" d="M287.343 82.039a5.384 5.384 0 0 0-5.753-4.987l-8.056.575a5.384 5.384 0 0 1-10.74.77l-8.056.575a5.387 5.387 0 0 0-4.987 5.753l.353 4.933 39.994 30.95z" transform="translate(-219.361 -74.852)" style="fill:#40129c"/>
            <path id="Subtract" class="cls-3" d="m281.586 147.946-40.237-40.237a5.989 5.989 0 0 1 0-8.47l6.355-6.352a5.99 5.99 0 1 0 8.47-8.473l6.352-6.352a5.992 5.992 0 0 1 8.473 0l40.237 40.238a5.989 5.989 0 0 1 0 8.47l-6.355 6.355a5.989 5.989 0 0 0-8.47 8.47l-6.352 6.352a5.992 5.992 0 0 1-8.473-.001z" transform="translate(-239.594 -76.308)"/>
            <g id="Group_4099" data-name="Group 4099" transform="translate(23.029 22.954)">
                <path id="Union" class="cls-4" d="M262.249 90.484a.15.15 0 0 1-.039.075.131.131 0 0 1-.066.045l-3.63 1.2a1.261 1.261 0 0 0-.865 1.228.168.168 0 0 1-.027.093.164.164 0 0 1-.075.06.15.15 0 0 1-.1.009.18.18 0 0 1-.093-.045l-3.2-3.133a.167.167 0 0 1-.048-.087.175.175 0 0 1 0-.1.163.163 0 0 1 .06-.075.157.157 0 0 1 .09-.033l6.93-.317a.129.129 0 0 1 .066.012.241.241 0 0 1 .057.039l.88.866a.181.181 0 0 1 .045.072l.006.045a.183.183 0 0 1 .009.046zm-5.792 3.822a.164.164 0 0 1-.06.075.159.159 0 0 1-.09.027 1.306 1.306 0 0 0-.752.249 1.268 1.268 0 0 0-.458.647l-1.123 3.657a.2.2 0 0 1-.045.066.18.18 0 0 1-.075.039.184.184 0 0 1-.081 0 .148.148 0 0 1-.072-.042l-.883-.863a.145.145 0 0 1-.042-.054.2.2 0 0 1-.012-.072l.168-6.936a.2.2 0 0 1 .03-.09.157.157 0 0 1 .078-.06.2.2 0 0 1 .093-.006.167.167 0 0 1 .087.048l3.2 3.13a.218.218 0 0 1 .048.09v.036a.213.213 0 0 1-.011.058z" transform="translate(-238.35 -75.123)"/>
                <path id="Vector" class="cls-5" d="m252 87.4 12.423-1.444a.518.518 0 0 1 .225.03.526.526 0 0 1 .192.117l1.387 1.357a.505.505 0 0 1 .147.434.5.5 0 0 1-.267.371l-9.066 3.318a1.3 1.3 0 0 0-.629.695 1.33 1.33 0 0 0 0 .943l.135.35c-.237.114-1.956.234-2.093.006l-4.193-7.113.611.563a1.4 1.4 0 0 0 .527.308 1.364 1.364 0 0 0 .601.065z" transform="translate(-243.349 -82.025)"/>
                <path id="Vector-2" class="cls-5" d="m250.569 88.653-1.169 12.453a.479.479 0 0 0 .033.225.525.525 0 0 0 .117.186l1.387 1.354a.49.49 0 0 0 .2.123.515.515 0 0 0 .234.018.494.494 0 0 0 .365-.276l3.127-9.135a1.282 1.282 0 0 1 .677-.644 1.331 1.331 0 0 1 .943-.024l.353.129c.111-.237.195-1.959-.039-2.091l-7.2-4.037.575.6a1.412 1.412 0 0 1 .4 1.12z" transform="translate(-245.068 -80.064)"/>
                <path id="Vector-3" class="cls-5" d="M267.831 104.146a1.419 1.419 0 0 1-.9.431 1.22 1.22 0 0 1-.9-.276l-16.8-13.947a4.685 4.685 0 0 1-1-4.8l.584-.6a4.683 4.683 0 0 1 4.822.892l14.31 16.5a1.22 1.22 0 0 1 .3.9 1.438 1.438 0 0 1-.416.9z" transform="translate(-247.951 -84.64)"/>
                <path id="Vector-4" class="cls-3" d="M248.89 88.116a2.021 2.021 0 0 1-.237-2.255 1.151 1.151 0 0 1 .488-.5 2.023 2.023 0 0 1 2.261.186z" transform="translate(-247.004 -83.699)"/>
                <circle id="Ellipse_69" data-name="Ellipse 69" class="cls-4" cx="1.351" cy="1.351" transform="translate(.909 8.479)" r="1.351"/>
                <circle id="Ellipse_70" data-name="Ellipse 70" cx="1.351" cy="1.351" transform="translate(8.466 .755)" style="fill:#e40a48" r="1.351"/>
            </g>
        </g>
        <circle id="Ellipse_24" data-name="Ellipse 24" cx="10.8" cy="10.8" r="10.8" transform="translate(216.4 194.6)" style="fill:#e3d5ff"/>
        <path id="Vector_65" data-name="Vector 65" d="m0 2.2 3.217 3.455L8.482 0" transform="translate(223.078 202.641)" style="stroke:#6d39ff;stroke-linecap:round;stroke-linejoin:round;stroke-width:2px;fill:none"/>
    </g>
</svg>
