<svg xmlns="http://www.w3.org/2000/svg" width="40" height="40" viewBox="0 0 40 40"><defs><style>.a{fill:#fff;stroke:#707070;opacity:0;}.b{fill:#e83667;}.c{fill:#63a1ff;}.d{fill:#18225c;}.e{fill:#85b5ff;}.f,.h{fill:none;}.f{stroke:#cacaca;stroke-linecap:round;stroke-width:2px;}.g{stroke:none;}</style></defs><g class="a"><rect class="g" width="40" height="40"/><rect class="h" x="0.5" y="0.5" width="39" height="39"/></g><g transform="translate(-171 -603)"><rect class="b" width="6" height="6" rx="3" transform="translate(188 632)"/><path class="c" d="M-8521,23a1,1,0,0,1-1-1V21a3,3,0,0,1,2-2.83V11a11,11,0,0,1,11-11,11,11,0,0,1,11,11v7.171a3,3,0,0,1,2,2.83v1a1,1,0,0,1-1,1Z" transform="translate(8700 612)"/><rect class="d" width="6" height="6" rx="3" transform="translate(188 608)"/><path class="e" d="M0,0H8A1,1,0,0,1,9,1V1A1,1,0,0,1,8,2H0A0,0,0,0,1,0,2V0A0,0,0,0,1,0,0Z" transform="translate(180 628)"/><path class="f" d="M8700.762,611.7a10.03,10.03,0,0,0-3.726,6.863" transform="translate(-8522 0.8)"/><path class="f" d="M8697.035,611.7a10.03,10.03,0,0,1,3.726,6.863" transform="translate(-8494.999 0.8)"/></g></svg>