<svg xmlns="http://www.w3.org/2000/svg" xmlns:xlink="http://www.w3.org/1999/xlink" width="20" height="11" viewBox="0 0 20 11"><defs><style>.a{fill:#919191;}.b{fill:#fff;}.c{clip-path:url(#a);}.d{fill:#f8f8f8;}</style><clipPath id="a"><rect class="a" width="20" height="11" transform="translate(5614 3517)"/></clipPath></defs><rect class="b" width="20" height="11"/><g class="c" transform="translate(-5614 -3517)"><path class="d" d="M3649-526h-8a5.962,5.962,0,0,0-1.759-4.241A5.959,5.959,0,0,0,3635-532a6.007,6.007,0,0,0-6,6h-8a5.961,5.961,0,0,0-1.76-4.241A5.959,5.959,0,0,0,3615-532a6.007,6.007,0,0,0-6,6h-8a5.962,5.962,0,0,0-1.759-4.241A5.959,5.959,0,0,0,3595-532a6.007,6.007,0,0,0-6,6h-8a5.961,5.961,0,0,0-1.76-4.241A5.959,5.959,0,0,0,3575-532a6.007,6.007,0,0,0-6,6h-8a5.962,5.962,0,0,0-1.759-4.241A5.959,5.959,0,0,0,3555-532a6.007,6.007,0,0,0-6,6h-8a5.961,5.961,0,0,0-1.76-4.241A5.959,5.959,0,0,0,3535-532a6.007,6.007,0,0,0-6,6h-8a5.962,5.962,0,0,0-1.76-4.241A5.961,5.961,0,0,0,3515-532a6.006,6.006,0,0,0-6,6h-8a5.961,5.961,0,0,0-1.76-4.241A5.959,5.959,0,0,0,3495-532a6.007,6.007,0,0,0-6,6h-8a5.962,5.962,0,0,0-1.759-4.241A5.959,5.959,0,0,0,3475-532a6.007,6.007,0,0,0-6,6h-8a5.962,5.962,0,0,0-1.759-4.241A5.959,5.959,0,0,0,3455-532a6.007,6.007,0,0,0-6,6h-8a5.962,5.962,0,0,0-1.759-4.241A5.959,5.959,0,0,0,3435-532a6.007,6.007,0,0,0-6,6h-8a5.961,5.961,0,0,0-1.76-4.241A5.959,5.959,0,0,0,3415-532a6.007,6.007,0,0,0-6,6h-8a5.962,5.962,0,0,0-1.76-4.241A5.959,5.959,0,0,0,3395-532a6.007,6.007,0,0,0-6,6h-20a11.922,11.922,0,0,1-8.485-3.515A11.922,11.922,0,0,1,3357-538V-924a11.922,11.922,0,0,1,3.515-8.485A11.922,11.922,0,0,1,3369-936h311a11.921,11.921,0,0,1,8.485,3.515A11.922,11.922,0,0,1,3692-924v386a11.922,11.922,0,0,1-3.515,8.485A11.921,11.921,0,0,1,3680-526h-19a5.962,5.962,0,0,0-1.76-4.241A5.958,5.958,0,0,0,3655-532a6.007,6.007,0,0,0-6,6Z" transform="translate(2225.5 4054.001)"/></g></svg>