<svg id="ic_x18_coupon" xmlns="http://www.w3.org/2000/svg" width="18" height="18" viewBox="0 0 18 18">
    <defs>
        <style>
            .cls-3{fill:none;stroke:gray;stroke-linecap:round;stroke-width:2px}
        </style>
    </defs>
    <g id="Subtraction_1" data-name="Subtraction 1" style="stroke-linejoin:round;fill:none">
        <path d="M7968 13465h-14a2 2 0 0 1-2-2v-3.5a1.5 1.5 0 1 0 0-3v-3.5a2 2 0 0 1 2-2h14a2 2 0 0 1 2 2v3.5a1.5 1.5 0 1 0 0 3v3.5a2 2 0 0 1-2 2z" style="stroke:none" transform="translate(-7952 -13449)"/>
        <path d="m7967.998 13463 .001-.001v-2.129a3.497 3.497 0 0 1-1.5-2.869c0-1.187.594-2.237 1.5-2.87l.001-2.129-.001-.002-13.995-.001-.003.003v2.128a3.494 3.494 0 0 1 0 5.74l-.001 2.127.002.003h13.996m.003 2h-14c-1.103 0-2-.897-2-2.001v-3.501a1.5 1.5 0 0 0 1.5-1.497c0-.827-.673-1.5-1.5-1.5V13453c0-1.103.897-2 2-2h14c1.102 0 1.998.897 1.998 2v3.501c-.829.001-1.5.674-1.5 1.5a1.5 1.5 0 0 0 1.5 1.497v3.501a2.001 2.001 0 0 1-1.998 2.001z" style="fill:gray;stroke:none" transform="translate(-7952 -13449)"/>
    </g>
    <g id="Group_15345" data-name="Group 15345">
        <g id="Group_15346" data-name="Group 15346" transform="translate(0 -.5)">
            <path id="Path_3276" data-name="Path 3276" class="cls-3" d="M10.505 3v.5" transform="translate(-3.505 .5)"/>
            <path id="Path_3277" data-name="Path 3277" class="cls-3" d="M10.505 3v1" transform="translate(-3.505 4)"/>
            <path id="Path_3278" data-name="Path 3278" class="cls-3" d="M10.505 3v1" transform="translate(-3.505 8)"/>
            <path id="Path_3279" data-name="Path 3279" class="cls-3" d="M10.505 3v.5" transform="translate(-3.505 12)"/>
        </g>
    </g>
</svg>
