<svg id="ic_x16_loadmore" xmlns="http://www.w3.org/2000/svg" width="16" height="16">
    <defs>
        <style>
            .cls-3{fill:#fff}
        </style>
    </defs>
    <circle id="Ellipse_84" data-name="Ellipse 84" cx="8" cy="8" r="8" style="fill:#aeaeae"/>
    <path id="Path_2616" data-name="Path 2616" class="cls-3" d="M1 2a.917.917 0 0 1 1 .8v6.4a.917.917 0 0 1-1 .8.917.917 0 0 1-1-.8V2.8A.917.917 0 0 1 1 2z" transform="translate(7 2)"/>
    <path id="Path_2615" data-name="Path 2615" class="cls-3" d="M1 0a.917.917 0 0 1 1 .8v6.4A.917.917 0 0 1 1 8a.917.917 0 0 1-1-.8V.8A.917.917 0 0 1 1 0z" transform="rotate(-90 6.5 2.5)"/>
</svg>
