<svg id="ic_x18_delete" xmlns="http://www.w3.org/2000/svg" width="18" height="18" viewBox="0 0 18 18">
    <defs>
        <style>
            .cls-2{fill:#404040}
        </style>
    </defs>
    <path id="container" style="fill:none" d="M0 0h18v18H0z"/>
    <path id="Line_142" data-name="Line 142" class="cls-2" d="M0 3.746A.75.75 0 0 1-.75 3V0A.75.75 0 0 1 0-.75.75.75 0 0 1 .75 0v3a.75.75 0 0 1-.75.746z" transform="translate(7.551 9.594)"/>
    <path id="Line_143" data-name="Line 143" class="cls-2" d="M0 3.746A.75.75 0 0 1-.75 3V0A.75.75 0 0 1 0-.75.75.75 0 0 1 .75 0v3a.75.75 0 0 1-.75.746z" transform="translate(10.547 9.594)"/>
    <path id="Path_3264" data-name="Path 3264" class="cls-2" d="M12.236 16.009H3.249a1.622 1.622 0 0 1-1.749-1.5V6.983a.75.75 0 0 1 1.5 0v7.462a.454.454 0 0 0 .249.064h8.987a.454.454 0 0 0 .249-.064V6.983a.75.75 0 0 1 1.5 0v7.524a1.622 1.622 0 0 1-1.749 1.502z" transform="translate(1.248 .991)"/>
    <path id="Path_3265" data-name="Path 3265" class="cls-2" d="M4.749 0h5.991a1.751 1.751 0 0 1 1.749 1.749v3.246H3V1.749A1.751 1.751 0 0 1 4.749 0zm6.24 3.495V1.749a.249.249 0 0 0-.249-.249H4.749a.249.249 0 0 0-.249.249v1.746z" transform="translate(1.246 1)"/>
    <path id="Line_144" data-name="Line 144" class="cls-2" d="M13.98.75H0A.75.75 0 0 1-.75 0 .75.75 0 0 1 0-.75h13.98a.75.75 0 0 1 .75.75.75.75 0 0 1-.75.75z" transform="translate(2 5.266)"/>
</svg>
