<svg id="ic_x24_setting" xmlns="http://www.w3.org/2000/svg" width="24" height="24">
    <defs>
        <clipPath id="clip-path">
            <path id="area_22" style="fill:#e6230a" d="M0 0h24v24H0z"/>
        </clipPath>
        <style>
            .cls-3{fill:none}.cls-6{stroke:none}
        </style>
    </defs>
    <g id="Mask_Group_1" data-name="Mask Group 1" style="clip-path:url(#clip-path)">
        <path id="area_22-2" data-name="area_22" class="cls-3" d="M0 0h24v24H0z"/>
        <g id="Group_802" data-name="Group 802" transform="translate(-.077 -.152)">
            <g id="Union_1" data-name="Union 1" style="stroke-linejoin:round;fill:#fff">
                <path class="cls-6" d="M-286.423-35h-3c-.552 0-1-.449-1-1v-1.344l-.62-.255a7.991 7.991 0 0 1-1.814-1.043l-.53-.406-.578.334-.599.346a.983.983 0 0 1-.497.134c-.358 0-.69-.192-.869-.5l-1.499-2.598a.994.994 0 0 1-.1-.76.994.994 0 0 1 .466-.607l.626-.36.571-.33-.078-.655a8.116 8.116 0 0 1 .014-2.022l.088-.663-.579-.334-.584-.338a1.001 1.001 0 0 1-.367-1.367l1.5-2.597a1.005 1.005 0 0 1 1.367-.367l.64.37.57.33.527-.393a7.991 7.991 0 0 1 1.725-.976l.62-.255V-54c0-.551.448-1 1-1h3a1 1 0 0 1 1 1v1.395l.602.261a8 8 0 0 1 1.619.941l.528.397.572-.33.627-.363a1.006 1.006 0 0 1 1.366.367l1.5 2.598c.276.477.111 1.09-.366 1.366l-.598.345-.577.333.084.66a8.12 8.12 0 0 1 .014 1.949l-.075.652.569.328.64.37c.478.275.642.888.367 1.366l-1.5 2.598a1.005 1.005 0 0 1-1.367.366l-.584-.338-.581-.336-.531.41a8 8 0 0 1-1.707 1.009l-.602.26V-36a1 1 0 0 1-1 1z" transform="rotate(-180 -137.978 -16.496)"/>
                <path d="M-286.423-36v-.739a2 2 0 0 1 1.204-1.835 7 7 0 0 0 1.494-.882 2 2 0 0 1 2.223-.149l.585.338 1.5-2.598-.641-.37a2 2 0 0 1-.988-1.96 7.125 7.125 0 0 0-.011-1.707 2 2 0 0 1 .984-1.987l.598-.345-1.5-2.599-.626.362a2 2 0 0 1-2.202-.132 7 7 0 0 0-1.416-.823 2 2 0 0 1-1.204-1.835V-54h-3v.674a2 2 0 0 1-1.24 1.85 6.99 6.99 0 0 0-1.508.854 2 2 0 0 1-2.194.126l-.641-.37-1.499 2.599.585.338a2 2 0 0 1 .982 1.995 7.115 7.115 0 0 0-.013 1.772 2 2 0 0 1-.986 1.968l-.626.362 1.499 2.598.599-.346a2 2 0 0 1 2.216.143 6.99 6.99 0 0 0 1.587.913 2 2 0 0 1 1.238 1.85l.001.674h3m0 2h-3a2 2 0 0 1-2-2v-.674a8.989 8.989 0 0 1-2.042-1.174l-.598.346a2 2 0 0 1-2.733-.732l-1.5-2.598a2 2 0 0 1 .733-2.732l.626-.362a9.085 9.085 0 0 1 .016-2.271l-.585-.338a2 2 0 0 1-.732-2.733l1.5-2.597a2.001 2.001 0 0 1 2.732-.733l.641.37a8.984 8.984 0 0 1 1.941-1.098V-54a2 2 0 0 1 2.001-2h3a2 2 0 0 1 2 2v.739c.65.282 1.26.638 1.82 1.059l.628-.362a2.001 2.001 0 0 1 2.732.732l1.5 2.597c.552.957.224 2.18-.732 2.733l-.599.345a9.084 9.084 0 0 1 .015 2.19l.641.37a2.001 2.001 0 0 1 .733 2.732l-1.5 2.598a2 2 0 0 1-2.733.732l-.585-.338a8.993 8.993 0 0 1-1.92 1.134V-36a2 2 0 0 1-2 2z" style="fill:#202020;stroke:none" transform="rotate(-180 -137.978 -16.496)"/>
            </g>
            <g id="Ellipse_23" data-name="Ellipse 23" transform="translate(7 7)" style="stroke:#202020;stroke-width:2px;fill:#fff">
                <circle class="cls-6" cx="5" cy="5" r="5"/>
                <circle class="cls-3" cx="5" cy="5" r="4"/>
            </g>
        </g>
    </g>
</svg>
