<svg xmlns="http://www.w3.org/2000/svg" width="40" height="40" viewBox="0 0 40 40">
    <defs>
        <style>
            .cls-3{fill:#63a1ff}
        </style>
    </defs>
    <g id="ic_x48_agreement" transform="translate(-1009 -424)">
        <circle id="타원_127" data-name="타원 127" cx="20" cy="20" r="20" transform="translate(1009 424)" style="fill:#fff"/>
        <g id="ic_x24_agree" transform="translate(721 277)">
            <path id="패스_21310" data-name="패스 21310" class="cls-3" d="M15 18H3a3 3 0 0 1-3-3V3a3 3 0 0 1 3-3h12a3 3 0 0 1 3 3v12a3 3 0 0 1-3 3M3 2a1 1 0 0 0-1 1v12a1 1 0 0 0 1 1h12a1 1 0 0 0 1-1V3a1 1 0 0 0-1-1z" transform="translate(299 158)"/>
            <path id="패스_3148" data-name="패스 3148" class="cls-3" d="M8.533 15.367a1 1 0 0 1-.706-.289L5.886 13.16a.978.978 0 0 1 0-1.395 1.007 1.007 0 0 1 1.412 0l1.235 1.22 2.157-2.13a1.007 1.007 0 0 1 1.412 0 .978.978 0 0 1 0 1.395l-2.863 2.828a1 1 0 0 1-.706.289z" transform="translate(299.406 154.433)"/>
        </g>
    </g>
</svg>
