<svg xmlns="http://www.w3.org/2000/svg" width="335" height="48">
    <defs>
        <clipPath id="clip-path">
            <rect id="bg" class="cls-1" width="335" height="48" rx="8" transform="translate(20 763)"/>
        </clipPath>
        <style>
            .cls-1{fill:#d29a81}
        </style>
    </defs>
    <g id="Group_5499" data-name="Group 5499" transform="translate(-20 -763)">
        <rect id="bg-2" data-name="bg" width="335" height="48" rx="8" transform="translate(20 763)" style="fill:#9a6b56"/>
        <g id="Mask_Group_12" data-name="Mask Group 12" style="clip-path:url(#clip-path)">
            <path id="Path_2620" data-name="Path 2620" class="cls-1" d="M580.588 655.793s2.637 5.229 14.366-4.293 4.018-22.667-6.978-16.078-10.942 18.152-8.726 18.75.982-3.907 5.76-6.573 8.885-7.452 8.319-9.837c0 0 2.245 4.3-4.245 9.652s-7.82 6.345-8.496 8.379z" transform="translate(-251.196 120.565)"/>
            <path id="Path_2621" data-name="Path 2621" class="cls-1" d="M603.1 689.678s1.948 1.932 5.745-4.036-1.577-10.665-5.484-6.108-2.168 9.685-1.095 9.622-.144-1.881 1.583-3.773 2.842-4.627 2.237-5.6c0 0 1.635 1.578-.454 4.916s-2.532 3.976-2.532 4.979z" transform="translate(-260.516 100.084)"/>
            <path id="Path_2622" data-name="Path 2622" class="cls-1" d="M561.246 771.688s2.074-2.847-6.243-6.506-13.232 4.078-6.685 8.15 12.718.866 12.428-.483-2.359.549-5.1-1.275-6.428-2.707-7.549-1.748c0 0 1.684-2.383 6.331-.381s5.545 2.44 6.818 2.243z" transform="translate(-270.648 36.893)"/>
            <path id="Path_2623" data-name="Path 2623" class="cls-1" d="M547.941 680.645a4.1 4.1 0 0 1-2.644 5.211c-3.938 1.638-13.1 1.161-13.37-6.972s15.754-6.549 15.627-2.667-2.2 2.577-4.491 2.325-6.373.5-6.4 1.381 8.531-1.664 11.278.722z" transform="translate(-234.503 88.238)"/>
            <path id="Path_2624" data-name="Path 2624" class="cls-1" d="M625.978 801.916a4.962 4.962 0 0 1 5.438-4.511c5.151.076 15.077 5 11.459 14.151s-20.606-.3-18.6-4.545 3.682-1.8 6.095-.423 7.3 2.507 7.76 1.543-10.255-2.251-12.152-6.215z" transform="translate(-285.861 -1.672)"/>
            <path id="Path_2625" data-name="Path 2625" class="cls-1" d="M497 744.486s-2.61-1.453-4.839 5.925 4.793 10.723 7.551 4.792-.575-10.8-1.683-10.415.7 1.93-.55 4.425-1.62 5.69-.7 6.535c0 0-2.179-1.173-.97-5.291s1.491-4.918 1.191-5.971z" transform="translate(-173.899 42.63)"/>
            <path id="Path_2626" data-name="Path 2626" class="cls-1" d="M499.322 744.537s-3.76-2.093-6.97 8.535 6.9 15.446 10.877 6.9-.829-15.553-2.424-15 1.015 2.781-.793 6.374-2.333 8.2-1.005 9.414c0 0-3.138-1.689-1.4-7.622s2.142-7.085 1.715-8.601z" transform="rotate(-30 333.89 1597.176)"/>
            <path id="Path_2628" data-name="Path 2628" class="cls-1" d="M135.707 747.576a3.31 3.31 0 0 1 4.591 1.09c2.03 2.783 3.388 10.069-2.947 11.814s-8.12-11.13-5.049-11.765 2.44 1.243 2.675 3.087 1.6 4.91 2.295 4.766-2.92-6.384-1.565-8.992z" transform="translate(-112.328 38.035)"/>
            <path id="Path_2629" data-name="Path 2629" class="cls-1" d="M108.894 641.715s-2.474-4.531-12.536 4.2S93.47 666 102.97 659.879s9.12-16.311 7.149-16.773-.752 3.472-4.886 5.959-7.615 6.822-7.048 8.908c0 0-2.1-3.725 3.464-8.628s6.708-5.818 7.245-7.63z" transform="translate(-63.405 116.384)"/>
            <path id="Path_2630" data-name="Path 2630" class="cls-1" d="M77.713 781.933s-2.309-2.146-6.445 4.848 2.211 12.186 6.527 6.808 2.126-11.2.9-11.088.236 2.154-1.676 4.392-3.089 5.419-2.357 6.516c0 0-1.936-1.75.337-5.662s2.753-4.664 2.714-5.814z" transform="translate(-30.954 17.923)"/>
            <path id="Path_2631" data-name="Path 2631" class="cls-1" d="M101.319 698.706s-1.889 2.78 6.158 6.011 12.492-4.3 6.121-7.982-12.156-.43-11.837.848 2.233-.6 4.9 1.056 6.215 2.381 7.254 1.433c0 0-1.532 2.325-6.026.561s-5.361-2.155-6.57-1.927z" transform="translate(-24.974 67.193)"/>
        </g>
    </g>
</svg>
