<svg xmlns="http://www.w3.org/2000/svg" width="32" height="32">
    <defs>
        <style>
            .cls-2{fill:#6531ce}.cls-3{fill:#260b5b}
        </style>
    </defs>
    <g id="ic_x32_cafepass_tumbler">
        <g id="Group_5527" data-name="Group 5527" transform="translate(7 1.557)">
            <path id="Union_77" data-name="Union 77" class="cls-2" d="M4.7 11.476V3.3H1.652a1.652 1.652 0 0 1 0-3.3H6.26a1.565 1.565 0 0 1 1.565 1.565v9.911a1.565 1.565 0 0 1-3.129 0z" transform="translate(14.623 10.712)"/>
            <path id="Path_2712" data-name="Path 2712" class="cls-2" d="M-.029 0h4.855A.971.971 0 0 1 5.8.971v.971a.971.971 0 0 1-.971.971H-.029A.971.971 0 0 1-1 1.942V.971A.971.971 0 0 1-.029 0z" transform="translate(2.942)"/>
            <path id="Path_2715" data-name="Path 2715" class="cls-3" d="M-.188 0h15.26a.759.759 0 0 1 .812.691l-.812 9.362a.759.759 0 0 1-.812.691H.623a.759.759 0 0 1-.812-.691L-1 .691A.759.759 0 0 1-.188 0z" transform="translate(1.464 9.775)"/>
            <path id="Path_2716" data-name="Path 2716" d="M2.581.057S1.3-.655.211 2.96s2.349 5.254 3.7 2.348S3.628.018 3.086.205s.345.946-.27 2.168-.793 2.788-.342 3.2c0 0-1.067-.574-.475-2.592S2.727.573 2.581.057z" transform="rotate(-30 27.507 -3.311)" style="fill:#fff"/>
            <path id="Path_2717" data-name="Path 2717" class="cls-2" d="M-1 0h16.406l-.263 4.4H-.725z" transform="translate(1.703 3.536)"/>
            <path id="Path_2718" data-name="Path 2718" class="cls-2" d="m14.248 17.935-.412 7.209a.774.774 0 0 1-.785.762H1.355a.774.774 0 0 1-.785-.762l-.427-7.209z" transform="translate(1.703 4.536)"/>
            <path id="Path_2719" data-name="Path 2719" class="cls-3" d="M-.029-1H15.84a.923.923 0 0 1 .971.867v2.6H-1v-2.6A.923.923 0 0 1-.029-1z" transform="translate(1 1.942)"/>
        </g>
        <circle id="Ellipse_70" data-name="Ellipse 70" cx="2" cy="2" r="2" transform="rotate(90 2 2)" style="fill:#e83667"/>
    </g>
</svg>
