<svg xmlns="http://www.w3.org/2000/svg" width="50" height="50" viewBox="0 0 50 50">
    <defs>
        <style>
            .cls-2{fill:#aeaeae}.cls-3{fill:#cacaca}
        </style>
    </defs>
    <g id="ic_x50_cafe" transform="translate(-503 -1369)">
        <g id="그룹_16609" data-name="그룹 16609" transform="translate(0 -2.643)">
            <path id="사각형_12043" data-name="사각형 12043" class="cls-2" d="M1.4 0h47.2A1.4 1.4 0 0 1 50 1.4 5.6 5.6 0 0 1 44.4 7H5.6A5.6 5.6 0 0 1 0 1.4 1.4 1.4 0 0 1 1.4 0z" transform="translate(503 1412)"/>
            <path id="패스_21430" data-name="패스 21430" class="cls-3" d="M42 24z" transform="translate(507 1387.643)"/>
            <path id="패스_21428" data-name="패스 21428" class="cls-2" d="M3621 1381.579s-7.575-1.99-5.482-7.864c.754-2.115.833-2.216 1.6-2.154 1.3.241.926 2.733 3.877 2.154 4.612-.9 5.413 1.81 7.084 4.873s-1.958 4.225-1.958 4.225z" transform="translate(-3099 6.473)"/>
            <path id="패스_21429" data-name="패스 21429" d="M3631.5 1373.212a7.141 7.141 0 0 1 3.7-6.569" transform="translate(-3099 7)" style="fill:none;stroke:#aeaeae;stroke-linecap:round;stroke-width:2px"/>
            <circle id="타원_1789" data-name="타원 1789" class="cls-3" cx="5.5" cy="5.5" r="5.5" transform="translate(526 1378)"/>
            <path id="패스_21426" data-name="패스 21426" class="cls-3" d="M6 2h28a3 3 0 0 1 3 3l4 21H-1L3 5a3 3 0 0 1 3-3z" transform="translate(508 1386)"/>
            <path id="패스_21427" data-name="패스 21427" d="M5.421 2H34.18A3.909 3.909 0 0 1 38 5s1.316 5.242 0 5.594-.7-3.043-2.675-3.163a6.292 6.292 0 0 0-4.763 1.192c-1.973 1.247-2.891 4.9-5.448 5s-3.472-5.149-6.679-5-1.556 10.46-6.355 10.515c-3.5-.011-3.309-8.581-4.983-10.031s-4.024 1.572-5.254.505.335-4.774.335-4.774C3.119 3.056 4.223 2.014 5.421 2z" transform="translate(508 1386)" style="fill:#eaeaea"/>
        </g>
    </g>
</svg>
