<svg xmlns="http://www.w3.org/2000/svg" width="38" height="38" viewBox="0 0 38 38">
  <defs>
    <style>
      .cls-1 {
        fill: red;
        opacity: 0;
      }

      .cls-2 {
        fill: #606060;
      }

      .cls-3 {
        fill: #cacaca;
      }

      .cls-4 {
        fill: #aeaeae;
      }

      .cls-5 {
        fill: #fff;
      }

      .cls-6 {
        fill: gray;
      }
    </style>
  </defs>
  <g id="icon" transform="translate(-13 -14)">
    <rect id="_38_38" data-name="38*38" class="cls-1" width="38" height="38" transform="translate(13 14)"/>
    <g id="ic_x38_pro" transform="translate(17 14)">
      <path id="패스_18283" data-name="패스 18283" class="cls-2" d="M5.621,19.763V37.406c0,1.216,1.643,1.977,2.956,1.368l1.973-.914,3.936-1.822a2.421,2.421,0,0,1,1.989,0l3.935,1.822,1.971.913c1.315.609,2.959-.152,2.959-1.37V19.763Z" transform="translate(-0.281 -0.988)"/>
      <path id="패스_18284" data-name="패스 18284" class="cls-3" d="M30.4,15.2A15.2,15.2,0,1,1,15.2,0,15.2,15.2,0,0,1,30.4,15.2"/>
      <path id="패스_18285" data-name="패스 18285" class="cls-4" d="M15.371,2.254a13.117,13.117,0,0,1,9.276,22.393A13.117,13.117,0,0,1,6.1,6.1,13.03,13.03,0,0,1,15.371,2.254Zm0,24.218a11.1,11.1,0,1,0-11.1-11.1A11.113,11.113,0,0,0,15.371,26.472Z" transform="translate(-0.171 -0.171)"/>
      <path id="패스_18286" data-name="패스 18286" class="cls-5" d="M18.48,11.411l2.371.493a.906.906,0,0,1,.675,1.174l-.769,2.3a.91.91,0,0,0,0,.571l.758,2.3a.906.906,0,0,1-.679,1.171l-2.373.483a.9.9,0,0,0-.495.285l-1.613,1.806a.905.905,0,0,1-1.354,0l-1.606-1.814a.9.9,0,0,0-.493-.286L10.53,19.4a.906.906,0,0,1-.675-1.174l.768-2.3a.9.9,0,0,0,0-.571l-.758-2.3a.905.905,0,0,1,.679-1.171l2.373-.484a.909.909,0,0,0,.495-.284l1.613-1.807a.906.906,0,0,1,1.354,0l1.6,1.814a.907.907,0,0,0,.494.287" transform="translate(-0.49 -0.45)"/>
      <path id="패스_18287" data-name="패스 18287" class="cls-6" d="M16.5,14.5a2,2,0,1,1-2,2,2,2,0,0,1,2-2" transform="translate(-1.3 -1.3)"/>
    </g>
  </g>
</svg>
