<svg xmlns="http://www.w3.org/2000/svg" width="40" height="18" viewBox="0 0 40 18"><defs><style>.a{fill:#f9f6fe;}.b{fill:#6531ce;}</style></defs><rect class="a" width="40" height="18" rx="6"/><path class="b" d="M2.784-6.6H.38V-7.779h6.2V-6.6h-2.4V0H2.784ZM14.062-3.89A4.626,4.626,0,0,1,13.6-1.757,3.315,3.315,0,0,1,12.324-.372a3.537,3.537,0,0,1-1.833.479,3.534,3.534,0,0,1-1.836-.48A3.317,3.317,0,0,1,7.382-1.759,4.63,4.63,0,0,1,6.921-3.89a4.655,4.655,0,0,1,.46-2.135A3.293,3.293,0,0,1,8.651-7.407a3.552,3.552,0,0,1,1.84-.479,3.537,3.537,0,0,1,1.833.479A3.315,3.315,0,0,1,13.6-6.022,4.626,4.626,0,0,1,14.062-3.89Zm-1.409,0a3.679,3.679,0,0,0-.272-1.487,2.066,2.066,0,0,0-.762-.934,2.03,2.03,0,0,0-1.128-.317,2.027,2.027,0,0,0-1.13.317,2.083,2.083,0,0,0-.762.934A3.657,3.657,0,0,0,8.326-3.89,3.657,3.657,0,0,0,8.6-2.4a2.083,2.083,0,0,0,.762.934,2.027,2.027,0,0,0,1.13.317,2.03,2.03,0,0,0,1.128-.317,2.066,2.066,0,0,0,.762-.934A3.679,3.679,0,0,0,12.653-3.89ZM18-7.779a3.135,3.135,0,0,1,1.491.329,2.224,2.224,0,0,1,.934.912A2.749,2.749,0,0,1,20.74-5.2a2.733,2.733,0,0,1-.319,1.337,2.22,2.22,0,0,1-.942.908,3.194,3.194,0,0,1-1.5.327h-1.5V0H15.088V-7.779Zm-.205,4a1.813,1.813,0,0,0,.849-.179,1.156,1.156,0,0,0,.505-.5,1.6,1.6,0,0,0,.165-.744,1.381,1.381,0,0,0-.382-1.027,1.565,1.565,0,0,0-1.145-.378h-1.3v2.826Zm9,3.89a3.667,3.667,0,0,1-1.47-.281A2.445,2.445,0,0,1,24.3-.959a1.99,1.99,0,0,1-.391-1.153h1.413a.906.906,0,0,0,.211.545,1.259,1.259,0,0,0,.524.367,1.983,1.983,0,0,0,.731.129,1.891,1.891,0,0,0,.762-.146,1.225,1.225,0,0,0,.524-.41,1.012,1.012,0,0,0,.188-.6,1.029,1.029,0,0,0-.19-.625,1.27,1.27,0,0,0-.56-.425,2.223,2.223,0,0,0-.864-.154h-.691V-4.512h.691a1.772,1.772,0,0,0,.729-.142,1.16,1.16,0,0,0,.5-.4,1.026,1.026,0,0,0,.179-.594,1.065,1.065,0,0,0-.154-.572,1.022,1.022,0,0,0-.437-.386,1.489,1.489,0,0,0-.655-.137,1.764,1.764,0,0,0-.684.131,1.242,1.242,0,0,0-.507.372.925.925,0,0,0-.2.556H24.075a1.972,1.972,0,0,1,.38-1.14,2.414,2.414,0,0,1,.984-.781,3.317,3.317,0,0,1,1.379-.279,3.072,3.072,0,0,1,1.358.287,2.21,2.21,0,0,1,.912.779A1.926,1.926,0,0,1,29.4-5.732a1.676,1.676,0,0,1-.173.782,1.572,1.572,0,0,1-.5.579,2,2,0,0,1-.752.321v.061a2.265,2.265,0,0,1,.931.319,1.643,1.643,0,0,1,.589.634,1.843,1.843,0,0,1,.2.877A1.913,1.913,0,0,1,29.326-1a2.483,2.483,0,0,1-1.037.809A3.665,3.665,0,0,1,26.795.106Z" transform="translate(6 13)"/></svg>