<svg xmlns="http://www.w3.org/2000/svg" width="40" height="18" viewBox="0 0 40 18"><defs><style>.a{fill:#f9f6fe;}.b{fill:#6531ce;}</style></defs><rect class="a" width="40" height="18" rx="6"/><path class="b" d="M2.784-6.6H.38V-7.779h6.2V-6.6h-2.4V0H2.784ZM14.062-3.89A4.626,4.626,0,0,1,13.6-1.757,3.315,3.315,0,0,1,12.324-.372a3.537,3.537,0,0,1-1.833.479,3.534,3.534,0,0,1-1.836-.48A3.317,3.317,0,0,1,7.382-1.759,4.63,4.63,0,0,1,6.921-3.89a4.655,4.655,0,0,1,.46-2.135A3.293,3.293,0,0,1,8.651-7.407a3.552,3.552,0,0,1,1.84-.479,3.537,3.537,0,0,1,1.833.479A3.315,3.315,0,0,1,13.6-6.022,4.626,4.626,0,0,1,14.062-3.89Zm-1.409,0a3.679,3.679,0,0,0-.272-1.487,2.066,2.066,0,0,0-.762-.934,2.03,2.03,0,0,0-1.128-.317,2.027,2.027,0,0,0-1.13.317,2.083,2.083,0,0,0-.762.934A3.657,3.657,0,0,0,8.326-3.89,3.657,3.657,0,0,0,8.6-2.4a2.083,2.083,0,0,0,.762.934,2.027,2.027,0,0,0,1.13.317,2.03,2.03,0,0,0,1.128-.317,2.066,2.066,0,0,0,.762-.934A3.679,3.679,0,0,0,12.653-3.89ZM18-7.779a3.135,3.135,0,0,1,1.491.329,2.224,2.224,0,0,1,.934.912A2.749,2.749,0,0,1,20.74-5.2a2.733,2.733,0,0,1-.319,1.337,2.22,2.22,0,0,1-.942.908,3.194,3.194,0,0,1-1.5.327h-1.5V0H15.088V-7.779Zm-.205,4a1.813,1.813,0,0,0,.849-.179,1.156,1.156,0,0,0,.505-.5,1.6,1.6,0,0,0,.165-.744,1.381,1.381,0,0,0-.382-1.027,1.565,1.565,0,0,0-1.145-.378h-1.3v2.826ZM26.726.106a3.256,3.256,0,0,1-1.381-.285,2.417,2.417,0,0,1-.978-.79,2.027,2.027,0,0,1-.38-1.143h1.36a1.028,1.028,0,0,0,.213.56,1.271,1.271,0,0,0,.5.387,1.6,1.6,0,0,0,.67.139,1.548,1.548,0,0,0,.771-.192,1.372,1.372,0,0,0,.534-.532,1.538,1.538,0,0,0,.192-.769,1.555,1.555,0,0,0-.2-.788,1.4,1.4,0,0,0-.555-.541,1.642,1.642,0,0,0-.8-.194,1.321,1.321,0,0,0-1.276.665H24.1l.463-4.4h4.6v1.17H25.72l-.235,2.066h.068a1.7,1.7,0,0,1,.638-.425,2.3,2.3,0,0,1,.874-.163,2.521,2.521,0,0,1,1.288.332,2.379,2.379,0,0,1,.9.919,2.675,2.675,0,0,1,.327,1.324,2.631,2.631,0,0,1-.363,1.375,2.507,2.507,0,0,1-1.01.948A3.136,3.136,0,0,1,26.726.106Z" transform="translate(6 13)"/></svg>