<svg xmlns="http://www.w3.org/2000/svg" xmlns:xlink="http://www.w3.org/1999/xlink" width="140" height="132" viewBox="0 0 140 132"><defs><style>.a{fill:none;}.b{fill:url(#a);}.c{fill:#e40a48;}.d{fill:#fff;}</style><radialGradient id="a" cx="0.5" cy="0.5" r="0.5" gradientUnits="objectBoundingBox"><stop offset="0" stop-color="#e40a48"/><stop offset="0.109" stop-color="#e42158"/><stop offset="0.347" stop-color="#fff" stop-opacity="0"/><stop offset="1" stop-color="#fff"/></radialGradient></defs><rect class="a" width="140" height="132"/><g transform="translate(-117.801 -296.5)"><path class="b" d="M-10617.249,2995a63.625,63.625,0,0,1-24.911-5.03,63.815,63.815,0,0,1-20.345-13.718,63.753,63.753,0,0,1-13.715-20.344,63.568,63.568,0,0,1-5.029-24.911h.928a62.652,62.652,0,0,0,18.494,44.58,62.646,62.646,0,0,0,44.578,18.5,63.146,63.146,0,0,0,63.073-63.075,63.146,63.146,0,0,0-63.073-63.075l-.458,0V2867h.458a63.583,63.583,0,0,1,24.911,5.03,63.757,63.757,0,0,1,20.344,13.715,63.781,63.781,0,0,1,13.718,20.342,63.639,63.639,0,0,1,5.029,24.914,63.614,63.614,0,0,1-5.029,24.911,63.781,63.781,0,0,1-13.718,20.344,63.811,63.811,0,0,1-20.344,13.718A63.621,63.621,0,0,1-10617.249,2995Z" transform="translate(10805.249 -2568.001)"/><circle class="c" cx="2" cy="2" r="2" transform="translate(186 297.5)"/><g transform="translate(7.323 1.243)"><path class="d" d="M3.706,4.177a.068.068,0,0,1-.032-.016.07.07,0,0,1-.02-.029L3.146,2.541a.549.549,0,0,0-.2-.279.557.557,0,0,0-.33-.1.072.072,0,0,1-.041-.012.07.07,0,0,1-.027-.033.073.073,0,0,1,0-.042.076.076,0,0,1,.02-.038L3.947.649A.075.075,0,0,1,3.984.628a.073.073,0,0,1,.042,0,.07.07,0,0,1,.033.025A.073.073,0,0,1,4.072.7l.106,3.027a.069.069,0,0,1-.006.029.068.068,0,0,1-.018.024l-.381.381a.074.074,0,0,1-.031.018l-.02,0ZM2.066,1.632a.07.07,0,0,1-.033-.027.072.072,0,0,1-.012-.041.557.557,0,0,0-.1-.33.549.549,0,0,0-.279-.2L.047.525A.073.073,0,0,1,.017.5.071.071,0,0,1,0,.473.068.068,0,0,1,0,.437.074.074,0,0,1,.021.405L.4.024A.065.065,0,0,1,.426.006.069.069,0,0,1,.455,0L3.483.106a.073.073,0,0,1,.04.013.07.07,0,0,1,.025.033.073.073,0,0,1,0,.042A.075.075,0,0,1,3.53.232L2.146,1.615a.076.076,0,0,1-.038.02H2.094A.076.076,0,0,1,2.066,1.632Z" transform="translate(114.139 362.352) rotate(-45)"/><path class="d" d="M1.18.829,5.422,4.265a.221.221,0,0,1,.06.077.224.224,0,0,1,.021.1v.846a.223.223,0,0,1-.024.1.22.22,0,0,1-.066.078.215.215,0,0,1-.2.03l-3.8-1.813A.564.564,0,0,0,1,3.693a.576.576,0,0,0-.295.288L.642,4.13C.534,4.093-.029,3.593,0,3.48L.94,0,.951.364a.624.624,0,0,0,.064.258A.615.615,0,0,0,1.18.829Z" transform="translate(116.995 354.048)"/><path class="d" d="M4.324.829.081,4.265a.221.221,0,0,0-.06.077.224.224,0,0,0-.021.1v.846a.223.223,0,0,0,.024.1.22.22,0,0,0,.066.078.215.215,0,0,0,.2.03l3.8-1.813a.564.564,0,0,1,.409.015.576.576,0,0,1,.295.288l.067.149c.108-.037.671-.537.641-.65L4.564,0,4.553.364a.624.624,0,0,1-.064.258A.615.615,0,0,1,4.324.829Z" transform="translate(111.886 354.048)"/><path class="d" d="M1.376,11.792a.63.63,0,0,1-.409-.149.534.534,0,0,1-.188-.366L0,1.777A2.045,2.045,0,0,1,1.193,0h.366A2.045,2.045,0,0,1,2.752,1.777l-.778,9.5a.534.534,0,0,1-.188.366A.63.63,0,0,1,1.376,11.792Z" transform="translate(115.818 350.903)"/></g></g></svg>