<svg id="spr_air" xmlns="http://www.w3.org/2000/svg" width="270" height="54" viewBox="0 0 270 54">
  <g id="그룹_4069" data-name="그룹 4069">
    <rect id="사각형_2871" data-name="사각형 2871" width="14" height="14" fill="none"/>
    <path id="패스_2610" data-name="패스 2610" d="M13697.5-9006h-9a1,1,0,0,1-1-1v-4.5h11v4.5A1,1,0,0,1,13697.5-9006Zm1-7h-11v-2a1,1,0,0,1,1-1v-.5a1,1,0,0,1,1-1,1,1,0,0,1,1,1v.5h5v-.5a1,1,0,0,1,1-1,1,1,0,0,1,1,1v.5a1,1,0,0,1,1,1Z" transform="translate(-13686 9018.75)" fill="#cacaca"/>
    <rect id="사각형_2872" data-name="사각형 2872" width="14" height="14" transform="translate(16)" fill="none"/>
    <g id="그룹_4061" data-name="그룹 4061" transform="translate(-220 -13)">
      <path id="패스_2611" data-name="패스 2611" d="M0,0H12V12H0Z" transform="translate(237 14)" fill="none"/>
      <g id="그룹_4060" data-name="그룹 4060" transform="translate(-0.25)">
        <path id="패스_2612" data-name="패스 2612" d="M0,2.55a2.549,2.549,0,1,1,.747,1.8A2.549,2.549,0,0,1,0,2.55Z" transform="translate(240.549 14.75)" fill="#cacaca"/>
        <path id="패스_2613" data-name="패스 2613" d="M10.5,4.621a.4.4,0,0,1-.193.329.8.8,0,0,1-.46.138H.653c-.36,0-.653-.21-.653-.467V3.756A3.3,3.3,0,0,1,1.542,1.1,6.4,6.4,0,0,1,5.25,0,6.4,6.4,0,0,1,8.958,1.1.454.454,0,0,1,9,1.137l.01.01A3.282,3.282,0,0,1,10.5,3.759Z" transform="translate(238 20.71)" fill="#cacaca"/>
      </g>
    </g>
    <g id="그룹_4063" data-name="그룹 4063" transform="translate(32)">
      <rect id="사각형_2873" data-name="사각형 2873" width="18" height="18" fill="#fff" opacity="0"/>
      <g id="그룹_4062" data-name="그룹 4062" transform="translate(-1 -2)">
        <path id="패스_2614" data-name="패스 2614" d="M3,12V0L0,3" transform="translate(4 5)" fill="none" stroke="#202020" stroke-linecap="round" stroke-linejoin="round" stroke-width="2"/>
        <path id="패스_2615" data-name="패스 2615" d="M3,12V0L0,3" transform="translate(16 17) rotate(180)" fill="none" stroke="#202020" stroke-linecap="round" stroke-linejoin="round" stroke-width="2"/>
      </g>
    </g>
    <g id="그룹_4065" data-name="그룹 4065" transform="translate(52)">
      <rect id="사각형_2874" data-name="사각형 2874" width="18" height="18" fill="none"/>
      <g id="그룹_4064" data-name="그룹 4064" transform="translate(0.706 0.918)">
        <path id="패스_2616" data-name="패스 2616" d="M3.3,1.648A1.648,1.648,0,1,1,2.816.481,1.648,1.648,0,0,1,3.3,1.648Z" transform="translate(6.646 4.786)" fill="#aeaeae"/>
        <path id="패스_2617" data-name="패스 2617" d="M10.989,5.494c0,4.945-5.494,8.791-5.494,8.791S0,10.439,0,5.494a5.495,5.495,0,1,1,10.99,0Z" transform="translate(2.8 0.94)" fill="none" stroke="#aeaeae" stroke-linecap="round" stroke-linejoin="round" stroke-width="2"/>
      </g>
    </g>
    <g id="그룹_4066" data-name="그룹 4066" transform="translate(72)">
      <rect id="사각형_2875" data-name="사각형 2875" width="18" height="18" fill="none"/>
      <path id="패스_2618" data-name="패스 2618" d="M13.169.756,8.994,12.817A.57.57,0,0,1,7.911,12.8L6.233,7.345a.57.57,0,0,0-.377-.377L.4,5.289A.57.57,0,0,1,.383,4.206L12.444.031a.57.57,0,0,1,.725.725Z" transform="translate(2.5 2.5)" fill="none" stroke="#aeaeae" stroke-linecap="round" stroke-linejoin="round" stroke-width="2"/>
    </g>
    <g id="그룹_4068" data-name="그룹 4068" transform="translate(92)">
      <rect id="사각형_2876" data-name="사각형 2876" width="18" height="18" fill="none"/>
      <g id="그룹_4067" data-name="그룹 4067" transform="translate(0.706 0.918)">
        <path id="패스_2619" data-name="패스 2619" d="M3.3,1.648A1.648,1.648,0,1,1,2.816.481,1.648,1.648,0,0,1,3.3,1.648Z" transform="translate(6.646 4.786)" fill="#fff"/>
        <path id="패스_2620" data-name="패스 2620" d="M10.989,5.494c0,4.945-5.494,8.791-5.494,8.791S0,10.439,0,5.494a5.495,5.495,0,1,1,10.99,0Z" transform="translate(2.8 0.94)" fill="none" stroke="#fff" stroke-linecap="round" stroke-linejoin="round" stroke-width="2"/>
      </g>
    </g>
  </g>
  <g id="그룹_4070" data-name="그룹 4070" transform="translate(0 -3)">
    <rect id="사각형_2582" data-name="사각형 2582" width="18" height="18" transform="translate(0 41) rotate(-90)" fill="#fff" opacity="0"/>
    <g id="그룹_4058" data-name="그룹 4058" transform="translate(-2 42) rotate(-90)">
      <path id="Vector_87" data-name="Vector 87" d="M3,12V0L0,3" transform="translate(4 5)" fill="none" stroke="#aeaeae" stroke-linecap="round" stroke-linejoin="round" stroke-width="2"/>
      <path id="Vector_88" data-name="Vector 88" d="M3,12V0L0,3" transform="translate(16 17) rotate(180)" fill="none" stroke="#aeaeae" stroke-linecap="round" stroke-linejoin="round" stroke-width="2"/>
    </g>
  </g>
  <g id="ic_x18_roundtirp" transform="translate(113 1)">
    <rect id="container" width="18" height="18" transform="translate(-1 -1)" fill="none"/>
    <circle id="타원_106" data-name="타원 106" cx="8" cy="8" r="8" fill="#85b5ff"/>
    <g id="round_tirp" data-name="round tirp">
      <path id="Vector" d="M1.248,0,0,1.248,1.248,2.5" transform="translate(4.286 8.609)" fill="none" stroke="#fff" stroke-linecap="round" stroke-linejoin="round" stroke-width="1"/>
      <path id="Vector-2" data-name="Vector" d="M6.179,0H0" transform="translate(4.286 9.86)" fill="none" stroke="#fff" stroke-linecap="round" stroke-linejoin="round" stroke-width="1"/>
      <path id="Vector-3" data-name="Vector" d="M0,2.5,1.248,1.248,0,0" transform="translate(10.466 4.896)" fill="none" stroke="#fff" stroke-linecap="round" stroke-linejoin="round" stroke-width="1"/>
      <path id="Vector-4" data-name="Vector" d="M0,0H6.18" transform="translate(5.534 6.14)" fill="none" stroke="#fff" stroke-linecap="round" stroke-linejoin="round" stroke-width="1"/>
    </g>
  </g>
  <g id="ic_x18_eachway" transform="translate(133 1)">
    <rect id="container-2" data-name="container" width="18" height="18" transform="translate(-1 -1)" fill="none"/>
    <path id="패스_2782" data-name="패스 2782" d="M8,0A8,8,0,1,1,0,8,8,8,0,0,1,8,0Z" fill="#85b5ff"/>
    <g id="round_tirp-2" data-name="round tirp" transform="translate(0.466)">
      <path id="Vector-5" data-name="Vector" d="M0,2.5,1.248,1.248,0,0" transform="translate(9.466 6.896)" fill="none" stroke="#fff" stroke-linecap="round" stroke-linejoin="round" stroke-width="1"/>
      <path id="Vector-6" data-name="Vector" d="M0,0H6.18" transform="translate(4.534 8.14)" fill="none" stroke="#fff" stroke-linecap="round" stroke-linejoin="round" stroke-width="1"/>
    </g>
  </g>
  <g id="그룹_4072" data-name="그룹 4072" transform="translate(-8 -67)">
    <rect id="사각형_2877" data-name="사각형 2877" width="14" height="14" transform="translate(28 87)" fill="none"/>
    <g id="그룹_4071" data-name="그룹 4071" transform="translate(-7 23)">
      <g id="ic_x12_oneway" transform="translate(36 65)">
        <rect id="container-3" data-name="container" width="12" height="12" transform="translate(12) rotate(90)" fill="#fff" opacity="0"/>
        <g id="filter_alt_black_24dp_2" data-name="filter_alt_black_24dp 2" transform="translate(17 -2) rotate(90)">
          <path id="Vector_87-2" data-name="Vector 87" d="M3,10V0L1,1.75" transform="translate(5 6)" fill="none" stroke="#cacaca" stroke-linecap="round" stroke-linejoin="round" stroke-width="2"/>
        </g>
      </g>
    </g>
  </g>
  <g id="그룹_4073" data-name="그룹 4073" transform="translate(-8 -67)">
    <rect id="사각형_2878" data-name="사각형 2878" width="14" height="14" transform="translate(44 87)" fill="none"/>
    <g id="ic_x12_align_solid" transform="translate(57 88) rotate(90)">
      <rect id="container-4" data-name="container" width="12" height="12" fill="#fff" opacity="0"/>
      <g id="filter_alt_black_24dp_2-2" data-name="filter_alt_black_24dp 2" transform="translate(-2 -5)">
        <path id="Vector_87-3" data-name="Vector 87" d="M3,10V0L1,1.75" transform="translate(3 6)" fill="none" stroke="#cacaca" stroke-linecap="round" stroke-linejoin="round" stroke-width="2"/>
        <path id="Vector_88-2" data-name="Vector 88" d="M3,10V0L1,1.75" transform="translate(14 16) rotate(180)" fill="none" stroke="#cacaca" stroke-linecap="round" stroke-linejoin="round" stroke-width="2"/>
      </g>
    </g>
  </g>
  <g id="그룹_4074" data-name="그룹 4074" transform="translate(32 -43)">
    <rect id="사각형_2879" data-name="사각형 2879" width="14" height="14" transform="translate(20 63)" fill="none"/>
    <g id="ic_x12_minus" transform="translate(21 64)">
      <rect id="container-5" data-name="container" width="12" height="12" fill="#202020" opacity="0"/>
      <rect id="Rectangle_196" data-name="Rectangle 196" width="2" height="12" rx="1" transform="translate(0 7) rotate(-90)" fill="#202020"/>
    </g>
  </g>
  <g id="그룹_4075" data-name="그룹 4075" transform="translate(32 -43)">
    <rect id="사각형_2880" data-name="사각형 2880" width="14" height="14" transform="translate(36 63)" fill="none"/>
    <g id="ic_x12_more" transform="translate(37 64)">
      <rect id="container-6" data-name="container" width="12" height="12" fill="#202020" opacity="0"/>
      <rect id="사각형_2611" data-name="사각형 2611" width="2" height="12" rx="1" transform="translate(5)" fill="#202020"/>
      <rect id="사각형_2612" data-name="사각형 2612" width="2" height="12" rx="1" transform="translate(0 7) rotate(-90)" fill="#202020"/>
    </g>
  </g>
  <g id="그룹_4096" data-name="그룹 4096" transform="translate(84 20)">
    <rect id="사각형_2900" data-name="사각형 2900" width="14" height="14" fill="none"/>
    <g id="ic_x12_flight_bag" transform="translate(1 1)">
      <rect id="container-7" data-name="container" width="12" height="12" fill="none"/>
      <g id="flight_bag" transform="translate(0.835 1.207)">
        <path id="Vector-7" data-name="Vector" d="M964.843,112.39h8.3a1.047,1.047,0,0,1,1.037,1.057h0v5.282a1.048,1.048,0,0,1-1.033,1.061H964.84a1.046,1.046,0,0,1-1.034-1.06h0v-5.282a1.046,1.046,0,0,1,1.036-1.057Z" transform="translate(-963.806 -110.057)" fill="#fff" stroke="#aeaeae" stroke-linecap="round" stroke-linejoin="round" stroke-width="1.5"/>
        <path id="Vector-2-2" data-name="Vector-2" d="M971.455,119.621V111.2a1.107,1.107,0,0,0-.356-.806,1.257,1.257,0,0,0-.859-.335h-2.431a1.252,1.252,0,0,0-.859.334,1.1,1.1,0,0,0-.356.807v8.423" transform="translate(-963.806 -110.057)" fill="none" stroke="#aeaeae" stroke-linecap="round" stroke-linejoin="round" stroke-width="1.5"/>
      </g>
    </g>
  </g>
  <g id="그룹_4095" data-name="그룹 4095" transform="translate(100 20)">
    <rect id="사각형_2901" data-name="사각형 2901" width="14" height="14" fill="none"/>
    <g id="ic_x12_flight_bag_plus" transform="translate(1 1)">
      <rect id="container-8" data-name="container" width="12" height="12" fill="none"/>
      <g id="flight_bag_plus" transform="translate(0.866 1.207)">
        <path id="Vector-8" data-name="Vector" d="M981.929,119.779h-4.3a1.047,1.047,0,0,1-1.034-1.06h0v-5.282a1.047,1.047,0,0,1,1.037-1.057h8.3a1.046,1.046,0,0,1,1.037,1.057h0v1.153" transform="translate(-976.595 -110.046)" fill="#fff" stroke="#aeaeae" stroke-linecap="round" stroke-linejoin="round" stroke-width="1.5"/>
        <path id="Vector-2-3" data-name="Vector-2" d="M984.213,114.61v-3.423a1.107,1.107,0,0,0-.356-.806,1.257,1.257,0,0,0-.859-.335h-2.431a1.256,1.256,0,0,0-.859.334,1.1,1.1,0,0,0-.356.807v8.423" transform="translate(-976.595 -110.046)" fill="none" stroke="#aeaeae" stroke-linecap="round" stroke-linejoin="round" stroke-width="1.5"/>
        <path id="Vector-3-2" data-name="Vector-3" d="M983.836,118.07h3.1m-1.551,1.551v-3.1" transform="translate(-976.595 -110.046)" fill="none" stroke="#aeaeae" stroke-linecap="round" stroke-miterlimit="10" stroke-width="1.5"/>
      </g>
    </g>
  </g>
  <g id="그룹_4097" data-name="그룹 4097">
    <rect id="사각형_2902" data-name="사각형 2902" width="14" height="14" transform="translate(0 40)" fill="none"/>
    <g id="ic_x12_seat_designation" transform="translate(-1033.881 -144.664)">
      <rect id="container-9" data-name="container" width="12" height="12" transform="translate(1034.881 185.664)" fill="none"/>
      <g id="seat">
        <circle id="타원_97" data-name="타원 97" cx="1.277" cy="1.277" r="1.277" transform="translate(1043.525 186.666)" fill="none" stroke="#aeaeae" stroke-linecap="round" stroke-linejoin="round" stroke-width="1.5"/>
        <path id="패스_2646" data-name="패스 2646" d="M1042.853,190.739a1.6,1.6,0,0,0-.706.713l-.784,1.181s-.171.366-.707.171l-.494-.29s-1.09-.622-1.677.128l-2.163,2.878a.767.767,0,0,0,.17,1.115s.741.532,1.21-.136l1.677-2.325a2.642,2.642,0,0,0,1.907.928,2.305,2.305,0,0,0,1.861-.689c.246-.315,1.2-1.78,1.2-1.78s.641-.917.189-1.569A1.272,1.272,0,0,0,1042.853,190.739Z" fill="none" stroke="#aeaeae" stroke-linecap="round" stroke-linejoin="round" stroke-width="1.5"/>
        <path id="패스_2699" data-name="패스 2699" d="M3961.646,1276.584l1.531,1.531,2.4-2.405" transform="translate(-2924.989 -1089.044)" fill="none" stroke="#aeaeae" stroke-linecap="round" stroke-linejoin="round" stroke-width="1.5"/>
      </g>
    </g>
  </g>
  <g id="그룹_4098" data-name="그룹 4098">
    <rect id="사각형_2903" data-name="사각형 2903" width="14" height="14" transform="translate(16 40)" fill="none"/>
    <g id="ic_x12_boarding" transform="translate(-979.13 -113.703)">
      <rect id="container-10" data-name="container" width="12" height="12" transform="translate(996.13 154.703)" fill="none"/>
      <g id="airplane">
        <path id="Vector-9" data-name="Vector" d="M0,0H11.563V11.563H0Z" transform="translate(996.354 154.922)" fill="none"/>
        <path id="Vector-10" data-name="Vector" d="M9.635,9.635V0H2.818V2.854H0V9.635Z" transform="translate(997.317 155.886)" fill="none" stroke="#aeaeae" stroke-linecap="round" stroke-linejoin="round" stroke-width="1.5"/>
        <path id="Vector-11" data-name="Vector" d="M1.57,0,0,1.57l1.57,1.57" transform="translate(999.935 160.342)" fill="none" stroke="#aeaeae" stroke-linecap="round" stroke-linejoin="round" stroke-width="1.5"/>
        <path id="Vector-12" data-name="Vector" d="M3.16-1V1.673H0" transform="translate(1001.174 160.239)" fill="none" stroke="#aeaeae" stroke-linecap="round" stroke-linejoin="round" stroke-width="1.5"/>
      </g>
    </g>
  </g>
  <g id="그룹_4099" data-name="그룹 4099">
    <rect id="사각형_2904" data-name="사각형 2904" width="14" height="14" transform="translate(32 40)" fill="none"/>
    <path id="Vector-2-4" data-name="Vector-2" d="M1004.64,167.245a.75.75,0,0,1-.147-.015l-1.9-.381-1.9.381a.75.75,0,0,1-.9-.735v-1.231a.75.75,0,0,1,.22-.53l.6-.6v-.826l-3.205.641a.75.75,0,0,1-.9-.735v-1.231a.75.75,0,0,1,.415-.671l3.689-1.845.006-2.409a1.981,1.981,0,0,1,3.962,0l0,2.408,3.689,1.844a.75.75,0,0,1,.415.671v1.231a.75.75,0,0,1-.9.735l-3.205-.641v.829l.593.6a.75.75,0,0,1,.216.526v1.231a.75.75,0,0,1-.75.75Zm-2.051-1.91a.75.75,0,0,1,.147.015l1.154.231v-.008l-.593-.6a.75.75,0,0,1-.216-.526v-2.051a.75.75,0,0,1,.9-.735l2.713.543-3.2-1.6a.75.75,0,0,1-.415-.669l-.005-2.872a.481.481,0,1,0-.962,0l-.007,2.874a.75.75,0,0,1-.415.669l-3.2,1.6,2.713-.543a.75.75,0,0,1,.9.735v2.051a.75.75,0,0,1-.22.53l-.6.6v.005l1.154-.231A.751.751,0,0,1,1002.588,165.334Z" transform="translate(-963.605 -114.161)" fill="#aeaeae"/>
  </g>
  <g id="그룹_4100" data-name="그룹 4100">
    <rect id="사각형_2905" data-name="사각형 2905" width="14" height="14" transform="translate(48 40)" fill="none"/>
    <g id="ic_x12_three" transform="translate(-985.881 -126.949)">
      <rect id="container-11" data-name="container" width="12" height="12" transform="translate(1034.881 167.949)" fill="none"/>
      <g id="three" transform="translate(0.269 -0.91)">
        <path id="Vector-2-5" data-name="Vector-2" d="M1039.048,173.119h3.488v3.487h-3.488Z" transform="translate(-0.179)" fill="#fff" stroke="#aeaeae" stroke-linecap="round" stroke-linejoin="round" stroke-width="1.5"/>
        <path id="Vector-3-3" data-name="Vector-3" d="M1035.381,173.119h3.488v3.487h-3.488Z" fill="#fff" stroke="#aeaeae" stroke-linecap="round" stroke-linejoin="round" stroke-width="1.5"/>
        <path id="Vector-4-2" data-name="Vector-4" d="M1042.715,173.119h3.487v3.487h-3.487Z" transform="translate(-0.358)" fill="#fff" stroke="#aeaeae" stroke-linecap="round" stroke-linejoin="round" stroke-width="1.5"/>
      </g>
    </g>
  </g>
  <g id="그룹_4101" data-name="그룹 4101">
    <rect id="사각형_2906" data-name="사각형 2906" width="14" height="14" transform="translate(64 40)" fill="none"/>
    <g id="ic_x12_streaming" transform="translate(-944.432 -90.677)">
      <rect id="container-12" data-name="container" width="12" height="12" transform="translate(1009.432 131.677)" fill="none"/>
      <g id="streaming">
        <path id="Vector-2-6" data-name="Vector-2" d="M1020.208,141.133h-8.841a.884.884,0,0,1-.884-.884v-6.188a.884.884,0,0,1,.884-.884h8.841a.884.884,0,0,1,.884.884v6.188A.884.884,0,0,1,1020.208,141.133Z" transform="translate(-0.359 -0.34)" fill="none" stroke="#aeaeae" stroke-linecap="round" stroke-linejoin="round" stroke-width="1.5"/>
        <path id="Vector-3-4" data-name="Vector-3" d="M1017.316,142.544h-3.536" transform="translate(-0.12 0.34)" fill="none" stroke="#aeaeae" stroke-linecap="round" stroke-linejoin="round" stroke-width="1.5"/>
        <path id="Vector-4-3" data-name="Vector-4" d="M1017.256,137.006l-2.652-1.769v3.537Z" transform="translate(-0.06 -0.191)" fill="none" stroke="#aeaeae" stroke-linecap="round" stroke-linejoin="round" stroke-width="1.5"/>
      </g>
    </g>
  </g>
  <g id="그룹_4104" data-name="그룹 4104">
    <rect id="사각형_2909" data-name="사각형 2909" width="14" height="14" transform="translate(112 40)" fill="none"/>
    <g id="ic_x12_snack_non" transform="translate(-918.175 -109.469)">
      <rect id="사각형_2701" data-name="사각형 2701" width="12" height="12" transform="translate(1031.175 150.469)" fill="none"/>
      <g id="snack_non" transform="translate(0 -0.43)">
        <path id="패스_2645" data-name="패스 2645" d="M1038.557,154.415a4.07,4.07,0,0,0-5.452,3.829c0,.111.006.221.015.33h8.111c.009-.109.015-.219.015-.33a4.063,4.063,0,0,0-.186-1.219" fill="none" stroke="#aeaeae" stroke-linecap="round" stroke-linejoin="round" stroke-width="1.5"/>
        <path id="Vector-2-7" data-name="Vector-2" d="M1031.96,160.5h10.43" fill="none" stroke="#aeaeae" stroke-linecap="round" stroke-linejoin="round" stroke-width="1.5"/>
        <path id="Vector-3-5" data-name="Vector-3" d="M1037.175,154.017V153.4" fill="none" stroke="#aeaeae" stroke-linecap="round" stroke-linejoin="round" stroke-width="1.5"/>
        <path id="Vector-3-6" data-name="Vector-3" d="M1040.057,153.294l2.193,2.193m-2.193,0,.822-.822,1.371-1.371" fill="none" stroke="#aeaeae" stroke-linecap="round" stroke-miterlimit="10" stroke-width="1.5"/>
      </g>
    </g>
  </g>
  <g id="그룹_4103" data-name="그룹 4103">
    <rect id="사각형_2908" data-name="사각형 2908" width="14" height="14" transform="translate(96 40)" fill="none"/>
    <g id="ic_x12_seat_distance" transform="translate(-937.881 -144.664)">
      <rect id="container-13" data-name="container" width="12" height="12" transform="translate(1034.881 185.664)" fill="none"/>
      <g id="seat-2" data-name="seat">
        <circle id="타원_97-2" data-name="타원 97" cx="1.277" cy="1.277" r="1.277" transform="translate(1043.525 186.666)" fill="none" stroke="#aeaeae" stroke-linecap="round" stroke-linejoin="round" stroke-width="1.5"/>
        <path id="패스_2646-2" data-name="패스 2646" d="M1042.853,190.739a1.6,1.6,0,0,0-.706.713l-.784,1.181s-.171.366-.707.171l-.494-.29s-1.09-.622-1.677.128l-2.163,2.878a.767.767,0,0,0,.17,1.115s.741.532,1.21-.136l1.677-2.325a2.642,2.642,0,0,0,1.907.928,2.305,2.305,0,0,0,1.861-.689c.246-.315,1.2-1.78,1.2-1.78s.641-.917.189-1.569A1.272,1.272,0,0,0,1042.853,190.739Z" fill="none" stroke="#aeaeae" stroke-linecap="round" stroke-linejoin="round" stroke-width="1.5"/>
        <path id="Vector-6-2" data-name="Vector-6" d="M1037.326,186.5l-1.652,1.653,1.652,1.652" fill="none" stroke="#aeaeae" stroke-linecap="round" stroke-linejoin="round" stroke-width="1.5"/>
        <path id="Vector-7-2" data-name="Vector-7" d="M1035.674,188.153h5.489" fill="none" stroke="#aeaeae" stroke-linecap="round" stroke-linejoin="round" stroke-width="1.5"/>
        <path id="Vector-6-3" data-name="Vector-6" d="M1039.593,189.8l1.653-1.652-1.653-1.653" fill="none" stroke="#aeaeae" stroke-linecap="round" stroke-linejoin="round" stroke-width="1.5"/>
      </g>
    </g>
  </g>
  <g id="그룹_4102" data-name="그룹 4102">
    <rect id="사각형_2907" data-name="사각형 2907" width="14" height="14" transform="translate(80 40)" fill="none"/>
    <g id="ic_x12_plug" transform="translate(-910.161 -93.585)">
      <rect id="container-14" data-name="container" width="12" height="12" transform="translate(991.161 134.585)" fill="none"/>
      <g id="plug">
        <path id="Vector-2-8" data-name="Vector-2" d="M997.419,146.161a5.325,5.325,0,1,0-5.326-5.324A5.325,5.325,0,0,0,997.419,146.161Z" transform="translate(-0.251 -0.251)" fill="none" stroke="#aeaeae" stroke-linecap="round" stroke-linejoin="round" stroke-width="1.5"/>
        <path id="Vector-3-7" data-name="Vector-3" d="M998.2,139.759V138.4" transform="translate(0.052 -0.108)" fill="none" stroke="#aeaeae" stroke-linecap="round" stroke-linejoin="round" stroke-width="1.5"/>
        <path id="Vector-4-4" data-name="Vector-4" d="M996.13,139.759V138.4" transform="translate(-0.051 -0.108)" fill="none" stroke="#aeaeae" stroke-linecap="round" stroke-linejoin="round" stroke-width="1.5"/>
        <path id="Vector-5-2" data-name="Vector-5" d="M997.27,142.666a2.045,2.045,0,0,0,2.175-1.884v-.706h-4.351v.706A2.045,2.045,0,0,0,997.27,142.666Z" transform="translate(-0.103 -0.025)" fill="none" stroke="#aeaeae" stroke-linecap="round" stroke-linejoin="round" stroke-width="1.5"/>
        <path id="Vector-6-4" data-name="Vector-6" d="M997.167,145.807v-3.263" transform="translate(0 0.097)" fill="none" stroke="#aeaeae" stroke-linecap="round" stroke-linejoin="round" stroke-width="1.5"/>
      </g>
    </g>
  </g>
  <g id="그룹_4105" data-name="그룹 4105">
    <rect id="사각형_2910" data-name="사각형 2910" width="14" height="14" transform="translate(128 40)" fill="none"/>
    <g id="ic_x12_wifi_non" transform="translate(-920.62 -121.619)">
      <rect id="container-15" data-name="container" width="12" height="12" transform="translate(1049.62 162.619)" fill="none"/>
      <g id="wifi_non">
        <path id="Vector-2-9" data-name="Vector-2" d="M1053.708,171.129a2.508,2.508,0,0,1,3.465,0" transform="translate(0.031 -0.374)" fill="none" stroke="#aeaeae" stroke-linecap="round" stroke-linejoin="round" stroke-width="1.5"/>
        <path id="Vector-5-3" data-name="Vector-5" d="M1050.442,167.9a7.248,7.248,0,0,1,5.875-2.04" transform="translate(-0.055 -0.495)" fill="none" stroke="#aeaeae" stroke-linecap="round" stroke-linejoin="round" stroke-width="1.5"/>
        <path id="Vector-6-5" data-name="Vector-6" d="M1052.074,169.514a4.847,4.847,0,0,1,3.409-1.39,4.962,4.962,0,0,1,.79.064" transform="translate(-0.012 -0.434)" fill="none" stroke="#aeaeae" stroke-linecap="round" stroke-linejoin="round" stroke-width="1.5"/>
        <path id="Vector-3-8" data-name="Vector-3" d="M1058.445,166.425l2.251,2.252m-2.251,0,.845-.845,1.406-1.407" transform="translate(0.156 -0.479)" fill="none" stroke="#aeaeae" stroke-linecap="round" stroke-miterlimit="10" stroke-width="1.5"/>
        <path id="Vector-7-3" data-name="Vector-7" d="M1056.2,172.859a.691.691,0,1,1-.692-.691A.692.692,0,0,1,1056.2,172.859Z" transform="translate(-0.039 -0.328)" fill="#aeaeae"/>
      </g>
    </g>
  </g>
  <g id="ic_x20_refresh" transform="translate(116 20)">
    <rect id="container-16" data-name="container" width="18" height="18" fill="#fff" opacity="0"/>
    <g id="그룹_4057" data-name="그룹 4057" transform="translate(-0.673 -0.359)">
      <path id="Vector-13" data-name="Vector" d="M0,4.031H4.031V0" transform="translate(12.795 4.343)" fill="none" stroke="#aeaeae" stroke-linecap="round" stroke-linejoin="round" stroke-width="2"/>
      <path id="Vector-14" data-name="Vector" d="M0,2.165a7.39,7.39,0,0,1,10.452,0l2.85,2.85" transform="translate(3.524 3.359)" fill="none" stroke="#aeaeae" stroke-linecap="round" stroke-linejoin="round" stroke-width="2"/>
      <path id="Vector-15" data-name="Vector" d="M4.031,0H0V4.031" transform="translate(2.673 11.125)" fill="none" stroke="#aeaeae" stroke-linecap="round" stroke-linejoin="round" stroke-width="2"/>
      <path id="Vector-16" data-name="Vector" d="M13.3,2.85a7.39,7.39,0,0,1-2.4,1.6,7.39,7.39,0,0,1-2.828.563,7.39,7.39,0,0,1-2.828-.563,7.39,7.39,0,0,1-2.4-1.6L0,0" transform="translate(2.673 11.125)" fill="none" stroke="#aeaeae" stroke-linecap="round" stroke-linejoin="round" stroke-width="2"/>
    </g>
  </g>
  <g id="ic_x18_align" transform="translate(152 18) rotate(-90)">
    <rect id="사각형_2582-2" data-name="사각형 2582" width="18" height="18" fill="#fff" opacity="0"/>
    <g id="그룹_4058-2" data-name="그룹 4058" transform="translate(-1 -2)">
      <path id="Vector_87-4" data-name="Vector 87" d="M3,13a1,1,0,0,1-1-1V2.414L.707,3.707a1,1,0,0,1-1.414,0,1,1,0,0,1,0-1.414l3-3a1,1,0,0,1,1.09-.217A1,1,0,0,1,4,0V12A1,1,0,0,1,3,13Z" transform="translate(4 5)" fill="#63a1ff"/>
      <path id="Vector_88-3" data-name="Vector 88" d="M3,13a1,1,0,0,1-1-1V2.414L.707,3.707a1,1,0,0,1-1.414,0,1,1,0,0,1,0-1.414l3-3a1,1,0,0,1,1.09-.217A1,1,0,0,1,4,0V12A1,1,0,0,1,3,13Z" transform="translate(16 17) rotate(180)" fill="#63a1ff"/>
    </g>
  </g>
  <g id="ic_x18_align-2" data-name="ic_x18_align" transform="translate(172 18) rotate(-90)">
    <rect id="사각형_2582-3" data-name="사각형 2582" width="18" height="18" fill="none"/>
    <path id="Vector_88-4" data-name="Vector 88" d="M3,13a1,1,0,0,1-1-1V2.414L.707,3.707a1,1,0,0,1-1.414,0,1,1,0,0,1,0-1.414l3-3a1,1,0,0,1,1.09-.217A1,1,0,0,1,4,0V12A1,1,0,0,1,3,13Z" transform="translate(12 15) rotate(180)" fill="#63a1ff"/>
  </g>
  <g id="ic_x18_oneway" transform="translate(136 38) rotate(-90)">
    <rect id="사각형_2582-4" data-name="사각형 2582" width="18" height="18" fill="#fff" opacity="0"/>
    <g id="그룹_4058-3" data-name="그룹 4058" transform="translate(-1 -2)">
      <path id="Vector_88-5" data-name="Vector 88" d="M3,12V0L0,3" transform="translate(12 17) rotate(180)" fill="none" stroke="#aeaeae" stroke-linecap="round" stroke-linejoin="round" stroke-width="2"/>
    </g>
  </g>
  <g id="ic_x12_flight_checked_bag" transform="translate(-806.971 -87.85)">
    <rect id="container-17" data-name="container" width="12" height="12" transform="translate(962.971 107.85)" fill="none"/>
    <g id="checked_bag">
      <path id="Vector-17" data-name="Vector" d="M964.514,112.39h5.663a.71.71,0,0,1,.708.713h0v3.562a.711.711,0,0,1-.7.716h-5.668a.709.709,0,0,1-.705-.715h0V113.1a.709.709,0,0,1,.707-.713Z" transform="translate(2.93 -0.446)" fill="#fff" stroke="#aeaeae" stroke-linecap="round" stroke-linejoin="round" stroke-width="1.5"/>
      <path id="Vector-2-10" data-name="Vector-2" d="M969.379,116.838v-5.972a.879.879,0,0,0-.2-.571.651.651,0,0,0-.492-.238H967.29a.648.648,0,0,0-.492.237.874.874,0,0,0-.2.572v5.972" transform="translate(2.283 -0.02)" fill="none" stroke="#aeaeae" stroke-linecap="round" stroke-linejoin="round" stroke-width="1.5"/>
      <path id="패스_2780" data-name="패스 2780" d="M961.939,109.412l1.051.753v5.769h9.433" transform="translate(1.828 1)" fill="none" stroke="#aeaeae" stroke-linecap="round" stroke-linejoin="round" stroke-width="1.5"/>
      <path id="Vector-18" data-name="Vector" d="M1.379.689A.689.689,0,1,1,.689,0,.689.689,0,0,1,1.379.689Z" transform="translate(966.047 117.439)" fill="#aeaeae"/>
      <path id="Vector-19" data-name="Vector" d="M1.379.689A.689.689,0,1,1,.689,0,.689.689,0,0,1,1.379.689Z" transform="translate(973.125 117.439)" fill="#aeaeae"/>
    </g>
    <g id="그룹_4129" data-name="그룹 4129">
      <rect id="사각형_9844" data-name="사각형 9844" width="14" height="14" transform="translate(992.971 107.85)" fill="none"/>
      <g id="ic_x12_close" transform="translate(993.971 108.85)">
        <rect id="container-18" data-name="container" width="12" height="12" fill="#fff" opacity="0"/>
        <g id="그룹_4003" data-name="그룹 4003" transform="translate(-319.204 -1186.529)">
          <path id="패스_2586" data-name="패스 2586" d="M321.2,1188.529l8,8" transform="translate(0 0)" fill="none" stroke="#abccff" stroke-linecap="round" stroke-width="2"/>
          <path id="패스_2587" data-name="패스 2587" d="M329.2,1188.529l-8,8" transform="translate(0 0)" fill="none" stroke="#abccff" stroke-linecap="round" stroke-width="2"/>
        </g>
      </g>
    </g>
  </g>
  <g id="그룹_4128" data-name="그룹 4128" transform="translate(17 -39)">
    <rect id="사각형_9843" data-name="사각형 9843" width="14" height="14" transform="translate(153 59)" fill="none"/>
    <g id="ic_x12_more-2" data-name="ic_x12_more" transform="translate(154 60)">
      <rect id="container-19" data-name="container" width="12" height="12" fill="#fff" opacity="0"/>
      <path id="패스_2783" data-name="패스 2783" d="M1,0A1,1,0,0,1,2,1V11a1,1,0,0,1-2,0V1A1,1,0,0,1,1,0Z" transform="translate(5)" fill="#abccff"/>
      <rect id="사각형_2612-2" data-name="사각형 2612" width="2" height="12" rx="1" transform="translate(0 7) rotate(-90)" fill="#abccff"/>
    </g>
  </g>
  <g id="그룹_15163" data-name="그룹 15163" transform="translate(4 -23)">
    <rect id="사각형_11214" data-name="사각형 11214" width="14" height="14" transform="translate(140 63)" fill="none"/>
    <g id="ic_x12_seat_number" transform="translate(-894.151 -121.766)">
      <g id="seat-3" data-name="seat">
        <path id="Ellipse_97" data-name="Ellipse 97" d="M1.277-.75A2.027,2.027,0,1,1-.75,1.277,2.029,2.029,0,0,1,1.277-.75Zm0,2.554A.527.527,0,1,0,.75,1.277.528.528,0,0,0,1.277,1.8Z" transform="translate(1043.525 186.666)" fill="#aeaeae"/>
        <path id="Path_2646" data-name="Path 2646" d="M1043.512,189.8a2.032,2.032,0,0,1,1.622.813l.015.021a2.236,2.236,0,0,1-.182,2.414c-.122.188-.978,1.5-1.232,1.824a.777.777,0,0,1-.053.061,3.071,3.071,0,0,1-2.19.926c-.085,0-.172,0-.257-.011a3.4,3.4,0,0,1-1.732-.57l-1.193,1.654a1.464,1.464,0,0,1-1.216.651,1.771,1.771,0,0,1-.734-.168,1.526,1.526,0,0,1-.634-2.356l2.157-2.87.009-.012a1.714,1.714,0,0,1,1.382-.658,2.785,2.785,0,0,1,1.258.341l.008,0,.309.181.648-.976a2.369,2.369,0,0,1,.988-.988A2.019,2.019,0,0,1,1043.512,189.8Zm.409,1.7a.522.522,0,0,0-.675-.124q-.027.017-.056.032a.856.856,0,0,0-.375.379.759.759,0,0,1-.047.081l-.765,1.152a1.2,1.2,0,0,1-1.06.593,1.606,1.606,0,0,1-.548-.1.748.748,0,0,1-.123-.058l-.485-.285a1.292,1.292,0,0,0-.515-.144.212.212,0,0,0-.2.078l-2.157,2.871-.014.018a.017.017,0,0,0,0,.025l.01.007a.5.5,0,0,0,.155.064l.012-.016.005-.008,1.677-2.325a.75.75,0,0,1,1.179-.047,1.9,1.9,0,0,0,1.366.665l.038,0c.047,0,.094.006.141.006a1.564,1.564,0,0,0,1.086-.442c.2-.263.792-1.164,1.138-1.7l.013-.019C1043.863,192,1044,191.637,1043.921,191.5Z" fill="#aeaeae"/>
      </g>
    </g>
  </g>
  <g id="그룹_15161" data-name="그룹 15161" transform="translate(4 -23)">
    <rect id="사각형_11219" data-name="사각형 11219" width="14" height="14" transform="translate(204 63)" fill="none"/>
    <g id="ic_x12_usb_port" transform="translate(-844.62 -98.619)">
      <rect id="container-20" data-name="container" width="12" height="12" transform="translate(1049.62 162.619)" fill="#ff9292" opacity="0"/>
      <line id="Line_45" data-name="Line 45" y2="0.396" transform="translate(1054.546 165.408)" fill="none" stroke="#aeaeae" stroke-linecap="round" stroke-linejoin="round" stroke-width="1.5"/>
      <line id="Line_46" data-name="Line 46" y2="0.396" transform="translate(1056.694 165.408)" fill="none" stroke="#aeaeae" stroke-linecap="round" stroke-linejoin="round" stroke-width="1.5"/>
      <rect id="Rectangle_12060" data-name="Rectangle 12060" width="10.5" height="5.87" transform="translate(1050.37 167.987)" fill="none" stroke="#aeaeae" stroke-linecap="round" stroke-linejoin="round" stroke-width="1.5"/>
      <path id="Path_21458" data-name="Path 21458" d="M2.851,5.191V1.163H9.143V5.191" transform="translate(1049.623 162.216)" fill="none" stroke="#aeaeae" stroke-linecap="round" stroke-linejoin="round" stroke-width="1.5"/>
    </g>
  </g>
  <g id="그룹_15160" data-name="그룹 15160" transform="translate(4 -23)">
    <rect id="사각형_11220" data-name="사각형 11220" width="14" height="14" transform="translate(220 63)" fill="none"/>
    <g id="ic_x12_plug-2" data-name="ic_x12_plug" transform="translate(-770.161 -70.585)">
      <path id="container-21" data-name="container" d="M0,0H12V12H0Z" transform="translate(991.161 134.585)" fill="none"/>
      <g id="plug-2" data-name="plug">
        <path id="Vector-2-11" data-name="Vector-2" d="M997.419,146.161a5.325,5.325,0,1,0-5.326-5.325,5.325,5.325,0,0,0,5.326,5.325Z" transform="translate(-0.251 -0.251)" fill="none" stroke="#aeaeae" stroke-linecap="round" stroke-linejoin="round" stroke-width="1.5"/>
        <path id="Vector-3-9" data-name="Vector-3" d="M998.2,139.759V138.4" transform="translate(0.052 -0.108)" fill="none" stroke="#aeaeae" stroke-linecap="round" stroke-linejoin="round" stroke-width="1.5"/>
        <path id="Vector-4-5" data-name="Vector-4" d="M996.13,139.759V138.4" transform="translate(-0.051 -0.108)" fill="none" stroke="#aeaeae" stroke-linecap="round" stroke-linejoin="round" stroke-width="1.5"/>
        <path id="Vector-5-4" data-name="Vector-5" d="M997.27,142.666a2.045,2.045,0,0,0,2.175-1.884v-.706h-4.351v.706A2.045,2.045,0,0,0,997.27,142.666Z" transform="translate(-0.103 -0.025)" fill="none" stroke="#aeaeae" stroke-linecap="round" stroke-linejoin="round" stroke-width="1.5"/>
        <path id="Vector-6-6" data-name="Vector-6" d="M997.167,145.807v-3.263" transform="translate(0 0.097)" fill="none" stroke="#aeaeae" stroke-linecap="round" stroke-linejoin="round" stroke-width="1.5"/>
      </g>
    </g>
  </g>
  <g id="그룹_15159" data-name="그룹 15159" transform="translate(4 -23)">
    <rect id="사각형_11221" data-name="사각형 11221" width="14" height="14" transform="translate(236 63)" fill="none"/>
  </g>
  <g id="그룹_15158" data-name="그룹 15158" transform="translate(4 -23)">
    <rect id="사각형_11222" data-name="사각형 11222" width="14" height="14" transform="translate(252 63)" fill="none"/>
  </g>
  <g id="ic_x12_etc" transform="translate(-792.598 -121.64)">
    <path id="container-22" data-name="container" d="M0,0H12V12H0Z" transform="translate(1049.62 162.619)" fill="none"/>
    <path id="Ellipse_1788" data-name="Ellipse 1788" d="M5.271-.75A6.021,6.021,0,1,1-.75,5.271,6.021,6.021,0,0,1,5.271-.75Zm0,10.543A4.521,4.521,0,1,0,.75,5.272,4.521,4.521,0,0,0,5.271,9.793Z" transform="translate(1050.348 163.348)" fill="#aeaeae"/>
    <path id="Path_21459" data-name="Path 21459" d="M4.312,5.663A.815.815,0,1,1,3.5,4.848a.815.815,0,0,1,.812.815" transform="translate(1049.767 162.955)" fill="#aeaeae"/>
    <path id="Path_21460" data-name="Path 21460" d="M6.479,5.663a.815.815,0,1,1-.815-.815.815.815,0,0,1,.815.815" transform="translate(1049.956 162.955)" fill="#aeaeae"/>
    <path id="Path_21461" data-name="Path 21461" d="M8.645,5.663a.815.815,0,1,1-.815-.815.815.815,0,0,1,.815.815" transform="translate(1050.146 162.955)" fill="#aeaeae"/>
  </g>
  <g id="ic_x12_seat_slope" transform="translate(-793.881 -144.706)">
    <rect id="container-23" data-name="container" width="12" height="12" transform="translate(1034.881 185.664)" fill="#fb6565" opacity="0"/>
    <g id="seat-4" data-name="seat">
      <circle id="Ellipse_97-2" data-name="Ellipse 97" cx="1.277" cy="1.277" r="1.277" transform="translate(1043.525 186.666)" fill="none" stroke="#aeaeae" stroke-linecap="round" stroke-linejoin="round" stroke-width="1.5"/>
      <path id="Path_2646-2" data-name="Path 2646" d="M1042.85,190.739a1.6,1.6,0,0,0-.706.713l-.784,1.181s-.171.366-.707.171l-.494-.29s-1.09-.622-1.677.128l-2.163,2.878a.767.767,0,0,0,.17,1.115s.741.532,1.21-.136l1.677-2.325a2.643,2.643,0,0,0,1.907.928,2.3,2.3,0,0,0,1.861-.689c.246-.315,1.2-1.78,1.2-1.78s.641-.917.189-1.569a1.272,1.272,0,0,0-1.683-.325Z" fill="none" stroke="#aeaeae" stroke-linecap="round" stroke-linejoin="round" stroke-width="1.5"/>
      <path id="Path_21454" data-name="Path 21454" d="M.75,4.062H4.674L6.73.75" transform="translate(1034.881 185.731)" fill="none" stroke="#aeaeae" stroke-linecap="round" stroke-linejoin="round" stroke-width="1.5"/>
      <path id="Path_21455" data-name="Path 21455" d="M5.779,2.282a2.768,2.768,0,0,0-2.138-.063A2.211,2.211,0,0,0,2.6,4.061" transform="translate(1034.881 185.731)" fill="none" stroke="#aeaeae" stroke-linecap="round" stroke-linejoin="round" stroke-width="1.5"/>
    </g>
  </g>
  <g id="그룹_15164" data-name="그룹 15164" transform="translate(4 -23)">
    <rect id="사각형_11215" data-name="사각형 11215" width="14" height="14" transform="translate(156 63)" fill="none"/>
    <g id="ic_x12_arrangement_" data-name="ic_x12_arrangement " transform="translate(-877.762 -103.898)">
      <rect id="container-24" data-name="container" width="12" height="12" transform="translate(1034.881 167.949)" fill="none"/>
      <g id="three-2" data-name="three" transform="translate(0.269 -0.91)">
        <path id="Vector-2-12" data-name="Vector-2" d="M1039.05,173.119h3.488v3.487h-3.488Z" transform="translate(-0.179)" fill="#fff" stroke="#aeaeae" stroke-linecap="round" stroke-linejoin="round" stroke-width="1.5"/>
        <path id="Vector-3-10" data-name="Vector-3" d="M1035.38,173.119h3.488v3.487h-3.488Z" fill="#fff" stroke="#aeaeae" stroke-linecap="round" stroke-linejoin="round" stroke-width="1.5"/>
        <path id="Vector-4-6" data-name="Vector-4" d="M1042.71,173.119h3.487v3.487h-3.487Z" transform="translate(-0.358)" fill="#fff" stroke="#aeaeae" stroke-linecap="round" stroke-linejoin="round" stroke-width="1.5"/>
      </g>
    </g>
  </g>
  <g id="그룹_15165" data-name="그룹 15165" transform="translate(4 -23)">
    <rect id="사각형_11216" data-name="사각형 11216" width="14" height="14" transform="translate(172 63)" fill="none"/>
    <rect id="사각형_11217" data-name="사각형 11217" width="14" height="14" transform="translate(172 63)" fill="none"/>
    <g id="ic_x12_seat_distance-2" data-name="ic_x12_seat_distance" transform="translate(-861.762 -121.664)">
      <rect id="container-25" data-name="container" width="12" height="12" transform="translate(1034.881 185.664)" fill="none"/>
      <g id="seat-5" data-name="seat">
        <circle id="Ellipse_97-3" data-name="Ellipse 97" cx="1.277" cy="1.277" r="1.277" transform="translate(1043.525 186.666)" fill="none" stroke="#aeaeae" stroke-linecap="round" stroke-linejoin="round" stroke-width="1.5"/>
        <path id="Path_2646-3" data-name="Path 2646" d="M1042.85,190.739a1.6,1.6,0,0,0-.706.713l-.784,1.181s-.171.366-.707.171l-.494-.29s-1.09-.622-1.677.128l-2.163,2.878a.767.767,0,0,0,.17,1.115s.741.532,1.21-.136l1.677-2.325a2.643,2.643,0,0,0,1.907.928,2.3,2.3,0,0,0,1.861-.689c.246-.315,1.2-1.78,1.2-1.78s.641-.917.189-1.569a1.272,1.272,0,0,0-1.683-.325Z" fill="none" stroke="#aeaeae" stroke-linecap="round" stroke-linejoin="round" stroke-width="1.5"/>
        <path id="Vector-6-7" data-name="Vector-6" d="M1037.33,186.5l-1.652,1.653,1.652,1.652" fill="none" stroke="#aeaeae" stroke-linecap="round" stroke-linejoin="round" stroke-width="1.5"/>
        <path id="Vector-7-4" data-name="Vector-7" d="M1035.67,188.153h5.489" fill="none" stroke="#aeaeae" stroke-linecap="round" stroke-linejoin="round" stroke-width="1.5"/>
        <path id="Vector-6-8" data-name="Vector-6" d="M1039.59,189.8l1.653-1.652-1.653-1.653" fill="none" stroke="#aeaeae" stroke-linecap="round" stroke-linejoin="round" stroke-width="1.5"/>
      </g>
    </g>
  </g>
  <g id="그룹_15166" data-name="그룹 15166" transform="translate(4 -23)">
    <rect id="사각형_11218" data-name="사각형 11218" width="14" height="14" transform="translate(188 63)" fill="none"/>
    <g id="ic_x12_seat_width" transform="translate(-860.62 -98.608)">
      <g id="그룹_15162" data-name="그룹 15162">
        <path id="Path_21456" data-name="Path 21456" d="M11.23,8.45H.75A.75.75,0,0,1,0,7.7V3.884a.75.75,0,0,1,.75-.75H2.771a.75.75,0,0,1,.75.75v.95H8.459v-.95a.75.75,0,0,1,.75-.75H11.23a.75.75,0,0,1,.75.75V7.7A.75.75,0,0,1,11.23,8.45ZM1.5,6.95h8.98V4.634H9.959v.95a.75.75,0,0,1-.75.75H2.771a.75.75,0,0,1-.75-.75v-.95H1.5Z" transform="translate(1049.62 162.608)" fill="#aeaeae"/>
        <path id="Rectangle_12058" data-name="Rectangle 12058" d="M0-.75H6.438a.75.75,0,0,1,.75.75V6.943a.75.75,0,0,1-.75.75H0a.75.75,0,0,1-.75-.75V0A.75.75,0,0,1,0-.75ZM5.688.75H.75V6.193H5.688Z" transform="translate(1052.391 163.367)" fill="#aeaeae"/>
        <path id="Line_40" data-name="Line 40" d="M0,2.14a.75.75,0,0,1-.75-.75V0A.75.75,0,0,1,0-.75.75.75,0,0,1,.75,0V1.39A.75.75,0,0,1,0,2.14Z" transform="translate(1050.629 172.459)" fill="#aeaeae"/>
        <path id="Line_41" data-name="Line 41" d="M0,2.14a.75.75,0,0,1-.75-.75V0A.75.75,0,0,1,0-.75.75.75,0,0,1,.75,0V1.39A.75.75,0,0,1,0,2.14Z" transform="translate(1060.605 172.459)" fill="#aeaeae"/>
        <path id="Line_42" data-name="Line 42" d="M9.975.75H0A.75.75,0,0,1-.75,0,.75.75,0,0,1,0-.75H9.975a.75.75,0,0,1,.75.75A.75.75,0,0,1,9.975.75Z" transform="translate(1050.629 173.154)" fill="#aeaeae"/>
        <path id="Line_43" data-name="Line 43" d="M0,1.8a.75.75,0,0,1-.75-.75V0A.75.75,0,0,1,0-.75.75.75,0,0,1,.75,0V1.053A.75.75,0,0,1,0,1.8Z" transform="translate(1059.122 170.308)" fill="#aeaeae"/>
        <path id="Line_44" data-name="Line 44" d="M0,1.8a.75.75,0,0,1-.75-.75V0A.75.75,0,0,1,0-.75.75.75,0,0,1,.75,0V1.053A.75.75,0,0,1,0,1.8Z" transform="translate(1052.097 170.308)" fill="#aeaeae"/>
      </g>
    </g>
  </g>
</svg>
