<svg xmlns="http://www.w3.org/2000/svg" width="24" height="24" viewBox="0 0 24 24">
  <defs>
    <style>
      .cls-1 {
        fill: #a82323;
        opacity: 0;
      }

      .cls-2 {
        fill: #aeaeae;
      }

      .cls-3, .cls-6 {
        fill: none;
      }

      .cls-3 {
        stroke: #aeaeae;
        stroke-width: 2px;
      }

      .cls-4 {
        fill: gray;
      }

      .cls-5 {
        stroke: none;
      }
    </style>
  </defs>
  <g id="ic_x18_coffee_mono" transform="translate(-0.035 -0.035)">
    <rect id="container" class="cls-1" width="24" height="24" transform="translate(0.035 0.035)"/>
    <g id="Group_5489" data-name="Group 5489">
      <path id="Rectangle_2923" data-name="Rectangle 2923" class="cls-2" d="M1,0H15a1,1,0,0,1,1,1V12a4,4,0,0,1-4,4H4a4,4,0,0,1-4-4V1A1,1,0,0,1,1,0Z" transform="translate(3.035 5.035)"/>
      <g id="Rectangle_2924" data-name="Rectangle 2924" class="cls-3" transform="translate(16.035 7.035)">
        <path class="cls-5" d="M0,0H5A2,2,0,0,1,7,2V6a4,4,0,0,1-4,4H0a0,0,0,0,1,0,0V0A0,0,0,0,1,0,0Z"/>
        <path class="cls-6" d="M2,1H5A1,1,0,0,1,6,2V6A3,3,0,0,1,3,9H2A1,1,0,0,1,1,8V2A1,1,0,0,1,2,1Z"/>
      </g>
      <rect id="Rectangle_2925" data-name="Rectangle 2925" class="cls-4" width="16" height="2" rx="1" transform="translate(3.035 21.035)"/>
      <rect id="Rectangle_83" data-name="Rectangle 83" class="cls-4" width="3" height="3" rx="1.5" transform="translate(1.035 1.035)"/>
    </g>
  </g>
</svg>
