<svg xmlns="http://www.w3.org/2000/svg" width="24" height="24" viewBox="0 0 24 24"><g fill="#fff" stroke="#707070" stroke-width="1" opacity="0"><rect width="24" height="24" stroke="none"/><rect x="0.5" y="0.5" width="23" height="23" fill="none"/></g><g transform="translate(-10 -14)"><path d="M21,14H2a2,2,0,0,1-2-2V9A2,2,0,0,0,2,7,2,2,0,0,0,0,5V2A2,2,0,0,1,2,0H21a2,2,0,0,1,2,2V5a2,2,0,1,0,0,4v3A2,2,0,0,1,21,14Z" transform="translate(11 17)" fill="#6531ce"/><rect width="23" height="2" rx="1" transform="translate(11 33)" fill="#260b5b"/><rect width="13" height="8" rx="1" transform="translate(16 20)" fill="#fff"/><circle cx="1.5" cy="1.5" r="1.5" transform="translate(21 22.43)" fill="#e83667"/></g></svg>