<svg xmlns="http://www.w3.org/2000/svg" width="40" height="40">
    <g data-name="Group 5540" transform="translate(7 5)">
        <g data-name="Union 85" style="fill:none">
            <path d="M0 21V7a7 7 0 0 1 14 0v14z" style="stroke:none" transform="translate(6)"/>
            <path d="M11 18V6.997A4.004 4.004 0 0 0 7 3C4.793 3 3 4.793 3 6.997V18h8m3 3H0V6.997A6.998 6.998 0 0 1 7 0c3.861 0 7 3.134 7 6.997V21z" style="fill:#cacaca;stroke:none" transform="translate(6)"/>
        </g>
        <rect data-name="Rectangle 3378" width="26" height="19" rx="4" transform="translate(0 11)" style="fill:#cacaca"/>
        <g data-name="Group 5539" transform="translate(10 16)">
            <circle data-name="Ellipse 134" cx="3" cy="3" r="3" style="fill:#fff"/>
            <path data-name="Path 2742" d="M188 964v5.282" transform="translate(-185 -960.589)" style="stroke:#fff;stroke-linecap:round;stroke-width:2px;fill:none"/>
        </g>
    </g>
</svg>
