<svg xmlns="http://www.w3.org/2000/svg" width="38" height="38" viewBox="0 0 38 38">
  <defs>
    <style>
      .cls-1 {
        fill: red;
        opacity: 0;
      }

      .cls-2 {
        fill: #606060;
      }

      .cls-3 {
        fill: #cacaca;
      }

      .cls-4 {
        fill: #aeaeae;
      }

      .cls-5 {
        fill: #fff;
      }

      .cls-6 {
        fill: gray;
      }
    </style>
  </defs>
  <g id="icon" transform="translate(-13 -14)">
    <rect id="_38_38" data-name="38*38" class="cls-1" width="38" height="38" transform="translate(13 14)"/>
    <g id="ic_x38_Followers" transform="translate(0 -0.322)">
      <path id="패스_18278" data-name="패스 18278" class="cls-2" d="M5.621,19.763V37.406c0,1.216,1.643,1.977,2.956,1.368l1.973-.914,3.936-1.822a2.421,2.421,0,0,1,1.989,0l3.935,1.822,1.971.913c1.315.609,2.959-.152,2.959-1.37V19.763Z" transform="translate(16.719 13.334)"/>
      <path id="패스_18279" data-name="패스 18279" class="cls-3" d="M30.4,15.2A15.2,15.2,0,1,1,15.2,0,15.2,15.2,0,0,1,30.4,15.2" transform="translate(17 14.322)"/>
      <path id="패스_18280" data-name="패스 18280" class="cls-4" d="M15.371,2.254a13.117,13.117,0,0,1,9.276,22.393A13.117,13.117,0,0,1,6.1,6.1,13.03,13.03,0,0,1,15.371,2.254Zm0,24.218a11.1,11.1,0,1,0-11.1-11.1A11.113,11.113,0,0,0,15.371,26.472Z" transform="translate(16.829 14.151)"/>
      <path id="패스_18281" data-name="패스 18281" class="cls-5" d="M18.912,12.818l3,.7a.5.5,0,0,1,.262.806l-2.009,2.334a1.98,1.98,0,0,0-.472,1.458l.257,3.069a.5.5,0,0,1-.685.5L16.422,20.5a1.982,1.982,0,0,0-1.533,0L12.05,21.692a.5.5,0,0,1-.686-.5l.253-3.069a1.985,1.985,0,0,0-.474-1.458L9.131,14.336a.5.5,0,0,1,.261-.807l3-.708a1.978,1.978,0,0,0,1.24-.9l1.6-2.634a.5.5,0,0,1,.846,0l1.6,2.632a1.978,1.978,0,0,0,1.241.9" transform="translate(16.55 13.87)"/>
      <path id="패스_18282" data-name="패스 18282" class="cls-6" d="M16.5,14.9a2,2,0,1,1-2,2,2,2,0,0,1,2-2" transform="translate(15.7 12.618)"/>
    </g>
  </g>
</svg>
