<svg xmlns="http://www.w3.org/2000/svg" width="38" height="38" viewBox="0 0 38 38">
    <path data-name="패스 18341" d="M5.621 19.763v17.643c0 1.216 1.643 1.977 2.956 1.368l1.973-.914 3.936-1.822a2.421 2.421 0 0 1 1.989 0l3.935 1.822 1.971.913c1.315.609 2.959-.152 2.959-1.37v-17.64z" transform="translate(3.719 -.988)" style="fill:#1d68dc"/>
    <path data-name="패스 18342" d="M30.4 15.2A15.2 15.2 0 1 1 15.2 0a15.2 15.2 0 0 1 15.2 15.2" transform="translate(4)" style="fill:#85b5ff"/>
    <path data-name="패스 18343" d="M15.363 2.254a13.109 13.109 0 0 1 9.27 22.378A13.109 13.109 0 0 1 6.094 6.094a13.021 13.021 0 0 1 9.269-3.84zm0 24.218A11.109 11.109 0 1 0 4.255 15.363a11.121 11.121 0 0 0 11.108 11.109z" transform="translate(3.837 -.163)" style="fill:#569aff"/>
    <path data-name="패스 18344" d="m21.514 16.162-.772-2.262a1.045 1.045 0 0 0-.99-.708H11.63a1.045 1.045 0 0 0-.99.708l-.772 2.267a1.164 1.164 0 0 0 .183 1.066l.207.211.006.009 4.682 4.75a1.046 1.046 0 0 0 1.49 0l4.682-4.75.007-.009.207-.211a1.169 1.169 0 0 0 .183-1.066" transform="translate(3.509 -.159)" style="fill:#fff"/>
    <path data-name="패스 18345" d="M16.415 9a2 2 0 1 1-2 2 2 2 0 0 1 2-2" transform="translate(2.785 -.95)" style="fill:#e83667"/>
    <path data-name="패스 18346" d="M15.085 17.365h-3.136a.95.95 0 0 1 0-1.9h3.136a.95.95 0 0 1 0 1.9" transform="translate(3.45 -.273)" style="fill:#18225c"/>
</svg>
