<svg xmlns="http://www.w3.org/2000/svg" width="38" height="38" viewBox="0 0 38 38">
    <path data-name="패스 18288" d="M5.621 19.763v17.643c0 1.216 1.643 1.977 2.956 1.368l1.973-.914 3.936-1.822a2.421 2.421 0 0 1 1.989 0l3.935 1.822 1.971.913c1.315.609 2.959-.152 2.959-1.37v-17.64z" transform="translate(3.719 -.988)" style="fill:#1d68dc"/>
    <path data-name="패스 18289" d="M30.4 15.2A15.2 15.2 0 1 1 15.2 0a15.2 15.2 0 0 1 15.2 15.2" transform="translate(4)" style="fill:#85b5ff"/>
    <path data-name="패스 18290" d="M15.371 2.254a13.117 13.117 0 0 1 9.276 22.393A13.117 13.117 0 0 1 6.1 6.1a13.03 13.03 0 0 1 9.271-3.846zm0 24.218a11.1 11.1 0 1 0-11.1-11.1 11.113 11.113 0 0 0 11.1 11.1z" transform="translate(3.829 -.171)" style="fill:#569aff"/>
    <path data-name="패스 18300" d="M14 2.193a.548.548 0 0 0-.785-.527L9.939 3.242 7.423.2a.548.548 0 0 0-.845 0L4.061 3.242.786 1.666A.548.548 0 0 0 0 2.193l.35 5.695c0 .009-.005.017-.005.026a1.275 1.275 0 0 0 1.276 1.275h10.765a1.275 1.275 0 0 0 1.275-1.275c0-.019-.01-.035-.01-.054z" transform="translate(12.201 8.964)" style="fill:#fff"/>
    <path data-name="패스 18301" d="M7 4.218A1.585 1.585 0 1 1 5.415 5.8 1.585 1.585 0 0 1 7 4.218" transform="translate(12.201 8.964)" style="fill:#e83667"/>
    <path data-name="패스 18302" d="M11 12.473H3a1 1 0 0 1 0-2h8a1 1 0 0 1 0 2" transform="translate(12.201 8.964)" style="fill:#18225c"/>
</svg>
