<svg xmlns="http://www.w3.org/2000/svg" width="38" height="38" viewBox="0 0 38 38">
  <defs>
    <style>
      .cls-1 {
        fill: red;
        opacity: 0;
      }

      .cls-2 {
        fill: #606060;
      }

      .cls-3 {
        fill: #cacaca;
      }

      .cls-4 {
        fill: #aeaeae;
      }

      .cls-5 {
        fill: #fff;
      }

      .cls-6 {
        fill: gray;
      }
    </style>
  </defs>
  <g id="icon" transform="translate(-12 -13)">
    <rect id="_38_38" data-name="38*38" class="cls-1" width="38" height="38" transform="translate(12 13)"/>
    <g id="ic_x38_Master" transform="translate(-1 -1.322)">
      <path id="패스_18288" data-name="패스 18288" class="cls-2" d="M5.621,19.763V37.406c0,1.216,1.643,1.977,2.956,1.368l1.973-.914,3.936-1.822a2.421,2.421,0,0,1,1.989,0l3.935,1.822,1.971.913c1.315.609,2.959-.152,2.959-1.37V19.763Z" transform="translate(16.719 13.334)"/>
      <path id="패스_18289" data-name="패스 18289" class="cls-3" d="M30.4,15.2A15.2,15.2,0,1,1,15.2,0,15.2,15.2,0,0,1,30.4,15.2" transform="translate(17 14.322)"/>
      <path id="패스_18290" data-name="패스 18290" class="cls-4" d="M15.371,2.254a13.117,13.117,0,0,1,9.276,22.393A13.117,13.117,0,0,1,6.1,6.1,13.03,13.03,0,0,1,15.371,2.254Zm0,24.218a11.1,11.1,0,1,0-11.1-11.1A11.113,11.113,0,0,0,15.371,26.472Z" transform="translate(16.829 14.151)"/>
      <path id="패스_18300" data-name="패스 18300" class="cls-5" d="M14,2.193a.548.548,0,0,0-.785-.527L9.939,3.242,7.423.2a.548.548,0,0,0-.845,0L4.061,3.242.786,1.666A.548.548,0,0,0,0,2.193l.35,5.695c0,.009-.005.017-.005.026A1.275,1.275,0,0,0,1.621,9.189H12.386a1.275,1.275,0,0,0,1.275-1.275c0-.019-.01-.035-.01-.054Z" transform="translate(25.201 23.286)"/>
      <path id="패스_18301" data-name="패스 18301" class="cls-6" d="M7,4.218A1.585,1.585,0,1,1,5.415,5.8,1.585,1.585,0,0,1,7,4.218" transform="translate(25.201 23.286)"/>
      <path id="패스_18302" data-name="패스 18302" class="cls-2" d="M11,12.473H3a1,1,0,0,1,0-2h8a1,1,0,0,1,0,2" transform="translate(25.201 23.286)"/>
    </g>
  </g>
</svg>
