<svg xmlns="http://www.w3.org/2000/svg" width="38" height="38" viewBox="0 0 38 38">
    <defs>
        <style>
            .cls-4{fill:#569aff}.cls-5{fill:#fff}
        </style>
    </defs>
    <g id="ic_x38_God" transform="translate(-1 -1)">
        <path id="패스_18349" data-name="패스 18349" d="M5.621 19.763v17.643c0 1.216 1.643 1.977 2.956 1.368l1.973-.914 3.936-1.822a2.421 2.421 0 0 1 1.989 0l3.935 1.822 1.971.913c1.315.609 2.959-.152 2.959-1.37v-17.64z" transform="translate(4.519 .012)" style="fill:#1d68dc"/>
        <path id="패스_18350" data-name="패스 18350" d="M30.4 15.2A15.2 15.2 0 1 1 15.2 0a15.2 15.2 0 0 1 15.2 15.2" transform="translate(4.8 1)" style="fill:#85b5ff"/>
        <path id="패스_18351" data-name="패스 18351" class="cls-4" d="M15.363 2.254a13.109 13.109 0 0 1 9.27 22.378A13.109 13.109 0 0 1 6.094 6.094a13.021 13.021 0 0 1 9.269-3.84zm0 24.218A11.109 11.109 0 1 0 4.255 15.363a11.121 11.121 0 0 0 11.108 11.109z" transform="translate(4.637 .837)"/>
        <path id="패스_18352" data-name="패스 18352" class="cls-5" d="M17.226 22.9h-2.559a.621.621 0 0 1-.62-.621v-.049a.621.621 0 0 1 .62-.621h2.558a.622.622 0 0 1 .621.621v.051a.622.622 0 0 1-.621.621" transform="translate(4.098 -.08)"/>
        <path id="패스_18353" data-name="패스 18353" d="M21.046 12.962a2 2 0 1 1-2 2 2 2 0 0 1 2-2" transform="translate(3.848 .352)" style="fill:#e83667"/>
        <path id="패스_18354" data-name="패스 18354" d="M11.047 12.962a2 2 0 1 1-2 2 2 2 0 0 1 2-2" transform="translate(4.246 .352)" style="fill:#18225c"/>
        <path id="패스_18355" data-name="패스 18355" class="cls-5" d="M15.8 20.185a4.751 4.751 0 0 1-4.75-4.75v-4.626a.622.622 0 0 1 .621-.621h8.257a.622.622 0 0 1 .621.621v4.626a4.751 4.751 0 0 1-4.75 4.75" transform="translate(4.248 .491)"/>
        <path id="패스_18356" data-name="패스 18356" class="cls-4" d="m16.971 14.344.791.186a.131.131 0 0 1 .07.213l-.53.615a.526.526 0 0 0-.125.385l.067.809a.13.13 0 0 1-.181.132l-.749-.313a.521.521 0 0 0-.4 0l-.749.314a.13.13 0 0 1-.181-.131l.066-.81a.523.523 0 0 0-.125-.384l-.531-.615a.131.131 0 0 1 .068-.213l.791-.187a.525.525 0 0 0 .328-.238l.42-.7a.131.131 0 0 1 .224 0l.421.694a.524.524 0 0 0 .328.238" transform="translate(3.89 .292)"/>
    </g>
</svg>
