<svg xmlns="http://www.w3.org/2000/svg" width="38" height="38" viewBox="0 0 38 38">
  <defs>
    <style>
      .cls-1 {
        fill: red;
        opacity: 0;
      }

      .cls-2 {
        fill: #1d68dc;
      }

      .cls-3 {
        fill: #85b5ff;
      }

      .cls-4 {
        fill: #569aff;
      }

      .cls-5 {
        fill: #fff;
      }

      .cls-6 {
        fill: #e83667;
      }
    </style>
  </defs>
  <g id="icon" transform="translate(-1 -2)">
    <rect id="_38_38" data-name="38*38" class="cls-1" width="38" height="38" transform="translate(1 2)"/>
    <g id="ic_x38_Beginner">
      <path id="패스_18336" data-name="패스 18336" class="cls-2" d="M5.59,19.794V37.423c0,1.215,1.641,1.975,2.954,1.367l1.972-.913,3.933-1.821a2.419,2.419,0,0,1,1.988,0l3.932,1.821,1.97.912c1.314.608,2.957-.152,2.957-1.369V19.794Z" transform="translate(4.716 0.996)"/>
      <path id="패스_18337" data-name="패스 18337" class="cls-3" d="M30.376,15.188A15.188,15.188,0,1,1,15.188,0,15.188,15.188,0,0,1,30.376,15.188" transform="translate(5 2)"/>
      <path id="패스_18338" data-name="패스 18338" class="cls-4" d="M15.353,2.254a13.1,13.1,0,0,1,9.263,22.362A13.1,13.1,0,0,1,6.091,6.091,13.012,13.012,0,0,1,15.353,2.254Zm0,24.2a11.1,11.1,0,1,0-11.1-11.1A11.112,11.112,0,0,0,15.353,26.453Z" transform="translate(4.835 1.835)"/>
      <path id="패스_18339" data-name="패스 18339" class="cls-5" d="M18.863,13.483l3.089,1.687a.539.539,0,0,1,0,.945l-3.086,1.691A2.693,2.693,0,0,0,17.8,18.878L16.11,21.966a.539.539,0,0,1-.945,0l-1.692-3.086A2.7,2.7,0,0,0,12.4,17.811L9.312,16.125a.539.539,0,0,1,0-.945L12.4,13.488a2.693,2.693,0,0,0,1.071-1.072l1.686-3.089a.539.539,0,0,1,.945,0l1.692,3.087a2.7,2.7,0,0,0,1.072,1.07" transform="translate(4.542 1.541)"/>
      <path id="패스_18340" data-name="패스 18340" class="cls-6" d="M16.438,14.361a2,2,0,1,1-2,2,2,2,0,0,1,2-2" transform="translate(3.751 0.827)"/>
    </g>
  </g>
</svg>
