<svg xmlns="http://www.w3.org/2000/svg" xmlns:xlink="http://www.w3.org/1999/xlink" width="32" height="32" viewBox="0 0 32 32">
  <defs>
    <style>
      .cls-1 {
        fill: none;
      }

      .cls-2 {
        clip-path: url(#clip-path);
      }

      .cls-3 {
        opacity: 0;
      }

      .cls-4 {
        fill: #569aff;
      }

      .cls-5 {
        fill: #e83667;
      }

      .cls-6 {
        fill: #fff;
      }

      .cls-7 {
        fill: #85b5ff;
      }

      .cls-8 {
        fill: #18225c;
      }
    </style>
    <clipPath id="clip-path">
      <rect id="사각형_11423" data-name="사각형 11423" class="cls-1" width="32" height="32"/>
    </clipPath>
  </defs>
  <g id="그룹_15928" data-name="그룹 15928" class="cls-2">
    <g id="그룹_15927" data-name="그룹 15927">
      <g id="그룹_15926" data-name="그룹 15926" class="cls-2">
        <g id="그룹_15925" data-name="그룹 15925" class="cls-3">
          <g id="그룹_15924" data-name="그룹 15924">
            <g id="그룹_15923" data-name="그룹 15923" class="cls-2">
              <rect id="사각형_11420" data-name="사각형 11420" class="cls-4" width="32" height="32"/>
            </g>
          </g>
        </g>
        <path id="패스_17930" data-name="패스 17930" class="cls-5" d="M28,2a2,2,0,1,1-2,2,2,2,0,0,1,2-2"/>
        <path id="패스_17931" data-name="패스 17931" class="cls-4" d="M26.455,7H25.094a.618.618,0,0,0-.607.435,1.952,1.952,0,0,1-3.7,0,.609.609,0,0,0-.6-.435H5.543A2.454,2.454,0,0,0,3,9.353V20.647A2.455,2.455,0,0,0,5.545,23h15.27a.617.617,0,0,0,.607-.435,1.953,1.953,0,0,1,3.7,0A.619.619,0,0,0,25.73,23h.725A2.455,2.455,0,0,0,29,20.647V9.353A2.455,2.455,0,0,0,26.455,7M24,17.824a1,1,0,0,1-2,0v-.941a1,1,0,0,1,2,0Zm0-4.706a1,1,0,0,1-2,0v-.941a1,1,0,0,1,2,0Z"/>
        <path id="패스_17932" data-name="패스 17932" class="cls-6" d="M12,18a1,1,0,0,1-.707-.293l-2-2a1,1,0,1,1,1.414-1.414L12,15.586l2.293-2.293a1,1,0,0,1,1.414,1.414l-3,3A1,1,0,0,1,12,18"/>
        <path id="패스_17933" data-name="패스 17933" class="cls-7" d="M29,20.647V9.353A2.455,2.455,0,0,0,26.455,7H25.094a.617.617,0,0,0-.607.435A1.841,1.841,0,0,1,23,8.707v2.528a.972.972,0,0,1,1,.941v.942a.972.972,0,0,1-1,.941v1.882a.972.972,0,0,1,1,.941v.941a.973.973,0,0,1-1,.942v2.513a2.043,2.043,0,0,1,.273-.043,1.888,1.888,0,0,1,1.85,1.33A.619.619,0,0,0,25.73,23h.725A2.455,2.455,0,0,0,29,20.647"/>
        <path id="패스_17934" data-name="패스 17934" class="cls-8" d="M27,27H5a1,1,0,0,1,0-2H27a1,1,0,0,1,0,2"/>
      </g>
    </g>
  </g>
</svg>
