<svg id="BI_jejupass" xmlns="http://www.w3.org/2000/svg" width="108.004" height="17.961" viewBox="0 0 108.004 17.961">
    <defs>
        <style>
            .cls-1{fill:#fff}
        </style>
    </defs>
    <path id="Vector" class="cls-1" d="M0 0v10.238A7.131 7.131 0 0 0 1.236 14.7a6.682 6.682 0 0 0 5.386 2.409 6.682 6.682 0 0 0 5.386-2.409 7.09 7.09 0 0 0 1.236-4.467V0h-3.21v10.513A3.688 3.688 0 0 1 9.243 13a3.544 3.544 0 0 1-5.237 0 3.662 3.662 0 0 1-.792-2.485V0z" transform="translate(34.282 .847)"/>
    <path id="Vector-2" data-name="Vector" class="cls-1" d="M5.2 0v10.792a5.579 5.579 0 0 1-.368 2.71 1.423 1.423 0 0 1-1.27.576 1.9 1.9 0 0 1-1.6-.9L0 15.56a5.39 5.39 0 0 0 3.781 1.554 4.988 4.988 0 0 0 2.693-.754C8.3 15.09 8.4 12.774 8.4 11.279V0z" transform="translate(22.305 .847)"/>
    <path id="Vector-3" data-name="Vector" class="cls-1" d="M9.141 0H0v16.737h9.141v-2.811H3.209V9.361h5.682V6.55H3.209V2.811h5.932z" transform="translate(12.025 .841)"/>
    <path id="Vector-4" data-name="Vector" class="cls-1" d="M5.2 0v10.792a5.579 5.579 0 0 1-.368 2.71 1.423 1.423 0 0 1-1.27.576 1.9 1.9 0 0 1-1.6-.9L0 15.56a5.39 5.39 0 0 0 3.781 1.554 4.988 4.988 0 0 0 2.693-.754C8.3 15.09 8.4 12.774 8.4 11.279V0z" transform="translate(0 .847)"/>
    <path id="Vector-5" data-name="Vector" class="cls-1" d="M10.826 1.957A6.283 6.283 0 0 0 6.169 0C2.515 0 .885 2.461.885 4.921a3.916 3.916 0 0 0 1.308 3.112 7.816 7.816 0 0 0 2.744 1.452 7.4 7.4 0 0 1 2.54 1.232 1.956 1.956 0 0 1 .639 1.507 2.324 2.324 0 0 1-2.54 2.308A3.857 3.857 0 0 1 2.117 12.3L0 14.329a6.774 6.774 0 0 0 5.682 3.163c3.413 0 5.733-2.231 5.733-5.5a4.59 4.59 0 0 0-1.406-3.514 9.93 9.93 0 0 0-3.336-1.699A5.579 5.579 0 0 1 4.7 5.827 1.427 1.427 0 0 1 4.175 4.7a1.987 1.987 0 0 1 2.273-1.96 3.2 3.2 0 0 1 2.693 1.431z" transform="translate(91.555 .462)"/>
    <path id="Vector-6" data-name="Vector" class="cls-1" d="M10.826 1.957A6.283 6.283 0 0 0 6.169 0C2.511 0 .881 2.461.881 4.921a3.916 3.916 0 0 0 1.312 3.112 7.837 7.837 0 0 0 2.74 1.452 7.366 7.366 0 0 1 2.54 1.232 1.96 1.96 0 0 1 .644 1.507 2.326 2.326 0 0 1-2.54 2.308 3.857 3.857 0 0 1-3.46-2.232L0 14.329a6.774 6.774 0 0 0 5.682 3.163c3.408 0 5.733-2.231 5.733-5.5A4.59 4.59 0 0 0 10 8.473a9.908 9.908 0 0 0-3.327-1.694A5.579 5.579 0 0 1 4.7 5.827 1.414 1.414 0 0 1 4.175 4.7a1.987 1.987 0 0 1 2.273-1.96 3.2 3.2 0 0 1 2.693 1.431z" transform="translate(78.595 .462)"/>
    <path id="Vector-7" data-name="Vector" class="cls-1" d="M9.141 1.27C7.93.191 6.643 0 4.793 0H0v16.737h3.209V10.53h2.079a5.6 5.6 0 0 0 4.175-1.478 5.373 5.373 0 0 0 1.359-3.743A5.381 5.381 0 0 0 9.141 1.27zM6.622 7.2a3.264 3.264 0 0 1-2.122.523H3.192V2.8h1.114a3.84 3.84 0 0 1 2.274.525 2.316 2.316 0 0 1 .915 1.91A2.515 2.515 0 0 1 6.622 7.2z" transform="translate(51.375 .847)"/>
    <path id="Vector-8" data-name="Vector" class="cls-1" d="M9.611 0H7.092L0 16.737h3.485L8.3 4.543l4.742 12.194H16.5z" transform="translate(61.316 .841)"/>
    <path id="Vector-9" data-name="Vector" class="cls-1" d="M3.438 1.694A1.719 1.719 0 1 1 1.719 0a1.694 1.694 0 0 1 1.719 1.694z" transform="translate(104.566)"/>
</svg>
