<svg xmlns="http://www.w3.org/2000/svg" width="96" height="96" viewBox="0 0 96 96">
    <defs>
        <style>
            .cls-8{fill:#63a1ff}.cls-9{fill:#18225c}
        </style>
    </defs>
    <g id="ic_x96_complete_esg" transform="translate(-1002 -183)">
        <path id="Path_17581" data-name="Path 17581" d="M60.887 58.969 6.33 44.341a6 6 0 0 1-1.941-.911 6.06 6.06 0 0 0 1.668-4.185A6.088 6.088 0 0 0 2.886 33.9l7.891-29.431A6.037 6.037 0 0 1 18.163.206l54.558 14.628a6.037 6.037 0 0 1 4.263 7.386l-8.71 32.486a6.038 6.038 0 0 1-7.386 4.263" transform="translate(1010.015 198.537)" style="fill:#1d68dc"/>
        <path id="Path_17582" data-name="Path 17582" d="M62.507 62.008H6.03A6.037 6.037 0 0 1 0 55.978V44.434a5.277 5.277 0 0 0 5.272-5.271A5.277 5.277 0 0 0 0 33.891V22.349a6.037 6.037 0 0 1 6.03-6.03h56.477a6.036 6.036 0 0 1 6.03 6.03v11.542a5.272 5.272 0 0 0 0 10.543v11.544a6.036 6.036 0 0 1-6.03 6.03" transform="translate(1010 198.618)" style="fill:#fff"/>
        <path id="Path_17583" data-name="Path 17583" d="M68.254 41.236A11.861 11.861 0 1 1 56.393 53.1a11.861 11.861 0 0 1 11.861-11.864" transform="translate(1009.885 198.504)" style="fill:#cde0ff"/>
        <path id="Path_17584" data-name="Path 17584" d="M67.131 56.286a1.256 1.256 0 0 1-.919-.4l-2.534-2.722a1.256 1.256 0 1 1 1.839-1.712l1.615 1.735 3.227-3.466a1.256 1.256 0 0 1 1.841 1.711l-4.15 4.454a1.256 1.256 0 0 1-.919.4z" transform="translate(1010.202 198.798)" style="fill:#569aff"/>
        <g id="ic_x24_doc_esg" transform="translate(1028.2 220.8)">
            <path id="Path_17164" data-name="Path 17164" class="cls-8" d="M23.061 9.506s-6.224 1.345-7.635 5.927a4.461 4.461 0 0 0 .386 4.158s2.269 2.88 5.778.063c4.073-3.271 4.336-8.769 4.336-8.769s.054-1.193-.258-1.513c-.468-.472-2.607.134-2.607.134z" transform="translate(.656 -1.269)"/>
            <path id="Path_17163" data-name="Path 17163" class="cls-8" d="M1.05 6.183s2.583 3.63 5.327 1.894c1.87-1.183 1.368-4.631-.092-5.986A6.705 6.705 0 0 0 3.22.25C1.982-.108.826-.092.406.368c-.336.366-.961 3.25.644 5.815z" transform="rotate(-11 78.396 -20.83)"/>
            <path id="Path_17162" data-name="Path 17162" class="cls-9" d="M16.295 25.839a.719.719 0 0 1-.715-.649c-.452-4.64-5.309-7.656-5.358-7.686a.719.719 0 0 1 .749-1.227 15.467 15.467 0 0 1 2.81 2.337 13.335 13.335 0 0 1 2.046 2.741q.16.289.3.582c.155-.619.353-1.3.6-2.026a20.416 20.416 0 0 1 2.226-4.557 15.894 15.894 0 0 1 4.061-4.242.719.719 0 0 1 .83 1.173 16.487 16.487 0 0 0-5.76 8.1 20.491 20.491 0 0 0-1.075 4.785.719.719 0 0 1-.706.67z" transform="translate(-.884 .087)"/>
            <path id="Path_17162_-_Outline" data-name="Path 17162 - Outline" class="cls-9" d="M16.295 25.989a.866.866 0 0 1-.864-.784c-.445-4.561-5.239-7.543-5.287-7.572a.869.869 0 1 1 .905-1.483 15.633 15.633 0 0 1 2.84 2.362 13.485 13.485 0 0 1 2.068 2.772q.063.114.123.23c.15-.558.32-1.112.508-1.651a20.567 20.567 0 0 1 2.242-4.59 16.044 16.044 0 0 1 4.1-4.282.869.869 0 0 1 1 1.418 16.339 16.339 0 0 0-5.7 8.024 20.4 20.4 0 0 0-1.067 4.746.874.874 0 0 1-.854.81zm-5.7-9.667a.569.569 0 0 0-.3 1.054c.05.03 4.97 3.085 5.43 7.8a.567.567 0 0 0 .566.514h.009a.572.572 0 0 0 .559-.531 20.656 20.656 0 0 1 1.083-4.824 16.636 16.636 0 0 1 5.815-8.171.569.569 0 1 0-.657-.929 15.745 15.745 0 0 0-4.023 4.2 20.267 20.267 0 0 0-2.209 4.523 23.48 23.48 0 0 0-.6 2.014l-.1.4L15.99 22a8.066 8.066 0 0 0-.3-.574 13.185 13.185 0 0 0-2.023-2.71 15.3 15.3 0 0 0-2.78-2.313.567.567 0 0 0-.287-.081z" transform="translate(-.884 .087)"/>
            <circle id="Ellipse_72" data-name="Ellipse 72" cx="1.5" cy="1.5" r="1.5" transform="translate(11.69 10.338)" style="fill:#e83667"/>
        </g>
    </g>
</svg>
