<svg xmlns="http://www.w3.org/2000/svg" width="12" height="12" viewBox="0 0 12 12"><defs><style>.a{fill:#fff;stroke:#707070;opacity:0;}.b{fill:#85b5ff;}.c{stroke:none;}.d{fill:none;}</style></defs><g class="a"><rect class="c" width="12" height="12"/><rect class="d" x="0.5" y="0.5" width="11" height="11"/></g><path class="b" d="M4.543,1.022a.5.5,0,0,1,.913,0l.93,2.08a.5.5,0,0,0,.391.292l2.21.292a.5.5,0,0,1,.286.852L7.615,6.171a.5.5,0,0,0-.141.446L7.9,8.936a.5.5,0,0,1-.742.522l-1.9-1.1a.5.5,0,0,0-.5,0l-1.9,1.1A.5.5,0,0,1,2.1,8.936l.422-2.319a.5.5,0,0,0-.141-.446L.728,4.537a.5.5,0,0,1,.286-.852l2.21-.292a.5.5,0,0,0,.39-.293Z" transform="translate(1 1)"/></svg>