<svg xmlns="http://www.w3.org/2000/svg" width="319" height="61" viewBox="0 0 319 61"><defs><style>.a,.b,.c,.f,.n,.p,.q{fill:none;}.b,.c,.g{stroke:#202020;}.b,.c,.n{stroke-linecap:round;}.b,.c,.f,.g,.q,.r{stroke-width:2px;}.c,.n{stroke-linejoin:round;}.d,.j,.o{fill:#202020;}.e{fill:red;}.e,.i,.j,.m{opacity:0;}.f{stroke:#002020;}.g,.h,.i,.m,.t{fill:#fff;}.i,.j,.n{stroke:#aeaeae;}.k{fill:#18225c;}.l{fill:#e40c48;}.n{stroke-width:1.5px;}.o{fill-rule:evenodd;}.p{opacity:0.78;}.q,.r{stroke:#fff;}.r,.s{fill:#63a1ff;}.t{opacity:0.1;}.u,.v{stroke:none;}.v{fill:#fff;}</style></defs><g transform="translate(0 1)"><rect class="a" width="26" height="26"/><g transform="translate(-23 -14)"><path class="b" d="M0,0H20" transform="matrix(-1, 0, 0, -1, 47, 27)"/><path class="c" d="M31.748,19.959l-7,7,7,7" transform="translate(0.252 0.041)"/></g></g><g transform="translate(0 1)"><rect class="a" width="26" height="26" transform="translate(28)"/><path class="d" d="M0,1A1,1,0,0,1,1,0H19a1,1,0,0,1,0,2H1A1,1,0,0,1,0,1ZM0,8A1,1,0,0,1,1,7H19a1,1,0,0,1,0,2H1A1,1,0,0,1,0,8Zm0,7a1,1,0,0,1,1-1H19a1,1,0,0,1,0,2H1A1,1,0,0,1,0,15Z" transform="translate(31 5)"/></g><g transform="translate(0 1)"><rect class="a" width="26" height="26" transform="translate(56)"/><g transform="translate(56 -15)"><rect class="e" width="24" height="24" transform="translate(0 16)"/><path class="f" d="M19.456,20.306,7.443,27.71l12.013,6.325" transform="translate(-1.412 0.69)"/><g class="g" transform="translate(14 17)"><circle class="u" cx="4" cy="4" r="4"/><circle class="a" cx="4" cy="4" r="3"/></g><g class="g" transform="translate(2 24)"><circle class="u" cx="4" cy="4" r="4"/><circle class="a" cx="4" cy="4" r="3"/></g><g class="g" transform="translate(14 31)"><circle class="u" cx="4" cy="4" r="4"/><circle class="a" cx="4" cy="4" r="3"/></g></g></g><g transform="translate(0 1)"><rect class="a" width="26" height="26" transform="translate(84)"/><g transform="translate(-243.006 -55.006)"><path class="d" d="M337,69.344l-7.05,7.05-1.345-1.345,7.05-7.05-7.049-7.049,1.345-1.345L337,66.655l7.049-7.049,1.345,1.345L338.345,68l7.05,7.05-1.345,1.345Z" transform="translate(3)"/></g></g><g transform="translate(0 1)"><rect class="a" width="26" height="26" transform="translate(112)"/><g transform="translate(-212 -55.006)"><path class="h" d="M337,69.344l-7.05,7.05-1.345-1.345,7.05-7.05-7.049-7.049,1.345-1.345L337,66.655l7.049-7.049,1.345,1.345L338.345,68l7.05,7.05-1.345,1.345Z"/></g></g><g transform="translate(140 1)"><g class="i"><rect class="u" width="18" height="18"/><rect class="a" x="0.5" y="0.5" width="17" height="17"/></g><g transform="translate(-26 -742.795)"><path class="c" d="M30.755,751.056l6.5-7,2.708,2.917,3.792,4.083" transform="translate(-1.755 0.739)"/><line class="b" y2="12" transform="translate(35.5 746.502)"/></g></g><g transform="translate(160 1)"><g class="j"><rect class="u" width="18" height="18"/><rect class="a" x="0.5" y="0.5" width="17" height="17"/></g><path class="c" d="M0-2,10,2.034V6.966L0,11V-2Z" transform="translate(3 4)"/><line class="b" y2="6" transform="translate(17 5.577)"/></g><g transform="translate(-17 -30)"><rect class="a" width="110" height="20" transform="translate(17 59)"/><g transform="translate(-2 41)"><path class="k" d="M0,0V10.238A7.131,7.131,0,0,0,1.236,14.7a6.682,6.682,0,0,0,5.386,2.409A6.682,6.682,0,0,0,12.008,14.7a7.09,7.09,0,0,0,1.236-4.467V0H10.034V10.513A3.688,3.688,0,0,1,9.243,13a3.544,3.544,0,0,1-5.237,0,3.662,3.662,0,0,1-.792-2.485V0Z" transform="translate(54.274 19.871)"/><path class="k" d="M5.2,0V10.792a5.579,5.579,0,0,1-.368,2.71,1.423,1.423,0,0,1-1.27.576,1.9,1.9,0,0,1-1.6-.9L0,15.56a5.39,5.39,0,0,0,3.781,1.554,4.988,4.988,0,0,0,2.693-.754C8.3,15.09,8.4,12.774,8.4,11.279V0Z" transform="translate(42.296 19.871)"/><path class="k" d="M9.141,0H0V16.737H9.141V13.926H3.209V9.361H8.891V6.55H3.209V2.811H9.141Z" transform="translate(32.016 19.864)"/><path class="k" d="M5.2,0V10.792a5.579,5.579,0,0,1-.368,2.71,1.423,1.423,0,0,1-1.27.576,1.9,1.9,0,0,1-1.6-.9L0,15.56a5.39,5.39,0,0,0,3.781,1.554,4.988,4.988,0,0,0,2.693-.754C8.3,15.09,8.4,12.774,8.4,11.279V0Z" transform="translate(19.991 19.871)"/><path class="k" d="M10.826,1.957A6.283,6.283,0,0,0,6.169,0C2.515,0,.885,2.461.885,4.921A3.916,3.916,0,0,0,2.193,8.033,7.816,7.816,0,0,0,4.937,9.485a7.4,7.4,0,0,1,2.54,1.232,1.956,1.956,0,0,1,.639,1.507,2.324,2.324,0,0,1-2.54,2.308A3.857,3.857,0,0,1,2.117,12.3L0,14.329a6.774,6.774,0,0,0,5.682,3.163c3.413,0,5.733-2.231,5.733-5.5a4.59,4.59,0,0,0-1.406-3.514A9.93,9.93,0,0,0,6.673,6.779,5.579,5.579,0,0,1,4.7,5.827,1.427,1.427,0,0,1,4.175,4.7,1.987,1.987,0,0,1,6.448,2.74,3.2,3.2,0,0,1,9.141,4.171Z" transform="translate(111.547 19.486)"/><path class="k" d="M10.826,1.957A6.283,6.283,0,0,0,6.169,0C2.511,0,.881,2.461.881,4.921A3.916,3.916,0,0,0,2.193,8.033,7.837,7.837,0,0,0,4.933,9.485a7.366,7.366,0,0,1,2.54,1.232,1.96,1.96,0,0,1,.644,1.507,2.326,2.326,0,0,1-2.54,2.308A3.857,3.857,0,0,1,2.117,12.3L0,14.329a6.774,6.774,0,0,0,5.682,3.163c3.408,0,5.733-2.231,5.733-5.5A4.59,4.59,0,0,0,10,8.473,9.908,9.908,0,0,0,6.673,6.779,5.579,5.579,0,0,1,4.7,5.827,1.414,1.414,0,0,1,4.175,4.7,1.987,1.987,0,0,1,6.448,2.74,3.2,3.2,0,0,1,9.141,4.171Z" transform="translate(98.587 19.486)"/><path class="k" d="M9.141,1.27C7.93.191,6.643,0,4.793,0H0V16.737H3.209V10.53H5.288A5.6,5.6,0,0,0,9.463,9.052a5.373,5.373,0,0,0,1.359-3.743A5.381,5.381,0,0,0,9.141,1.27ZM6.622,7.2A3.264,3.264,0,0,1,4.5,7.723H3.192V2.8H4.306a3.84,3.84,0,0,1,2.274.525,2.316,2.316,0,0,1,.915,1.91A2.515,2.515,0,0,1,6.622,7.2Z" transform="translate(71.366 19.871)"/><path class="k" d="M9.611,0H7.092L0,16.737H3.485L8.3,4.543l4.742,12.194H16.5Z" transform="translate(81.308 19.864)"/><path class="l" d="M3.438,1.694A1.719,1.719,0,1,1,1.719,0,1.694,1.694,0,0,1,3.438,1.694Z" transform="translate(124.558 19.024)"/></g></g><g transform="translate(-27 1)"><rect class="a" width="18" height="18" transform="translate(207)"/><g transform="translate(206.6 -0.5)"><path class="d" d="M6.5,2A4.5,4.5,0,1,0,11,6.5,4.505,4.505,0,0,0,6.5,2m0-2A6.5,6.5,0,1,1,0,6.5,6.5,6.5,0,0,1,6.5,0Z" transform="translate(2 2)"/><path class="d" d="M13800.377-167.4a1,1,0,0,1-.707-.293l-3.377-3.377a1,1,0,0,1,0-1.414,1,1,0,0,1,1.414,0l3.377,3.377a1,1,0,0,1,0,1.414A1,1,0,0,1,13800.377-167.4Z" transform="translate(-13784.62 184.359)"/></g></g><g transform="translate(81 -82)"><rect class="a" width="14" height="14" transform="translate(119 83)"/><g transform="translate(132 84) rotate(90)"><rect class="m" width="12" height="12"/><g transform="translate(-2 -5)"><path class="n" d="M3,10V0L1,1.75" transform="translate(3 6)"/><path class="n" d="M3,10V0L1,1.75" transform="translate(13 16) rotate(180)"/></g></g></g><g transform="translate(-31 -21)"><rect class="a" width="26" height="26" transform="translate(247 22)"/><path class="o" d="M10,8a3,3,0,1,1,3-3A3,3,0,0,1,10,8Zm3.456.613a5,5,0,1,0-6.912,0A10,10,0,0,0,0,18a1,1,0,1,0,2,0,8,8,0,0,1,16,0,1,1,0,0,0,2,0A10,10,0,0,0,13.456,8.613Z" transform="translate(250 26)"/></g><g transform="translate(-31 -21)"><rect class="a" width="26" height="26" transform="translate(247 22)"/><path class="o" d="M10,8a3,3,0,1,1,3-3A3,3,0,0,1,10,8Zm3.456.613a5,5,0,1,0-6.912,0A10,10,0,0,0,0,18a1,1,0,1,0,2,0,8,8,0,0,1,16,0,1,1,0,0,0,2,0A10,10,0,0,0,13.456,8.613Z" transform="translate(250 26)"/></g><g transform="translate(-16 -8)"><rect class="p" width="26" height="26" transform="translate(260 9)"/><g transform="translate(261 -6)"><path class="q" d="M19.443,20.306l-12,7.55,12,6.45" transform="translate(-1.412 0.69)"/><g class="r" transform="translate(14 17)"><circle class="u" cx="4" cy="4" r="4"/><circle class="a" cx="4" cy="4" r="3"/></g><g class="s" transform="translate(2 24.5)"><path class="u" d="M 4 7 C 2.345789909362793 7 1 5.654210090637207 1 4 C 1 2.345789909362793 2.345789909362793 1 4 1 C 5.654210090637207 1 7 2.345789909362793 7 4 C 7 5.654210090637207 5.654210090637207 7 4 7 Z"/><path class="v" d="M 4 2 C 2.897200107574463 2 2 2.897200107574463 2 4 C 2 5.102799892425537 2.897200107574463 6 4 6 C 5.102799892425537 6 6 5.102799892425537 6 4 C 6 2.897200107574463 5.102799892425537 2 4 2 M 4 0 C 6.209139823913574 0 8 1.790860176086426 8 4 C 8 6.209139823913574 6.209139823913574 8 4 8 C 1.790860176086426 8 0 6.209139823913574 0 4 C 0 1.790860176086426 1.790860176086426 0 4 0 Z"/></g><g class="r" transform="translate(14 31)"><circle class="u" cx="4" cy="4" r="4"/><circle class="a" cx="4" cy="4" r="3"/></g></g></g><g transform="translate(78 -65)"><rect class="a" width="26" height="26" transform="translate(194 65)"/><path class="d" d="M5.714,1H16.3A2.745,2.745,0,0,1,19,3.754V20a1,1,0,0,1-1.443.9L11,17.657,4.443,20.9A1,1,0,0,1,3,20V3.754A2.745,2.745,0,0,1,5.7,1ZM16.278,3H5.722A.74.74,0,0,0,5,3.743s0,0,0,.007V18.391l5.557-2.745a1,1,0,0,1,.886,0L17,18.391V3.75s0,0,0-.007A.74.74,0,0,0,16.278,3Z" transform="translate(196 67)"/></g><g transform="translate(300)"><rect class="m" width="14" height="14"/><g transform="translate(3 3)"><path class="h" d="M329.2,1197.529a1,1,0,0,1-.707-.293l-8-8a1,1,0,0,1,1.414-1.414l8,8a1,1,0,0,1-.707,1.707Z" transform="translate(-321.204 -1188.529)"/><path class="h" d="M321.2,1197.529a1,1,0,0,1-.707-1.707l8-8a1,1,0,1,1,1.414,1.414l-8,8A1,1,0,0,1,321.2,1197.529Z" transform="translate(-321.204 -1188.529)"/></g></g><g transform="translate(117 29)"><path class="h" d="M0,16A16,16,0,1,1,16,32,16,16,0,0,1,0,16Zm17.668,9.408V16.7h2.4l.318-3H17.668l0-1.5c0-.782.074-1.2,1.2-1.2h1.5V8h-2.4c-2.887,0-3.9,1.455-3.9,3.9v1.8h-1.8v3h1.8v8.7Z"/></g><g transform="translate(151 29)"><path class="h" d="M0,16A16,16,0,1,1,16,32,16,16,0,0,1,0,16ZM16,7.467c-2.318,0-2.608.01-3.519.052a6.262,6.262,0,0,0-2.071.4,4.365,4.365,0,0,0-2.5,2.5,6.233,6.233,0,0,0-.4,2.071c-.041.91-.051,1.2-.051,3.519s.01,2.607.052,3.518a6.271,6.271,0,0,0,.4,2.071,4.367,4.367,0,0,0,2.5,2.5,6.268,6.268,0,0,0,2.071.4c.91.041,1.2.052,3.518.052s2.608-.01,3.518-.052a6.271,6.271,0,0,0,2.072-.4,4.372,4.372,0,0,0,2.5-2.5,6.325,6.325,0,0,0,.4-2.071c.041-.91.052-1.2.052-3.518s-.011-2.608-.052-3.519a6.322,6.322,0,0,0-.4-2.071,4.366,4.366,0,0,0-2.5-2.5,6.282,6.282,0,0,0-2.073-.4c-.91-.041-1.2-.052-3.518-.052Z"/><path class="h" d="M12.964,6.754h.763c2.271,0,2.54.008,3.437.049a4.709,4.709,0,0,1,1.579.293A2.818,2.818,0,0,1,20.357,8.71a4.7,4.7,0,0,1,.293,1.579c.041.9.05,1.166.05,3.436s-.009,2.539-.05,3.436a4.7,4.7,0,0,1-.293,1.579,2.821,2.821,0,0,1-1.614,1.613,4.692,4.692,0,0,1-1.579.293c-.9.041-1.166.05-3.437.05s-2.54-.009-3.437-.05a4.718,4.718,0,0,1-1.579-.293A2.818,2.818,0,0,1,7.1,18.739,4.7,4.7,0,0,1,6.8,17.16c-.041-.9-.049-1.166-.049-3.437s.008-2.539.049-3.436A4.709,4.709,0,0,1,7.1,8.708,2.819,2.819,0,0,1,8.71,7.093,4.7,4.7,0,0,1,10.29,6.8c.785-.035,1.089-.046,2.674-.048Zm5.3,1.412a1.021,1.021,0,1,0,1.021,1.02A1.021,1.021,0,0,0,18.267,8.166Zm-4.54,1.193a4.368,4.368,0,1,0,4.367,4.368A4.368,4.368,0,0,0,13.727,9.359Z" transform="translate(2.274 2.273)"/><path class="h" d="M12.761,9.867A2.893,2.893,0,1,1,9.867,12.76,2.893,2.893,0,0,1,12.761,9.867Z" transform="translate(3.24 3.24)"/></g><g transform="translate(185 29)"><path class="h" d="M0,16A16,16,0,1,1,16,32,16,16,0,0,1,0,16Zm24.177-3.951A2.167,2.167,0,0,0,22.668,10.5,49.678,49.678,0,0,0,16,10.133a49.68,49.68,0,0,0-6.668.366,2.167,2.167,0,0,0-1.509,1.549,23.405,23.405,0,0,0-.357,4.218,23.406,23.406,0,0,0,.357,4.218,2.167,2.167,0,0,0,1.509,1.549A49.693,49.693,0,0,0,16,22.4a49.691,49.691,0,0,0,6.668-.366,2.167,2.167,0,0,0,1.509-1.549,23.4,23.4,0,0,0,.357-4.218A23.4,23.4,0,0,0,24.177,12.049Z"/><path class="h" d="M0,6V0L4.8,3Z" transform="translate(14.155 13.561)"/></g><g transform="translate(219 29)"><g transform="translate(0 -0.001)"><path class="h" d="M-11390-2335a15.9,15.9,0,0,1-11.313-4.687A15.9,15.9,0,0,1-11406-2351a15.894,15.894,0,0,1,4.686-11.313A15.9,15.9,0,0,1-11390-2367a15.9,15.9,0,0,1,11.315,4.686A15.894,15.894,0,0,1-11374-2351a15.9,15.9,0,0,1-4.686,11.314A15.9,15.9,0,0,1-11390-2335Zm-6.393-23.269a2.273,2.273,0,0,0-1.651.739,2.641,2.641,0,0,0-.687,1.781v8.187a2.642,2.642,0,0,0,.687,1.781,2.273,2.273,0,0,0,1.651.739h4.518l1.531,2.559s.111.341.363.341.36-.337.361-.341l1.537-2.559h4.477a2.27,2.27,0,0,0,1.651-.739,2.638,2.638,0,0,0,.685-1.781v-8.181a2.618,2.618,0,0,0-.682-1.783,2.237,2.237,0,0,0-1.648-.741Zm11.514,10.391h-.464v-1.048h.3a.523.523,0,0,0,.366-.159,1.161,1.161,0,0,0,.249-.84c-.027.074-.21.432-1.024.432a1.4,1.4,0,0,1-1.274-1.44v-.507a1.535,1.535,0,0,1,1.429-1.5l.066,0a.993.993,0,0,1,.429.1,1.05,1.05,0,0,1,.395.332v-.332h1.04v3.352a1.91,1.91,0,0,1-.467,1.223A1.411,1.411,0,0,1-11384.88-2347.877Zm-.043-3.876a.529.529,0,0,0-.507.547.527.527,0,0,0,.507.544.527.527,0,0,0,.507-.544A.529.529,0,0,0-11384.923-2351.753Zm-4.053,2.267h0v0a1.711,1.711,0,0,1-1.715-1.7,1.711,1.711,0,0,1,1.715-1.7,1.711,1.711,0,0,1,1.715,1.7A1.714,1.714,0,0,1-11388.976-2349.486Zm.017-2.279a.542.542,0,0,0-.519.561.54.54,0,0,0,.519.558.54.54,0,0,0,.518-.558A.541.541,0,0,0-11388.959-2351.765Zm-5.726,2.273h0a1.112,1.112,0,0,1-.472-.1,1.227,1.227,0,0,1-.4-.295v.269h-1.042v-4.64c.018,0,.109.005.3.005s.436,0,.729,0h.014v1.778c.24-.441.929-.447.958-.447a1.4,1.4,0,0,1,.989.495,2.127,2.127,0,0,1,.366,1.4A1.5,1.5,0,0,1-11394.685-2349.492Zm-.306-2.216a.456.456,0,0,0-.267.086.524.524,0,0,0-.178.235.568.568,0,0,0-.028.3.571.571,0,0,0,.132.266.486.486,0,0,0,.249.143.446.446,0,0,0,.089.009.466.466,0,0,0,.188-.04.483.483,0,0,0,.218-.192.555.555,0,0,0,.08-.289.529.529,0,0,0-.037-.2.533.533,0,0,0-.1-.169.532.532,0,0,0-.157-.115A.454.454,0,0,0-11394.99-2351.708Zm3.589,2.1h-1.021v-3.146c0-.419-.487-.545-.492-.547v-1.111a1.545,1.545,0,0,1,1.139.476,1.728,1.728,0,0,1,.375,1.148v3.178Z" transform="translate(11406 2367)"/></g></g><g transform="translate(-40 -4118)"><rect class="t" width="32" height="32" rx="16" transform="translate(293 4147)"/><g transform="translate(297 4151)"><path class="m" d="M12,24A12,12,0,1,0,0,12,12,12,0,0,0,12,24Z"/><path class="h" d="M10.06,18.285a1.077,1.077,0,0,1-1.09-1.061V14.983a1.033,1.033,0,0,1,.043-.295H6.987a1.038,1.038,0,0,1,.044.295v2.242a1.092,1.092,0,0,1-2.183,0V14.983a1,1,0,0,1,.045-.295H4.062A1.139,1.139,0,0,1,2.91,13.566V5.78H13.09v7.786a1.138,1.138,0,0,1-1.15,1.122h-.832a1,1,0,0,1,.045.295v2.242A1.078,1.078,0,0,1,10.06,18.285Zm4.85-5.84a1.078,1.078,0,0,1-1.091-1.061V6.841a1.091,1.091,0,0,1,2.182,0v4.543A1.077,1.077,0,0,1,14.91,12.445Zm-13.819,0A1.078,1.078,0,0,1,0,11.384V6.841A1.078,1.078,0,0,1,1.091,5.78,1.077,1.077,0,0,1,2.182,6.841v4.543A1.077,1.077,0,0,1,1.091,12.445Zm12-7.372H2.91A4.032,4.032,0,0,1,5.5,1.531l-.2-.3L5.09.937,4.637.274A.171.171,0,0,1,4.61.143.174.174,0,0,1,4.687.03a.187.187,0,0,1,.1-.03A.184.184,0,0,1,4.94.079l.486.71.2.3.207.3a6.228,6.228,0,0,1,4.326,0l.208-.3L11.062.079a.182.182,0,0,1,.25-.049.173.173,0,0,1,.079.113.169.169,0,0,1-.028.132l-.453.662-.2.294-.2.3A4.033,4.033,0,0,1,13.09,5.072ZM10.182,2.6a.531.531,0,1,0,.546.531A.539.539,0,0,0,10.182,2.6Zm-4.364,0a.531.531,0,1,0,.546.531A.539.539,0,0,0,5.818,2.6Z" transform="translate(4 3)"/></g></g><g transform="translate(-54 -4118)"><rect class="t" width="32" height="32" rx="16" transform="translate(341 4147)"/><g transform="translate(345 4151)"><path class="m" d="M0,12A12,12,0,1,1,12,24,12,12,0,0,1,0,12Z"/><path class="h" d="M4.825,17.561H4.8c-1.271-.011-2.232-1.224-3-2.408A10.884,10.884,0,0,1,.043,10.3,6.276,6.276,0,0,1,.788,6.329,4.549,4.549,0,0,1,4.454,4.112a5.193,5.193,0,0,1,1.836.4,4.409,4.409,0,0,0,1.512.35,3.681,3.681,0,0,0,1.352-.326,5.149,5.149,0,0,1,1.983-.428,4.437,4.437,0,0,1,3.355,1.782A3.737,3.737,0,0,0,12.518,9.5,3.857,3.857,0,0,0,15,12.884a12.612,12.612,0,0,1-1.134,2.129c-.817,1.252-1.82,2.534-3.061,2.543h-.029a2.684,2.684,0,0,1-1.22-.326l-.095-.043a3.5,3.5,0,0,0-1.614-.369h-.03a3.867,3.867,0,0,0-1.745.416A2.814,2.814,0,0,1,4.825,17.561Zm2.5-13.335H7.25a3.658,3.658,0,0,1,.873-2.78A4.12,4.12,0,0,1,10.792,0a3.913,3.913,0,0,1-.85,2.851A3.478,3.478,0,0,1,7.328,4.226Z" transform="translate(4 3)"/></g></g></svg>