<svg xmlns="http://www.w3.org/2000/svg" width="142" height="50" viewBox="0 0 142 50"><defs><style>.a,.c,.h{fill:#fff;}.a{stroke:#707070;opacity:0;}.b{fill:#18225c;}.d{fill:#63a1ff;}.e{fill:#e83667;}.f,.g{fill:none;}.g{stroke:#fff;stroke-linecap:round;stroke-width:2px;}.h{opacity:0.5;}.i{stroke:none;}</style></defs><g transform="translate(0.005 26)"><g class="a"><rect class="i" width="24" height="24"/><rect class="f" x="0.5" y="0.5" width="23" height="23"/></g><g transform="translate(-1.021 1.496)"><path class="b" d="M7.549,8.508a.138.138,0,0,1-.065-.032.142.142,0,0,1-.041-.059L6.409,5.176A1.118,1.118,0,0,0,6,4.607a1.134,1.134,0,0,0-.672-.213.147.147,0,0,1-.083-.024.143.143,0,0,1-.057-.07.148.148,0,0,1-.008-.086.155.155,0,0,1,.041-.077L8.039,1.322a.153.153,0,0,1,.076-.043.149.149,0,0,1,.085.006.142.142,0,0,1,.068.052.149.149,0,0,1,.027.081l.216,6.166a.141.141,0,0,1-.013.059.139.139,0,0,1-.036.049l-.777.777a.151.151,0,0,1-.064.037.159.159,0,0,1-.042.006A.132.132,0,0,1,7.549,8.508ZM4.209,3.323a.143.143,0,0,1-.066-.054.147.147,0,0,1-.025-.083A1.134,1.134,0,0,0,3.9,2.515,1.118,1.118,0,0,0,3.335,2.1L.1,1.069a.149.149,0,0,1-.06-.041A.144.144,0,0,1,0,.963.139.139,0,0,1,0,.89.151.151,0,0,1,.043.826L.82.049A.133.133,0,0,1,.869.013.141.141,0,0,1,.928,0L7.094.216a.149.149,0,0,1,.081.027.142.142,0,0,1,.052.068A.149.149,0,0,1,7.232.4.153.153,0,0,1,7.19.472L4.372,3.29a.155.155,0,0,1-.077.041h-.03a.155.155,0,0,1-.056-.008Z" transform="translate(1.021 13.71)"/><path class="c" d="M2.4,1.689l8.641,7a.45.45,0,0,1,.122.156.457.457,0,0,1,.044.194v1.724a.455.455,0,0,1-.049.2.447.447,0,0,1-.135.159.437.437,0,0,1-.4.062L2.878,7.493a1.15,1.15,0,0,0-.832.03,1.174,1.174,0,0,0-.6.586l-.137.3C1.087,8.337-.058,7.319,0,7.089L1.914,0l.022.741a1.271,1.271,0,0,0,.13.526,1.252,1.252,0,0,0,.334.422Z" transform="translate(17.095 5.864) rotate(45)"/><path class="c" d="M8.807,1.689l-8.641,7a.45.45,0,0,0-.122.156A.457.457,0,0,0,0,9.038v1.724a.455.455,0,0,0,.049.2.447.447,0,0,0,.135.159.437.437,0,0,0,.4.062L8.334,7.49a1.15,1.15,0,0,1,.832.03,1.174,1.174,0,0,1,.6.586l.137.3c.22-.076,1.366-1.094,1.305-1.323L9.3,0,9.273.741a1.271,1.271,0,0,1-.13.526,1.252,1.252,0,0,1-.336.422Z" transform="translate(9.735 -1.496) rotate(45)"/><path class="c" d="M2.8,24.02a1.283,1.283,0,0,1-.834-.3,1.088,1.088,0,0,1-.383-.745L0,3.619A4.165,4.165,0,0,1,2.43,0h.745A4.165,4.165,0,0,1,5.6,3.619L4.02,22.971a1.088,1.088,0,0,1-.383.745A1.283,1.283,0,0,1,2.8,24.02Z" transform="translate(19.928 -0.361) rotate(45)"/><path class="d" d="M0,1.6C-.064.963.642.269,1.292.049a1.008,1.008,0,0,1,.619,0C2.561.269,3.267.963,3.2,1.6Z" transform="translate(19.643 1.618) rotate(45)"/><circle class="b" cx="1.5" cy="1.5" r="1.5" transform="translate(12.698 0.335) rotate(45)"/><circle class="e" cx="1.5" cy="1.5" r="1.5" transform="translate(21.492 9.129) rotate(45)"/></g></g><rect class="f" width="24" height="24"/><g transform="translate(-1.016 1.496)"><path class="b" d="M7.549,8.508a.138.138,0,0,1-.065-.032.142.142,0,0,1-.041-.059L6.409,5.176A1.118,1.118,0,0,0,6,4.607a1.134,1.134,0,0,0-.672-.213.147.147,0,0,1-.083-.024.143.143,0,0,1-.057-.07.148.148,0,0,1-.008-.086.155.155,0,0,1,.041-.077L8.039,1.322a.153.153,0,0,1,.076-.043.149.149,0,0,1,.085.006.142.142,0,0,1,.068.052.149.149,0,0,1,.027.081l.216,6.166a.141.141,0,0,1-.013.059.139.139,0,0,1-.036.049l-.777.777a.151.151,0,0,1-.064.037.159.159,0,0,1-.042.006A.132.132,0,0,1,7.549,8.508ZM4.209,3.323a.143.143,0,0,1-.066-.054.147.147,0,0,1-.025-.083A1.134,1.134,0,0,0,3.9,2.515,1.118,1.118,0,0,0,3.335,2.1L.1,1.069a.149.149,0,0,1-.06-.041A.144.144,0,0,1,0,.963.139.139,0,0,1,0,.89.151.151,0,0,1,.043.826L.82.049A.133.133,0,0,1,.869.013.141.141,0,0,1,.928,0L7.094.216a.149.149,0,0,1,.081.027.142.142,0,0,1,.052.068A.149.149,0,0,1,7.232.4.153.153,0,0,1,7.19.472L4.372,3.29a.155.155,0,0,1-.077.041h-.03a.155.155,0,0,1-.056-.008Z" transform="translate(1.021 13.71)"/><path class="d" d="M2.4,1.689l8.641,7a.45.45,0,0,1,.122.156.457.457,0,0,1,.044.194v1.724a.455.455,0,0,1-.049.2.447.447,0,0,1-.135.159.437.437,0,0,1-.4.062L2.878,7.493a1.15,1.15,0,0,0-.832.03,1.174,1.174,0,0,0-.6.586l-.137.3C1.087,8.337-.058,7.319,0,7.089L1.914,0l.022.741a1.271,1.271,0,0,0,.13.526,1.252,1.252,0,0,0,.334.422Z" transform="translate(17.095 5.864) rotate(45)"/><path class="d" d="M8.807,1.689l-8.641,7a.45.45,0,0,0-.122.156A.457.457,0,0,0,0,9.038v1.724a.455.455,0,0,0,.049.2.447.447,0,0,0,.135.159.437.437,0,0,0,.4.062L8.334,7.49a1.15,1.15,0,0,1,.832.03,1.174,1.174,0,0,1,.6.586l.137.3c.22-.076,1.366-1.094,1.305-1.323L9.3,0,9.273.741a1.271,1.271,0,0,1-.13.526,1.252,1.252,0,0,1-.336.422Z" transform="translate(9.735 -1.496) rotate(45)"/><path class="d" d="M2.8,24.02a1.283,1.283,0,0,1-.834-.3,1.088,1.088,0,0,1-.383-.745L0,3.619A4.165,4.165,0,0,1,2.43,0h.745A4.165,4.165,0,0,1,5.6,3.619L4.02,22.971a1.088,1.088,0,0,1-.383.745,1.283,1.283,0,0,1-.837.3Z" transform="translate(19.928 -0.361) rotate(45)"/><path class="c" d="M0,1.6C-.064.963.642.269,1.292.049a1.008,1.008,0,0,1,.619,0C2.561.269,3.267.963,3.2,1.6Z" transform="translate(19.643 1.618) rotate(45)"/><circle class="b" cx="1.5" cy="1.5" r="1.5" transform="translate(12.698 0.335) rotate(45)"/><circle class="e" cx="1.5" cy="1.5" r="1.5" transform="translate(21.492 9.129) rotate(45)"/></g><rect class="f" width="24" height="24" transform="translate(52)"/><g transform="translate(50.5 1.712)"><path class="b" d="M21.346,4.423a1,1,0,0,1-1-1V0H23V3.423a1,1,0,0,1-1,1ZM1,4.423a1,1,0,0,1-1-1V0H2.654V3.423a1,1,0,0,1-1,1Z" transform="translate(2 15.154)"/><rect class="e" width="3" height="3" rx="1.5" transform="translate(7 4)"/><path class="b" d="M1,0H9A1,1,0,0,1,9,2H1A1,1,0,0,1,1,0Z" transform="translate(12 5)"/><path class="d" d="M3,0H20a3,3,0,0,1,3,3V6.192H0V3A3,3,0,0,1,3,0Z" transform="translate(2 8.961)"/><path class="d" d="M0,0H12.827a1.327,1.327,0,1,1,0,2.654H0Z" transform="translate(2 15.154) rotate(-90)"/></g><g transform="translate(78)"><g class="a"><rect class="i" width="24" height="24"/><rect class="f" x="0.5" y="0.5" width="23" height="23"/></g><g transform="translate(-11 -13)"><path class="d" d="M9.091,0h1.818A9.091,9.091,0,0,1,20,9.091h0a.909.909,0,0,1-.909.909H.909A.909.909,0,0,1,0,9.091H0A9.091,9.091,0,0,1,9.091,0Z" transform="translate(13 19)"/><path class="g" d="M2.39,0A8.315,8.315,0,0,0,0,4.429" transform="translate(17.749 21.634) rotate(13.978)"/><rect class="b" width="24" height="2" rx="1" transform="translate(11 31)"/><circle class="e" cx="1.5" cy="1.5" r="1.5" transform="translate(21.5 15)"/></g></g><g transform="translate(104)"><g class="a"><rect class="i" width="24" height="24"/><rect class="f" x="0.5" y="0.5" width="23" height="23"/></g><g transform="translate(-10 -14)"><path class="d" d="M21,14H2a2,2,0,0,1-2-2V9A2,2,0,0,0,2,7,2,2,0,0,0,0,5V2A2,2,0,0,1,2,0H21a2,2,0,0,1,2,2V5a2,2,0,0,0,0,4v3A2,2,0,0,1,21,14Z" transform="translate(11 17)"/><rect class="b" width="23" height="2" rx="1" transform="translate(11 33)"/><rect class="c" width="13" height="8" rx="1" transform="translate(16 20)"/><circle class="e" cx="1.5" cy="1.5" r="1.5" transform="translate(21 22.43)"/></g></g><g transform="translate(26)"><g class="a"><rect class="i" width="24" height="24"/><rect class="f" x="0.5" y="0.5" width="23" height="23"/></g><g transform="translate(-1 3)"><path class="b" d="M3,1.5A1.5,1.5,0,1,1,1.5,0,1.5,1.5,0,0,1,3,1.5Z" transform="translate(1 4)"/><path class="e" d="M3,1.5A1.5,1.5,0,1,1,1.5,0,1.5,1.5,0,0,1,3,1.5Z" transform="translate(22 4)"/><g transform="translate(7 3)"><path class="f" d="M1.333,0h9.333L12,7H0Z"/><path class="d" d="M1.333,0,0,7H12L10.667,0H1.333m0-3h9.333A3,3,0,0,1,13.614-.561l1.333,7A3,3,0,0,1,12,10H0A3,3,0,0,1-2.311,8.913a3,3,0,0,1-.636-2.474l1.333-7A3,3,0,0,1,1.333-3Z"/></g><path class="b" d="M16.429,4.286a1,1,0,0,1-1-1V0h3.429V3.286a1,1,0,0,1-1,1ZM1,4.286a1,1,0,0,1-1-1V0H3.429V3.286a1,1,0,0,1-1,1Z" transform="translate(3.571 14.143)"/><path class="d" d="M3,0H19.286a3,3,0,0,1,3,3V6.714a1,1,0,0,1-1,1H1a1,1,0,0,1-1-1V3A3,3,0,0,1,3,0Z" transform="translate(2 8.143)"/><circle class="c" cx="1.286" cy="1.286" r="1.286" transform="translate(4.429 10.714)"/><circle class="c" cx="1.286" cy="1.286" r="1.286" transform="translate(19 10.714)"/></g></g><g transform="translate(10 -64)"><rect class="f" width="12" height="10" transform="translate(120 64)"/><path class="h" d="M4.152,1.357a1,1,0,0,1,1.7,0l3.2,5.113A1,1,0,0,1,8.2,8H1.8A1,1,0,0,1,.956,6.47Z" transform="translate(131 73.5) rotate(180)"/></g><rect class="f" width="24" height="24" transform="translate(52 26)"/><g transform="translate(63.5 -1.289)"><g transform="translate(-12 27)"><g transform="translate(-1 2)"><path class="b" d="M21.346,4.423a1,1,0,0,1-1-1V0H23V3.423a1,1,0,0,1-1,1ZM1,4.423a1,1,0,0,1-1-1V0H2.654V3.423a1,1,0,0,1-1,1Z" transform="translate(2 15.154)"/><rect class="e" width="3" height="3" rx="1.5" transform="translate(7 4)"/><rect class="b" width="10" height="2" rx="1" transform="translate(12 5)"/><path class="c" d="M3,0H20a3,3,0,0,1,3,3V6.192H0V3A3,3,0,0,1,3,0Z" transform="translate(2 8.961)"/><path class="c" d="M0,0H12.827a1.327,1.327,0,1,1,0,2.654H0Z" transform="translate(2 15.154) rotate(-90)"/></g></g></g><rect class="f" width="24" height="24" transform="translate(26 26)"/><g transform="translate(25 29)"><path class="b" d="M3,1.5A1.5,1.5,0,1,1,1.5,0,1.5,1.5,0,0,1,3,1.5Z" transform="translate(1 4)"/><path class="e" d="M3,1.5A1.5,1.5,0,1,1,1.5,0,1.5,1.5,0,0,1,3,1.5Z" transform="translate(22 4)"/><path class="f" d="M1.333,0h9.333L12,7H0Z" transform="translate(7 3)"/><path class="c" d="M1.333,0,0,7H12L10.667,0H1.333m0-3h9.334A3,3,0,0,1,13.614-.561l1.333,7A3,3,0,0,1,12,10H0A3,3,0,0,1-2.311,8.913a3,3,0,0,1-.636-2.474l1.333-7A3,3,0,0,1,1.333-3Z" transform="translate(7 3)"/><path class="b" d="M16.429,4.286a1,1,0,0,1-1-1V0h3.429V3.286a1,1,0,0,1-1,1ZM1,4.286a1,1,0,0,1-1-1V0H3.429V3.286a1,1,0,0,1-1,1Z" transform="translate(3.571 14.143)"/><path class="c" d="M3,0H19.286a3,3,0,0,1,3,3V6.714a1,1,0,0,1-1,1H1a1,1,0,0,1-1-1V3A3,3,0,0,1,3,0Z" transform="translate(2 8.143)"/><path class="d" d="M1.286,0A1.286,1.286,0,1,1,0,1.286,1.286,1.286,0,0,1,1.286,0Z" transform="translate(4.429 10.714)"/><circle class="d" cx="1.286" cy="1.286" r="1.286" transform="translate(19 10.714)"/></g><rect class="f" width="24" height="24" transform="translate(78 26)"/><g transform="translate(67 13)"><path class="c" d="M9.091,0h1.818A9.091,9.091,0,0,1,20,9.091a.909.909,0,0,1-.909.909H.909A.909.909,0,0,1,0,9.091,9.091,9.091,0,0,1,9.091,0Z" transform="translate(13 19)"/><path class="d" d="M0,5.429a1,1,0,0,1-.187-.018,1,1,0,0,1-.8-1.169A9.267,9.267,0,0,1,1.695-.719,1,1,0,0,1,3.109-.7,1,1,0,0,1,3.085.719a7.277,7.277,0,0,0-2.1,3.9A1,1,0,0,1,0,5.429Z" transform="translate(17.749 21.634) rotate(13.978)"/><rect class="b" width="24" height="2" rx="1" transform="translate(11 31)"/><circle class="e" cx="1.5" cy="1.5" r="1.5" transform="translate(21.5 15)"/></g><rect class="f" width="24" height="24" transform="translate(104 26)"/><g transform="translate(93.5 12)"><path class="c" d="M21,14H2a2,2,0,0,1-2-2V9A2,2,0,0,0,2,7,2,2,0,0,0,0,5V2A2,2,0,0,1,2,0H21a2,2,0,0,1,2,2V5a2,2,0,0,0,0,4v3A2,2,0,0,1,21,14Z" transform="translate(11 17)"/><rect class="b" width="23" height="2" rx="1" transform="translate(11 33)"/><rect class="d" width="13" height="8" rx="1" transform="translate(16 20)"/><circle class="e" cx="1.5" cy="1.5" r="1.5" transform="translate(21 22.43)"/></g></svg>