<svg xmlns="http://www.w3.org/2000/svg" xmlns:xlink="http://www.w3.org/1999/xlink" width="8" height="18" viewBox="0 0 8 18"><defs><style>.a{fill:#f9f6fe;}.b{clip-path:url(#a);}.c{fill:#fff;}.d{fill:#cde0ff;}</style><clipPath id="a"><rect class="a" width="8" height="18" transform="translate(6699 966)"/></clipPath></defs><g class="b" transform="translate(-6699 -966)"><g transform="translate(11065 -524.999)"><path class="c" d="M-4370,1576.5h-311a11.431,11.431,0,0,1-8.13-3.37,11.432,11.432,0,0,1-3.37-8.13v-90a11.432,11.432,0,0,1,3.37-8.13,11.432,11.432,0,0,1,8.13-3.37h311a11.429,11.429,0,0,1,8.13,3.37,11.43,11.43,0,0,1,3.37,8.13v2.52a6.509,6.509,0,0,0-6,6.48,6.509,6.509,0,0,0,6,6.48v5.04a6.516,6.516,0,0,0-6,6.48,6.509,6.509,0,0,0,6,6.48v5.04a6.516,6.516,0,0,0-6,6.48,6.509,6.509,0,0,0,6,6.48v5.04a6.509,6.509,0,0,0-6,6.48,6.509,6.509,0,0,0,6,6.48v5.04a6.509,6.509,0,0,0-6,6.48,6.509,6.509,0,0,0,6,6.48V1565a11.43,11.43,0,0,1-3.37,8.13,11.429,11.429,0,0,1-8.13,3.37Z"/><path class="d" d="M-4370,1576a10.961,10.961,0,0,0,7.78-3.22A10.918,10.918,0,0,0-4359,1565v-2.07a7.014,7.014,0,0,1-6-6.93,7.012,7.012,0,0,1,6-6.93v-4.14a7.014,7.014,0,0,1-6-6.93,7.013,7.013,0,0,1,6-6.93v-4.14a7.014,7.014,0,0,1-6-6.93,7.012,7.012,0,0,1,6-6.93v-4.14a7.014,7.014,0,0,1-6-6.93,7.012,7.012,0,0,1,6-6.93v-4.14a7.014,7.014,0,0,1-6-6.93,7.013,7.013,0,0,1,6-6.93V1475a10.918,10.918,0,0,0-3.22-7.78A10.921,10.921,0,0,0-4370,1464h-311a10.921,10.921,0,0,0-7.78,3.22A10.922,10.922,0,0,0-4692,1475v90a10.92,10.92,0,0,0,3.22,7.78A10.962,10.962,0,0,0-4681,1576h311m0,1h-311a11.922,11.922,0,0,1-8.49-3.52A11.914,11.914,0,0,1-4693,1565v-90a11.956,11.956,0,0,1,3.51-8.49A11.954,11.954,0,0,1-4681,1463h311a11.928,11.928,0,0,1,8.48,3.51A11.921,11.921,0,0,1-4358,1475v3a6,6,0,0,0-6,6,6,6,0,0,0,6,6v6a6,6,0,0,0-6,6,6,6,0,0,0,6,6v6a6,6,0,0,0-6,6,6,6,0,0,0,6,6v6a6,6,0,0,0-6,6,6,6,0,0,0,6,6v6a6,6,0,0,0-6,6,6,6,0,0,0,6,6v3a11.878,11.878,0,0,1-3.52,8.48A11.9,11.9,0,0,1-4370,1577Z"/></g></g></svg>