<svg id="ic_x18_key" xmlns="http://www.w3.org/2000/svg" width="18" height="18" viewBox="0 0 18 18">
  <defs>
    <style>
      .cls-1 {
        fill: red;
        opacity: 0;
      }

      .cls-2, .cls-3 {
        fill: none;
      }

      .cls-3 {
        stroke: #202020;
        stroke-width: 2px;
      }

      .cls-4, .cls-5 {
        stroke: none;
      }

      .cls-5 {
        fill: #202020;
      }
    </style>
  </defs>
  <rect id="Rectangle_205" data-name="Rectangle 205" class="cls-1" width="18" height="18"/>
  <g id="Union_77" data-name="Union 77" class="cls-2" transform="translate(690.657 1737)">
    <path class="cls-4" d="M-682.407-1725.25v-2.951a1.5,1.5,0,0,1-.75-1.3,1.5,1.5,0,0,1,1.5-1.5,1.5,1.5,0,0,1,1.5,1.5,1.5,1.5,0,0,1-.75,1.3v1.2a.75.75,0,0,1,.75.751.75.75,0,0,1-.75.75v.25a.75.75,0,0,1-.751.75A.75.75,0,0,1-682.407-1725.25Z"/>
    <path class="cls-5" d="M -681.6572875976562 -1724.5 C -682.0712890625 -1724.5 -682.4070434570312 -1724.835693359375 -682.4070434570312 -1725.249633789062 L -682.4070434570312 -1728.20068359375 C -682.8551635742188 -1728.4599609375 -683.15673828125 -1728.944580078125 -683.15673828125 -1729.499389648438 C -683.15673828125 -1730.328369140625 -682.4852905273438 -1730.999755859375 -681.6572875976562 -1730.999755859375 C -680.8284301757812 -1730.999755859375 -680.1570434570312 -1730.328369140625 -680.1570434570312 -1729.499389648438 C -680.1570434570312 -1728.944702148438 -680.4584350585938 -1728.460205078125 -680.90673828125 -1728.200805664062 L -680.90673828125 -1727.000122070312 C -680.4927368164062 -1727.000122070312 -680.1570434570312 -1726.66357421875 -680.1570434570312 -1726.24951171875 C -680.1570434570312 -1725.835571289062 -680.4927368164062 -1725.499877929688 -680.90673828125 -1725.499877929688 L -680.90673828125 -1725.249633789062 C -680.90673828125 -1724.835693359375 -681.242431640625 -1724.5 -681.6572875976562 -1724.5 Z"/>
  </g>
  <path id="Path_2632" data-name="Path 2632" class="cls-3" d="M9.344,1,3,3.852V8.131a8.86,8.86,0,0,0,6.344,8.557,8.86,8.86,0,0,0,6.344-8.557V3.852Z" transform="translate(-0.344 0.156)"/>
</svg>
