<svg xmlns="http://www.w3.org/2000/svg" xmlns:xlink="http://www.w3.org/1999/xlink" width="8" height="18" viewBox="0 0 8 18"><defs><style>.a{fill:#f9f6fe;}.b{clip-path:url(#a);}.c,.d{fill:#f8f8f8;}.d{stroke:#eaeaea;stroke-dasharray:2 2;}.e,.f{stroke:none;}.f{fill:#eaeaea;}</style><clipPath id="a"><rect class="a" width="8" height="18" transform="translate(347 291)"/></clipPath></defs><g class="b" transform="translate(-347 -291)"><g transform="translate(-21 -227)"><g class="c" transform="translate(4734 -959)"><path class="e" d="M -4370.00048828125 1602.499877929688 L -4681 1602.499877929688 C -4684.07177734375 1602.499877929688 -4686.95947265625 1601.303588867188 -4689.1318359375 1599.13134765625 C -4691.30419921875 1596.95947265625 -4692.50048828125 1594.071533203125 -4692.50048828125 1590.999389648438 L -4692.50048828125 1474.9990234375 C -4692.50048828125 1471.927001953125 -4691.30419921875 1469.039306640625 -4689.1318359375 1466.86767578125 C -4686.95947265625 1464.69580078125 -4684.07177734375 1463.499755859375 -4681 1463.499755859375 L -4370.00048828125 1463.499755859375 C -4366.9287109375 1463.499755859375 -4364.041015625 1464.69580078125 -4361.86865234375 1466.86767578125 C -4359.6962890625 1469.039184570312 -4358.5 1471.927001953125 -4358.5 1474.9990234375 L -4358.5 1481.518920898438 C -4361.85107421875 1481.776000976562 -4364.49951171875 1484.584716796875 -4364.49951171875 1487.999389648438 C -4364.49951171875 1491.415161132812 -4361.85107421875 1494.223999023438 -4358.5 1494.480102539062 L -4358.5 1499.51904296875 C -4361.85107421875 1499.776123046875 -4364.49951171875 1502.584838867188 -4364.49951171875 1505.999633789062 C -4364.49951171875 1509.415283203125 -4361.85107421875 1512.22412109375 -4358.5 1512.480224609375 L -4358.5 1517.519165039062 C -4361.85107421875 1517.776245117188 -4364.49951171875 1520.5849609375 -4364.49951171875 1523.999755859375 C -4364.49951171875 1527.415405273438 -4361.85107421875 1530.224243164062 -4358.5 1530.480346679688 L -4358.5 1535.519409179688 C -4361.85107421875 1535.776489257812 -4364.49951171875 1538.585205078125 -4364.49951171875 1541.999877929688 C -4364.49951171875 1545.41552734375 -4361.85107421875 1548.224365234375 -4358.5 1548.48046875 L -4358.5 1553.51953125 C -4361.85107421875 1553.776611328125 -4364.49951171875 1556.585327148438 -4364.49951171875 1560 C -4364.49951171875 1563.415649414062 -4361.85107421875 1566.224487304688 -4358.5 1566.480590820312 L -4358.5 1571.518432617188 C -4361.85107421875 1571.775512695312 -4364.49951171875 1574.584838867188 -4364.49951171875 1578.000122070312 C -4364.49951171875 1581.415893554688 -4361.85107421875 1584.224609375 -4358.5 1584.480712890625 L -4358.5 1590.999389648438 C -4358.5 1594.071533203125 -4359.6962890625 1596.959594726562 -4361.86865234375 1599.13134765625 C -4364.041015625 1601.303588867188 -4366.9287109375 1602.499877929688 -4370.00048828125 1602.499877929688 Z"/><path class="f" d="M -4370.00048828125 1601.999877929688 C -4367.0625 1601.999877929688 -4364.2998046875 1600.855590820312 -4362.22216796875 1598.777709960938 C -4360.14453125 1596.700439453125 -4359 1593.93798828125 -4359 1590.999389648438 L -4359 1584.928588867188 C -4362.3876953125 1584.44189453125 -4364.99951171875 1581.520263671875 -4364.99951171875 1578.000122070312 C -4364.99951171875 1574.48046875 -4362.38720703125 1571.558349609375 -4359 1571.070678710938 L -4359 1566.928466796875 C -4362.3876953125 1566.441772460938 -4364.99951171875 1563.520141601562 -4364.99951171875 1560 C -4364.99951171875 1556.480834960938 -4362.38720703125 1553.559326171875 -4359 1553.07177734375 L -4359 1548.928344726562 C -4362.3876953125 1548.441650390625 -4364.99951171875 1545.52001953125 -4364.99951171875 1541.999877929688 C -4364.99951171875 1538.480712890625 -4362.38720703125 1535.559204101562 -4359 1535.071655273438 L -4359 1530.928100585938 C -4362.3876953125 1530.441528320312 -4364.99951171875 1527.519897460938 -4364.99951171875 1523.999755859375 C -4364.99951171875 1520.480590820312 -4362.38720703125 1517.558959960938 -4359 1517.071411132812 L -4359 1512.927978515625 C -4362.3876953125 1512.44140625 -4364.99951171875 1509.519775390625 -4364.99951171875 1505.999633789062 C -4364.99951171875 1502.48046875 -4362.38720703125 1499.558837890625 -4359 1499.0712890625 L -4359 1494.927856445312 C -4362.3876953125 1494.441162109375 -4364.99951171875 1491.51953125 -4364.99951171875 1487.999389648438 C -4364.99951171875 1484.480224609375 -4362.38720703125 1481.558837890625 -4359 1481.071166992188 L -4359 1474.9990234375 C -4359 1472.060546875 -4360.14453125 1469.29833984375 -4362.22216796875 1467.22119140625 C -4364.2998046875 1465.143798828125 -4367.0625 1463.999755859375 -4370.00048828125 1463.999755859375 L -4681 1463.999755859375 C -4683.93798828125 1463.999755859375 -4686.70068359375 1465.143798828125 -4688.7783203125 1467.221313476562 C -4690.85595703125 1469.298461914062 -4692.00048828125 1472.060546875 -4692.00048828125 1474.9990234375 L -4692.00048828125 1590.999389648438 C -4692.00048828125 1593.93798828125 -4690.85595703125 1596.700439453125 -4688.7783203125 1598.77783203125 C -4686.70068359375 1600.855590820312 -4683.93798828125 1601.999877929688 -4681 1601.999877929688 L -4370.00048828125 1601.999877929688 M -4370.00048828125 1602.999877929688 L -4681 1602.999877929688 C -4684.205078125 1602.999877929688 -4687.21875 1601.751586914062 -4689.4853515625 1599.48486328125 C -4691.75244140625 1597.218383789062 -4693.00048828125 1594.204833984375 -4693.00048828125 1590.999389648438 L -4693.00048828125 1474.9990234375 C -4693.00048828125 1471.793701171875 -4691.75244140625 1468.780395507812 -4689.4853515625 1466.514038085938 C -4687.21875 1464.247802734375 -4684.205078125 1462.999755859375 -4681 1462.999755859375 L -4370.00048828125 1462.999755859375 C -4366.79541015625 1462.999755859375 -4363.78173828125 1464.247802734375 -4361.51513671875 1466.514038085938 C -4359.248046875 1468.780395507812 -4358 1471.793701171875 -4358 1474.9990234375 L -4358 1481.999755859375 C -4361.3095703125 1482.000732421875 -4363.99951171875 1484.691772460938 -4363.99951171875 1487.999389648438 C -4363.99951171875 1491.3076171875 -4361.30810546875 1493.999145507812 -4358 1493.999145507812 L -4358 1499.999877929688 C -4361.3095703125 1500.000854492188 -4363.99951171875 1502.69189453125 -4363.99951171875 1505.999633789062 C -4363.99951171875 1509.307861328125 -4361.30810546875 1511.999267578125 -4358 1511.999267578125 L -4358 1518 C -4361.3095703125 1518.0009765625 -4363.99951171875 1520.692016601562 -4363.99951171875 1523.999755859375 C -4363.99951171875 1527.307983398438 -4361.30810546875 1529.999389648438 -4358 1529.999389648438 L -4358 1536.000244140625 C -4361.3095703125 1536.001220703125 -4363.99951171875 1538.692260742188 -4363.99951171875 1541.999877929688 C -4363.99951171875 1545.30810546875 -4361.30810546875 1547.99951171875 -4358 1547.99951171875 L -4358 1554.000366210938 C -4361.3095703125 1554.001342773438 -4363.99951171875 1556.6923828125 -4363.99951171875 1560 C -4363.99951171875 1563.308227539062 -4361.30810546875 1565.999633789062 -4358 1565.999633789062 L -4358 1571.999267578125 C -4361.3095703125 1572.000244140625 -4363.99951171875 1574.691772460938 -4363.99951171875 1578.000122070312 C -4363.99951171875 1581.308349609375 -4361.30810546875 1583.999755859375 -4358 1583.999755859375 L -4358 1590.999389648438 C -4358 1594.204956054688 -4359.248046875 1597.218383789062 -4361.51513671875 1599.48486328125 C -4363.78173828125 1601.751586914062 -4366.79541015625 1602.999877929688 -4370.00048828125 1602.999877929688 Z"/></g><path class="d" d="M-4365.031,1411.439v140" transform="translate(4645.031 -907.439)"/></g></g></svg>