<svg xmlns="http://www.w3.org/2000/svg" xmlns:xlink="http://www.w3.org/1999/xlink" width="18" height="18" viewBox="0 0 18 18">
  <defs>
    <style>
      .cls-1, .cls-3 {
        fill: red;
      }

      .cls-1 {
        opacity: 0.1;
      }

      .cls-2 {
        clip-path: url(#clip-path);
      }

      .cls-3 {
        opacity: 0;
      }

      .cls-4 {
        fill: #ffd23b;
      }

      .cls-5 {
        fill: #ffb24a;
      }

      .cls-6 {
        fill: #fff0be;
      }

      .cls-7 {
        fill: #2d3e53;
      }

      .cls-8 {
        fill: #ec5f87;
      }
    </style>
    <clipPath id="clip-path">
      <rect id="사각형_11882" data-name="사각형 11882" class="cls-1" width="18" height="18" transform="translate(16 1255)"/>
    </clipPath>
  </defs>
  <g id="ic_x18_edit" class="cls-2" transform="translate(-16 -1255)">
    <rect id="사각형_1167" data-name="사각형 1167" class="cls-3" width="18" height="18" transform="translate(16 1255)"/>
    <g id="icon_edit" transform="translate(29.282 1255) rotate(45)">
      <path id="패스_21347" data-name="패스 21347" class="cls-4" d="M2.377,17.94a1,1,0,0,0,1.664,0l2.131-3.2a1.16,1.16,0,0,0,.242-.77c0-.514,0-13.973,0-13.973H0S0,13.6,0,13.973a1.747,1.747,0,0,0,.245.77Z" transform="translate(0.033 1.812)"/>
      <rect id="사각형_11881" data-name="사각형 11881" class="cls-5" width="2.2" height="13" transform="translate(4.24 3)"/>
      <path id="패스_21349" data-name="패스 21349" class="cls-6" d="M2.377,4.2a1,1,0,0,0,1.664,0L6.172,1a1.16,1.16,0,0,0,.242-.77H0s0-.371,0,0A1.747,1.747,0,0,0,.245,1Z" transform="translate(0.033 15.557)"/>
      <path id="합치기_39" data-name="합치기 39" class="cls-7" d="M.953,1.392l.1.151a1,1,0,0,0,1.664,0l.131-.2a1.179,1.179,0,0,0,.077-.131L3.712.023,0,0Z" transform="translate(1.354 18.208)"/>
      <path id="사각형_11880" data-name="사각형 11880" class="cls-8" d="M2,0H4.48a2,2,0,0,1,2,2V3a0,0,0,0,1,0,0H0A0,0,0,0,1,0,3V2A2,2,0,0,1,2,0Z" transform="translate(0 0)"/>
    </g>
  </g>
</svg>
