<svg xmlns="http://www.w3.org/2000/svg" xmlns:xlink="http://www.w3.org/1999/xlink" width="40" height="40" viewBox="0 0 40 40">
  <defs>
    <style>
      .cls-1 {
        fill: none;
      }

      .cls-2 {
        clip-path: url(#clip-path);
      }

      .cls-3 {
        fill: #85b5ff;
      }

      .cls-4 {
        fill: #569aff;
      }

      .cls-5 {
        fill: #e83667;
      }

      .cls-6 {
        fill: #fff;
      }
    </style>
    <clipPath id="clip-path">
      <rect id="사각형_11805" data-name="사각형 11805" class="cls-1" width="40" height="40"/>
    </clipPath>
  </defs>
  <g id="ic_ticket_x40" class="cls-2">
    <path id="패스_21251" data-name="패스 21251" class="cls-3" d="M3.942,14.25A2.84,2.84,0,0,1,5.105,16H37.181l.188-.919a2.835,2.835,0,0,0-2.208-3.346L7.389,6.048A2.834,2.834,0,0,0,4.043,8.256L3.22,12.277a1.917,1.917,0,0,0,.722,1.973"/>
    <path id="패스_21252" data-name="패스 21252" class="cls-4" d="M35,24a3,3,0,0,1,1.832-2.764A2.03,2.03,0,0,0,38,19.343V16a3,3,0,0,0-3-3H5a3,3,0,0,0-3,3v3.343a2.03,2.03,0,0,0,1.168,1.893,3,3,0,0,1,0,5.528A2.03,2.03,0,0,0,2,28.657V32a3,3,0,0,0,3,3H35a3,3,0,0,0,3-3V28.657a2.03,2.03,0,0,0-1.168-1.893A3,3,0,0,1,35,24"/>
    <path id="패스_21253" data-name="패스 21253" class="cls-5" d="M38,6a3,3,0,1,1-3-3,3,3,0,0,1,3,3"/>
    <path id="패스_17622" data-name="패스 17622" class="cls-6" d="M12.09,14.092A4.87,4.87,0,1,1,15.743,6a1.335,1.335,0,1,1-2,1.766,2.2,2.2,0,1,0-1.651,3.654,2.183,2.183,0,0,0,1.771-.9,1.335,1.335,0,0,1,2.149,1.586,4.895,4.895,0,0,1-3.921,1.98" transform="translate(8.645 14.426)"/>
  </g>
</svg>
