<svg xmlns="http://www.w3.org/2000/svg" width="38" height="38" viewBox="0 0 38 38">
    <path data-name="패스 18278" d="M5.621 19.763v17.643c0 1.216 1.643 1.977 2.956 1.368l1.973-.914 3.936-1.822a2.421 2.421 0 0 1 1.989 0l3.935 1.822 1.971.913c1.315.609 2.959-.152 2.959-1.37v-17.64z" transform="translate(3.719 -.988)" style="fill:#1d68dc"/>
    <path data-name="패스 18279" d="M30.4 15.2A15.2 15.2 0 1 1 15.2 0a15.2 15.2 0 0 1 15.2 15.2" transform="translate(4)" style="fill:#85b5ff"/>
    <path data-name="패스 18280" d="M15.371 2.254a13.117 13.117 0 0 1 9.276 22.393A13.117 13.117 0 0 1 6.1 6.1a13.03 13.03 0 0 1 9.271-3.846zm0 24.218a11.1 11.1 0 1 0-11.1-11.1 11.113 11.113 0 0 0 11.1 11.1z" transform="translate(3.829 -.171)" style="fill:#569aff"/>
    <path data-name="패스 18281" d="m18.912 12.818 3 .7a.5.5 0 0 1 .262.806l-2.009 2.334a1.98 1.98 0 0 0-.472 1.458l.257 3.069a.5.5 0 0 1-.685.5L16.422 20.5a1.982 1.982 0 0 0-1.533 0l-2.839 1.192a.5.5 0 0 1-.686-.5l.253-3.069a1.985 1.985 0 0 0-.474-1.458l-2.012-2.329a.5.5 0 0 1 .261-.807l3-.708a1.978 1.978 0 0 0 1.24-.9l1.6-2.634a.5.5 0 0 1 .846 0l1.6 2.632a1.978 1.978 0 0 0 1.241.9" transform="translate(3.55 -.452)" style="fill:#fff"/>
    <path data-name="패스 18282" d="M16.5 14.9a2 2 0 1 1-2 2 2 2 0 0 1 2-2" transform="translate(2.7 -1.704)" style="fill:#e83667"/>
</svg>
