<svg xmlns="http://www.w3.org/2000/svg" width="38" height="38" viewBox="0 0 38 38">
  <defs>
    <style>
      .cls-1 {
        fill: red;
        opacity: 0;
      }

      .cls-2 {
        fill: #606060;
      }

      .cls-3 {
        fill: #cacaca;
      }

      .cls-4 {
        fill: #aeaeae;
      }

      .cls-5 {
        fill: #fff;
      }

      .cls-6 {
        fill: gray;
      }
    </style>
  </defs>
  <g id="icon" transform="translate(74 -309)">
    <rect id="_38_38" data-name="38*38" class="cls-1" width="38" height="38" transform="translate(-74 309)"/>
    <g id="ic_x38_Legend_lock" transform="translate(-85 295)">
      <path id="패스_18341" data-name="패스 18341" class="cls-2" d="M5.621,19.763V37.406c0,1.216,1.643,1.977,2.956,1.368l1.973-.914,3.936-1.822a2.421,2.421,0,0,1,1.989,0l3.935,1.822,1.971.913c1.315.609,2.959-.152,2.959-1.37V19.763Z" transform="translate(14.719 13.012)"/>
      <path id="패스_18342" data-name="패스 18342" class="cls-3" d="M30.4,15.2A15.2,15.2,0,1,1,15.2,0,15.2,15.2,0,0,1,30.4,15.2" transform="translate(15 14)"/>
      <path id="패스_18343" data-name="패스 18343" class="cls-4" d="M15.363,2.254a13.109,13.109,0,0,1,9.27,22.378A13.109,13.109,0,0,1,6.094,6.094,13.021,13.021,0,0,1,15.363,2.254Zm0,24.218A11.109,11.109,0,1,0,4.255,15.363,11.121,11.121,0,0,0,15.363,26.472Z" transform="translate(14.837 13.837)"/>
      <path id="패스_18344" data-name="패스 18344" class="cls-5" d="M21.514,16.162,20.742,13.9a1.045,1.045,0,0,0-.99-.708H11.63a1.045,1.045,0,0,0-.99.708l-.772,2.267a1.164,1.164,0,0,0,.183,1.066l.207.211.006.009,4.682,4.75a1.046,1.046,0,0,0,1.49,0l4.682-4.75.007-.009.207-.211a1.169,1.169,0,0,0,.183-1.066" transform="translate(14.509 13.841)"/>
      <path id="패스_18345" data-name="패스 18345" class="cls-6" d="M16.415,9a2,2,0,1,1-2,2,2,2,0,0,1,2-2" transform="translate(13.785 13.05)"/>
      <path id="패스_18346" data-name="패스 18346" class="cls-2" d="M15.085,17.365H11.949a.95.95,0,0,1,0-1.9h3.136a.95.95,0,0,1,0,1.9" transform="translate(14.45 13.727)"/>
    </g>
  </g>
</svg>
