<svg xmlns="http://www.w3.org/2000/svg" xmlns:xlink="http://www.w3.org/1999/xlink" width="519" height="72" viewBox="0 0 519 72"><defs><style>.a{fill:rgba(0,0,0,0);}.aa,.ad,.ae,.ag,.ah,.b,.d,.h,.i,.k,.r,.s,.t,.u,.v{fill:none;}.c{fill:red;}.ae,.aj,.c,.h,.j,.q{opacity:0;}.ae,.d,.e,.i,.r,.t{stroke:#63a1ff;}.aa,.ab,.ad,.ag,.d,.e,.i,.k,.r,.u,.v,.x,.y{stroke-width:2px;}.e{fill:#cde0ff;}.f{fill:#aeaeae;}.ab,.af,.g,.j,.n,.q,.x,.y{fill:#fff;}.aa,.ag,.ah,.i,.k,.r,.s,.t,.u,.v{stroke-linecap:round;}.ad,.ah,.k,.x{stroke:#fff;}.aa,.ab,.ag,.k,.r,.s,.t,.u,.x{stroke-linejoin:round;}.l{fill:#ec5f87;}.m{fill:#88a0f2;}.n{opacity:0.6;}.o{fill:#606060;}.aj,.p{fill:#63a1ff;}.q{stroke:#707070;}.s,.v{stroke:gray;}.ah,.s,.t{stroke-width:1.5px;}.u{stroke:#eaeaea;}.w{fill:#e83667;}.y{stroke:#404040;}.z{fill:#404040;}.aa,.ab{stroke:#aeaeae;}.ac{opacity:0.8;}.af{stroke:rgba(0,0,0,0);stroke-miterlimit:10;}.ag{stroke:#cacaca;}.ai{clip-path:url(#a);}.ak{clip-path:url(#b);}.al{clip-path:url(#c);}.am{fill:#381f1f;}.an{fill:#ffe812;}.ao{fill:#85b5ff;}.ap{stroke:none;}</style><clipPath id="a"><rect class="a" width="8" height="10"/></clipPath><clipPath id="b"><path class="b" d="M0,0H30.38V21.885H0Z"/></clipPath><clipPath id="c"><path class="b" d="M0,0H7.611V9.844H0Z"/></clipPath></defs><rect class="b" width="26" height="26"/><g transform="translate(0 -16)"><rect class="c" width="24" height="24" transform="translate(0 16)"/><path class="d" d="M19.456,20.306,7.443,27.71l12.013,6.325" transform="translate(-1.412 0.69)"/><g class="e" transform="translate(14 17)"><circle class="ap" cx="4" cy="4" r="4"/><circle class="b" cx="4" cy="4" r="3"/></g><g class="e" transform="translate(2 24)"><circle class="ap" cx="4" cy="4" r="4"/><circle class="b" cx="4" cy="4" r="3"/></g><g class="e" transform="translate(14 31)"><circle class="ap" cx="4" cy="4" r="4"/><circle class="b" cx="4" cy="4" r="3"/></g></g><rect class="b" width="20" height="20" transform="translate(28)"/><g transform="translate(-211 -541)"><circle class="f" cx="9" cy="9" r="9" transform="translate(240 542)"/><rect class="g" width="2" height="10" rx="1" transform="translate(244.757 548.172) rotate(-45)"/><rect class="g" width="2" height="10" rx="1" transform="translate(251.828 546.757) rotate(45)"/></g><rect class="b" width="26" height="26" transform="translate(50)"/><g transform="translate(-184 -1360)"><circle class="f" cx="12" cy="12" r="12" transform="translate(235 1361)"/><path class="g" d="M246,1378v-4h-4a1,1,0,0,1,0-2h4v-4a1,1,0,0,1,2,0v4h4a1,1,0,0,1,0,2h-4v4a1,1,0,0,1-2,0Z"/></g><g transform="translate(78)"><rect class="h" width="18" height="18"/><g transform="translate(-28.756 -742.736)"><g class="d" transform="translate(30.756 744.736)"><circle class="ap" cx="6.5" cy="6.5" r="6.5"/><circle class="b" cx="6.5" cy="6.5" r="5.5"/></g><path class="i" d="M13796.967-171.775l3.377,3.377" transform="translate(-13755.864 927.095)"/></g></g><g transform="translate(33 -106)"><rect class="b" width="16" height="16" transform="translate(83 106)"/><g transform="translate(85 108)"><rect class="j" width="12" height="12"/><g transform="translate(-2 -5)"><path class="k" d="M3,10V0L1,1.75" transform="translate(3 6)"/><path class="k" d="M3,10V0L1,1.75" transform="translate(14 16) rotate(180)"/></g></g></g><g transform="translate(33 -106)"><rect class="b" width="16" height="16" transform="translate(65 106)"/><g transform="translate(67 108)"><rect class="j" width="12" height="12"/><path class="g" d="M1.16,1.163A40.469,40.469,0,0,1,4.5,6.5v3.778A.741.741,0,0,0,5.25,11H6.758a.741.741,0,0,0,.754-.722V6.5A40.09,40.09,0,0,1,10.84,1.163.719.719,0,0,0,10.245,0H1.755A.719.719,0,0,0,1.16,1.163Z" transform="translate(0 0.5)"/></g></g><g transform="translate(-18 -89)"><rect class="b" width="10" height="10" transform="translate(152 89)"/><g transform="translate(153 90)"><rect class="j" width="8" height="8"/><rect class="g" width="1" height="8" rx="0.5" transform="translate(3.5)"/><rect class="g" width="1" height="8" rx="0.5" transform="translate(0 4.5) rotate(-90)"/></g></g><g transform="translate(126 -1162)"><rect class="j" width="18" height="18" transform="translate(24 1162)"/><path class="l" d="M6,11c-.387-.349-.824-.713-1.287-1.1H4.707C3.078,8.54,1.232,7.005.416,5.167A4.6,4.6,0,0,1,0,3.3,3.322,3.322,0,0,1,.968.943,3.2,3.2,0,0,1,3.3,0a3.648,3.648,0,0,1,2,.6,3.378,3.378,0,0,1,.7.621A3.487,3.487,0,0,1,6.7.6a3.644,3.644,0,0,1,2-.6,3.2,3.2,0,0,1,2.332.942A3.322,3.322,0,0,1,12,3.3a4.6,4.6,0,0,1-.416,1.871C10.768,7.008,8.923,8.542,7.294,9.9l-.006,0c-.463.384-.9.748-1.287,1.1Z" transform="translate(27 1166)"/></g><g transform="translate(146 -1162)"><rect class="j" width="16" height="16" transform="translate(24 1162)"/><path class="m" d="M1630.9-2972h-6v-6a6.006,6.006,0,0,1,6-6,6.007,6.007,0,0,1,6,6A6.007,6.007,0,0,1,1630.9-2972Zm2.1-7a1,1,0,0,0-1,1,1,1,0,0,0,1,1,1,1,0,0,0,1-1A1,1,0,0,0,1633-2979Zm-3,0a1,1,0,0,0-1,1,1,1,0,0,0,1,1,1,1,0,0,0,1-1A1,1,0,0,0,1630-2979Z" transform="translate(-1598.895 4148)"/></g><g transform="translate(115 -60)"><rect class="b" width="17" height="20" transform="translate(73 60)"/><path class="n" d="M17.857,3H7.143A2.2,2.2,0,0,0,5,5.25V21l7.5-3.375L20,21V5.25A2.2,2.2,0,0,0,17.857,3Z" transform="translate(69 58)"/></g><rect class="b" width="24" height="24" transform="translate(207)"/><g transform="translate(209.6 2.5)"><path class="g" d="M6.5,2A4.5,4.5,0,1,0,11,6.5,4.505,4.505,0,0,0,6.5,2m0-2A6.5,6.5,0,1,1,0,6.5,6.5,6.5,0,0,1,6.5,0Z" transform="translate(2 2)"/><path class="g" d="M13800.377-167.4a1,1,0,0,1-.707-.293l-3.377-3.377a1,1,0,0,1,0-1.414,1,1,0,0,1,1.414,0l3.377,3.377a1,1,0,0,1,0,1.414A1,1,0,0,1,13800.377-167.4Z" transform="translate(-13784.62 184.359)"/></g><rect class="b" width="24" height="24" transform="translate(233)"/><g transform="translate(235.6 2.5)"><path class="o" d="M6.5,2A4.5,4.5,0,1,0,11,6.5,4.505,4.505,0,0,0,6.5,2m0-2A6.5,6.5,0,1,1,0,6.5,6.5,6.5,0,0,1,6.5,0Z" transform="translate(2 2)"/><path class="o" d="M13800.377-167.4a1,1,0,0,1-.707-.293l-3.377-3.377a1,1,0,0,1,0-1.414,1,1,0,0,1,1.414,0l3.377,3.377a1,1,0,0,1,0,1.414A1,1,0,0,1,13800.377-167.4Z" transform="translate(-13784.62 184.359)"/></g><g transform="translate(259)"><path class="b" d="M0,0H24V24H0Z"/><path class="p" d="M4.5,5.5H0a1,1,0,0,1,0-2H3.5V0a1,1,0,0,1,2,0V4.5A1,1,0,0,1,4.5,5.5Z" transform="translate(16.516 4.848)"/><path class="p" d="M14.849,6.6a1,1,0,0,1-.707-.293L10.96,3.123a7.258,7.258,0,0,0-10.253,0,1,1,0,0,1-1.414,0,1,1,0,0,1,0-1.414,9.261,9.261,0,0,1,13.081,0l3.182,3.184A1,1,0,0,1,14.849,6.6Z" transform="translate(6.167 3.75)"/><path class="p" d="M0,5.5a1,1,0,0,1-1-1V0A1,1,0,0,1,0-1H4.5a1,1,0,0,1,1,1,1,1,0,0,1-1,1H1V4.5A1,1,0,0,1,0,5.5Z" transform="translate(2.984 14.652)"/><path class="p" d="M9.017,6.6a9.205,9.205,0,0,1-3.542-.706,9.2,9.2,0,0,1-3-2L-.707.707a1,1,0,0,1,0-1.414,1,1,0,0,1,1.414,0L3.889,2.475A7.214,7.214,0,0,0,6.241,4.046,7.215,7.215,0,0,0,9.016,4.6a7.213,7.213,0,0,0,2.773-.554,7.215,7.215,0,0,0,2.352-1.571,1,1,0,0,1,1.414,1.414,9.2,9.2,0,0,1-3,2A9.2,9.2,0,0,1,9.017,6.6Z" transform="translate(2.984 14.652)"/></g><g transform="translate(78)"><rect class="b" width="24" height="24" transform="translate(207)"/><g transform="translate(209.6 2.5)"><path class="f" d="M6.5,2A4.5,4.5,0,1,0,11,6.5,4.505,4.505,0,0,0,6.5,2m0-2A6.5,6.5,0,1,1,0,6.5,6.5,6.5,0,0,1,6.5,0Z" transform="translate(2 2)"/><path class="f" d="M13800.377-167.4a1,1,0,0,1-.707-.293l-3.377-3.377a1,1,0,0,1,0-1.414,1,1,0,0,1,1.414,0l3.377,3.377a1,1,0,0,1,0,1.414A1,1,0,0,1,13800.377-167.4Z" transform="translate(-13784.62 184.359)"/></g></g><g transform="translate(38 -84)"><rect class="b" width="50" height="50" transform="translate(297 84)"/><circle class="b" cx="25" cy="25" r="25" transform="translate(297 84)"/><rect class="g" width="6" height="15" rx="3" transform="translate(319 98)"/><rect class="g" width="6" height="6" rx="3" transform="translate(319 115)"/></g><g transform="translate(0 26)"><rect class="j" width="12" height="12"/><g transform="translate(2 2)"><path class="f" d="M329.2,1197.529a1,1,0,0,1-.707-.293l-8-8a1,1,0,0,1,1.414-1.414l8,8a1,1,0,0,1-.707,1.707Z" transform="translate(-321.204 -1188.529)"/><path class="f" d="M321.2,1197.529a1,1,0,0,1-.707-1.707l8-8a1,1,0,1,1,1.414,1.414l-8,8A1,1,0,0,1,321.2,1197.529Z" transform="translate(-321.204 -1188.529)"/></g></g><g transform="translate(14 26)"><g class="q"><rect class="ap" width="18" height="18"/><rect class="b" x="0.5" y="0.5" width="17" height="17"/></g><circle class="f" cx="8" cy="8" r="8" transform="translate(1 1)"/><rect class="g" width="2" height="6" rx="1" transform="translate(8 5)"/><rect class="g" width="2" height="2" rx="1" transform="translate(8 12)"/></g><g transform="translate(383 -4)"><path class="b" d="M0,0H24V24H0Z" transform="translate(4 4)"/><path class="r" d="M12.218,18.894V13.657a.873.873,0,0,0-.873-.873H7.854a.873.873,0,0,0-.873.873v5.237a.873.873,0,0,1-.873.873H.873A.873.873,0,0,1,0,18.894V8.808a.873.873,0,0,1,.286-.646L9.012.227a.873.873,0,0,1,1.174,0l8.728,7.935a.873.873,0,0,1,.286.646V18.894a.873.873,0,0,1-.873.873H13.09a.873.873,0,0,1-.873-.873Z" transform="translate(6.4 5.792)"/></g><rect class="b" width="24" height="24" transform="translate(34 26)"/><g transform="translate(37 29)"><path class="f" d="M-.974,11.4H-3.035a1,1,0,0,1-.231-.027l-.155-.037a1,1,0,0,1-.355-.163l-.088-.064a1,1,0,0,1-.121-.1,1.335,1.335,0,0,1-.393-.95V8.142a1.337,1.337,0,0,1,.1-.514,1.337,1.337,0,0,1,.291-.436q.024-.024.05-.047L4.995-.638a1.343,1.343,0,0,1,1.868.031q.025.025.048.051l1.851,2.13A1.343,1.343,0,0,1,8.73,3.442Q8.7,3.47,8.671,3.5l-9,7.669A1,1,0,0,1-.974,11.4Zm-1.4-2h1.036L6.848,2.422l-1-1.15-8.227,7.17Z" transform="translate(8.877 1.441)"/><path class="f" d="M14.376,15.982H.625A1.578,1.578,0,0,1-.585,15.4,1.826,1.826,0,0,1-1,14.233V.749A1.826,1.826,0,0,1-.585-.421,1.578,1.578,0,0,1,.625-1H6.25a1,1,0,0,1,1,1,1,1,0,0,1-1,1H1V13.982H14V10.488a1,1,0,0,1,2,0v3.746a1.826,1.826,0,0,1-.415,1.17A1.578,1.578,0,0,1,14.376,15.982Z" transform="translate(1.03 1.577)"/></g><g transform="translate(-122 -334)"><rect class="c" width="18" height="18" transform="translate(182 360)"/><g transform="translate(184.5 362.5)"><path class="s" d="M-2,3.641.652,6.328,7.1-.172,6.131.811" transform="translate(5.9 2.772)"/><path class="s" d="M13,8.974v2.581A1.444,1.444,0,0,1,11.556,13H1.444A1.444,1.444,0,0,1,0,11.556V1.444A1.444,1.444,0,0,1,1.444,0H9.389" transform="translate(0 0)"/></g></g><g transform="translate(-102 -334)"><rect class="c" width="18" height="18" transform="translate(182 360)"/><g transform="translate(184.5 362.5)"><path class="t" d="M-2,3.641.652,6.328,7.1-.172,6.131.811" transform="translate(5.9 2.772)"/><path class="t" d="M13,8.974v2.581A1.444,1.444,0,0,1,11.556,13H1.444A1.444,1.444,0,0,1,0,11.556V1.444A1.444,1.444,0,0,1,1.444,0H9.389" transform="translate(0 0)"/></g></g><rect class="b" width="20" height="46" transform="translate(100 26)"/><g transform="translate(119 72) rotate(180)"><g class="q"><rect class="ap" width="18" height="18"/><rect class="b" x="0.5" y="0.5" width="17" height="17"/></g><path class="u" d="M3960.65,1281.21l4.5-4.5,4.5,4.5" transform="translate(-3956.146 -1273.21)"/></g><g transform="translate(101 26)"><g class="q"><rect class="ap" width="18" height="18"/><rect class="b" x="0.5" y="0.5" width="17" height="17"/></g><path class="u" d="M3960.65,1281.21l4.5-4.5,4.5,4.5" transform="translate(-3956.146 -1273.21)"/></g><g transform="translate(0 52) rotate(-90)"><rect class="j" width="12" height="12"/><g transform="translate(-319.204 -1186.529)"><path class="v" d="M321.2,1188.529l8,8" transform="translate(0 0)"/><path class="v" d="M329.2,1188.529l-8,8" transform="translate(0 0)"/></g></g><rect class="b" width="14" height="14" transform="translate(0 54)"/><g transform="translate(1 55)"><g class="q"><rect class="ap" width="12" height="12"/><rect class="b" x="0.5" y="0.5" width="11" height="11"/></g><g transform="translate(-1.018 -1.018)"><circle class="f" cx="6" cy="6" r="6" transform="translate(1.018 1.018)"/><rect class="g" width="1.559" height="4.289" rx="0.78" transform="translate(6.238 3.704)"/><rect class="g" width="1.559" height="1.559" rx="0.78" transform="translate(6.238 8.772)"/></g></g><rect class="b" width="14" height="14" transform="translate(16 54)"/><g transform="translate(17 55)"><g class="q"><rect class="ap" width="12" height="12"/><rect class="b" x="0.5" y="0.5" width="11" height="11"/></g><g transform="translate(-1.018 -1.018)"><circle class="w" cx="6" cy="6" r="6" transform="translate(1.018 1.018)"/><rect class="g" width="1.559" height="4.289" rx="0.78" transform="translate(6.238 3.704)"/><rect class="g" width="1.559" height="1.559" rx="0.78" transform="translate(6.238 8.772)"/></g></g><rect class="b" width="16" height="16" transform="translate(32 54)"/><g transform="translate(34 56)"><rect class="c" width="12" height="12"/><path class="x" d="M68.631,60.1l-2.757,8.417a.089.089,0,0,1-.081.06h0a.09.09,0,0,1-.082-.056l-1.64-4.172-3.97-1.44a.088.088,0,0,1,0-.165l8.417-2.757a.09.09,0,0,1,.112.112Z" transform="translate(-58.339 -57.863)"/></g><g transform="translate(78 26)"><rect class="b" width="24" height="24" transform="translate(207)"/><g transform="translate(209.6 2.5)"><path class="p" d="M6.5,2A4.5,4.5,0,1,0,11,6.5,4.505,4.505,0,0,0,6.5,2m0-2A6.5,6.5,0,1,1,0,6.5,6.5,6.5,0,0,1,6.5,0Z" transform="translate(2 2)"/><path class="p" d="M13800.377-167.4a1,1,0,0,1-.707-.293l-3.377-3.377a1,1,0,0,1,0-1.414,1,1,0,0,1,1.414,0l3.377,3.377a1,1,0,0,1,0,1.414A1,1,0,0,1,13800.377-167.4Z" transform="translate(-13784.62 184.359)"/></g></g><rect class="b" width="22" height="22" transform="translate(311)"/><g transform="translate(312 1)"><g class="q"><rect class="ap" width="20" height="20"/><rect class="b" x="0.5" y="0.5" width="19" height="19"/></g><g transform="translate(1.096 1.096)"><g class="y" transform="translate(-1.096 -1.096)"><circle class="ap" cx="10" cy="10" r="10"/><circle class="b" cx="10" cy="10" r="9"/></g><rect class="z" width="2" height="6" rx="1" transform="translate(7.904 4.404)"/><rect class="z" width="2" height="2" rx="1" transform="translate(7.904 11.404)"/></g></g><g transform="translate(160 26)"><rect class="b" width="18" height="18"/><g transform="translate(0 0)"><path class="b" d="M0,0H18V18H0Z"/><path class="aa" d="M0,0H15" transform="translate(1.5 16.125)"/><path class="ab" d="M.75,0h1.5A.75.75,0,0,1,3,.75v4.5A.75.75,0,0,1,2.25,6H.75A.75.75,0,0,1,0,5.25V.75A.75.75,0,0,1,.75,0Z" transform="translate(3 10.125)"/><path class="aa" d="M0,0H.375" transform="translate(4.5 13.125)"/><path class="ab" d="M.75,0h7.5A.75.75,0,0,1,9,.75V13.5a.75.75,0,0,1-.75.75H.75A.75.75,0,0,1,0,13.5V.75A.75.75,0,0,1,.75,0Z" transform="translate(6 1.875)"/><circle class="f" cx="0.75" cy="0.75" r="0.75" transform="translate(8.25 4.13)"/><circle class="f" cx="0.75" cy="0.75" r="0.75" transform="translate(11.25 4.13)"/><circle class="f" cx="0.75" cy="0.75" r="0.75" transform="translate(8.25 6.75)"/><circle class="f" cx="0.75" cy="0.75" r="0.75" transform="translate(11.25 6.75)"/><circle class="f" cx="0.75" cy="0.75" r="0.75" transform="translate(11.25 9.37)"/><circle class="f" cx="0.75" cy="0.75" r="0.75" transform="translate(11.25 11.995)"/></g></g><g transform="translate(180 26)"><rect class="b" width="18" height="18"/><g transform="translate(1.083 1.083)"><path class="b" d="M0,0H16.667V16.667H0Z" transform="translate(-0.417 -0.417)"/><path class="ab" d="M-1,3.208,1.042,0H5.208L7.25,3.208Z" transform="translate(4.792 1.542)"/><path class="ab" d="M1.042,0H12.847a1.042,1.042,0,0,1,1.042,1.042V9.375a1.042,1.042,0,0,1-1.042,1.042H1.042A1.042,1.042,0,0,1,0,9.375V1.042A1.042,1.042,0,0,1,1.042,0Z" transform="translate(0.972 3.75)"/><path class="ab" d="M2.778,5.556A2.778,2.778,0,1,0,0,2.778,2.778,2.778,0,0,0,2.778,5.556Z" transform="translate(5.139 6.181)"/></g></g><g transform="translate(200 26)"><rect class="b" width="18" height="18"/><path class="aa" d="M0,0H12.682" transform="translate(3.068 6.75)"/><path class="aa" d="M2.25,0,0,12.375" transform="translate(10.125 2.813)"/><path class="aa" d="M2.25,0,0,12.375" transform="translate(5.625 2.813)"/><path class="aa" d="M0,0H12.682" transform="translate(2.25 11.25)"/></g><g transform="translate(140 26)"><rect class="b" width="18" height="18"/><g transform="translate(0.706 0.918)"><path class="f" d="M3.3,1.648A1.648,1.648,0,1,1,1.648,0,1.648,1.648,0,0,1,3.3,1.648Z" transform="translate(6.646 4.786)"/><path class="aa" d="M10.989,5.494c0,4.945-5.494,8.791-5.494,8.791S0,10.439,0,5.494a5.494,5.494,0,0,1,10.989,0Z" transform="translate(2.8 0.94)"/></g></g><g transform="translate(220 26)"><rect class="b" width="18" height="18"/><g transform="translate(3.506 1.858)"><path class="p" d="M3.3,1.648A1.648,1.648,0,1,1,1.648,0,1.648,1.648,0,0,1,3.3,1.648Z" transform="translate(3.846 3.846)"/><path class="r" d="M10.989,5.494c0,4.945-5.494,8.791-5.494,8.791S0,10.439,0,5.494a5.494,5.494,0,0,1,10.989,0Z"/></g></g><g transform="translate(11 -61)"><rect class="b" width="42" height="42" transform="translate(229 87)"/><g class="ac" transform="translate(-547 -250)"><g class="ad" transform="translate(777 338)"><circle class="ap" cx="20" cy="20" r="20"/><circle class="b" cx="20" cy="20" r="19"/></g><path class="g" d="M6.136,1.481a1,1,0,0,1,1.728,0L13.123,10.5a1,1,0,0,1-.864,1.5H1.741a1,1,0,0,1-.864-1.5Z" transform="translate(805 351) rotate(90)"/></g></g><g transform="translate(-105 -45)"><rect class="b" width="14" height="14" transform="translate(155 99)"/><g transform="translate(156 100)"><g class="ae"><rect class="ap" width="12" height="12"/><rect class="b" x="0.5" y="0.5" width="11" height="11"/></g><g class="d"><circle class="ap" cx="5" cy="5" r="5"/><circle class="b" cx="5" cy="5" r="4"/></g><path class="p" d="M13798.967-168.775a1,1,0,0,1-.707-.293l-2-2a1,1,0,0,1,0-1.414,1,1,0,0,1,1.414,0l2,2a1,1,0,0,1,0,1.414A1,1,0,0,1,13798.967-168.775Z" transform="translate(-13788.621 180.359)"/></g></g><g transform="translate(120 54)"><g class="q"><rect class="ap" width="18" height="18"/><rect class="b" x="0.5" y="0.5" width="17" height="17"/></g><circle class="f" cx="8" cy="8" r="8" transform="translate(1 1)"/><path class="af" d="M-2601-72a1,1,0,0,1,1-1,1,1,0,0,1,1,1,1,1,0,0,1-1,1A1,1,0,0,1-2601-72Zm.25-2.682a2.507,2.507,0,0,1,1.35-2.191,1.281,1.281,0,0,0,.615-1.42,1.243,1.243,0,0,0-.912-.923,1.244,1.244,0,0,0-.964.157,1.276,1.276,0,0,0-.559.8.748.748,0,0,1-.894.572.749.749,0,0,1-.572-.893,2.777,2.777,0,0,1,1.222-1.744,2.746,2.746,0,0,1,2.1-.351,2.737,2.737,0,0,1,2.039,2.052,2.771,2.771,0,0,1-1.35,3.063,1.033,1.033,0,0,0-.578.88.751.751,0,0,1-.751.75A.75.75,0,0,1-2600.75-74.682Z" transform="translate(2608.977 84.75)"/></g><rect class="b" width="18" height="18" transform="translate(140 54)"/><g transform="translate(-163 -45)"><circle class="f" cx="6" cy="6" r="6" transform="translate(306 102)"/><path class="af" d="M1.093,5.16a.617.617,0,0,1,.642-.59.617.617,0,0,1,.642.59.617.617,0,0,1-.642.59A.617.617,0,0,1,1.093,5.16Zm.161-1.582A1.469,1.469,0,0,1,2.12,2.287a.735.735,0,0,0,.395-.838A.767.767,0,0,0,1.929.905.857.857,0,0,0,1.311,1a.757.757,0,0,0-.359.47.482.482,0,0,1-.574.338.443.443,0,0,1-.367-.527A1.647,1.647,0,0,1,.8.25,1.9,1.9,0,0,1,2.145.043a1.69,1.69,0,0,1,1.309,1.21,1.588,1.588,0,0,1-.867,1.806.609.609,0,0,0-.371.519.464.464,0,0,1-.482.442A.463.463,0,0,1,1.253,3.579Z" transform="translate(310.25 105.25)"/></g><g transform="translate(120 26)"><g class="q"><rect class="ap" width="18" height="18"/><rect class="b" x="0.5" y="0.5" width="17" height="17"/></g><rect class="ag" width="10.231" height="10.231" rx="1" transform="translate(2.063 5.675)"/><path class="ag" d="M306.4,417.105h5.817a2.739,2.739,0,0,1,2.738,2.736V426.5" transform="translate(-299.2 -414.905)"/></g><g transform="translate(-216 -45)"><rect class="b" width="18" height="18" transform="translate(282 99)"/><g transform="translate(43 -442)"><circle class="f" cx="8" cy="8" r="8" transform="translate(240 542)"/><g transform="translate(-77.704 -643.029)"><path class="ah" d="M321.2,1188.53l5,5" transform="translate(2 2)"/><path class="ah" d="M326.2,1188.53l-5,5" transform="translate(2 2)"/></g></g></g><rect class="b" width="12" height="12" transform="translate(160 54)"/><path class="z" d="M4.152,1.357a1,1,0,0,1,1.7,0l3.2,5.113A1,1,0,0,1,8.2,8H1.8A1,1,0,0,1,.956,6.47Z" transform="translate(170.438 55.054) rotate(90)"/><path class="b" d="M0,0H12V12H0Z" transform="translate(174 54)"/><g class="ai" transform="translate(176 55)"><g transform="translate(-112 -409)"><rect class="z" width="3" height="10" rx="1.5" transform="translate(112 409)"/></g><g transform="translate(-107 -409)"><rect class="z" width="3" height="10" rx="1.5" transform="translate(112 409)"/></g></g><rect class="b" width="14" height="14" transform="translate(188 54)"/><g transform="translate(183.375 51.375)"><rect class="j" width="12" height="12" transform="translate(5.625 3.625)"/><g transform="translate(-0.242)"><path class="g" d="M.916,4.274a4.213,4.213,0,0,1,.331-1.641,4.265,4.265,0,0,1,.946-1.39A4.338,4.338,0,0,1,3.608.318,4.39,4.39,0,0,1,5.275,0,4.334,4.334,0,0,1,9.569,4.328v.421a7.889,7.889,0,0,0,.849,4.034.469.469,0,0,1,0,.476.478.478,0,0,1-.176.175A.488.488,0,0,1,10,9.5H.481A.488.488,0,0,1,.24,9.434a.478.478,0,0,1-.176-.175.469.469,0,0,1,0-.476,7.885,7.885,0,0,0,.85-4.034Z" transform="translate(6.625 3.625)"/><path class="g" d="M0,0V.364a1.455,1.455,0,0,0,2.909,0V0" transform="translate(10.413 13.807)"/></g></g><g transform="translate(-75 -49)"><rect class="b" width="14" height="14" transform="translate(279 103)"/><g transform="translate(280 104)"><rect class="j" width="12" height="12"/><rect class="z" width="2" height="12" rx="1" transform="translate(5)"/><rect class="z" width="2" height="12" rx="1" transform="translate(0 7) rotate(-90)"/></g></g><rect class="b" width="14" height="14" transform="translate(220 54)"/><g transform="translate(221 55)"><rect class="j" width="12" height="12"/><g transform="translate(1 1)"><rect class="g" width="2" height="2" rx="1"/><rect class="g" width="7" height="2" rx="1" transform="translate(3.5)"/><rect class="g" width="2" height="2" rx="1" transform="translate(0 4)"/><rect class="g" width="7" height="2" rx="1" transform="translate(3.5 4)"/><rect class="g" width="2" height="2" rx="1" transform="translate(0 8)"/><rect class="g" width="7" height="2" rx="1" transform="translate(3.5 8)"/></g></g><g transform="translate(5 -49)"><rect class="b" width="14" height="14" transform="translate(279 103)"/><g transform="translate(280 104)"><rect class="aj" width="12" height="12"/><rect class="p" width="2" height="12" rx="1" transform="translate(5)"/><rect class="p" width="2" height="12" rx="1" transform="translate(0 7) rotate(-90)"/></g></g><g transform="translate(-23 -69)"><rect class="b" width="34" height="34" transform="translate(436 69)"/><g transform="translate(439.001 72.003)"><path class="f" d="M17.468,20.2a8.3,8.3,0,0,1-5.909-2.448,2.2,2.2,0,0,1,3.11-3.11,3.959,3.959,0,0,0,5.6,0l3.487-3.487a3.96,3.96,0,1,0-5.6-5.6,2.2,2.2,0,0,1-3.11-3.111A8.359,8.359,0,1,1,26.865,14.267l-3.488,3.487A8.3,8.3,0,0,1,17.468,20.2" transform="translate(-1.313)"/><path class="f" d="M8.357,29.006A8.357,8.357,0,0,1,2.448,14.739l3.927-3.928a8.358,8.358,0,0,1,11.819,0,2.2,2.2,0,1,1-3.111,3.111,3.958,3.958,0,0,0-5.6,0L5.558,17.849a3.96,3.96,0,1,0,5.6,5.6,2.2,2.2,0,1,1,3.11,3.11,8.3,8.3,0,0,1-5.909,2.448" transform="translate(0 -1.006)"/></g></g><g transform="translate(-23 -69)"><rect class="b" width="34" height="34" transform="translate(472 69)"/><g transform="translate(473 69.503)"><path class="b" d="M0,0H32V32H0Z" transform="translate(0 0.497)"/><g transform="translate(0.815 3.096)"><g class="ak"><path class="p" d="M22.733,21.885H7.648A7.523,7.523,0,0,1,0,14.5V7.39A7.523,7.523,0,0,1,7.648,0H22.733A7.523,7.523,0,0,1,30.38,7.39v7.1a7.523,7.523,0,0,1-7.648,7.39"/></g><circle class="g" cx="2.1" cy="2.1" r="2.1" transform="translate(5.575 9.131)"/><circle class="g" cx="2.1" cy="2.1" r="2.1" transform="translate(13.091 9.131)"/><circle class="g" cx="2.1" cy="2.1" r="2.1" transform="translate(20.606 9.131)"/><g transform="translate(5.838 16.963)"><g class="al"><path class="p" d="M1.424,9.6a.838.838,0,0,1-1.41-.749L1.5.688A.837.837,0,0,1,2.475.014.868.868,0,0,1,2.718.1L7.167,2.461a.838.838,0,0,1,.347,1.133A.848.848,0,0,1,7.36,3.8Z"/></g></g></g></g></g><g transform="translate(-23 -69)"><rect class="b" width="34" height="34" transform="translate(508 69)"/><g transform="translate(509 70)"><path class="b" d="M0,0H32V32H0Z"/><path class="am" d="M16,0C7.163,0,0,5.662,0,12.647c0,4.516,2.995,8.478,7.5,10.715-.245.847-1.575,5.451-1.628,5.813,0,0-.032.272.144.375a.481.481,0,0,0,.382.023c.5-.07,5.837-3.827,6.761-4.479a20.222,20.222,0,0,0,2.842.2c8.837,0,16-5.662,16-12.647S24.837,0,16,0Z" transform="translate(0 1.197)"/><path class="an" d="M3.278,8.194a.906.906,0,0,1-.925-.883v-5.5H.909A.906.906,0,1,1,.909,0h4.74a.906.906,0,1,1,0,1.812H4.2v5.5a.906.906,0,0,1-.922.882Zm15.555-.012a.927.927,0,0,1-.926-.926V.926a.926.926,0,0,1,1.852,0V2.915L22.341.332a.723.723,0,0,1,.514-.206.936.936,0,0,1,.909.86.723.723,0,0,1-.2.564L21.451,3.658l2.277,3.017a.922.922,0,0,1,.179.686.926.926,0,0,1-.919.8.919.919,0,0,1-.74-.368l-2.17-2.876-.322.322v2.02a.928.928,0,0,1-.926.926Zm-7.439,0a.759.759,0,0,1-.77-.409l-.459-1.2H7.343l-.458,1.2a.759.759,0,0,1-.77.408,1.4,1.4,0,0,1-.588-.128c-.256-.118-.5-.442-.22-1.314L7.521.914A1.4,1.4,0,0,1,8.754,0,1.4,1.4,0,0,1,9.989.915L12.2,6.737c.282.876.037,1.2-.219,1.317a1.42,1.42,0,0,1-.586.128ZM8.754,2.308,7.831,4.934H9.679Zm7.906,5.75H13.691A.869.869,0,0,1,12.8,7.21V.926a.945.945,0,0,1,1.89,0V6.362h1.967a.85.85,0,0,1,0,1.7Z" transform="translate(3.518 10.14)"/></g></g><path class="b" d="M0,0H18V18H0Z" transform="translate(300 54)"/><g transform="translate(300 54)"><circle class="ao" cx="8" cy="8" r="8" transform="translate(1 1)"/><rect class="g" width="2" height="6" rx="1" transform="translate(8 5)"/><rect class="g" width="2" height="2" rx="1" transform="translate(8 12)"/></g></svg>