<svg id="Group_16516" data-name="Group 16516" xmlns="http://www.w3.org/2000/svg" width="32" height="32" viewBox="0 0 32 32">
    <defs>
        <clipPath id="clip-path">
            <path id="Rectangle_11574" data-name="Rectangle 11574" style="fill:none" d="M0 0h32v32H0z"/>
        </clipPath>
        <style>
            .cls-3{fill:#569aff}.cls-5{fill:#85b5ff}.cls-6{fill:#f8f8f8}
        </style>
    </defs>
    <g id="Group_16203" data-name="Group 16203" style="clip-path:url(#clip-path)">
        <path id="Path_21321" data-name="Path 21321" class="cls-3" d="M17.669 34.536a4.588 4.588 0 1 1-4.588 4.588 4.588 4.588 0 0 1 4.588-4.588" transform="translate(3.67 -27.899)"/>
        <path id="Path_21322" data-name="Path 21322" class="cls-3" d="M22.209 61.136H7.808a1.8 1.8 0 0 1-1.581-1.965c0-4.34 2.831-7.858 6.322-7.858a12.187 12.187 0 0 0 2.473.3 11.729 11.729 0 0 0 2.444-.3c2.4 0 6.322 4.162 6.322 7.858a1.8 1.8 0 0 1-1.581 1.965" transform="translate(6.331 -34.412)"/>
        <path id="Path_21325" data-name="Path 21325" d="M22 2a2 2 0 1 1-2-2 2 2 0 0 1 2 2" transform="translate(6.549 2.467)" style="fill:#e83667"/>
        <path id="Path_21327" data-name="Path 21327" class="cls-5" d="M26.6 65.033H8.242c-1.113 0-2.015-1.229-2.015-2.744 0-5.773 4.669-10.975 8.058-10.975a13.1 13.1 0 0 0 3.233.5 10.7 10.7 0 0 0 3.035-.5c2.97 0 8.055 5.267 8.055 10.723v.252c0 1.515-.9 2.744-2.015 2.744" transform="translate(-4.348 -35.5)"/>
        <path id="Path_21327_-_Outline" data-name="Path 21327 - Outline" class="cls-6" d="M26.6 66.033H8.242a2.79 2.79 0 0 1-2.231-1.212 4.3 4.3 0 0 1-.784-2.532 13.69 13.69 0 0 1 2.973-8.27c1.825-2.32 4.1-3.7 6.086-3.7a1 1 0 0 1 .287.042 12.155 12.155 0 0 0 2.946.457 9.76 9.76 0 0 0 2.714-.446 1.009 1.009 0 0 1 .321-.053c1.778 0 4.041 1.406 5.9 3.669a13.106 13.106 0 0 1 3.151 8.011v.3a4.3 4.3 0 0 1-.784 2.532 2.79 2.79 0 0 1-2.221 1.202zM14.158 52.317c-1.32.07-3.026 1.207-4.387 2.938a11.656 11.656 0 0 0-2.544 7.034c0 1 .536 1.744 1.015 1.744H26.6c.479 0 1.015-.746 1.015-1.744V61.989a11.094 11.094 0 0 0-2.695-6.734c-1.586-1.927-3.263-2.853-4.225-2.934a11.676 11.676 0 0 1-3.17.493 13.868 13.868 0 0 1-3.367-.497z" transform="translate(-4.348 -35.5)"/>
        <path id="Path_21328" data-name="Path 21328" class="cls-5" d="M19.651 34.536a6.57 6.57 0 1 1-6.57 6.57 6.57 6.57 0 0 1 6.57-6.57" transform="translate(-6.579 -31.206)"/>
        <path id="Path_21328_-_Outline" data-name="Path 21328 - Outline" class="cls-6" d="M19.65 48.675a7.57 7.57 0 1 1 7.569-7.57 7.578 7.578 0 0 1-7.569 7.57zm0-13.139a5.57 5.57 0 1 0 5.569 5.57 5.576 5.576 0 0 0-5.569-5.57z" transform="translate(-6.579 -31.206)"/>
    </g>
</svg>
