<svg xmlns="http://www.w3.org/2000/svg" width="40" height="40" viewBox="0 0 40 40">
    <defs>
        <style>
            .cls-3{fill:#63a1ff}
        </style>
    </defs>
    <g id="ic_x48_log-in" transform="translate(-732 -424)">
        <circle id="타원_125" data-name="타원 125" cx="20" cy="20" r="20" transform="translate(732 424)" style="fill:#fff"/>
        <g id="ic_x24_login" transform="translate(740 432)">
            <path id="패스_21308" data-name="패스 21308" class="cls-3" d="M22 5.821a2.585 2.585 0 0 0-.7-1.874A3.046 3.046 0 0 0 19.152 3H8.809a3.027 3.027 0 0 0-2.109.949A2.555 2.555 0 0 0 6 5.778v2.278a1 1 0 1 0 2 0V5.734a.6.6 0 0 1 .171-.43A1 1 0 0 1 8.847 5h10.269a1.017 1.017 0 0 1 .712.3.632.632 0 0 1 .17.475v12.49a.6.6 0 0 1-.171.431 1 1 0 0 1-.676.3H8.884a1.017 1.017 0 0 1-.712-.3.628.628 0 0 1-.172-.474v-2.259a1 1 0 0 0-2 0v2.216a2.582 2.582 0 0 0 .7 1.873A3.051 3.051 0 0 0 8.847 21H19.19a3.024 3.024 0 0 0 2.107-.947 2.557 2.557 0 0 0 .7-1.83z"/>
            <path id="패스_21309" data-name="패스 21309" class="cls-3" d="M11.256 14.305a.994.994 0 0 0 1.408 1.4l3.044-3.034a.992.992 0 0 0 0-1.4l-2.988-2.98a.995.995 0 0 0-1.409 1.4l1.344 1.34H3a.993.993 0 1 0 0 1.986h9.548z" transform="translate(1)"/>
        </g>
    </g>
</svg>
