<svg xmlns="http://www.w3.org/2000/svg" width="12" height="12" viewBox="0 0 12 12"><defs><style>.a{fill:#fff;stroke:#707070;opacity:0;}.b{fill:gray;}.c{stroke:none;}.d{fill:none;}</style></defs><g transform="translate(0 12) rotate(-90)"><g class="a"><rect class="c" width="12" height="12"/><rect class="d" x="0.5" y="0.5" width="11" height="11"/></g><path class="b" d="M1296.691,383.642a1,1,0,0,0-1-1h-3.471a1,1,0,0,0-1,1v3.47a1,1,0,0,0,2,0h0v-1.274a3.622,3.622,0,1,1-4.894-.47,1,1,0,0,0-1.214-1.59h0a5.633,5.633,0,1,0,7.721.864h.858A1,1,0,0,0,1296.691,383.642Z" transform="translate(394.642 -1284.897) rotate(90)"/></g></svg>