<svg xmlns="http://www.w3.org/2000/svg" xmlns:xlink="http://www.w3.org/1999/xlink" width="32" height="32" viewBox="0 0 32 32">
  <defs>
    <style>
      .cls-1 {
        fill: none;
      }

      .cls-2 {
        clip-path: url(#clip-path);
      }

      .cls-3 {
        opacity: 0;
      }

      .cls-4 {
        fill: #569aff;
      }

      .cls-5 {
        fill: #18225c;
      }

      .cls-6 {
        fill: #e83667;
      }

      .cls-7 {
        fill: #85b5ff;
      }

      .cls-8 {
        fill: #fff;
      }
    </style>
    <clipPath id="clip-path">
      <rect id="사각형_11427" data-name="사각형 11427" class="cls-1" width="32" height="32"/>
    </clipPath>
  </defs>
  <g id="그룹_15935" data-name="그룹 15935" class="cls-2">
    <g id="그룹_15934" data-name="그룹 15934">
      <g id="그룹_15933" data-name="그룹 15933" class="cls-2">
        <g id="그룹_15932" data-name="그룹 15932" class="cls-3">
          <g id="그룹_15931" data-name="그룹 15931">
            <g id="그룹_15930" data-name="그룹 15930" class="cls-2">
              <rect id="사각형_11424" data-name="사각형 11424" class="cls-4" width="32" height="32"/>
            </g>
          </g>
        </g>
        <path id="패스_17935" data-name="패스 17935" class="cls-4" d="M25,23H7a3,3,0,0,1-3-3V10A3,3,0,0,1,7,7H25a3,3,0,0,1,3,3V20a3,3,0,0,1-3,3"/>
        <path id="패스_17936" data-name="패스 17936" class="cls-5" d="M26,27H6a1,1,0,0,1,0-2H26a1,1,0,0,1,0,2"/>
        <path id="패스_17937" data-name="패스 17937" class="cls-6" d="M26,2a2,2,0,1,1-2,2,2,2,0,0,1,2-2"/>
        <path id="패스_17938" data-name="패스 17938" class="cls-7" d="M12,19h0a1,1,0,0,0,1-1V12a1,1,0,0,0-2,0v6a1,1,0,0,0,1,1"/>
        <path id="패스_17939" data-name="패스 17939" class="cls-7" d="M16,19h0a1,1,0,0,0,1-1V12a1,1,0,0,0-2,0v6a1,1,0,0,0,1,1"/>
        <path id="패스_17940" data-name="패스 17940" class="cls-8" d="M8,19H8a1,1,0,0,0,1-1V12a1,1,0,0,0-2,0v6a1,1,0,0,0,1,1"/>
      </g>
    </g>
  </g>
</svg>
