<svg xmlns="http://www.w3.org/2000/svg" width="200" height="32" viewBox="0 0 200 32"><defs><style>.a{fill:none;}.b{fill:#fff;}.b,.d{opacity:0;}.c,.d{fill:#ffb800;}</style></defs><rect class="a" width="200" height="32"/><g transform="translate(-77 -221)"><g transform="translate(62.265 -941.385)"><rect class="b" width="32" height="32" transform="translate(18.735 1162.385)"/><path class="c" d="M15.052,2.82a1,1,0,0,1,1.9,0l2.83,8.418a1,1,0,0,0,.921.681l8.585.231a1,1,0,0,1,.6,1.778l-6.9,5.558a1,1,0,0,0-.335,1.05l2.455,8.7a1,1,0,0,1-1.549,1.082l-6.972-5.045a1,1,0,0,0-1.172,0L8.442,30.314a1,1,0,0,1-1.549-1.082l2.455-8.7a1,1,0,0,0-.335-1.05l-6.9-5.558a1,1,0,0,1,.6-1.778l8.585-.231a1,1,0,0,0,.921-.681Z" transform="translate(18.735 1162.385)"/></g><g transform="translate(222.265 -941.385)"><rect class="d" width="32" height="32" transform="translate(18.735 1162.385)"/><path class="c" d="M15.052,2.82a1,1,0,0,1,1.9,0l2.83,8.418a1,1,0,0,0,.921.681l8.585.231a1,1,0,0,1,.6,1.778l-6.9,5.558a1,1,0,0,0-.335,1.05l2.455,8.7a1,1,0,0,1-1.549,1.082l-6.972-5.045a1,1,0,0,0-1.172,0L8.442,30.314a1,1,0,0,1-1.549-1.082l2.455-8.7a1,1,0,0,0-.335-1.05l-6.9-5.558a1,1,0,0,1,.6-1.778l8.585-.231a1,1,0,0,0,.921-.681Z" transform="translate(18.735 1162.385)"/></g><g transform="translate(102.265 -941.385)"><rect class="b" width="32" height="32" transform="translate(18.735 1162.385)"/><path class="c" d="M15.052,2.82a1,1,0,0,1,1.9,0l2.83,8.418a1,1,0,0,0,.921.681l8.585.231a1,1,0,0,1,.6,1.778l-6.9,5.558a1,1,0,0,0-.335,1.05l2.455,8.7a1,1,0,0,1-1.549,1.082l-6.972-5.045a1,1,0,0,0-1.172,0L8.442,30.314a1,1,0,0,1-1.549-1.082l2.455-8.7a1,1,0,0,0-.335-1.05l-6.9-5.558a1,1,0,0,1,.6-1.778l8.585-.231a1,1,0,0,0,.921-.681Z" transform="translate(18.735 1162.385)"/></g><g transform="translate(142.265 -941.385)"><rect class="b" width="32" height="32" transform="translate(18.735 1162.385)"/><path class="c" d="M15.052,2.82a1,1,0,0,1,1.9,0l2.83,8.418a1,1,0,0,0,.921.681l8.585.231a1,1,0,0,1,.6,1.778l-6.9,5.558a1,1,0,0,0-.335,1.05l2.455,8.7a1,1,0,0,1-1.549,1.082l-6.972-5.045a1,1,0,0,0-1.172,0L8.442,30.314a1,1,0,0,1-1.549-1.082l2.455-8.7a1,1,0,0,0-.335-1.05l-6.9-5.558a1,1,0,0,1,.6-1.778l8.585-.231a1,1,0,0,0,.921-.681Z" transform="translate(18.735 1162.385)"/></g><g transform="translate(182.265 -941.385)"><rect class="b" width="32" height="32" transform="translate(18.735 1162.385)"/><path class="c" d="M15.052,2.82a1,1,0,0,1,1.9,0l2.83,8.418a1,1,0,0,0,.921.681l8.585.231a1,1,0,0,1,.6,1.778l-6.9,5.558a1,1,0,0,0-.335,1.05l2.455,8.7a1,1,0,0,1-1.549,1.082l-6.972-5.045a1,1,0,0,0-1.172,0L8.442,30.314a1,1,0,0,1-1.549-1.082l2.455-8.7a1,1,0,0,0-.335-1.05l-6.9-5.558a1,1,0,0,1,.6-1.778l8.585-.231a1,1,0,0,0,.921-.681Z" transform="translate(18.735 1162.385)"/></g></g></svg>