<svg xmlns="http://www.w3.org/2000/svg" width="24" height="24" viewBox="0 0 24 24">
  <defs>
    <style>
      .cls-1 {
        fill: #fff;
        opacity: 0;
      }

      .cls-2 {
        fill: #ffb800;
      }
    </style>
  </defs>
  <g id="ic_x24_star_on" transform="translate(-18.735 -1162.385)">
    <rect id="container" class="cls-1" width="24" height="24" transform="translate(18.735 1162.385)"/>
    <path id="Star_1" data-name="Star 1" class="cls-2" d="M11.052,2.82a1,1,0,0,1,1.9,0l1.83,5.443a1,1,0,0,0,.921.681l5.585.15a1,1,0,0,1,.6,1.778l-4.515,3.638a1,1,0,0,0-.335,1.05l1.6,5.671a1,1,0,0,1-1.549,1.082l-4.5-3.256a1,1,0,0,0-1.172,0l-4.5,3.256a1,1,0,0,1-1.549-1.082l1.6-5.671a1,1,0,0,0-.335-1.05L2.116,10.872a1,1,0,0,1,.6-1.778L8.3,8.944a1,1,0,0,0,.921-.681Z" transform="translate(18.735 1162.385)"/>
  </g>
</svg>
