<svg xmlns="http://www.w3.org/2000/svg" width="13.126" height="80" viewBox="0 0 13.126 80">
  <defs>
    <style>
      .cls-1 {
        fill: #c5abf9;
      }
    </style>
  </defs>
  <g id="BI_jejupass" transform="translate(-19.024 99.991) rotate(-90)">
    <path id="Vector" class="cls-1" d="M0,0V7.482a5.211,5.211,0,0,0,.9,3.264,4.883,4.883,0,0,0,3.936,1.761,4.883,4.883,0,0,0,3.936-1.761,5.181,5.181,0,0,0,.9-3.264V0H7.333V7.683A2.7,2.7,0,0,1,6.755,9.5a2.59,2.59,0,0,1-3.828,0,2.677,2.677,0,0,1-.579-1.816V0Z" transform="translate(45.432 19.643)"/>
    <path id="Vector-2" data-name="Vector" class="cls-1" d="M3.8,0V7.887a4.077,4.077,0,0,1-.269,1.98,1.04,1.04,0,0,1-.928.421,1.389,1.389,0,0,1-1.173-.659L0,11.371a3.939,3.939,0,0,0,2.763,1.136,3.645,3.645,0,0,0,1.968-.551c1.334-.928,1.408-2.621,1.408-3.713V0Z" transform="translate(36.531 19.643)"/>
    <path id="Vector-3" data-name="Vector" class="cls-1" d="M6.68,0H0V12.231H6.68V10.177H2.345V6.841H6.5V4.787H2.345V2.055H6.68Z" transform="translate(28.779 19.638)"/>
    <path id="Vector-4" data-name="Vector" class="cls-1" d="M3.8,0V7.887a4.077,4.077,0,0,1-.269,1.98,1.04,1.04,0,0,1-.928.421,1.389,1.389,0,0,1-1.173-.659L0,11.371a3.939,3.939,0,0,0,2.763,1.136,3.645,3.645,0,0,0,1.968-.551c1.334-.928,1.408-2.621,1.408-3.713V0Z" transform="translate(19.991 19.643)"/>
    <path id="Vector-5" data-name="Vector" class="cls-1" d="M7.912,1.43A4.592,4.592,0,0,0,4.508,0,3.526,3.526,0,0,0,.647,3.6,2.862,2.862,0,0,0,1.6,5.87,5.712,5.712,0,0,0,3.608,6.932a5.411,5.411,0,0,1,1.857.9,1.429,1.429,0,0,1,.467,1.1A1.7,1.7,0,0,1,4.075,10.62,2.819,2.819,0,0,1,1.547,8.986L0,10.471a4.951,4.951,0,0,0,4.152,2.311A3.9,3.9,0,0,0,8.342,8.76,3.354,3.354,0,0,0,7.315,6.192,7.257,7.257,0,0,0,4.876,4.954a4.077,4.077,0,0,1-1.445-.7,1.043,1.043,0,0,1-.381-.826A1.452,1.452,0,0,1,4.712,2,2.339,2.339,0,0,1,6.68,3.048Z" transform="translate(87.97 19.361)"/>
    <path id="Vector-6" data-name="Vector" class="cls-1" d="M7.912,1.43A4.592,4.592,0,0,0,4.508,0,3.527,3.527,0,0,0,.644,3.6,2.862,2.862,0,0,0,1.6,5.87a5.727,5.727,0,0,0,2,1.061,5.383,5.383,0,0,1,1.857.9,1.433,1.433,0,0,1,.47,1.1A1.7,1.7,0,0,1,4.075,10.62,2.819,2.819,0,0,1,1.547,8.986L0,10.471a4.951,4.951,0,0,0,4.152,2.311A3.905,3.905,0,0,0,8.342,8.76a3.354,3.354,0,0,0-1.03-2.568A7.241,7.241,0,0,0,4.876,4.954a4.077,4.077,0,0,1-1.445-.7,1.033,1.033,0,0,1-.381-.826A1.452,1.452,0,0,1,4.713,2,2.339,2.339,0,0,1,6.68,3.048Z" transform="translate(78.3 19.361)"/>
    <path id="Vector-7" data-name="Vector" class="cls-1" d="M6.68.928A4.269,4.269,0,0,0,3.5,0H0V12.231H2.345V7.7H3.865a4.1,4.1,0,0,0,3.051-1.08A3.926,3.926,0,0,0,7.909,3.88,3.933,3.933,0,0,0,6.68.928ZM4.839,5.26a2.386,2.386,0,0,1-1.547.384H2.333v-3.6h.814a2.806,2.806,0,0,1,1.662.384,1.693,1.693,0,0,1,.668,1.4A1.838,1.838,0,0,1,4.839,5.26Z" transform="translate(58.102 19.643)"/>
    <path id="Vector-8" data-name="Vector" class="cls-1" d="M7.024,0H5.183L0,12.231H2.547L6.068,3.32l3.466,8.911h2.528Z" transform="translate(65.519 19.638)"/>
    <path id="Vector-9" data-name="Vector" class="cls-1" d="M2.512,1.238A1.256,1.256,0,1,1,1.256,0,1.238,1.238,0,0,1,2.512,1.238Z" transform="translate(97.479 19.024)"/>
  </g>
</svg>
