<svg xmlns="http://www.w3.org/2000/svg" width="24" height="24" viewBox="0 0 24 24">
    <path data-name="사각형 2923" d="M1 0h14a1 1 0 0 1 1 1v11a4 4 0 0 1-4 4H4a4 4 0 0 1-4-4V1a1 1 0 0 1 1-1z" transform="translate(3 3)" style="fill:#92621b"/>
    <g data-name="사각형 2924" style="stroke:#92621b;stroke-width:2px;fill:none">
        <path d="M0 0h5a2 2 0 0 1 2 2v4a4 4 0 0 1-4 4H0V0z" style="stroke:none" transform="translate(16 5)"/>
        <path d="M2 1h3a1 1 0 0 1 1 1v4a3 3 0 0 1-3 3H2a1 1 0 0 1-1-1V2a1 1 0 0 1 1-1z" style="fill:none" transform="translate(16 5)"/>
    </g>
    <rect data-name="사각형 2925" width="16" height="2" rx="1" transform="translate(3 19)" style="fill:#643f09"/>
</svg>
