<svg xmlns="http://www.w3.org/2000/svg" width="24" height="24" viewBox="0 0 24 24">
    <defs>
        <clipPath id="clip-path">
            <path id="사각형_11809" data-name="사각형 11809" style="fill:none" d="M0 0h24v24H0z"/>
        </clipPath>
        <style>
            .cls-2{clip-path:url(#clip-path)}.cls-4{fill:#569aff}
        </style>
    </defs>
    <g id="ic_unlimit_x24" class="cls-2">
        <g id="그룹_16522" data-name="그룹 16522">
            <g id="그룹_16521" data-name="그룹 16521" class="cls-2">
                <path id="패스_21265" data-name="패스 21265" d="M22 21H2a1 1 0 0 1 0-2h20a1 1 0 0 1 0 2" style="fill:#18225c"/>
                <path id="패스_21266" data-name="패스 21266" class="cls-4" d="M20 10a2 2 0 0 1 1.368-1.9.988.988 0 0 0 .632-.951V6a3 3 0 0 0-3-3H5a3 3 0 0 0-3 3v1.149a.988.988 0 0 0 .632.953 2 2 0 0 1 0 3.8.988.988 0 0 0-.632.949V14a3 3 0 0 0 3 3h14a3 3 0 0 0 3-3v-1.149a.988.988 0 0 0-.632-.953A2 2 0 0 1 20 10"/>
                <path id="패스_21267" data-name="패스 21267" d="M12.232 13.25a3.25 3.25 0 1 1 2.418-5.4.9.9 0 0 1-.079 1.258.881.881 0 0 1-1.249-.079 1.451 1.451 0 0 0-2.058-.129 1.475 1.475 0 0 0-.131 2.072 1.452 1.452 0 0 0 2.269-.1.882.882 0 0 1 1.238-.188.9.9 0 0 1 .187 1.247 3.237 3.237 0 0 1-2.6 1.321" style="fill:#fff"/>
            </g>
        </g>
    </g>
</svg>
