<svg xmlns="http://www.w3.org/2000/svg" width="18" height="18" viewBox="0 0 18 18">
  <defs>
    <style>
      .cls-1 {
        fill: #fff;
        opacity: 0;
      }

      .cls-2 {
        fill: #ffb800;
      }
    </style>
  </defs>
  <g id="ic_x18_star" transform="translate(-19 -1162)">
    <rect id="container" class="cls-1" width="18" height="18" transform="translate(19 1162)"/>
    <path id="Star_1" data-name="Star 1" class="cls-2" d="M7.052,2.82a1,1,0,0,1,1.9,0l.83,2.468a1,1,0,0,0,.921.681l2.585.069a1,1,0,0,1,.6,1.778L11.751,9.536a1,1,0,0,0-.335,1.05l.747,2.646a1,1,0,0,1-1.549,1.082L8.586,12.846a1,1,0,0,0-1.172,0L5.386,14.314a1,1,0,0,1-1.549-1.082l.747-2.646a1,1,0,0,0-.335-1.05L2.116,7.817a1,1,0,0,1,.6-1.778L5.3,5.969a1,1,0,0,0,.921-.681Z" transform="translate(20 1163)"/>
  </g>
</svg>
