<svg xmlns="http://www.w3.org/2000/svg" width="32" height="32" viewBox="0 0 32 32">
    <defs>
        <clipPath id="a">
            <path data-name="사각형 11271" style="fill:none" d="M0 0h23.176v26.667H0z"/>
        </clipPath>
    </defs>
    <g data-name="그룹 15643">
        <g data-name="그룹 15642" style="clip-path:url(#a)" transform="translate(6 2.667)">
            <path data-name="패스 17654" d="M16.382 0a2 2 0 1 1-2 2 2 2 0 0 1 2-2" transform="translate(4.794)" style="fill:#e83667"/>
            <path data-name="패스 17655" d="M15.549 2.667H2.215a1.333 1.333 0 0 1 0-2.667h13.334a1.333 1.333 0 0 1 0 2.667" transform="translate(.294)" style="fill:#18225c"/>
            <path data-name="패스 17656" d="M17.428 4.009A1.334 1.334 0 0 0 16.135 3H2.216A1.334 1.334 0 0 0 .923 4.009l-.658 2.63a8.924 8.924 0 0 0-.176 3.424l2.256 14.458a1.333 1.333 0 0 0 1.32 1.145h11.02a1.333 1.333 0 0 0 1.32-1.145l2.256-14.459a8.9 8.9 0 0 0-.176-3.424z" transform="translate(0 1)" style="fill:#569aff"/>
            <path data-name="패스 17657" d="M2.382 7.333A1.334 1.334 0 0 1 3.715 6h9.333a1.333 1.333 0 1 1 0 2.667H3.715a1.334 1.334 0 0 1-1.333-1.334" transform="translate(.794 2)" style="fill:#fff"/>
        </g>
    </g>
</svg>
