<svg xmlns="http://www.w3.org/2000/svg" width="18" height="18">
    <path data-name="사각형 17" style="fill:none" d="M0 0h18v18H0z"/>
    <path data-name="패스 32" d="M9.5 1 3 3.909v4.364A9.042 9.042 0 0 0 9.5 17 9.042 9.042 0 0 0 16 8.273V3.909z" style="fill:#f6b92a"/>
    <path data-name="다각형 1" d="M2.568.739a.5.5 0 0 1 .863 0l.513.877a.5.5 0 0 0 .309.232l.989.251a.5.5 0 0 1 .266.8l-.684.844a.5.5 0 0 0-.11.352l.08 1.08a.5.5 0 0 1-.7.5l-.9-.389a.5.5 0 0 0-.4 0l-.9.389a.5.5 0 0 1-.7-.5l.08-1.08a.5.5 0 0 0-.11-.352L.492 2.9a.5.5 0 0 1 .266-.8l.989-.251a.5.5 0 0 0 .309-.232z" transform="translate(6.5 6)" style="fill:#fff"/>
</svg>
