<svg xmlns="http://www.w3.org/2000/svg" width="18" height="18">
    <g transform="translate(-240 -542)">
        <circle data-name="Ellipse 113" cx="8" cy="8" r="8" transform="translate(241 543)" style="fill:#cacaca"/>
        <path data-name="합치기 42" d="M-2601-72a1 1 0 0 1 1-1 1 1 0 0 1 1 1 1 1 0 0 1-1 1 1 1 0 0 1-1-1zm.25-2.682a2.507 2.507 0 0 1 1.35-2.191 1.281 1.281 0 0 0 .615-1.42 1.243 1.243 0 0 0-.912-.923 1.244 1.244 0 0 0-.964.157 1.276 1.276 0 0 0-.559.8.748.748 0 0 1-.894.572.749.749 0 0 1-.572-.893 2.777 2.777 0 0 1 1.222-1.744 2.746 2.746 0 0 1 2.1-.351 2.737 2.737 0 0 1 2.039 2.052 2.771 2.771 0 0 1-1.35 3.063 1.033 1.033 0 0 0-.578.88.751.751 0 0 1-.751.75.75.75 0 0 1-.746-.752z" transform="translate(2848.976 626.75)" style="stroke:transparent;stroke-miterlimit:10;fill:#fff"/>
    </g>
</svg>
