<svg xmlns="http://www.w3.org/2000/svg" width="18" height="18" viewBox="0 0 18 18">
  <defs>
    <style>
      .cls-1 {
        fill: red;
        opacity: 0;
      }

      .cls-2 {
        fill: #f28da9;
      }

      .cls-3 {
        fill: #c90b40;
      }
    </style>
  </defs>
  <g id="ic_x18_map_trip" transform="translate(-150 -2895)">
    <rect id="사각형_11899" data-name="사각형 11899" class="cls-1" width="18" height="18" transform="translate(150 2895)"/>
    <g id="그룹_16546" data-name="그룹 16546">
      <path id="Rectangle_11904" data-name="Rectangle 11904" class="cls-2" d="M2,1A1,1,0,0,0,1,2V4A1,1,0,0,0,3,4V2A1,1,0,0,0,2,1M2,0A2,2,0,0,1,4,2V4A2,2,0,0,1,0,4V2A2,2,0,0,1,2,0Z" transform="translate(157 2896)"/>
      <rect id="사각형_11903" data-name="사각형 11903" class="cls-3" width="4" height="6" rx="1" transform="translate(163 2905.5)"/>
      <rect id="사각형_11902" data-name="사각형 11902" class="cls-3" width="4" height="6" rx="1" transform="translate(151 2905.5)"/>
      <path id="사각형_11901" data-name="사각형 11901" class="cls-2" d="M4,0H8a4,4,0,0,1,4,4v9a1,1,0,0,1-1,1H1a1,1,0,0,1-1-1V4A4,4,0,0,1,4,0Z" transform="translate(153 2898)"/>
      <g id="그룹_16545" data-name="그룹 16545">
        <path id="사각형_11907" data-name="사각형 11907" class="cls-3" d="M4,0H8a4,4,0,0,1,4,4V5a1,1,0,0,1-1,1H1A1,1,0,0,1,0,5V4A4,4,0,0,1,4,0Z" transform="translate(153 2898)"/>
        <path id="패스_21359" data-name="패스 21359" class="cls-3" d="M6,0a6,6,0,0,1,6,6L7.637,8.015a3.783,3.783,0,0,1-1.467.273,4.644,4.644,0,0,1-1.562-.273L0,6A6,6,0,0,1,6,0Z" transform="translate(153 2898)"/>
      </g>
      <rect id="사각형_11905" data-name="사각형 11905" class="cls-3" width="6" height="1" rx="0.5" transform="translate(156 2908)"/>
      <rect id="사각형_11906" data-name="사각형 11906" class="cls-3" width="1" height="1.5" rx="0.5" transform="translate(157 2908)"/>
      <circle id="타원_1756" data-name="타원 1756" class="cls-2" cx="0.75" cy="0.75" r="0.75" transform="translate(158.5 2904)"/>
    </g>
  </g>
</svg>
