<svg xmlns="http://www.w3.org/2000/svg" width="18" height="18" viewBox="0 0 18 18">
  <defs>
    <style>
      .cls-1 {
        fill: red;
        opacity: 0;
      }

      .cls-2 {
        fill: #cacaca;
      }

      .cls-3 {
        fill: #aeaeae;
      }
    </style>
  </defs>
  <g id="ic_x18_map_resturant_off" transform="translate(-95 -2893)">
    <rect id="사각형_11894" data-name="사각형 11894" class="cls-1" width="18" height="18" transform="translate(95 2893)"/>
    <g id="그룹_16539" data-name="그룹 16539" transform="translate(-104 6)">
      <path id="Path_21355" data-name="Path 21355" class="cls-2" d="M681.175,2916.661a2.852,2.852,0,0,1-2.539-1.172,2.49,2.49,0,0,1-.428-1.235v-3.947a.75.75,0,0,1,1.5,0v3.891a1.071,1.071,0,0,0,.2.491,1.5,1.5,0,0,0,1.268.472,1.463,1.463,0,0,0,1.3-.512,1.1,1.1,0,0,0,.171-.444v-3.9a.75.75,0,0,1,1.5,0v3.947a2.49,2.49,0,0,1-.428,1.235A2.852,2.852,0,0,1,681.175,2916.661Z" transform="translate(-468.948 -22.394)"/>
      <path id="Path_21356" data-name="Path 21356" class="cls-2" d="M690.343,2918.845a.75.75,0,0,1-.75-.75v-7.929a.75.75,0,0,1,1.5,0v7.929A.75.75,0,0,1,690.343,2918.845Z" transform="translate(-478.116 -22.252)"/>
      <path id="패스_21354" data-name="패스 21354" class="cls-3" d="M.3,0H1.613c.363,0,.657.433.657.966l.657,5.8A1.944,1.944,0,0,1,2.27,8.7a1.931,1.931,0,0,1-1.286.46A2.178,2.178,0,0,1-.358,8.7a1.993,1.993,0,0,1-.657-1.933l.657-5.8C-.358.433-.063,0,.3,0Z" transform="translate(211.269 2895.843)"/>
      <path id="Path_21357" data-name="Path 21357" class="cls-2" d="M690.343,2918.845a.75.75,0,0,1-.75-.75v-7.929a.75.75,0,0,1,1.5,0v7.929A.75.75,0,0,1,690.343,2918.845Z" transform="translate(-486.554 -22.252)"/>
      <path id="패스_21358" data-name="패스 21358" class="cls-3" d="M.3,0H1.613c.363,0,.657.433.657.966l.657,5.8A1.944,1.944,0,0,1,2.27,8.7a1.931,1.931,0,0,1-1.286.46A2.178,2.178,0,0,1-.358,8.7a1.993,1.993,0,0,1-.657-1.933l.657-5.8C-.358.433-.063,0,.3,0Z" transform="translate(202.831 2895.843)"/>
      <ellipse id="타원_1755" data-name="타원 1755" class="cls-2" cx="2.789" cy="3.719" rx="2.789" ry="3.719" transform="translate(201 2887)"/>
    </g>
  </g>
</svg>
