<svg xmlns="http://www.w3.org/2000/svg" width="18" height="18" viewBox="0 0 18 18">
  <defs>
    <style>
      .cls-1 {
        fill: red;
        opacity: 0;
      }

      .cls-2 {
        fill: #00cdd2;
      }

      .cls-3 {
        fill: #009fa2;
      }
    </style>
  </defs>
  <g id="ic_x18_map_cafe" transform="translate(-126 -2895)">
    <rect id="사각형_11895" data-name="사각형 11895" class="cls-1" width="18" height="18" transform="translate(126 2895)"/>
    <g id="그룹_16541" data-name="그룹 16541" transform="translate(0 -1)">
      <path id="Ellipse_1756" data-name="Ellipse 1756" class="cls-2" d="M3,1.5A1.5,1.5,0,1,0,4.5,3,1.5,1.5,0,0,0,3,1.5M3,0A3,3,0,1,1,0,3,3,3,0,0,1,3,0Z" transform="translate(137 2902.5)"/>
      <path id="합치기_44" data-name="합치기 44" class="cls-2" d="M-567.125-2893.125a4,4,0,0,1-4-4v-6a1,1,0,0,1,1-1h10a1,1,0,0,1,1,1v6a4,4,0,0,1-4,4Z" transform="translate(699.125 5805.125)"/>
      <g id="그룹_16542" data-name="그룹 16542" transform="translate(-0.5)">
        <path id="Path_21361" data-name="Path 21361" class="cls-3" d="M579,2875.347a.75.75,0,0,1-.75-.75v-1a.75.75,0,0,1,1.5,0v1A.75.75,0,0,1,579,2875.347Z" transform="translate(-448 24.403)"/>
        <path id="Path_21359" data-name="Path 21359" class="cls-3" d="M579,2876.346a.75.75,0,0,1-.75-.75v-2a.75.75,0,0,1,1.5,0v2A.75.75,0,0,1,579,2876.346Z" transform="translate(-445 23.403)"/>
        <path id="Path_21360" data-name="Path 21360" class="cls-3" d="M579,2875.347a.75.75,0,0,1-.75-.75v-1a.75.75,0,0,1,1.5,0v1A.75.75,0,0,1,579,2875.347Z" transform="translate(-442 24.403)"/>
      </g>
      <path id="사각형_11898" data-name="사각형 11898" class="cls-3" d="M.5,0h12a.5.5,0,0,1,.5.5v0A1.5,1.5,0,0,1,11.5,2H1.5A1.5,1.5,0,0,1,0,.5v0A.5.5,0,0,1,.5,0Z" transform="translate(127.5 2911.5)"/>
    </g>
  </g>
</svg>
