<svg xmlns="http://www.w3.org/2000/svg" width="18" height="18" viewBox="0 0 18 18">
    <g style="fill:none">
        <path d="M6 11c-.387-.349-.824-.713-1.287-1.1h-.006C3.078 8.54 1.232 7.005.416 5.167A4.6 4.6 0 0 1 0 3.3 3.322 3.322 0 0 1 .968.943 3.2 3.2 0 0 1 3.3 0a3.648 3.648 0 0 1 2 .6 3.378 3.378 0 0 1 .7.621A3.487 3.487 0 0 1 6.7.6a3.644 3.644 0 0 1 2-.6 3.2 3.2 0 0 1 2.332.942A3.322 3.322 0 0 1 12 3.3a4.6 4.6 0 0 1-.416 1.871c-.816 1.837-2.661 3.371-4.29 4.729h-.006c-.463.384-.9.748-1.287 1.1z" style="stroke:none" transform="translate(3 4)"/>
        <path d="m6.002 9.018.328-.272.01-.009c1.501-1.247 3.2-2.66 3.872-4.175l.008-.016a3.08 3.08 0 0 0 .28-1.255c0-.482-.193-.951-.529-1.287a1.696 1.696 0 0 0-1.24-.504h-.029c-.415.001-.82.123-1.17.352-.147.098-.28.217-.397.351l-1.14 1.319L4.86 2.198a1.871 1.871 0 0 0-.387-.343 2.144 2.144 0 0 0-1.176-.354h-.03c-.464-.01-.906.17-1.24.503A1.831 1.831 0 0 0 1.5 3.29c.005.436.1.857.28 1.252l.008.016c.611 1.378 2.074 2.674 3.462 3.837h.007l.517.431.228.191M6.001 11 6 10.995c-.387-.35-.824-.713-1.287-1.1h-.006C3.078 8.54 1.232 7.006.417 5.168A4.602 4.602 0 0 1 0 3.299 3.322 3.322 0 0 1 .968.943 3.204 3.204 0 0 1 3.3.001c.708 0 1.401.21 1.997.6.261.173.498.382.703.621.206-.238.443-.447.704-.62C7.299.21 7.992.001 8.7 0c.87-.018 1.71.321 2.332.942.62.62.97 1.47.968 2.356a4.602 4.602 0 0 1-.416 1.87c-.816 1.84-2.661 3.373-4.29 4.727l-.006.005c-.464.384-.9.747-1.287 1.099z" style="fill:#fff;stroke:none" transform="translate(3 4)"/>
    </g>
</svg>
