<svg xmlns="http://www.w3.org/2000/svg" width="18" height="18" viewBox="0 0 18 18"><defs><style>.a{fill:none;}.b{fill:#aeaeae;}.c,.d{fill:#fff;}.c{opacity:0;}</style></defs><g transform="translate(-33 -26)"><rect class="a" width="18" height="18" transform="translate(33 26)"/><g transform="translate(34 27)"><circle class="b" cx="8" cy="8" r="8"/><rect class="c" width="8" height="8" transform="translate(4 4)"/><path class="d" d="M1,2a.917.917,0,0,1,1,.8V9.2A.917.917,0,0,1,1,10a.917.917,0,0,1-1-.8V2.8A.917.917,0,0,1,1,2Z" transform="translate(7 2)"/><path class="d" d="M1,0A.917.917,0,0,1,2,.8V7.2A.917.917,0,0,1,1,8a.917.917,0,0,1-1-.8V.8A.917.917,0,0,1,1,0Z" transform="translate(4 9) rotate(-90)"/></g></g></svg>