<svg xmlns="http://www.w3.org/2000/svg" width="50" height="50" viewBox="0 0 50 50">
    <defs>
        <clipPath id="clip-path">
            <path id="사각형_11745" data-name="사각형 11745" transform="translate(168 422)" style="fill:red;opacity:.1" d="M0 0h50v50H0z"/>
        </clipPath>
        <style>
            .cls-4{fill:#aeaeae}.cls-5{fill:#fff}
        </style>
    </defs>
    <g id="ic_x50_participate" transform="translate(-168 -422)" style="clip-path:url(#clip-path)">
        <g id="그룹_16584" data-name="그룹 16584" transform="translate(-75)">
            <path id="패스_21398" data-name="패스 21398" d="M9 2h34a3 3 0 0 1 3 3v28L33 46H9a3 3 0 0 1-3-3V5a3 3 0 0 1 3-3z" transform="translate(242 424)" style="fill:#cacaca"/>
            <path id="패스_21399" data-name="패스 21399" class="cls-4" d="M33 46V36a3 3 0 0 1 3-3h10z" transform="translate(242 424)"/>
            <rect id="사각형_11979" data-name="사각형 11979" class="cls-5" width="21" height="4" rx="2" transform="translate(261 438)"/>
            <rect id="사각형_11980" data-name="사각형 11980" class="cls-5" width="14" height="4" rx="2" transform="translate(261 448)"/>
            <rect id="사각형_11982" data-name="사각형 11982" class="cls-5" width="4" height="4" rx="1" transform="translate(255 438)"/>
            <rect id="사각형_11983" data-name="사각형 11983" class="cls-5" width="4" height="4" rx="1" transform="translate(255 448)"/>
            <rect id="사각형_11985" data-name="사각형 11985" class="cls-4" width="29" height="8" rx="2" transform="translate(254 424)"/>
        </g>
    </g>
</svg>
