<svg id="ic_x18_coffee" xmlns="http://www.w3.org/2000/svg" width="18" height="18" viewBox="0 0 18 18">
  <defs>
    <style>
      .cls-1 {
        fill: #a82323;
        opacity: 0;
      }

      .cls-2 {
        fill: #92621b;
      }

      .cls-3, .cls-6 {
        fill: none;
      }

      .cls-3 {
        stroke: #92621b;
        stroke-width: 2px;
      }

      .cls-4 {
        fill: #643f09;
      }

      .cls-5 {
        stroke: none;
      }
    </style>
  </defs>
  <rect id="container" class="cls-1" width="18" height="18"/>
  <path id="사각형_2923" data-name="사각형 2923" class="cls-2" d="M1,0H11a1,1,0,0,1,1,1V8a4,4,0,0,1-4,4H4A4,4,0,0,1,0,8V1A1,1,0,0,1,1,0Z" transform="translate(2 2)"/>
  <g id="사각형_2924" data-name="사각형 2924" class="cls-3" transform="translate(12 4)">
    <path class="cls-5" d="M0,0H3A2,2,0,0,1,5,2V3A4,4,0,0,1,1,7H0A0,0,0,0,1,0,7V0A0,0,0,0,1,0,0Z"/>
    <path class="cls-6" d="M1.75,1h1.5A.75.75,0,0,1,4,1.75v2A2.25,2.25,0,0,1,1.75,6h0A.75.75,0,0,1,1,5.25V1.75A.75.75,0,0,1,1.75,1Z"/>
  </g>
  <rect id="사각형_2925" data-name="사각형 2925" class="cls-4" width="12" height="2" rx="1" transform="translate(2 14)"/>
</svg>
