<svg id="ic_x12_bed" xmlns="http://www.w3.org/2000/svg" width="12" height="12" viewBox="0 0 12 12">
    <defs>
        <style>
            .cls-2{fill:none;stroke:#aeaeae;stroke-linecap:round;stroke-linejoin:round;stroke-width:1.5px}
        </style>
    </defs>
    <path id="Vector" d="M0 0h12v12H0z" style="fill:none"/>
    <g id="bed">
        <path id="Vector-2" data-name="Vector" class="cls-2" d="M0 .75A.75.75 0 0 1 .75 0h6.5A.75.75 0 0 1 8 .75V3.5H0z" transform="translate(2 2.25)"/>
        <path id="Vector-3" data-name="Vector" class="cls-2" d="M0 0v1" transform="translate(1.5 9)"/>
        <path id="Vector-4" data-name="Vector" class="cls-2" d="M0 0v1" transform="translate(10.5 9)"/>
        <path id="Vector-5" data-name="Vector" class="cls-2" d="M2.666.546V.328c0-.181-.224-.328-.5-.328H.5C.224 0 0 .147 0 .328v.218" transform="translate(4.667 4.995)"/>
        <path id="Vector-6" data-name="Vector" class="cls-2" d="M0 .75A.764.764 0 0 1 .778 0h8.814a.764.764 0 0 1 .778.75V3H0z" transform="translate(.822 5.75)"/>
    </g>
</svg>
