<svg xmlns="http://www.w3.org/2000/svg" xmlns:xlink="http://www.w3.org/1999/xlink" width="16" height="8" viewBox="0 0 16 8"><defs><style>.a{fill:#fff;}.b{clip-path:url(#a);}.c{fill:#f8f8f8;}.d,.e{stroke:none;}.e{fill:#eaeaea;}</style><clipPath id="a"><rect class="a" width="16" height="8" transform="translate(4050 778)"/></clipPath></defs><rect class="a" width="16" height="8"/><g class="b" transform="translate(-4050 -778)"><g class="c" transform="translate(5553 1274)"><path class="d" d="M -1500.293334960938 -439.4993896484375 L -1778.00048828125 -439.5001831054688 C -1782.135498046875 -439.5001831054688 -1785.499633789062 -442.86474609375 -1785.499633789062 -447.0002746582031 L -1785.499633789062 -486.9999084472656 C -1785.499633789062 -491.1354370117188 -1782.135498046875 -494.5 -1778.00048828125 -494.5 L -1500.293090820312 -494.5 C -1499.630493164062 -492.159423828125 -1497.467041015625 -490.5004577636719 -1494.999877929688 -490.5004577636719 C -1492.533081054688 -490.5004577636719 -1490.369995117188 -492.1593933105469 -1489.707641601562 -494.5 L -1458.999877929688 -494.5 C -1454.864379882812 -494.5 -1451.499877929688 -491.1354370117188 -1451.499877929688 -486.9999084472656 L -1451.499877929688 -447.0002746582031 C -1451.499877929688 -442.86474609375 -1454.864379882812 -439.5001831054688 -1458.999877929688 -439.5001831054688 L -1489.707641601562 -439.5001831054688 C -1490.369995117188 -441.8407897949219 -1492.533203125 -443.4998168945312 -1494.999877929688 -443.4998168945312 C -1497.467407226562 -443.4998168945312 -1499.631103515625 -441.8404846191406 -1500.293334960938 -439.4993896484375 Z"/><path class="e" d="M -1500.65869140625 -439.9994201660156 C -1499.823608398438 -442.3598327636719 -1497.561889648438 -443.9998168945312 -1494.999877929688 -443.9998168945312 C -1492.438720703125 -443.9998168945312 -1490.177490234375 -442.3601379394531 -1489.34228515625 -440.0001831054688 L -1458.999877929688 -440.0001831054688 C -1455.140014648438 -440.0001831054688 -1451.999877929688 -443.1404113769531 -1451.999877929688 -447.0002746582031 L -1451.999877929688 -486.9999084472656 C -1451.999877929688 -490.8597717285156 -1455.140014648438 -494 -1458.999877929688 -494 L -1489.34228515625 -494 C -1490.177368164062 -491.6401062011719 -1492.438598632812 -490.0004577636719 -1494.999877929688 -490.0004577636719 C -1497.561401367188 -490.0004577636719 -1499.822998046875 -491.64013671875 -1500.658447265625 -494 L -1778.00048828125 -494 C -1781.859741210938 -494 -1784.999633789062 -490.8597717285156 -1784.999633789062 -486.9999084472656 L -1784.999633789062 -447.0002746582031 C -1784.999633789062 -443.1404113769531 -1781.859741210938 -440.0001831054688 -1778.00048828125 -440.0001831054688 L -1500.65869140625 -439.9994201660156 M -1499.900390625 -438.9993896484375 L -1778.00048828125 -439.0001831054688 C -1782.411254882812 -439.0001831054688 -1785.999633789062 -442.5890197753906 -1785.999633789062 -447.0002746582031 L -1785.999633789062 -486.9999084472656 C -1785.999633789062 -491.4111633300781 -1782.411254882812 -495 -1778.00048828125 -495 L -1499.900268554688 -495 C -1499.429565429688 -492.6821594238281 -1497.369140625 -491.0004577636719 -1494.999877929688 -491.0004577636719 C -1492.631469726562 -491.0004577636719 -1490.570922851562 -492.6824951171875 -1490.100463867188 -495 L -1458.999877929688 -495 C -1454.588623046875 -495 -1450.999877929688 -491.4111633300781 -1450.999877929688 -486.9999084472656 L -1450.999877929688 -447.0002746582031 C -1450.999877929688 -442.5890197753906 -1454.588623046875 -439.0001831054688 -1458.999877929688 -439.0001831054688 L -1490.100463867188 -439.0001831054688 C -1490.571044921875 -441.3180847167969 -1492.631103515625 -442.9998168945312 -1494.999877929688 -442.9998168945312 C -1497.368774414062 -442.9998168945312 -1499.4296875 -441.3177490234375 -1499.900268554688 -439.0001831054688 L -1499.900390625 -438.9993896484375 Z"/></g></g></svg>