<svg xmlns="http://www.w3.org/2000/svg" width="200" height="32" viewBox="0 0 200 32"><defs><style>.a{fill:none;}.b,.c{fill:#fff;}.b{opacity:0;}.d,.e{stroke:none;}.e{fill:#eaeaea;}</style></defs><rect class="a" width="200" height="32"/><g transform="translate(-14.735 -1162.385)"><rect class="b" width="32" height="32" transform="translate(18.735 1162.385)"/><g class="c" transform="translate(18.735 1162.385)"><path class="d" d="M 24.1409797668457 30.00780487060547 C 24.0396900177002 30.00781440734863 23.94228935241699 29.97451400756836 23.85149002075195 29.90881538391113 L 16.87933921813965 24.86371421813965 C 16.62187957763672 24.67740440368652 16.31780052185059 24.57893562316895 16 24.57893562316895 C 15.68220043182373 24.57893562316895 15.37812042236328 24.67740440368652 15.12065982818604 24.86371421813965 L 8.148509979248047 29.90881538391113 C 8.057720184326172 29.9745044708252 7.960309982299805 30.00780487060547 7.858970165252686 30.00780487060547 C 7.703909873962402 30.00780487060547 7.547039985656738 29.92780494689941 7.44959020614624 29.79902458190918 C 7.384099960327148 29.71248435974121 7.317860126495361 29.56743431091309 7.374209880828857 29.36787414550781 L 9.829520225524902 20.67202568054199 C 9.993109703063965 20.09262466430664 9.795909881591797 19.47416496276855 9.327110290527344 19.09641456604004 L 2.430010080337524 13.53885459899902 C 2.177989959716797 13.33577537536621 2.243829965591431 13.06705474853516 2.270009994506836 12.98953533172607 C 2.296190023422241 12.9120044708252 2.406759977340698 12.6583948135376 2.730289936065674 12.64969539642334 L 11.31503009796143 12.41890525817871 C 11.94163036346436 12.40206527709961 12.4968204498291 11.99154472351074 12.69653987884521 11.39735507965088 L 15.52604961395264 2.979334831237793 C 15.63230991363525 2.663214921951294 15.91567993164062 2.638644933700562 16 2.638644933700562 C 16.08432006835938 2.638644933700562 16.36768913269043 2.663214921951294 16.47394943237305 2.979344844818115 L 19.30345916748047 11.39735507965088 C 19.50317001342773 11.9915246963501 20.05835914611816 12.40205478668213 20.68497085571289 12.41890525817871 L 29.26971054077148 12.64969539642334 C 29.59324073791504 12.6583948135376 29.70380973815918 12.91201496124268 29.72999000549316 12.98953533172607 C 29.75617027282715 13.06705474853516 29.8220100402832 13.33578491210938 29.56999969482422 13.53885459899902 L 22.67288970947266 19.0964241027832 C 22.2040901184082 19.47416496276855 22.00688934326172 20.09262466430664 22.17048072814941 20.67202568054199 L 24.62579917907715 29.36787414550781 C 24.68213081359863 29.56737518310547 24.61590003967285 29.71241569519043 24.5504207611084 29.79895401000977 C 24.45293998718262 29.92776489257812 24.29606056213379 30.0077953338623 24.1409797668457 30.00780487060547 Z"/><path class="e" d="M 16 3.138645172119141 L 13.17049026489258 11.55666542053223 C 12.90419006347656 12.34890556335449 12.1639404296875 12.89627456665039 11.32846069335938 12.91872406005859 L 2.743730545043945 13.14951515197754 C 2.74372673034668 13.14951515197754 2.743722915649414 13.14951515197754 2.743719100952148 13.14951515197754 L 9.640819549560547 18.70708465576172 C 10.26589012145996 19.21074485778809 10.52882957458496 20.03536605834961 10.31069946289062 20.80788421630859 L 7.855379104614258 29.50373458862305 C 7.855379104614258 29.50373840332031 7.855379104614258 29.50374031066895 7.855377197265625 29.50374412536621 L 7.855377197265625 29.50374412536621 C 7.855382919311523 29.50374031066895 7.855386734008789 29.50373840332031 7.855390548706055 29.50373458862305 L 14.82752990722656 24.4586353302002 C 15.17081069946289 24.21022415161133 15.57625007629395 24.07892608642578 16 24.07892608642578 C 16.42372894287109 24.07892608642578 16.82915878295898 24.21022415161133 17.17245864868164 24.45862579345703 L 24.14459037780762 29.50372505187988 C 24.14459609985352 29.50372886657715 24.14459800720215 29.50371742248535 24.14460945129395 29.50373458862305 L 21.68930053710938 20.80788421630859 C 21.47117042541504 20.03536605834961 21.73410987854004 19.21074485778809 22.35916900634766 18.70708465576172 L 29.25626945495605 13.1495246887207 C 29.25627326965332 13.14952278137207 29.25627708435059 13.1495189666748 29.25628089904785 13.14951705932617 C 29.25627899169922 13.14951705932617 29.25627899169922 13.14951515197754 29.25627899169922 13.14951515197754 L 20.67152976989746 12.91872406005859 C 19.83605003356934 12.89625549316406 19.09580039978027 12.34888458251953 18.82950973510742 11.55666542053223 L 16 3.138645172119141 M 16 2.138645172119141 C 16.3976001739502 2.138645172119141 16.79520034790039 2.365774154663086 16.94789123535156 2.820034027099609 L 19.77740097045898 11.2380542755127 C 19.91110038757324 11.63582420349121 20.2789192199707 11.90780448913574 20.69841003417969 11.9190845489502 L 29.28314971923828 12.14987564086914 C 30.21294975280762 12.17487525939941 30.60798072814941 13.34457588195801 29.88372039794922 13.92818450927734 L 22.98661041259766 19.48575592041016 C 22.67459869384766 19.73716354370117 22.54278945922852 20.15054512023926 22.65167045593262 20.53615570068359 L 25.10697937011719 29.23200416564941 C 25.36459922790527 30.14438438415527 24.32644271850586 30.86965560913086 23.55838012695312 30.31388473510742 L 16.58623123168945 25.26877593994141 C 16.23640060424805 25.01564407348633 15.76359748840332 25.01564407348633 15.41377067565918 25.26877593994141 L 8.441619873046875 30.31388473510742 C 7.673564910888672 30.86965370178223 6.635400772094727 30.14438629150391 6.893009185791016 29.23200416564941 L 9.348329544067383 20.53615570068359 C 9.457210540771484 20.15054512023926 9.325399398803711 19.73716354370117 9.013389587402344 19.48575592041016 L 2.116279602050781 13.92818450927734 C 1.392019271850586 13.34457588195801 1.787050247192383 12.17487525939941 2.716850280761719 12.14987564086914 L 11.30158996582031 11.9190845489502 C 11.7210693359375 11.90781402587891 12.08889961242676 11.63582420349121 12.22260093688965 11.2380542755127 L 15.05211067199707 2.820034027099609 C 15.20479965209961 2.365774154663086 15.6023998260498 2.138645172119141 16 2.138645172119141 Z"/></g></g><g transform="translate(25.265 -1162.385)"><rect class="b" width="32" height="32" transform="translate(18.735 1162.385)"/><g class="c" transform="translate(18.735 1162.385)"><path class="d" d="M 24.1409797668457 30.00780487060547 C 24.0396900177002 30.00781440734863 23.94228935241699 29.97451400756836 23.85149002075195 29.90881538391113 L 16.87933921813965 24.86371421813965 C 16.62187957763672 24.67740440368652 16.31780052185059 24.57893562316895 16 24.57893562316895 C 15.68220043182373 24.57893562316895 15.37812042236328 24.67740440368652 15.12065982818604 24.86371421813965 L 8.148509979248047 29.90881538391113 C 8.057720184326172 29.9745044708252 7.960309982299805 30.00780487060547 7.858970165252686 30.00780487060547 C 7.703909873962402 30.00780487060547 7.547039985656738 29.92780494689941 7.44959020614624 29.79902458190918 C 7.384099960327148 29.71248435974121 7.317860126495361 29.56743431091309 7.374209880828857 29.36787414550781 L 9.829520225524902 20.67202568054199 C 9.993109703063965 20.09262466430664 9.795909881591797 19.47416496276855 9.327110290527344 19.09641456604004 L 2.430010080337524 13.53885459899902 C 2.177989959716797 13.33577537536621 2.243829965591431 13.06705474853516 2.270009994506836 12.98953533172607 C 2.296190023422241 12.9120044708252 2.406759977340698 12.6583948135376 2.730289936065674 12.64969539642334 L 11.31503009796143 12.41890525817871 C 11.94163036346436 12.40206527709961 12.4968204498291 11.99154472351074 12.69653987884521 11.39735507965088 L 15.52604961395264 2.979334831237793 C 15.63230991363525 2.663214921951294 15.91567993164062 2.638644933700562 16 2.638644933700562 C 16.08432006835938 2.638644933700562 16.36768913269043 2.663214921951294 16.47394943237305 2.979344844818115 L 19.30345916748047 11.39735507965088 C 19.50317001342773 11.9915246963501 20.05835914611816 12.40205478668213 20.68497085571289 12.41890525817871 L 29.26971054077148 12.64969539642334 C 29.59324073791504 12.6583948135376 29.70380973815918 12.91201496124268 29.72999000549316 12.98953533172607 C 29.75617027282715 13.06705474853516 29.8220100402832 13.33578491210938 29.56999969482422 13.53885459899902 L 22.67288970947266 19.0964241027832 C 22.2040901184082 19.47416496276855 22.00688934326172 20.09262466430664 22.17048072814941 20.67202568054199 L 24.62579917907715 29.36787414550781 C 24.68213081359863 29.56737518310547 24.61590003967285 29.71241569519043 24.5504207611084 29.79895401000977 C 24.45293998718262 29.92776489257812 24.29606056213379 30.0077953338623 24.1409797668457 30.00780487060547 Z"/><path class="e" d="M 16 3.138645172119141 L 13.17049026489258 11.55666542053223 C 12.90419006347656 12.34890556335449 12.1639404296875 12.89627456665039 11.32846069335938 12.91872406005859 L 2.743730545043945 13.14951515197754 C 2.74372673034668 13.14951515197754 2.743722915649414 13.14951515197754 2.743719100952148 13.14951515197754 L 9.640819549560547 18.70708465576172 C 10.26589012145996 19.21074485778809 10.52882957458496 20.03536605834961 10.31069946289062 20.80788421630859 L 7.855379104614258 29.50373458862305 C 7.855379104614258 29.50373840332031 7.855379104614258 29.50374031066895 7.855377197265625 29.50374412536621 L 7.855377197265625 29.50374412536621 C 7.855382919311523 29.50374031066895 7.855386734008789 29.50373840332031 7.855390548706055 29.50373458862305 L 14.82752990722656 24.4586353302002 C 15.17081069946289 24.21022415161133 15.57625007629395 24.07892608642578 16 24.07892608642578 C 16.42372894287109 24.07892608642578 16.82915878295898 24.21022415161133 17.17245864868164 24.45862579345703 L 24.14459037780762 29.50372505187988 C 24.14459609985352 29.50372886657715 24.14459800720215 29.50371742248535 24.14460945129395 29.50373458862305 L 21.68930053710938 20.80788421630859 C 21.47117042541504 20.03536605834961 21.73410987854004 19.21074485778809 22.35916900634766 18.70708465576172 L 29.25626945495605 13.1495246887207 C 29.25627326965332 13.14952278137207 29.25627708435059 13.1495189666748 29.25628089904785 13.14951705932617 C 29.25627899169922 13.14951705932617 29.25627899169922 13.14951515197754 29.25627899169922 13.14951515197754 L 20.67152976989746 12.91872406005859 C 19.83605003356934 12.89625549316406 19.09580039978027 12.34888458251953 18.82950973510742 11.55666542053223 L 16 3.138645172119141 M 16 2.138645172119141 C 16.3976001739502 2.138645172119141 16.79520034790039 2.365774154663086 16.94789123535156 2.820034027099609 L 19.77740097045898 11.2380542755127 C 19.91110038757324 11.63582420349121 20.2789192199707 11.90780448913574 20.69841003417969 11.9190845489502 L 29.28314971923828 12.14987564086914 C 30.21294975280762 12.17487525939941 30.60798072814941 13.34457588195801 29.88372039794922 13.92818450927734 L 22.98661041259766 19.48575592041016 C 22.67459869384766 19.73716354370117 22.54278945922852 20.15054512023926 22.65167045593262 20.53615570068359 L 25.10697937011719 29.23200416564941 C 25.36459922790527 30.14438438415527 24.32644271850586 30.86965560913086 23.55838012695312 30.31388473510742 L 16.58623123168945 25.26877593994141 C 16.23640060424805 25.01564407348633 15.76359748840332 25.01564407348633 15.41377067565918 25.26877593994141 L 8.441619873046875 30.31388473510742 C 7.673564910888672 30.86965370178223 6.635400772094727 30.14438629150391 6.893009185791016 29.23200416564941 L 9.348329544067383 20.53615570068359 C 9.457210540771484 20.15054512023926 9.325399398803711 19.73716354370117 9.013389587402344 19.48575592041016 L 2.116279602050781 13.92818450927734 C 1.392019271850586 13.34457588195801 1.787050247192383 12.17487525939941 2.716850280761719 12.14987564086914 L 11.30158996582031 11.9190845489502 C 11.7210693359375 11.90781402587891 12.08889961242676 11.63582420349121 12.22260093688965 11.2380542755127 L 15.05211067199707 2.820034027099609 C 15.20479965209961 2.365774154663086 15.6023998260498 2.138645172119141 16 2.138645172119141 Z"/></g></g><g transform="translate(65.265 -1162.385)"><rect class="b" width="32" height="32" transform="translate(18.735 1162.385)"/><g class="c" transform="translate(18.735 1162.385)"><path class="d" d="M 24.1409797668457 30.00780487060547 C 24.0396900177002 30.00781440734863 23.94228935241699 29.97451400756836 23.85149002075195 29.90881538391113 L 16.87933921813965 24.86371421813965 C 16.62187957763672 24.67740440368652 16.31780052185059 24.57893562316895 16 24.57893562316895 C 15.68220043182373 24.57893562316895 15.37812042236328 24.67740440368652 15.12065982818604 24.86371421813965 L 8.148509979248047 29.90881538391113 C 8.057720184326172 29.9745044708252 7.960309982299805 30.00780487060547 7.858970165252686 30.00780487060547 C 7.703909873962402 30.00780487060547 7.547039985656738 29.92780494689941 7.44959020614624 29.79902458190918 C 7.384099960327148 29.71248435974121 7.317860126495361 29.56743431091309 7.374209880828857 29.36787414550781 L 9.829520225524902 20.67202568054199 C 9.993109703063965 20.09262466430664 9.795909881591797 19.47416496276855 9.327110290527344 19.09641456604004 L 2.430010080337524 13.53885459899902 C 2.177989959716797 13.33577537536621 2.243829965591431 13.06705474853516 2.270009994506836 12.98953533172607 C 2.296190023422241 12.9120044708252 2.406759977340698 12.6583948135376 2.730289936065674 12.64969539642334 L 11.31503009796143 12.41890525817871 C 11.94163036346436 12.40206527709961 12.4968204498291 11.99154472351074 12.69653987884521 11.39735507965088 L 15.52604961395264 2.979334831237793 C 15.63230991363525 2.663214921951294 15.91567993164062 2.638644933700562 16 2.638644933700562 C 16.08432006835938 2.638644933700562 16.36768913269043 2.663214921951294 16.47394943237305 2.979344844818115 L 19.30345916748047 11.39735507965088 C 19.50317001342773 11.9915246963501 20.05835914611816 12.40205478668213 20.68497085571289 12.41890525817871 L 29.26971054077148 12.64969539642334 C 29.59324073791504 12.6583948135376 29.70380973815918 12.91201496124268 29.72999000549316 12.98953533172607 C 29.75617027282715 13.06705474853516 29.8220100402832 13.33578491210938 29.56999969482422 13.53885459899902 L 22.67288970947266 19.0964241027832 C 22.2040901184082 19.47416496276855 22.00688934326172 20.09262466430664 22.17048072814941 20.67202568054199 L 24.62579917907715 29.36787414550781 C 24.68213081359863 29.56737518310547 24.61590003967285 29.71241569519043 24.5504207611084 29.79895401000977 C 24.45293998718262 29.92776489257812 24.29606056213379 30.0077953338623 24.1409797668457 30.00780487060547 Z"/><path class="e" d="M 16 3.138645172119141 L 13.17049026489258 11.55666542053223 C 12.90419006347656 12.34890556335449 12.1639404296875 12.89627456665039 11.32846069335938 12.91872406005859 L 2.743730545043945 13.14951515197754 C 2.74372673034668 13.14951515197754 2.743722915649414 13.14951515197754 2.743719100952148 13.14951515197754 L 9.640819549560547 18.70708465576172 C 10.26589012145996 19.21074485778809 10.52882957458496 20.03536605834961 10.31069946289062 20.80788421630859 L 7.855379104614258 29.50373458862305 C 7.855379104614258 29.50373840332031 7.855379104614258 29.50374031066895 7.855377197265625 29.50374412536621 L 7.855377197265625 29.50374412536621 C 7.855382919311523 29.50374031066895 7.855386734008789 29.50373840332031 7.855390548706055 29.50373458862305 L 14.82752990722656 24.4586353302002 C 15.17081069946289 24.21022415161133 15.57625007629395 24.07892608642578 16 24.07892608642578 C 16.42372894287109 24.07892608642578 16.82915878295898 24.21022415161133 17.17245864868164 24.45862579345703 L 24.14459037780762 29.50372505187988 C 24.14459609985352 29.50372886657715 24.14459800720215 29.50371742248535 24.14460945129395 29.50373458862305 L 21.68930053710938 20.80788421630859 C 21.47117042541504 20.03536605834961 21.73410987854004 19.21074485778809 22.35916900634766 18.70708465576172 L 29.25626945495605 13.1495246887207 C 29.25627326965332 13.14952278137207 29.25627708435059 13.1495189666748 29.25628089904785 13.14951705932617 C 29.25627899169922 13.14951705932617 29.25627899169922 13.14951515197754 29.25627899169922 13.14951515197754 L 20.67152976989746 12.91872406005859 C 19.83605003356934 12.89625549316406 19.09580039978027 12.34888458251953 18.82950973510742 11.55666542053223 L 16 3.138645172119141 M 16 2.138645172119141 C 16.3976001739502 2.138645172119141 16.79520034790039 2.365774154663086 16.94789123535156 2.820034027099609 L 19.77740097045898 11.2380542755127 C 19.91110038757324 11.63582420349121 20.2789192199707 11.90780448913574 20.69841003417969 11.9190845489502 L 29.28314971923828 12.14987564086914 C 30.21294975280762 12.17487525939941 30.60798072814941 13.34457588195801 29.88372039794922 13.92818450927734 L 22.98661041259766 19.48575592041016 C 22.67459869384766 19.73716354370117 22.54278945922852 20.15054512023926 22.65167045593262 20.53615570068359 L 25.10697937011719 29.23200416564941 C 25.36459922790527 30.14438438415527 24.32644271850586 30.86965560913086 23.55838012695312 30.31388473510742 L 16.58623123168945 25.26877593994141 C 16.23640060424805 25.01564407348633 15.76359748840332 25.01564407348633 15.41377067565918 25.26877593994141 L 8.441619873046875 30.31388473510742 C 7.673564910888672 30.86965370178223 6.635400772094727 30.14438629150391 6.893009185791016 29.23200416564941 L 9.348329544067383 20.53615570068359 C 9.457210540771484 20.15054512023926 9.325399398803711 19.73716354370117 9.013389587402344 19.48575592041016 L 2.116279602050781 13.92818450927734 C 1.392019271850586 13.34457588195801 1.787050247192383 12.17487525939941 2.716850280761719 12.14987564086914 L 11.30158996582031 11.9190845489502 C 11.7210693359375 11.90781402587891 12.08889961242676 11.63582420349121 12.22260093688965 11.2380542755127 L 15.05211067199707 2.820034027099609 C 15.20479965209961 2.365774154663086 15.6023998260498 2.138645172119141 16 2.138645172119141 Z"/></g></g><g transform="translate(105.265 -1162.385)"><rect class="b" width="32" height="32" transform="translate(18.735 1162.385)"/><g class="c" transform="translate(18.735 1162.385)"><path class="d" d="M 24.1409797668457 30.00780487060547 C 24.0396900177002 30.00781440734863 23.94228935241699 29.97451400756836 23.85149002075195 29.90881538391113 L 16.87933921813965 24.86371421813965 C 16.62187957763672 24.67740440368652 16.31780052185059 24.57893562316895 16 24.57893562316895 C 15.68220043182373 24.57893562316895 15.37812042236328 24.67740440368652 15.12065982818604 24.86371421813965 L 8.148509979248047 29.90881538391113 C 8.057720184326172 29.9745044708252 7.960309982299805 30.00780487060547 7.858970165252686 30.00780487060547 C 7.703909873962402 30.00780487060547 7.547039985656738 29.92780494689941 7.44959020614624 29.79902458190918 C 7.384099960327148 29.71248435974121 7.317860126495361 29.56743431091309 7.374209880828857 29.36787414550781 L 9.829520225524902 20.67202568054199 C 9.993109703063965 20.09262466430664 9.795909881591797 19.47416496276855 9.327110290527344 19.09641456604004 L 2.430010080337524 13.53885459899902 C 2.177989959716797 13.33577537536621 2.243829965591431 13.06705474853516 2.270009994506836 12.98953533172607 C 2.296190023422241 12.9120044708252 2.406759977340698 12.6583948135376 2.730289936065674 12.64969539642334 L 11.31503009796143 12.41890525817871 C 11.94163036346436 12.40206527709961 12.4968204498291 11.99154472351074 12.69653987884521 11.39735507965088 L 15.52604961395264 2.979334831237793 C 15.63230991363525 2.663214921951294 15.91567993164062 2.638644933700562 16 2.638644933700562 C 16.08432006835938 2.638644933700562 16.36768913269043 2.663214921951294 16.47394943237305 2.979344844818115 L 19.30345916748047 11.39735507965088 C 19.50317001342773 11.9915246963501 20.05835914611816 12.40205478668213 20.68497085571289 12.41890525817871 L 29.26971054077148 12.64969539642334 C 29.59324073791504 12.6583948135376 29.70380973815918 12.91201496124268 29.72999000549316 12.98953533172607 C 29.75617027282715 13.06705474853516 29.8220100402832 13.33578491210938 29.56999969482422 13.53885459899902 L 22.67288970947266 19.0964241027832 C 22.2040901184082 19.47416496276855 22.00688934326172 20.09262466430664 22.17048072814941 20.67202568054199 L 24.62579917907715 29.36787414550781 C 24.68213081359863 29.56737518310547 24.61590003967285 29.71241569519043 24.5504207611084 29.79895401000977 C 24.45293998718262 29.92776489257812 24.29606056213379 30.0077953338623 24.1409797668457 30.00780487060547 Z"/><path class="e" d="M 16 3.138645172119141 L 13.17049026489258 11.55666542053223 C 12.90419006347656 12.34890556335449 12.1639404296875 12.89627456665039 11.32846069335938 12.91872406005859 L 2.743730545043945 13.14951515197754 C 2.74372673034668 13.14951515197754 2.743722915649414 13.14951515197754 2.743719100952148 13.14951515197754 L 9.640819549560547 18.70708465576172 C 10.26589012145996 19.21074485778809 10.52882957458496 20.03536605834961 10.31069946289062 20.80788421630859 L 7.855379104614258 29.50373458862305 C 7.855379104614258 29.50373840332031 7.855379104614258 29.50374031066895 7.855377197265625 29.50374412536621 L 7.855377197265625 29.50374412536621 C 7.855382919311523 29.50374031066895 7.855386734008789 29.50373840332031 7.855390548706055 29.50373458862305 L 14.82752990722656 24.4586353302002 C 15.17081069946289 24.21022415161133 15.57625007629395 24.07892608642578 16 24.07892608642578 C 16.42372894287109 24.07892608642578 16.82915878295898 24.21022415161133 17.17245864868164 24.45862579345703 L 24.14459037780762 29.50372505187988 C 24.14459609985352 29.50372886657715 24.14459800720215 29.50371742248535 24.14460945129395 29.50373458862305 L 21.68930053710938 20.80788421630859 C 21.47117042541504 20.03536605834961 21.73410987854004 19.21074485778809 22.35916900634766 18.70708465576172 L 29.25626945495605 13.1495246887207 C 29.25627326965332 13.14952278137207 29.25627708435059 13.1495189666748 29.25628089904785 13.14951705932617 C 29.25627899169922 13.14951705932617 29.25627899169922 13.14951515197754 29.25627899169922 13.14951515197754 L 20.67152976989746 12.91872406005859 C 19.83605003356934 12.89625549316406 19.09580039978027 12.34888458251953 18.82950973510742 11.55666542053223 L 16 3.138645172119141 M 16 2.138645172119141 C 16.3976001739502 2.138645172119141 16.79520034790039 2.365774154663086 16.94789123535156 2.820034027099609 L 19.77740097045898 11.2380542755127 C 19.91110038757324 11.63582420349121 20.2789192199707 11.90780448913574 20.69841003417969 11.9190845489502 L 29.28314971923828 12.14987564086914 C 30.21294975280762 12.17487525939941 30.60798072814941 13.34457588195801 29.88372039794922 13.92818450927734 L 22.98661041259766 19.48575592041016 C 22.67459869384766 19.73716354370117 22.54278945922852 20.15054512023926 22.65167045593262 20.53615570068359 L 25.10697937011719 29.23200416564941 C 25.36459922790527 30.14438438415527 24.32644271850586 30.86965560913086 23.55838012695312 30.31388473510742 L 16.58623123168945 25.26877593994141 C 16.23640060424805 25.01564407348633 15.76359748840332 25.01564407348633 15.41377067565918 25.26877593994141 L 8.441619873046875 30.31388473510742 C 7.673564910888672 30.86965370178223 6.635400772094727 30.14438629150391 6.893009185791016 29.23200416564941 L 9.348329544067383 20.53615570068359 C 9.457210540771484 20.15054512023926 9.325399398803711 19.73716354370117 9.013389587402344 19.48575592041016 L 2.116279602050781 13.92818450927734 C 1.392019271850586 13.34457588195801 1.787050247192383 12.17487525939941 2.716850280761719 12.14987564086914 L 11.30158996582031 11.9190845489502 C 11.7210693359375 11.90781402587891 12.08889961242676 11.63582420349121 12.22260093688965 11.2380542755127 L 15.05211067199707 2.820034027099609 C 15.20479965209961 2.365774154663086 15.6023998260498 2.138645172119141 16 2.138645172119141 Z"/></g></g><g transform="translate(145.265 -1162.385)"><rect class="b" width="32" height="32" transform="translate(18.735 1162.385)"/><g class="c" transform="translate(18.735 1162.385)"><path class="d" d="M 24.1409797668457 30.00780487060547 C 24.0396900177002 30.00781440734863 23.94228935241699 29.97451400756836 23.85149002075195 29.90881538391113 L 16.87933921813965 24.86371421813965 C 16.62187957763672 24.67740440368652 16.31780052185059 24.57893562316895 16 24.57893562316895 C 15.68220043182373 24.57893562316895 15.37812042236328 24.67740440368652 15.12065982818604 24.86371421813965 L 8.148509979248047 29.90881538391113 C 8.057720184326172 29.9745044708252 7.960309982299805 30.00780487060547 7.858970165252686 30.00780487060547 C 7.703909873962402 30.00780487060547 7.547039985656738 29.92780494689941 7.44959020614624 29.79902458190918 C 7.384099960327148 29.71248435974121 7.317860126495361 29.56743431091309 7.374209880828857 29.36787414550781 L 9.829520225524902 20.67202568054199 C 9.993109703063965 20.09262466430664 9.795909881591797 19.47416496276855 9.327110290527344 19.09641456604004 L 2.430010080337524 13.53885459899902 C 2.177989959716797 13.33577537536621 2.243829965591431 13.06705474853516 2.270009994506836 12.98953533172607 C 2.296190023422241 12.9120044708252 2.406759977340698 12.6583948135376 2.730289936065674 12.64969539642334 L 11.31503009796143 12.41890525817871 C 11.94163036346436 12.40206527709961 12.4968204498291 11.99154472351074 12.69653987884521 11.39735507965088 L 15.52604961395264 2.979334831237793 C 15.63230991363525 2.663214921951294 15.91567993164062 2.638644933700562 16 2.638644933700562 C 16.08432006835938 2.638644933700562 16.36768913269043 2.663214921951294 16.47394943237305 2.979344844818115 L 19.30345916748047 11.39735507965088 C 19.50317001342773 11.9915246963501 20.05835914611816 12.40205478668213 20.68497085571289 12.41890525817871 L 29.26971054077148 12.64969539642334 C 29.59324073791504 12.6583948135376 29.70380973815918 12.91201496124268 29.72999000549316 12.98953533172607 C 29.75617027282715 13.06705474853516 29.8220100402832 13.33578491210938 29.56999969482422 13.53885459899902 L 22.67288970947266 19.0964241027832 C 22.2040901184082 19.47416496276855 22.00688934326172 20.09262466430664 22.17048072814941 20.67202568054199 L 24.62579917907715 29.36787414550781 C 24.68213081359863 29.56737518310547 24.61590003967285 29.71241569519043 24.5504207611084 29.79895401000977 C 24.45293998718262 29.92776489257812 24.29606056213379 30.0077953338623 24.1409797668457 30.00780487060547 Z"/><path class="e" d="M 16 3.138645172119141 L 13.17049026489258 11.55666542053223 C 12.90419006347656 12.34890556335449 12.1639404296875 12.89627456665039 11.32846069335938 12.91872406005859 L 2.743730545043945 13.14951515197754 C 2.74372673034668 13.14951515197754 2.743722915649414 13.14951515197754 2.743719100952148 13.14951515197754 L 9.640819549560547 18.70708465576172 C 10.26589012145996 19.21074485778809 10.52882957458496 20.03536605834961 10.31069946289062 20.80788421630859 L 7.855379104614258 29.50373458862305 C 7.855379104614258 29.50373840332031 7.855379104614258 29.50374031066895 7.855377197265625 29.50374412536621 L 7.855377197265625 29.50374412536621 C 7.855382919311523 29.50374031066895 7.855386734008789 29.50373840332031 7.855390548706055 29.50373458862305 L 14.82752990722656 24.4586353302002 C 15.17081069946289 24.21022415161133 15.57625007629395 24.07892608642578 16 24.07892608642578 C 16.42372894287109 24.07892608642578 16.82915878295898 24.21022415161133 17.17245864868164 24.45862579345703 L 24.14459037780762 29.50372505187988 C 24.14459609985352 29.50372886657715 24.14459800720215 29.50371742248535 24.14460945129395 29.50373458862305 L 21.68930053710938 20.80788421630859 C 21.47117042541504 20.03536605834961 21.73410987854004 19.21074485778809 22.35916900634766 18.70708465576172 L 29.25626945495605 13.1495246887207 C 29.25627326965332 13.14952278137207 29.25627708435059 13.1495189666748 29.25628089904785 13.14951705932617 C 29.25627899169922 13.14951705932617 29.25627899169922 13.14951515197754 29.25627899169922 13.14951515197754 L 20.67152976989746 12.91872406005859 C 19.83605003356934 12.89625549316406 19.09580039978027 12.34888458251953 18.82950973510742 11.55666542053223 L 16 3.138645172119141 M 16 2.138645172119141 C 16.3976001739502 2.138645172119141 16.79520034790039 2.365774154663086 16.94789123535156 2.820034027099609 L 19.77740097045898 11.2380542755127 C 19.91110038757324 11.63582420349121 20.2789192199707 11.90780448913574 20.69841003417969 11.9190845489502 L 29.28314971923828 12.14987564086914 C 30.21294975280762 12.17487525939941 30.60798072814941 13.34457588195801 29.88372039794922 13.92818450927734 L 22.98661041259766 19.48575592041016 C 22.67459869384766 19.73716354370117 22.54278945922852 20.15054512023926 22.65167045593262 20.53615570068359 L 25.10697937011719 29.23200416564941 C 25.36459922790527 30.14438438415527 24.32644271850586 30.86965560913086 23.55838012695312 30.31388473510742 L 16.58623123168945 25.26877593994141 C 16.23640060424805 25.01564407348633 15.76359748840332 25.01564407348633 15.41377067565918 25.26877593994141 L 8.441619873046875 30.31388473510742 C 7.673564910888672 30.86965370178223 6.635400772094727 30.14438629150391 6.893009185791016 29.23200416564941 L 9.348329544067383 20.53615570068359 C 9.457210540771484 20.15054512023926 9.325399398803711 19.73716354370117 9.013389587402344 19.48575592041016 L 2.116279602050781 13.92818450927734 C 1.392019271850586 13.34457588195801 1.787050247192383 12.17487525939941 2.716850280761719 12.14987564086914 L 11.30158996582031 11.9190845489502 C 11.7210693359375 11.90781402587891 12.08889961242676 11.63582420349121 12.22260093688965 11.2380542755127 L 15.05211067199707 2.820034027099609 C 15.20479965209961 2.365774154663086 15.6023998260498 2.138645172119141 16 2.138645172119141 Z"/></g></g></svg>