<svg xmlns="http://www.w3.org/2000/svg" width="96" height="96" viewBox="0 0 96 96">
  <defs>
    <style>
      .cls-1 {
        fill: #d5e0ff;
      }

      .cls-1, .cls-2, .cls-7 {
        opacity: 0;
      }

      .cls-2 {
        fill: #ffd2d2;
      }

      .cls-3 {
        fill: #1d68dc;
      }

      .cls-4, .cls-7 {
        fill: #fff;
      }

      .cls-5 {
        fill: #cde0ff;
      }

      .cls-6 {
        fill: #569aff;
      }

      .cls-7 {
        stroke: #707070;
      }

      .cls-8 {
        fill: #18225c;
      }

      .cls-9 {
        fill: #e83667;
      }

      .cls-10 {
        stroke: none;
      }

      .cls-11 {
        fill: none;
      }
    </style>
  </defs>
  <g id="ic_x96_complete_rentcar" transform="translate(-1002 -183)">
    <rect id="Rectangle_11214" data-name="Rectangle 11214" class="cls-1" width="96" height="96" transform="translate(1002 183)"/>
    <rect id="Rectangle_11215" data-name="Rectangle 11215" class="cls-2" width="80" height="80" transform="translate(1010 191)"/>
    <path id="Path_17581" data-name="Path 17581" class="cls-3" d="M60.887,58.969,6.33,44.341a6,6,0,0,1-1.941-.911,6.06,6.06,0,0,0,1.668-4.185A6.088,6.088,0,0,0,2.886,33.9L10.777,4.469A6.037,6.037,0,0,1,18.163.206L72.721,14.834a6.037,6.037,0,0,1,4.263,7.386l-8.71,32.486a6.038,6.038,0,0,1-7.386,4.263" transform="translate(1010.015 198.537)"/>
    <path id="Path_17582" data-name="Path 17582" class="cls-4" d="M62.507,62.008H6.03A6.037,6.037,0,0,1,0,55.978V44.434a5.277,5.277,0,0,0,5.272-5.271A5.277,5.277,0,0,0,0,33.891V22.349a6.037,6.037,0,0,1,6.03-6.03H62.507a6.036,6.036,0,0,1,6.03,6.03V33.891a5.272,5.272,0,0,0,0,10.543V55.978a6.036,6.036,0,0,1-6.03,6.03" transform="translate(1010 198.618)"/>
    <path id="Path_17583" data-name="Path 17583" class="cls-5" d="M68.254,41.236A11.861,11.861,0,1,1,56.393,53.1,11.861,11.861,0,0,1,68.254,41.236" transform="translate(1009.885 198.504)"/>
    <path id="Path_17584" data-name="Path 17584" class="cls-6" d="M67.131,56.286a1.256,1.256,0,0,1-.919-.4l-2.534-2.722a1.256,1.256,0,1,1,1.839-1.712l1.615,1.735,3.227-3.466A1.256,1.256,0,0,1,72.2,51.432L68.05,55.886A1.256,1.256,0,0,1,67.131,56.286Z" transform="translate(1010.202 198.798)"/>
    <g id="ic_x24_doc_rentcar" transform="translate(527.2 -242.2)">
      <g id="Rectangle_11232" data-name="Rectangle 11232" class="cls-7" transform="translate(505 468)">
        <rect class="cls-10" width="24" height="24"/>
        <rect class="cls-11" x="0.5" y="0.5" width="23" height="23"/>
      </g>
      <g id="Group_15557" data-name="Group 15557" transform="translate(506 471)">
        <path id="Path_17532" data-name="Path 17532" class="cls-8" d="M3.8,13H3.2A1.2,1.2,0,0,0,2,14.2v2.6A1.2,1.2,0,0,0,3.2,18h.6A1.2,1.2,0,0,0,5,16.8V14.2A1.2,1.2,0,0,0,3.8,13"/>
        <path id="Path_17533" data-name="Path 17533" class="cls-8" d="M18.5,12h0A1.5,1.5,0,0,0,17,13.5v3.3A1.2,1.2,0,0,0,18.2,18h.6A1.2,1.2,0,0,0,20,16.8V13.5A1.5,1.5,0,0,0,18.5,12"/>
        <path id="Path_17534" data-name="Path 17534" class="cls-8" d="M3,5A1.5,1.5,0,1,1,1.5,3.5,1.5,1.5,0,0,1,3,5"/>
        <path id="Path_17535" data-name="Path 17535" class="cls-9" d="M22,5.285a1.5,1.5,0,1,1-1.5-1.5,1.5,1.5,0,0,1,1.5,1.5"/>
        <path id="Path_17536" data-name="Path 17536" class="cls-6" d="M20.1,7.877a8,8,0,0,1-1.864-2.958l-.85-2.4A3.517,3.517,0,0,0,14.024,0H7.977a3.517,3.517,0,0,0-3.36,2.518l-.85,2.4A8,8,0,0,1,1.9,7.877,3.145,3.145,0,0,0,1,10.1v4.365A1.013,1.013,0,0,0,1.988,15.5H20.013A1.013,1.013,0,0,0,21,14.464V10.1a3.144,3.144,0,0,0-.9-2.222M7.977,2.991h6.047a.5.5,0,0,1,.48.288l1.351,3.712H6L7.5,3.279a.5.5,0,0,1,.479-.288"/>
        <path id="Path_17537" data-name="Path 17537" class="cls-4" d="M4.5,9.5A1.5,1.5,0,1,1,3,11,1.5,1.5,0,0,1,4.5,9.5"/>
        <path id="Path_17538" data-name="Path 17538" class="cls-4" d="M17.5,9.5A1.5,1.5,0,1,1,16,11a1.5,1.5,0,0,1,1.5-1.5"/>
      </g>
    </g>
  </g>
</svg>
