<svg xmlns="http://www.w3.org/2000/svg" width="32" height="32">
    <defs>
        <style>
            .cls-6{fill:none;stroke:#cacaca;stroke-linecap:round;stroke-width:2px}
        </style>
    </defs>
    <g id="ic_x72_notice" transform="translate(-167 -599)">
        <g id="ic_x40_notice" transform="translate(171 603)">
            <rect id="사각형_2678" data-name="사각형 2678" width="4.444" height="4.444" rx="2.222" transform="translate(9.778 19.111)" style="fill:#e83667"/>
            <path id="합치기_36" data-name="합치기 36" d="M1 18.489a1 1 0 0 1-1-1 3 3 0 0 1 1.334-2.495V8.888a8.889 8.889 0 0 1 17.778 0v6.106a3 3 0 0 1 1.333 2.494 1 1 0 0 1-1 1z" transform="translate(1.778 3.111)" style="fill:#6531ce"/>
            <rect id="사각형_2676" data-name="사각형 2676" width="4.444" height="4.444" rx="2.222" transform="translate(9.778)" style="fill:#260b5b"/>
            <path id="사각형_2681" data-name="사각형 2681" d="M0 0h6.444a.667.667 0 0 1 .667.667.667.667 0 0 1-.667.667H0V0z" transform="translate(3.111 16)" style="fill:#8f63e6"/>
            <path id="패스_2615" data-name="패스 2615" class="cls-6" d="M8699.7 611.7a7.921 7.921 0 0 0-2.667 5.333" transform="translate(-8697.036 -608.144)"/>
            <path id="패스_2616" data-name="패스 2616" class="cls-6" d="M8697.035 611.7a7.921 7.921 0 0 1 2.667 5.333" transform="translate(-8676.146 -608.144)"/>
        </g>
    </g>
</svg>
