<svg xmlns="http://www.w3.org/2000/svg" width="18" height="18" viewBox="0 0 18 18">
    <path style="fill:none" d="M0 0h18v18H0z"/>
    <path d="M12.766 6.4c0 3.574-4.352 9.586-6.192 9.586s-6.3-5.864-6.3-9.445A6.331 6.331 0 0 1 1.95 1.915a6.539 6.539 0 0 1 9.248 0A5.922 5.922 0 0 1 12.766 6.4z" transform="translate(2.426 1.008)" style="fill:gray"/>
    <path data-name="Vector" d="M4.359 2.18A2.18 2.18 0 1 1 2.18 0a2.18 2.18 0 0 1 2.179 2.18z" transform="translate(6.82 5.367)" style="fill:#fff"/>
</svg>
