<svg xmlns="http://www.w3.org/2000/svg" width="12" height="12" viewBox="0 0 12 12">
    <defs>
        <style>
            .cls-2{fill:none}.cls-3,.cls-4{stroke:none}.cls-4{fill:#aeaeae}
        </style>
    </defs>
    <g id="ic_x12_person" transform="translate(-237 -14)">
        <path id="Rectangle_205" data-name="Rectangle 205" transform="translate(237 14)" style="fill:none" d="M0 0h12v12H0z"/>
        <g id="Group_827" data-name="Group 827" transform="translate(-.25)">
            <g id="Path" class="cls-2">
                <path class="cls-3" d="M0 2.55A2.552 2.552 0 0 1 2.551 0 2.552 2.552 0 0 1 5.1 2.55 2.552 2.552 0 0 1 2.551 5.1 2.549 2.549 0 0 1 0 2.55z" transform="translate(240.549 14.75)"/>
                <path class="cls-4" d="M2.551 1.5c-.285 0-.541.106-.74.306l-.005.004c-.2.2-.306.455-.306.74s.106.542.306.742c.202.201.46.308.745.308s.542-.106.741-.306l.004-.004c.2-.2.306-.455.306-.74 0-.284-.106-.54-.31-.744-.2-.2-.456-.306-.74-.306m0-1.5c.682 0 1.322.265 1.803.747a2.53 2.53 0 0 1 .747 1.803c0 .683-.265 1.322-.747 1.803-.481.482-1.12.747-1.804.747a2.538 2.538 0 0 1-1.805-.747A2.534 2.534 0 0 1 0 2.55C0 1.867.265 1.228.748.747A2.526 2.526 0 0 1 2.55 0z" transform="translate(240.549 14.75)"/>
            </g>
            <g id="Path-2" data-name="Path" class="cls-2">
                <path class="cls-3" d="M10.5 4.621a.4.4 0 0 1-.193.329.8.8 0 0 1-.46.138H.653c-.36 0-.653-.21-.653-.467v-.865A3.3 3.3 0 0 1 1.542 1.1 6.4 6.4 0 0 1 5.25 0a6.4 6.4 0 0 1 3.708 1.1.454.454 0 0 1 .042.037l.01.01a3.282 3.282 0 0 1 1.49 2.612z" transform="translate(238 20.71)"/>
                <path class="cls-4" d="M8.988 3.588c-.083-.576-.567-1.013-.866-1.233l-.087-.067C7.298 1.78 6.312 1.5 5.25 1.5c-1.086 0-2.093.292-2.835.823-.313.224-.82.672-.903 1.265h7.476m.86 1.5H.652c-.36 0-.653-.21-.653-.467v-.865c0-.998.546-1.94 1.542-2.652C2.538.39 3.854 0 5.25 0c1.396 0 2.712.39 3.708 1.104A.454.454 0 0 1 9 1.137l.01.01c.96.705 1.489 1.632 1.489 2.612v.862c0 .124-.067.24-.193.329a.795.795 0 0 1-.46.138z" transform="translate(238 20.71)"/>
            </g>
        </g>
    </g>
</svg>
