<svg xmlns="http://www.w3.org/2000/svg" width="200" height="54" viewBox="0 0 200 54"><defs><style>.a,.d,.f,.h,.j,.k,.o,.p,.r{fill:none;}.b{fill:#cacaca;}.c,.g,.n{fill:#fff;}.c,.l{opacity:0;}.d{stroke:#202020;}.d,.f,.h,.j,.k,.n,.o,.p,.r{stroke-linecap:round;}.d,.f,.h,.j,.k,.n,.o{stroke-linejoin:round;}.d,.f,.h,.k,.r{stroke-width:2px;}.e{fill:#aeaeae;}.f,.n,.o,.p{stroke:#aeaeae;}.h,.j{stroke:#fff;}.i{fill:#85b5ff;}.k{stroke:#cacaca;}.l,.m{fill:#202020;}.n,.o,.p{stroke-width:1.5px;}.p{stroke-miterlimit:10;}.q{fill:#63a1ff;}.r{stroke:#abccff;}.s{fill:#abccff;}</style></defs><rect class="a" width="14" height="14"/><path class="b" d="M13697.5-9006h-9a1,1,0,0,1-1-1v-4.5h11v4.5A1,1,0,0,1,13697.5-9006Zm1-7h-11v-2a1,1,0,0,1,1-1v-.5a1,1,0,0,1,1-1,1,1,0,0,1,1,1v.5h5v-.5a1,1,0,0,1,1-1,1,1,0,0,1,1,1v.5a1,1,0,0,1,1,1Z" transform="translate(-13686 9018.75)"/><rect class="a" width="14" height="14" transform="translate(16)"/><g transform="translate(-220 -13)"><path class="a" d="M0,0H12V12H0Z" transform="translate(237 14)"/><g transform="translate(-0.25)"><path class="b" d="M0,2.55a2.549,2.549,0,1,1,.747,1.8A2.549,2.549,0,0,1,0,2.55Z" transform="translate(240.549 14.75)"/><path class="b" d="M10.5,4.621a.4.4,0,0,1-.193.329.8.8,0,0,1-.46.138H.653c-.36,0-.653-.21-.653-.467V3.756A3.3,3.3,0,0,1,1.542,1.1,6.4,6.4,0,0,1,5.25,0,6.4,6.4,0,0,1,8.958,1.1.454.454,0,0,1,9,1.137l.01.01A3.282,3.282,0,0,1,10.5,3.759Z" transform="translate(238 20.71)"/></g></g><g transform="translate(32)"><rect class="c" width="18" height="18"/><g transform="translate(-1 -2)"><path class="d" d="M3,12V0L0,3" transform="translate(4 5)"/><path class="d" d="M3,12V0L0,3" transform="translate(16 17) rotate(180)"/></g></g><g transform="translate(52)"><rect class="a" width="18" height="18"/><g transform="translate(0.706 0.918)"><path class="e" d="M3.3,1.648A1.648,1.648,0,1,1,2.816.481,1.648,1.648,0,0,1,3.3,1.648Z" transform="translate(6.646 4.786)"/><path class="f" d="M10.989,5.494c0,4.945-5.494,8.791-5.494,8.791S0,10.439,0,5.494a5.495,5.495,0,1,1,10.99,0Z" transform="translate(2.8 0.94)"/></g></g><g transform="translate(72)"><rect class="a" width="18" height="18"/><path class="f" d="M13.169.756,8.994,12.817A.57.57,0,0,1,7.911,12.8L6.233,7.345a.57.57,0,0,0-.377-.377L.4,5.289A.57.57,0,0,1,.383,4.206L12.444.031a.57.57,0,0,1,.725.725Z" transform="translate(2.5 2.5)"/></g><g transform="translate(92)"><rect class="a" width="18" height="18"/><g transform="translate(0.706 0.918)"><path class="g" d="M3.3,1.648A1.648,1.648,0,1,1,2.816.481,1.648,1.648,0,0,1,3.3,1.648Z" transform="translate(6.646 4.786)"/><path class="h" d="M10.989,5.494c0,4.945-5.494,8.791-5.494,8.791S0,10.439,0,5.494a5.495,5.495,0,1,1,10.99,0Z" transform="translate(2.8 0.94)"/></g></g><g transform="translate(0 -3)"><rect class="c" width="18" height="18" transform="translate(0 41) rotate(-90)"/><g transform="translate(-2 42) rotate(-90)"><path class="f" d="M3,12V0L0,3" transform="translate(4 5)"/><path class="f" d="M3,12V0L0,3" transform="translate(16 17) rotate(180)"/></g></g><g transform="translate(113 1)"><rect class="a" width="18" height="18" transform="translate(-1 -1)"/><circle class="i" cx="8" cy="8" r="8"/><path class="j" d="M1.248,0,0,1.248,1.248,2.5" transform="translate(4.286 8.609)"/><path class="j" d="M6.179,0H0" transform="translate(4.286 9.86)"/><path class="j" d="M0,2.5,1.248,1.248,0,0" transform="translate(10.466 4.896)"/><path class="j" d="M0,0H6.18" transform="translate(5.534 6.14)"/></g><g transform="translate(133 1)"><rect class="a" width="18" height="18" transform="translate(-1 -1)"/><path class="i" d="M8,0A8,8,0,1,1,0,8,8,8,0,0,1,8,0Z"/><g transform="translate(0.466)"><path class="j" d="M0,2.5,1.248,1.248,0,0" transform="translate(9.466 6.896)"/><path class="j" d="M0,0H6.18" transform="translate(4.534 8.14)"/></g></g><g transform="translate(-8 -67)"><rect class="a" width="14" height="14" transform="translate(28 87)"/><g transform="translate(-7 23)"><g transform="translate(36 65)"><rect class="c" width="12" height="12" transform="translate(12) rotate(90)"/><g transform="translate(17 -2) rotate(90)"><path class="k" d="M3,10V0L1,1.75" transform="translate(5 6)"/></g></g></g></g><g transform="translate(-8 -67)"><rect class="a" width="14" height="14" transform="translate(44 87)"/><g transform="translate(57 88) rotate(90)"><rect class="c" width="12" height="12"/><g transform="translate(-2 -5)"><path class="k" d="M3,10V0L1,1.75" transform="translate(3 6)"/><path class="k" d="M3,10V0L1,1.75" transform="translate(14 16) rotate(180)"/></g></g></g><g transform="translate(32 -43)"><rect class="a" width="14" height="14" transform="translate(20 63)"/><g transform="translate(21 64)"><rect class="l" width="12" height="12"/><rect class="m" width="2" height="12" rx="1" transform="translate(0 7) rotate(-90)"/></g></g><g transform="translate(32 -43)"><rect class="a" width="14" height="14" transform="translate(36 63)"/><g transform="translate(37 64)"><rect class="l" width="12" height="12"/><rect class="m" width="2" height="12" rx="1" transform="translate(5)"/><rect class="m" width="2" height="12" rx="1" transform="translate(0 7) rotate(-90)"/></g></g><g transform="translate(84 20)"><rect class="a" width="14" height="14"/><g transform="translate(1 1)"><rect class="a" width="12" height="12"/><g transform="translate(0.835 1.207)"><path class="n" d="M964.843,112.39h8.3a1.047,1.047,0,0,1,1.037,1.057h0v5.282a1.048,1.048,0,0,1-1.033,1.061H964.84a1.046,1.046,0,0,1-1.034-1.06h0v-5.282a1.046,1.046,0,0,1,1.036-1.057Z" transform="translate(-963.806 -110.057)"/><path class="o" d="M971.455,119.621V111.2a1.107,1.107,0,0,0-.356-.806,1.257,1.257,0,0,0-.859-.335h-2.431a1.252,1.252,0,0,0-.859.334,1.1,1.1,0,0,0-.356.807v8.423" transform="translate(-963.806 -110.057)"/></g></g></g><g transform="translate(100 20)"><rect class="a" width="14" height="14"/><g transform="translate(1 1)"><rect class="a" width="12" height="12"/><g transform="translate(0.866 1.207)"><path class="n" d="M981.929,119.779h-4.3a1.047,1.047,0,0,1-1.034-1.06h0v-5.282a1.047,1.047,0,0,1,1.037-1.057h8.3a1.046,1.046,0,0,1,1.037,1.057h0v1.153" transform="translate(-976.595 -110.046)"/><path class="o" d="M984.213,114.61v-3.423a1.107,1.107,0,0,0-.356-.806,1.257,1.257,0,0,0-.859-.335h-2.431a1.256,1.256,0,0,0-.859.334,1.1,1.1,0,0,0-.356.807v8.423" transform="translate(-976.595 -110.046)"/><path class="p" d="M983.836,118.07h3.1m-1.551,1.551v-3.1" transform="translate(-976.595 -110.046)"/></g></g></g><rect class="a" width="14" height="14" transform="translate(0 40)"/><g transform="translate(-1033.881 -144.664)"><rect class="a" width="12" height="12" transform="translate(1034.881 185.664)"/><circle class="o" cx="1.277" cy="1.277" r="1.277" transform="translate(1043.525 186.666)"/><path class="o" d="M1042.853,190.739a1.6,1.6,0,0,0-.706.713l-.784,1.181s-.171.366-.707.171l-.494-.29s-1.09-.622-1.677.128l-2.163,2.878a.767.767,0,0,0,.17,1.115s.741.532,1.21-.136l1.677-2.325a2.642,2.642,0,0,0,1.907.928,2.305,2.305,0,0,0,1.861-.689c.246-.315,1.2-1.78,1.2-1.78s.641-.917.189-1.569A1.272,1.272,0,0,0,1042.853,190.739Z"/><path class="o" d="M3961.646,1276.584l1.531,1.531,2.4-2.405" transform="translate(-2924.989 -1089.044)"/></g><rect class="a" width="14" height="14" transform="translate(16 40)"/><g transform="translate(-979.13 -113.703)"><rect class="a" width="12" height="12" transform="translate(996.13 154.703)"/><path class="a" d="M0,0H11.563V11.563H0Z" transform="translate(996.354 154.922)"/><path class="o" d="M9.635,9.635V0H2.818V2.854H0V9.635Z" transform="translate(997.317 155.886)"/><path class="o" d="M1.57,0,0,1.57l1.57,1.57" transform="translate(999.935 160.342)"/><path class="o" d="M3.16-1V1.673H0" transform="translate(1001.174 160.239)"/></g><rect class="a" width="14" height="14" transform="translate(32 40)"/><path class="e" d="M1004.64,167.245a.75.75,0,0,1-.147-.015l-1.9-.381-1.9.381a.75.75,0,0,1-.9-.735v-1.231a.75.75,0,0,1,.22-.53l.6-.6v-.826l-3.205.641a.75.75,0,0,1-.9-.735v-1.231a.75.75,0,0,1,.415-.671l3.689-1.845.006-2.409a1.981,1.981,0,0,1,3.962,0l0,2.408,3.689,1.844a.75.75,0,0,1,.415.671v1.231a.75.75,0,0,1-.9.735l-3.205-.641v.829l.593.6a.75.75,0,0,1,.216.526v1.231a.75.75,0,0,1-.75.75Zm-2.051-1.91a.75.75,0,0,1,.147.015l1.154.231v-.008l-.593-.6a.75.75,0,0,1-.216-.526v-2.051a.75.75,0,0,1,.9-.735l2.713.543-3.2-1.6a.75.75,0,0,1-.415-.669l-.005-2.872a.481.481,0,1,0-.962,0l-.007,2.874a.75.75,0,0,1-.415.669l-3.2,1.6,2.713-.543a.75.75,0,0,1,.9.735v2.051a.75.75,0,0,1-.22.53l-.6.6v.005l1.154-.231A.751.751,0,0,1,1002.588,165.334Z" transform="translate(-963.605 -114.161)"/><rect class="a" width="14" height="14" transform="translate(48 40)"/><g transform="translate(-985.881 -126.949)"><rect class="a" width="12" height="12" transform="translate(1034.881 167.949)"/><g transform="translate(0.269 -0.91)"><path class="n" d="M1039.048,173.119h3.488v3.487h-3.488Z" transform="translate(-0.179)"/><path class="n" d="M1035.381,173.119h3.488v3.487h-3.488Z"/><path class="n" d="M1042.715,173.119h3.487v3.487h-3.487Z" transform="translate(-0.358)"/></g></g><rect class="a" width="14" height="14" transform="translate(64 40)"/><g transform="translate(-944.432 -90.677)"><rect class="a" width="12" height="12" transform="translate(1009.432 131.677)"/><path class="o" d="M1020.208,141.133h-8.841a.884.884,0,0,1-.884-.884v-6.188a.884.884,0,0,1,.884-.884h8.841a.884.884,0,0,1,.884.884v6.188A.884.884,0,0,1,1020.208,141.133Z" transform="translate(-0.359 -0.34)"/><path class="o" d="M1017.316,142.544h-3.536" transform="translate(-0.12 0.34)"/><path class="o" d="M1017.256,137.006l-2.652-1.769v3.537Z" transform="translate(-0.06 -0.191)"/></g><rect class="a" width="14" height="14" transform="translate(112 40)"/><g transform="translate(-918.175 -109.469)"><rect class="a" width="12" height="12" transform="translate(1031.175 150.469)"/><g transform="translate(0 -0.43)"><path class="o" d="M1038.557,154.415a4.07,4.07,0,0,0-5.452,3.829c0,.111.006.221.015.33h8.111c.009-.109.015-.219.015-.33a4.063,4.063,0,0,0-.186-1.219"/><path class="o" d="M1031.96,160.5h10.43"/><path class="o" d="M1037.175,154.017V153.4"/><path class="p" d="M1040.057,153.294l2.193,2.193m-2.193,0,.822-.822,1.371-1.371"/></g></g><rect class="a" width="14" height="14" transform="translate(96 40)"/><g transform="translate(-937.881 -144.664)"><rect class="a" width="12" height="12" transform="translate(1034.881 185.664)"/><circle class="o" cx="1.277" cy="1.277" r="1.277" transform="translate(1043.525 186.666)"/><path class="o" d="M1042.853,190.739a1.6,1.6,0,0,0-.706.713l-.784,1.181s-.171.366-.707.171l-.494-.29s-1.09-.622-1.677.128l-2.163,2.878a.767.767,0,0,0,.17,1.115s.741.532,1.21-.136l1.677-2.325a2.642,2.642,0,0,0,1.907.928,2.305,2.305,0,0,0,1.861-.689c.246-.315,1.2-1.78,1.2-1.78s.641-.917.189-1.569A1.272,1.272,0,0,0,1042.853,190.739Z"/><path class="o" d="M1037.326,186.5l-1.652,1.653,1.652,1.652"/><path class="o" d="M1035.674,188.153h5.489"/><path class="o" d="M1039.593,189.8l1.653-1.652-1.653-1.653"/></g><rect class="a" width="14" height="14" transform="translate(80 40)"/><g transform="translate(-910.161 -93.585)"><rect class="a" width="12" height="12" transform="translate(991.161 134.585)"/><path class="o" d="M997.419,146.161a5.325,5.325,0,1,0-5.326-5.324A5.325,5.325,0,0,0,997.419,146.161Z" transform="translate(-0.251 -0.251)"/><path class="o" d="M998.2,139.759V138.4" transform="translate(0.052 -0.108)"/><path class="o" d="M996.13,139.759V138.4" transform="translate(-0.051 -0.108)"/><path class="o" d="M997.27,142.666a2.045,2.045,0,0,0,2.175-1.884v-.706h-4.351v.706A2.045,2.045,0,0,0,997.27,142.666Z" transform="translate(-0.103 -0.025)"/><path class="o" d="M997.167,145.807v-3.263" transform="translate(0 0.097)"/></g><rect class="a" width="14" height="14" transform="translate(128 40)"/><g transform="translate(-920.62 -121.619)"><rect class="a" width="12" height="12" transform="translate(1049.62 162.619)"/><path class="o" d="M1053.708,171.129a2.508,2.508,0,0,1,3.465,0" transform="translate(0.031 -0.374)"/><path class="o" d="M1050.442,167.9a7.248,7.248,0,0,1,5.875-2.04" transform="translate(-0.055 -0.495)"/><path class="o" d="M1052.074,169.514a4.847,4.847,0,0,1,3.409-1.39,4.962,4.962,0,0,1,.79.064" transform="translate(-0.012 -0.434)"/><path class="p" d="M1058.445,166.425l2.251,2.252m-2.251,0,.845-.845,1.406-1.407" transform="translate(0.156 -0.479)"/><path class="e" d="M1056.2,172.859a.691.691,0,1,1-.692-.691A.692.692,0,0,1,1056.2,172.859Z" transform="translate(-0.039 -0.328)"/></g><g transform="translate(116 20)"><rect class="c" width="18" height="18"/><g transform="translate(-0.673 -0.359)"><path class="f" d="M0,4.031H4.031V0" transform="translate(12.795 4.343)"/><path class="f" d="M0,2.165a7.39,7.39,0,0,1,10.452,0l2.85,2.85" transform="translate(3.524 3.359)"/><path class="f" d="M4.031,0H0V4.031" transform="translate(2.673 11.125)"/><path class="f" d="M13.3,2.85a7.39,7.39,0,0,1-2.4,1.6,7.39,7.39,0,0,1-2.828.563,7.39,7.39,0,0,1-2.828-.563,7.39,7.39,0,0,1-2.4-1.6L0,0" transform="translate(2.673 11.125)"/></g></g><g transform="translate(152 18) rotate(-90)"><rect class="c" width="18" height="18"/><g transform="translate(-1 -2)"><path class="q" d="M3,13a1,1,0,0,1-1-1V2.414L.707,3.707a1,1,0,0,1-1.414,0,1,1,0,0,1,0-1.414l3-3a1,1,0,0,1,1.09-.217A1,1,0,0,1,4,0V12A1,1,0,0,1,3,13Z" transform="translate(4 5)"/><path class="q" d="M3,13a1,1,0,0,1-1-1V2.414L.707,3.707a1,1,0,0,1-1.414,0,1,1,0,0,1,0-1.414l3-3a1,1,0,0,1,1.09-.217A1,1,0,0,1,4,0V12A1,1,0,0,1,3,13Z" transform="translate(16 17) rotate(180)"/></g></g><g transform="translate(172 18) rotate(-90)"><rect class="a" width="18" height="18"/><path class="q" d="M3,13a1,1,0,0,1-1-1V2.414L.707,3.707a1,1,0,0,1-1.414,0,1,1,0,0,1,0-1.414l3-3a1,1,0,0,1,1.09-.217A1,1,0,0,1,4,0V12A1,1,0,0,1,3,13Z" transform="translate(12 15) rotate(180)"/></g><g transform="translate(136 38) rotate(-90)"><rect class="c" width="18" height="18"/><g transform="translate(-1 -2)"><path class="f" d="M3,12V0L0,3" transform="translate(12 17) rotate(180)"/></g></g><g transform="translate(-806.971 -87.85)"><rect class="a" width="12" height="12" transform="translate(962.971 107.85)"/><path class="n" d="M964.514,112.39h5.663a.71.71,0,0,1,.708.713h0v3.562a.711.711,0,0,1-.7.716h-5.668a.709.709,0,0,1-.705-.715h0V113.1a.709.709,0,0,1,.707-.713Z" transform="translate(2.93 -0.446)"/><path class="o" d="M969.379,116.838v-5.972a.879.879,0,0,0-.2-.571.651.651,0,0,0-.492-.238H967.29a.648.648,0,0,0-.492.237.874.874,0,0,0-.2.572v5.972" transform="translate(2.283 -0.02)"/><path class="o" d="M961.939,109.412l1.051.753v5.769h9.433" transform="translate(1.828 1)"/><path class="e" d="M1.379.689A.689.689,0,1,1,.689,0,.689.689,0,0,1,1.379.689Z" transform="translate(966.047 117.439)"/><path class="e" d="M1.379.689A.689.689,0,1,1,.689,0,.689.689,0,0,1,1.379.689Z" transform="translate(973.125 117.439)"/><rect class="a" width="14" height="14" transform="translate(992.971 107.85)"/><g transform="translate(993.971 108.85)"><rect class="c" width="12" height="12"/><g transform="translate(-319.204 -1186.529)"><path class="r" d="M321.2,1188.529l8,8" transform="translate(0 0)"/><path class="r" d="M329.2,1188.529l-8,8" transform="translate(0 0)"/></g></g></g><g transform="translate(17 -39)"><rect class="a" width="14" height="14" transform="translate(153 59)"/><g transform="translate(154 60)"><rect class="c" width="12" height="12"/><path class="s" d="M1,0A1,1,0,0,1,2,1V11a1,1,0,0,1-2,0V1A1,1,0,0,1,1,0Z" transform="translate(5)"/><rect class="s" width="2" height="12" rx="1" transform="translate(0 7) rotate(-90)"/></g></g></svg>