<svg xmlns="http://www.w3.org/2000/svg" width="128" height="24" viewBox="0 0 128 24"><defs><style>.a,.g,.h{fill:none;}.b,.e,.f{fill:#fff;}.b{stroke:#dadada;}.c{fill:#dadada;}.d{fill:#63a1ff;}.f{stroke:#707070;opacity:0;}.g{stroke:#aeaeae;}.g,.h{stroke-linecap:round;stroke-linejoin:round;stroke-width:2px;}.h{stroke:#63a1ff;}.i{stroke:none;}</style></defs><g transform="translate(0 -39)"><rect class="a" width="24" height="24" transform="translate(0 39)"/><g class="b" transform="translate(1 40)"><circle class="i" cx="11" cy="11" r="11"/><circle class="a" cx="11" cy="11" r="10.5"/></g><circle class="c" cx="4" cy="4" r="4" transform="translate(8 47)"/></g><g transform="translate(0 -39)"><rect class="a" width="24" height="24" transform="translate(26 39)"/><g transform="translate(27 40)"><circle class="d" cx="11" cy="11" r="11"/><circle class="e" cx="4" cy="4" r="4" transform="translate(7 7)"/></g></g><g transform="translate(0 -39)"><rect class="a" width="24" height="24" transform="translate(52 39)"/><g transform="translate(5 40)"><rect class="a" width="22" height="22" transform="translate(48)"/><g transform="translate(50 2)"><g class="f"><rect class="i" width="18" height="18"/><rect class="a" x="0.5" y="0.5" width="17" height="17"/></g><path class="g" d="M3961.646,1278.619l5.056,5.091,7.944-8" transform="translate(-3959.145 -1270.21)"/></g></g></g><g transform="translate(0 -39)"><rect class="a" width="24" height="24" transform="translate(78 39)"/><g transform="translate(7 40)"><rect class="a" width="22" height="22" transform="translate(72)"/><g transform="translate(74 2)"><g class="f"><rect class="i" width="18" height="18"/><rect class="a" x="0.5" y="0.5" width="17" height="17"/></g><path class="h" d="M3961.646,1278.619l5.056,5.091,7.944-8" transform="translate(-3959.145 -1270.21)"/></g></g></g><g transform="translate(0 -39)"><rect class="a" width="24" height="24" transform="translate(104 39)"/><g transform="translate(9 40)"><rect class="a" width="22" height="22" transform="translate(96)"/><g transform="translate(98 2)"><path class="a" d="M0,0H18V18H0Z"/><path class="h" d="M0,0,2.352,2.352,4.7,0" transform="translate(6.648 9.033)"/><path class="h" d="M0,0V8.384" transform="translate(9 3)"/><path class="h" d="M13.214,0V4.4a.462.462,0,0,1-.161.345.588.588,0,0,1-.389.143H.551a.588.588,0,0,1-.389-.143A.462.462,0,0,1,0,4.4V0" transform="translate(2.394 10.384)"/></g></g></g></svg>