<svg xmlns="http://www.w3.org/2000/svg" width="18" height="18">
    <path data-name="사각형 2923" d="M1 0h10a1 1 0 0 1 1 1v7a4 4 0 0 1-4 4H4a4 4 0 0 1-4-4V1a1 1 0 0 1 1-1z" transform="translate(2 2)" style="fill:#92621b"/>
    <g data-name="사각형 2924" style="stroke:#92621b;stroke-width:2px;fill:none">
        <path d="M0 0h3a2 2 0 0 1 2 2v1a4 4 0 0 1-4 4H0V0z" style="stroke:none" transform="translate(12 4)"/>
        <path d="M1.75 1h1.5a.75.75 0 0 1 .75.75v2A2.25 2.25 0 0 1 1.75 6 .75.75 0 0 1 1 5.25v-3.5A.75.75 0 0 1 1.75 1z" style="fill:none" transform="translate(12 4)"/>
    </g>
    <rect data-name="사각형 2925" width="12" height="2" rx="1" transform="translate(2 14)" style="fill:#643f09"/>
</svg>
