<svg xmlns="http://www.w3.org/2000/svg" width="50" height="50" viewBox="0 0 50 50">
    <defs>
        <style>
            .cls-4{fill:#cacaca}
        </style>
    </defs>
    <g id="ic_x50_tasty" transform="translate(-768 -102)">
        <g id="그룹_16373" data-name="그룹 16373" transform="translate(765.545 97.294)">
            <path id="패스_21028" data-name="패스 21028" d="M37.212 13.738a13.1 13.1 0 1 1-13.1 13.1 13.1 13.1 0 0 1 13.1-13.1z" style="fill:#aeaeae"/>
            <circle id="타원_1779" data-name="타원 1779" cx="16" cy="16" r="16" transform="translate(4.455 8.706)" style="fill:#eaeaea"/>
            <path id="합치기_110" data-name="합치기 110" class="cls-4" d="M18 46.081a23 23 0 0 1-6.834-4.566c-4.288-4.09-6.726-7.764-6.731-13.691 0-2.37 1.154-3 3.009-3h39.84a2.673 2.673 0 0 1 3 2.9v.1c0 5.926-2.423 9.6-6.713 13.691a26.755 26.755 0 0 1-6.171 4.566z" transform="translate(.019)"/>
            <path id="사각형_11968" data-name="사각형 11968" class="cls-4" d="M0 0h20v2a4 4 0 0 1-4 4H4a4 4 0 0 1-4-4V0z" transform="translate(17.455 44.181)"/>
            <path id="Path_21396" data-name="Path 21396" d="M3882.269 457.382a1.5 1.5 0 0 1-.594-.123c-5.416-2.338-8.384-8.064-8.508-8.307a1.5 1.5 0 0 1 2.672-1.363c.058.111 2.645 5.026 7.025 6.916a1.5 1.5 0 0 1-.6 2.878z" transform="translate(-3863.815 -416.294)" style="fill:#fff"/>
        </g>
    </g>
</svg>
