<svg xmlns="http://www.w3.org/2000/svg" width="18" height="18" viewBox="0 0 18 18">
    <defs>
        <style>
            .cls-2{fill:#fff}.cls-4,.cls-5{stroke:none}.cls-5{fill:#606060}
        </style>
    </defs>
    <g id="ic_x18_recharge" transform="translate(.329)">
        <path id="container" transform="translate(-.329)" style="fill:red;opacity:.2" d="M0 0h18v18H0z"/>
        <g id="Group_14124" data-name="Group 14124" transform="translate(.721 -2)">
            <g id="Union_80" data-name="Union 80" class="cls-2">
                <path class="cls-4" d="M7 5.25C3.185 5.25.75 3.917.75 3V.75h12.5V3c0 .917-2.435 2.25-6.25 2.25z" transform="translate(.95 12)"/>
                <path class="cls-5" d="M1.5 1.5v1.467c.06.116.423.52 1.454.9C4.06 4.275 5.497 4.5 7 4.5c1.503 0 2.94-.225 4.046-.633 1.03-.38 1.394-.784 1.454-.9V1.5h-11M0 0h14v3c0 1.657-3.134 3-7 3S0 4.657 0 3V0z" transform="translate(.95 12)"/>
            </g>
            <g id="Union_79" data-name="Union 79" class="cls-2">
                <path class="cls-4" d="M7 5.25C3.185 5.25.75 3.917.75 3V.75h12.5V3c0 .917-2.435 2.25-6.25 2.25z" transform="translate(.95 9)"/>
                <path class="cls-5" d="M1.5 1.5v1.467c.06.116.423.52 1.454.9C4.06 4.275 5.497 4.5 7 4.5c1.503 0 2.94-.225 4.046-.633 1.03-.38 1.394-.784 1.454-.9V1.5h-11M0 0h14v3c0 1.657-3.134 3-7 3S0 4.657 0 3V0z" transform="translate(.95 9)"/>
            </g>
            <g id="Union_78" data-name="Union 78" class="cls-2">
                <path class="cls-4" d="M7 5.25C3.185 5.25.75 3.917.75 3V.75h12.5V3c0 .917-2.435 2.25-6.25 2.25z" transform="translate(.95 6)"/>
                <path class="cls-5" d="M1.5 1.5v1.467c.06.116.423.52 1.454.9C4.06 4.275 5.497 4.5 7 4.5c1.503 0 2.94-.225 4.046-.633 1.03-.38 1.394-.784 1.454-.9V1.5h-11M0 0h14v3c0 1.657-3.134 3-7 3S0 4.657 0 3V0z" transform="translate(.95 6)"/>
            </g>
            <g id="Ellipse_1578" data-name="Ellipse 1578" transform="translate(.95 3)" style="stroke:#606060;stroke-width:1.5px;fill:#fff">
                <ellipse class="cls-4" cx="7" cy="3" rx="7" ry="3"/>
                <ellipse cx="7" cy="3" rx="6.25" ry="2.25" style="fill:none"/>
            </g>
        </g>
    </g>
</svg>
