<svg id="ic_x24_setting" xmlns="http://www.w3.org/2000/svg" width="24" height="24" viewBox="0 0 24 24">
    <defs>
        <clipPath id="clip-path">
            <path id="area_22" style="fill:#e6230a" d="M0 0h24v24H0z"/>
        </clipPath>
        <style>
            .cls-3{fill:none}.cls-6{stroke:none}
        </style>
    </defs>
    <g id="Mask_Group_1" data-name="Mask Group 1" style="clip-path:url(#clip-path)">
        <path id="area_22-2" data-name="area_22" class="cls-3" d="M0 0h24v24H0z"/>
        <g id="Group_802" data-name="Group 802" transform="translate(-.077 -.152)">
            <g id="Union_1" data-name="Union 1" style="stroke-linejoin:round;fill:none">
                <path class="cls-6" d="M-289.423-34a2 2 0 0 1-2-2v-.674a8.989 8.989 0 0 1-2.041-1.174l-.6.346a2 2 0 0 1-2.732-.732l-1.5-2.6a2 2 0 0 1 .732-2.732l.627-.362A9.085 9.085 0 0 1-297-45a9.086 9.086 0 0 1 .079-1.2l-.585-.338a2 2 0 0 1-.732-2.732l1.5-2.6a2 2 0 0 1 2.732-.733l.641.371a8.984 8.984 0 0 1 1.941-1.1V-54a2 2 0 0 1 2-2h3a2 2 0 0 1 2 2v.739A8.991 8.991 0 0 1-282.6-52.2l.627-.362a2 2 0 0 1 2.732.733l1.5 2.6a2 2 0 0 1-.733 2.732l-.6.345A9.084 9.084 0 0 1-279-45a9.1 9.1 0 0 1-.059 1.032l.641.37a2 2 0 0 1 .733 2.732l-1.5 2.6a2 2 0 0 1-2.732.732l-.585-.338a8.993 8.993 0 0 1-1.921 1.135V-36a2 2 0 0 1-2 2z" transform="rotate(-180 -137.978 -16.496)"/>
                <path d="M-286.423-36v-.739a2 2 0 0 1 1.204-1.835 7 7 0 0 0 1.494-.882 2 2 0 0 1 2.223-.149l.585.338 1.5-2.598-.641-.37a2 2 0 0 1-.988-1.96 7.125 7.125 0 0 0-.011-1.707 2 2 0 0 1 .984-1.987l.598-.345-1.5-2.599-.626.362a2 2 0 0 1-2.202-.132 7 7 0 0 0-1.416-.823 2 2 0 0 1-1.204-1.835V-54h-3v.674a2 2 0 0 1-1.24 1.85 6.99 6.99 0 0 0-1.508.854 2 2 0 0 1-2.194.126l-.641-.37-1.499 2.599.585.338a2 2 0 0 1 .982 1.995 7.115 7.115 0 0 0-.013 1.772 2 2 0 0 1-.986 1.968l-.626.362 1.499 2.598.599-.346a2 2 0 0 1 2.216.143 6.99 6.99 0 0 0 1.587.913 2 2 0 0 1 1.238 1.85l.001.674h3m0 2h-3a2 2 0 0 1-2-2v-.674a8.989 8.989 0 0 1-2.042-1.174l-.598.346a2 2 0 0 1-2.733-.732l-1.5-2.598a2 2 0 0 1 .733-2.732l.626-.362a9.085 9.085 0 0 1 .016-2.271l-.585-.338a2 2 0 0 1-.732-2.733l1.5-2.597a2.001 2.001 0 0 1 2.732-.733l.641.37a8.984 8.984 0 0 1 1.941-1.098V-54a2 2 0 0 1 2.001-2h3a2 2 0 0 1 2 2v.739c.65.282 1.26.638 1.82 1.059l.628-.362a2.001 2.001 0 0 1 2.732.732l1.5 2.597c.552.957.224 2.18-.732 2.733l-.599.345a9.084 9.084 0 0 1 .015 2.19l.641.37a2.001 2.001 0 0 1 .733 2.732l-1.5 2.598a2 2 0 0 1-2.733.732l-.585-.338a8.993 8.993 0 0 1-1.92 1.134V-36a2 2 0 0 1-2 2z" style="fill:#fff;stroke:none" transform="rotate(-180 -137.978 -16.496)"/>
            </g>
            <g id="Ellipse_23" data-name="Ellipse 23" transform="translate(7 7)" style="stroke:#fff;stroke-width:2px;fill:none">
                <circle class="cls-6" cx="5" cy="5" r="5"/>
                <circle class="cls-3" cx="5" cy="5" r="4"/>
            </g>
        </g>
    </g>
</svg>
