<svg xmlns="http://www.w3.org/2000/svg" width="18" height="18" viewBox="0 0 18 18">
    <g data-name="Group 1728" transform="translate(2.27 .597)">
        <circle data-name="Ellipse 1587" cx="2.5" cy="2.5" r="2.5" transform="translate(4.229 11.403)" style="fill:#ff7e3b"/>
        <path data-name="Path 527" d="M189.028 40.47c-.875-1-.7-2.9-.737-3.366v-1.178a5.44 5.44 0 0 0-10.87 0V37s.26 2.346-.753 3.488a1.124 1.124 0 0 0-.334.8 1.1 1.1 0 0 0 1.087 1.115h10.87a1.1 1.1 0 0 0 1.087-1.115 1.122 1.122 0 0 0-.35-.818z" transform="translate(-176.046 -28.781)" style="fill:#ffb73b"/>
        <path data-name="Path 2725" d="M6.642 0v3.229" transform="translate(.168 1)" style="stroke:#ffb73b;stroke-linecap:round;stroke-width:2px;fill:#ffb73b"/>
    </g>
</svg>
