<svg xmlns="http://www.w3.org/2000/svg" width="18" height="18" viewBox="0 0 18 18">
    <defs>
        <clipPath id="clip-path">
            <path id="Rectangle_55" data-name="Rectangle 55" transform="translate(44 184)" style="fill:rgba(255,0,0,.2)" d="M0 0h18v18H0z"/>
        </clipPath>
        <style>
            .cls-5{fill:#569aff}
        </style>
    </defs>
    <g id="icon_plane" transform="translate(-44 -184)">
        <path id="Rectangle_55-2" data-name="Rectangle 55" transform="translate(44 184)" style="fill:none" d="M0 0h18v18H0z"/>
        <g id="Mask_Group_754" data-name="Mask Group 754" style="clip-path:url(#clip-path)">
            <g id="Group_16536" data-name="Group 16536" transform="translate(-256.756 59.558)">
                <path id="Path_21351" data-name="Path 21351" d="M8.629.115.73 3.745a1.253 1.253 0 0 0 .524 2.391h15.795a1.253 1.253 0 0 0 .523-2.391L9.675.115a1.25 1.25 0 0 0-1.046 0z" transform="rotate(45 4.586 432.536)" style="fill:#1d68dc"/>
                <path id="Path_21353" data-name="Path 21353" class="cls-5" d="M2.309 0C3.017 0 4.025 1.3 4.5 3.7a35.172 35.172 0 0 1 0 4.749c0 4.669-.981 8.453-2.192 8.453S.117 13.122.117 8.453a28.5 28.5 0 0 1 0-4.749C.435 1.644 1.511 0 2.309 0z" transform="rotate(45 6.608 443.05)"/>
                <path id="Path_21352" data-name="Path 21352" class="cls-5" d="M3.425.1.76 1.758c-1.216.7-.868 1.889.493 1.889h5.33c1.363 0 1.612-1.243.493-1.889L4.412.1a1.251 1.251 0 0 0-.987 0z" transform="rotate(45 -10.105 433.85)"/>
                <path id="Vector" d="M1.339 0A8.172 8.172 0 0 0 0 .553l2.123 2.138a8.555 8.555 0 0 0 .551-1.347z" transform="translate(312.612 128.275)" style="fill:#fff"/>
            </g>
        </g>
    </g>
</svg>
