<svg xmlns="http://www.w3.org/2000/svg" width="50" height="50" viewBox="0 0 50 50">
    <defs>
        <clipPath id="clip-path">
            <path id="Rectangle_12034" data-name="Rectangle 12034" transform="translate(168 422)" style="fill:red;opacity:.1" d="M0 0h50v50H0z"/>
        </clipPath>
        <style>
            .cls-4{fill:#aeaeae}.cls-5{fill:#fff}
        </style>
    </defs>
    <g id="Mask_Group_761" data-name="Mask Group 761" transform="translate(-168 -422)" style="clip-path:url(#clip-path)">
        <g id="Group_16605" data-name="Group 16605" transform="translate(-75)">
            <path id="Path_21423" data-name="Path 21423" d="M9 2h34a3 3 0 0 1 3 3v28L33 46H9a3 3 0 0 1-3-3V5a3 3 0 0 1 3-3z" transform="translate(242 424)" style="fill:#cacaca"/>
            <path id="Path_21424" data-name="Path 21424" class="cls-4" d="M33 46V36a3 3 0 0 1 3-3h10z" transform="translate(242 424)"/>
            <rect id="Rectangle_12029" data-name="Rectangle 12029" class="cls-5" width="21" height="4" rx="2" transform="translate(261 438)"/>
            <rect id="Rectangle_12030" data-name="Rectangle 12030" class="cls-5" width="14" height="4" rx="2" transform="translate(261 448)"/>
            <rect id="Rectangle_12031" data-name="Rectangle 12031" class="cls-5" width="4" height="4" rx="1" transform="translate(255 438)"/>
            <rect id="Rectangle_12032" data-name="Rectangle 12032" class="cls-5" width="4" height="4" rx="1" transform="translate(255 448)"/>
            <rect id="Rectangle_12033" data-name="Rectangle 12033" class="cls-4" width="29" height="8" rx="2" transform="translate(254 424)"/>
        </g>
    </g>
</svg>
