<svg xmlns="http://www.w3.org/2000/svg" width="40" height="40">
    <defs>
        <style>
            .cls-6{fill:none;stroke:#cacaca;stroke-linecap:round;stroke-width:2px}
        </style>
    </defs>
    <g id="ic_x40_notice" transform="translate(-171 -603)">
        <g id="ic_x40_notice-2" data-name="ic_x40_notice">
            <rect id="사각형_2678" data-name="사각형 2678" width="6" height="6" rx="3" transform="translate(188 632)" style="fill:#e83667"/>
            <path id="합치기_36" data-name="합치기 36" d="M-8521 23a1 1 0 0 1-1-1v-1a3 3 0 0 1 2-2.83V11a11 11 0 0 1 11-11 11 11 0 0 1 11 11v7.171a3 3 0 0 1 2 2.83v1a1 1 0 0 1-1 1z" transform="translate(8700 612)" style="fill:#6531ce"/>
            <rect id="사각형_2676" data-name="사각형 2676" width="6" height="6" rx="3" transform="translate(188 608)" style="fill:#260b5b"/>
            <path id="사각형_2681" data-name="사각형 2681" d="M0 0h8a1 1 0 0 1 1 1 1 1 0 0 1-1 1H0V0z" transform="translate(180 628)" style="fill:#8f63e6"/>
            <path id="패스_2615" data-name="패스 2615" class="cls-6" d="M8700.762 611.7a10.03 10.03 0 0 0-3.726 6.863" transform="translate(-8522 .8)"/>
            <path id="패스_2616" data-name="패스 2616" class="cls-6" d="M8697.035 611.7a10.03 10.03 0 0 1 3.726 6.863" transform="translate(-8494.999 .8)"/>
        </g>
    </g>
</svg>
