<svg xmlns="http://www.w3.org/2000/svg" xmlns:xlink="http://www.w3.org/1999/xlink" width="32" height="32" viewBox="0 0 32 32">
  <defs>
    <style>
      .cls-1 {
        fill: none;
      }

      .cls-2 {
        clip-path: url(#clip-path);
      }

      .cls-3 {
        opacity: 0;
      }

      .cls-4 {
        fill: #569aff;
      }

      .cls-5 {
        fill: #85b5ff;
      }

      .cls-6 {
        fill: #e83667;
      }

      .cls-7 {
        fill: #fff;
      }
    </style>
    <clipPath id="clip-path">
      <rect id="Rectangle_11562" data-name="Rectangle 11562" class="cls-1" width="32" height="32"/>
    </clipPath>
  </defs>
  <g id="Group_16182" data-name="Group 16182" class="cls-2">
    <g id="Group_16181" data-name="Group 16181">
      <g id="Group_16180" data-name="Group 16180" class="cls-2">
        <g id="Group_16179" data-name="Group 16179" class="cls-3">
          <g id="Group_16178" data-name="Group 16178">
            <g id="Group_16177" data-name="Group 16177" class="cls-2">
              <rect id="Rectangle_11559" data-name="Rectangle 11559" class="cls-4" width="32" height="32"/>
            </g>
          </g>
        </g>
        <path id="Path_18129" data-name="Path 18129" class="cls-5" d="M26,25H10a3,3,0,0,1-3-3V10a3,3,0,0,1,3-3H26a3,3,0,0,1,3,3V22a3,3,0,0,1-3,3"/>
        <path id="Path_18130" data-name="Path 18130" class="cls-4" d="M22,25H6a3,3,0,0,1-3-3V10A3,3,0,0,1,6,7H22a3,3,0,0,1,3,3V22a3,3,0,0,1-3,3"/>
        <path id="Path_18131" data-name="Path 18131" class="cls-6" d="M27.833,2.042a2,2,0,1,1-2,2,2,2,0,0,1,2-2"/>
        <path id="Path_18132" data-name="Path 18132" class="cls-4" d="M16,26.544V24H12l3.146,2.866A.508.508,0,0,0,16,26.544"/>
        <path id="Path_18133" data-name="Path 18133" class="cls-7" d="M17,17H10a1,1,0,0,1,0-2h7a1,1,0,0,1,0,2"/>
      </g>
    </g>
  </g>
</svg>
