<svg xmlns="http://www.w3.org/2000/svg" width="40" height="18" viewBox="0 0 40 18"><defs><style>.a{fill:#f9f6fe;}.b{fill:#6531ce;}</style></defs><rect class="a" width="40" height="18" rx="6"/><path class="b" d="M2.784-6.6H.38V-7.779h6.2V-6.6h-2.4V0H2.784ZM14.062-3.89A4.626,4.626,0,0,1,13.6-1.757,3.315,3.315,0,0,1,12.324-.372a3.537,3.537,0,0,1-1.833.479,3.534,3.534,0,0,1-1.836-.48A3.317,3.317,0,0,1,7.382-1.759,4.63,4.63,0,0,1,6.921-3.89a4.655,4.655,0,0,1,.46-2.135A3.293,3.293,0,0,1,8.651-7.407a3.552,3.552,0,0,1,1.84-.479,3.537,3.537,0,0,1,1.833.479A3.315,3.315,0,0,1,13.6-6.022,4.626,4.626,0,0,1,14.062-3.89Zm-1.409,0a3.679,3.679,0,0,0-.272-1.487,2.066,2.066,0,0,0-.762-.934,2.03,2.03,0,0,0-1.128-.317,2.027,2.027,0,0,0-1.13.317,2.083,2.083,0,0,0-.762.934A3.657,3.657,0,0,0,8.326-3.89,3.657,3.657,0,0,0,8.6-2.4a2.083,2.083,0,0,0,.762.934,2.027,2.027,0,0,0,1.13.317,2.03,2.03,0,0,0,1.128-.317,2.066,2.066,0,0,0,.762-.934A3.679,3.679,0,0,0,12.653-3.89ZM18-7.779a3.135,3.135,0,0,1,1.491.329,2.224,2.224,0,0,1,.934.912A2.749,2.749,0,0,1,20.74-5.2a2.733,2.733,0,0,1-.319,1.337,2.22,2.22,0,0,1-.942.908,3.194,3.194,0,0,1-1.5.327h-1.5V0H15.088V-7.779Zm-.205,4a1.813,1.813,0,0,0,.849-.179,1.156,1.156,0,0,0,.505-.5,1.6,1.6,0,0,0,.165-.744,1.381,1.381,0,0,0-.382-1.027,1.565,1.565,0,0,0-1.145-.378h-1.3v2.826ZM28.933-2.6h1.022v1.151H28.933V0H27.6V-1.447H23.824V-2.564l3.362-5.215h1.747Zm-1.4-3.593L25.26-2.659V-2.6h2.355V-6.191Z" transform="translate(6 13)"/></svg>