<svg id="ic_x72_notice" xmlns="http://www.w3.org/2000/svg" width="33.196" height="33.196" viewBox="0 0 33.196 33.196">
  <defs>
    <style>
      .cls-1 {
        fill: #fff;
        stroke: #707070;
        opacity: 0;
      }

      .cls-2 {
        fill: #e83667;
      }

      .cls-3 {
        fill: #6531ce;
      }

      .cls-4 {
        fill: #260b5b;
      }

      .cls-5 {
        fill: #8f63e6;
      }

      .cls-6, .cls-8 {
        fill: none;
      }

      .cls-6 {
        stroke: #cacaca;
        stroke-linecap: round;
        stroke-width: 2px;
      }

      .cls-7 {
        stroke: none;
      }
    </style>
  </defs>
  <g id="container" class="cls-1" transform="translate(0 0)">
    <rect class="cls-7" width="33.196" height="33.196"/>
    <rect class="cls-8" x="0.5" y="0.5" width="32.196" height="32.196"/>
  </g>
  <g id="ic_x40_notice" transform="translate(4.15 4.15)">
    <rect id="Rectangle_2678" data-name="Rectangle 2678" class="cls-2" width="4.611" height="4.611" rx="2.305" transform="translate(10.143 19.826)"/>
    <path id="Union_36" data-name="Union 36" class="cls-3" d="M1,19.18a1,1,0,0,1-1-1v-.149A3,3,0,0,1,1.383,15.5V9.221a9.221,9.221,0,1,1,18.442,0V15.5a3,3,0,0,1,1.383,2.528v.149a1,1,0,0,1-1,1Z" transform="translate(1.844 3.228)"/>
    <rect id="Rectangle_2676" data-name="Rectangle 2676" class="cls-4" width="4.611" height="4.611" rx="2.305" transform="translate(10.143)"/>
    <path id="Rectangle_2681" data-name="Rectangle 2681" class="cls-5" d="M0,0H6.685a.692.692,0,0,1,.692.692v0a.692.692,0,0,1-.692.692H0a0,0,0,0,1,0,0V0A0,0,0,0,1,0,0Z" transform="translate(3.227 16.598)"/>
    <path id="Path_2615" data-name="Path 2615" class="cls-6" d="M8699.8,611.7a8.223,8.223,0,0,0-2.768,5.533" transform="translate(-8697.035 -608.011)"/>
    <path id="Path_2616" data-name="Path 2616" class="cls-6" d="M8697.035,611.7a8.211,8.211,0,0,1,2.767,5.533" transform="translate(-8675.365 -608.011)"/>
  </g>
</svg>
