<svg xmlns="http://www.w3.org/2000/svg" width="50" height="50" viewBox="0 0 50 50">
    <defs>
        <clipPath id="clip-path">
            <path id="Rectangle_11972" data-name="Rectangle 11972" transform="translate(1065 97)" style="opacity:.14;fill:red" d="M0 0h50v50H0z"/>
        </clipPath>
        <style>
            .cls-5{fill:#cacaca}.cls-7{fill:#fff}
        </style>
    </defs>
    <g id="Group_16570" data-name="Group 16570" transform="translate(-1066 -98)">
        <g id="Mask_Group_758" data-name="Mask Group 758" transform="translate(1 1)" style="clip-path:url(#clip-path)">
            <rect id="Rectangle_11962" data-name="Rectangle 11962" width="5.915" height="16.758" rx="2.957" transform="rotate(-45 712.42 -1258.503)" style="fill:#aeaeae"/>
            <path id="Rectangle_11961" data-name="Rectangle 11961" class="cls-5" d="M0 0h9.858v2.915a3 3 0 0 1-3 3H3a3 3 0 0 1-3-3V0z" transform="rotate(-45 711.145 -1255.187)"/>
            <circle id="Ellipse_1774" data-name="Ellipse 1774" class="cls-5" cx="20.5" cy="20.5" r="20.5" transform="translate(1066 98)"/>
            <circle id="Ellipse_1775" data-name="Ellipse 1775" cx="15.5" cy="15.5" r="15.5" transform="translate(1071 103)" style="fill:#eaeaea"/>
            <g id="Group_16572" data-name="Group 16572">
                <circle id="Ellipse_1776" data-name="Ellipse 1776" class="cls-7" cx="2" cy="2" r="2" transform="translate(1078 117)"/>
                <circle id="Ellipse_1777" data-name="Ellipse 1777" class="cls-7" cx="2" cy="2" r="2" transform="translate(1085 117)"/>
                <circle id="Ellipse_1778" data-name="Ellipse 1778" class="cls-7" cx="2" cy="2" r="2" transform="translate(1092 117)"/>
            </g>
        </g>
    </g>
</svg>
