<svg xmlns="http://www.w3.org/2000/svg" width="50" height="50" viewBox="0 0 50 50">
    <defs>
        <style>
            .cls-4{fill:#fff}.cls-2{fill:#aeaeae}
        </style>
    </defs>
    <g id="ic_x50_rentcar" transform="translate(-505 -468)">
        <g id="그룹_15557" data-name="그룹 15557" transform="translate(505 473)">
            <rect id="사각형_11986" data-name="사각형 11986" class="cls-2" width="10" height="6" rx="3" transform="translate(2 11.455)"/>
            <rect id="사각형_11987" data-name="사각형 11987" class="cls-2" width="10" height="6" rx="3" transform="translate(38 11.455)"/>
            <path id="패스_17532" data-name="패스 17532" class="cls-2" d="M6.091 13H4.727A2.727 2.727 0 0 0 2 15.727v5.909a2.727 2.727 0 0 0 2.727 2.727h1.364a2.727 2.727 0 0 0 2.727-2.727v-5.909A2.727 2.727 0 0 0 6.091 13" transform="translate(2.545 16.546)"/>
            <path id="패스_17533" data-name="패스 17533" class="cls-2" d="M20.409 12A3.41 3.41 0 0 0 17 15.409v7.5a2.727 2.727 0 0 0 2.727 2.727h1.364a2.727 2.727 0 0 0 2.727-2.727v-7.5A3.41 3.41 0 0 0 20.409 12" transform="translate(21.637 15.273)"/>
            <path id="패스_17536" data-name="패스 17536" d="M44.4 17.9a18.193 18.193 0 0 1-4.236-6.723l-1.927-5.454A7.994 7.994 0 0 0 30.6 0H16.857a7.994 7.994 0 0 0-7.636 5.723L7.289 11.18a18.193 18.193 0 0 1-4.237 6.72A7.147 7.147 0 0 0 1 22.952v9.921a2.3 2.3 0 0 0 2.245 2.355h40.967a2.3 2.3 0 0 0 2.243-2.355v-9.921A7.145 7.145 0 0 0 44.4 17.9M16.857 4.8H32.6a1.136 1.136 0 0 1 1.091.655l3.07 10.436h-26.4l3.4-10.436a1.131 1.131 0 0 1 1.096-.655" transform="translate(1.273)" style="fill:#cacaca"/>
            <path id="패스_17537" data-name="패스 17537" class="cls-4" d="M6.409 9.5A3.409 3.409 0 1 1 3 12.909 3.41 3.41 0 0 1 6.409 9.5" transform="translate(3.818 12.091)"/>
            <path id="패스_17538" data-name="패스 17538" class="cls-4" d="M19.409 9.5A3.409 3.409 0 1 1 16 12.909 3.41 3.41 0 0 1 19.409 9.5" transform="translate(20.364 12.091)"/>
            <path id="패스_21400" data-name="패스 21400" d="M16.857 4.8H32.6a1.136 1.136 0 0 1 1.091.655l3.07 10.436h-26.4l3.4-10.436a1.131 1.131 0 0 1 1.096-.655" transform="translate(1.273)" style="fill:#eaeaea"/>
        </g>
    </g>
</svg>
