<svg xmlns="http://www.w3.org/2000/svg" width="96" height="96" viewBox="0 0 96 96">
  <defs>
    <style>
      .cls-1 {
        fill: #d5e0ff;
      }

      .cls-1, .cls-2, .cls-7 {
        opacity: 0;
      }

      .cls-2 {
        fill: #ffd2d2;
      }

      .cls-3 {
        fill: #1d68dc;
      }

      .cls-4, .cls-7 {
        fill: #fff;
      }

      .cls-5 {
        fill: #cde0ff;
      }

      .cls-6 {
        fill: #569aff;
      }

      .cls-7 {
        stroke: #707070;
      }

      .cls-8 {
        fill: #18225c;
      }

      .cls-9 {
        fill: #e83667;
      }

      .cls-10 {
        stroke: none;
      }

      .cls-11 {
        fill: none;
      }
    </style>
  </defs>
  <g id="ic_x96_complete_airplane" transform="translate(-1002 -183)">
    <rect id="Rectangle_11214" data-name="Rectangle 11214" class="cls-1" width="96" height="96" transform="translate(1002 183)"/>
    <rect id="Rectangle_11215" data-name="Rectangle 11215" class="cls-2" width="80" height="80" transform="translate(1010 191)"/>
    <path id="Path_17581" data-name="Path 17581" class="cls-3" d="M60.887,58.969,6.33,44.341a6,6,0,0,1-1.941-.911,6.06,6.06,0,0,0,1.668-4.185A6.088,6.088,0,0,0,2.886,33.9L10.777,4.469A6.037,6.037,0,0,1,18.163.206L72.721,14.834a6.037,6.037,0,0,1,4.263,7.386l-8.71,32.486a6.038,6.038,0,0,1-7.386,4.263" transform="translate(1010.015 198.537)"/>
    <path id="Path_17582" data-name="Path 17582" class="cls-4" d="M62.507,62.008H6.03A6.037,6.037,0,0,1,0,55.978V44.434a5.277,5.277,0,0,0,5.272-5.271A5.277,5.277,0,0,0,0,33.891V22.349a6.037,6.037,0,0,1,6.03-6.03H62.507a6.036,6.036,0,0,1,6.03,6.03V33.891a5.272,5.272,0,0,0,0,10.543V55.978a6.036,6.036,0,0,1-6.03,6.03" transform="translate(1010 198.618)"/>
    <path id="Path_17583" data-name="Path 17583" class="cls-5" d="M68.254,41.236A11.861,11.861,0,1,1,56.393,53.1,11.861,11.861,0,0,1,68.254,41.236" transform="translate(1009.885 198.504)"/>
    <path id="Path_17584" data-name="Path 17584" class="cls-6" d="M67.131,56.286a1.256,1.256,0,0,1-.919-.4l-2.534-2.722a1.256,1.256,0,1,1,1.839-1.712l1.615,1.735,3.227-3.466A1.256,1.256,0,0,1,72.2,51.432L68.05,55.886A1.256,1.256,0,0,1,67.131,56.286Z" transform="translate(1010.202 198.798)"/>
    <g id="ic_x24_doc_airplane" transform="translate(527.2 -242.2)">
      <g id="Rectangle_11232" data-name="Rectangle 11232" class="cls-7" transform="translate(505 468)">
        <rect class="cls-10" width="24" height="24"/>
        <rect class="cls-11" x="0.5" y="0.5" width="23" height="23"/>
      </g>
      <g id="Group_15558" data-name="Group 15558" transform="translate(507 470)">
        <path id="Path_17512" data-name="Path 17512" class="cls-8" d="M6.951,12a.155.155,0,0,0-.005-.088.141.141,0,0,0-.127-.094L.912,11.6a.125.125,0,0,0-.057.013.116.116,0,0,0-.046.036l-.745.769a.147.147,0,0,0-.041.063.141.141,0,0,0,.038.137.144.144,0,0,0,.058.04l3.1,1.021a1.069,1.069,0,0,1,.541.411,1.152,1.152,0,0,1,.209.664.148.148,0,0,0,.024.082.138.138,0,0,0,.063.054.164.164,0,0,0,.054.008h.028a.144.144,0,0,0,.074-.041l2.7-2.79A.157.157,0,0,0,6.951,12"/>
        <path id="Path_17513" data-name="Path 17513" class="cls-8" d="M7.969,13.008a.149.149,0,0,0-.026-.08.138.138,0,0,0-.065-.052A.14.14,0,0,0,7.8,12.87a.151.151,0,0,0-.073.043L5.024,15.7a.154.154,0,0,0-.039.076.146.146,0,0,0,.008.085.133.133,0,0,0,.054.069.137.137,0,0,0,.08.024,1.061,1.061,0,0,1,.643.211,1.108,1.108,0,0,1,.392.563l.991,3.209A.142.142,0,0,0,7.192,20a.137.137,0,0,0,.062.032.145.145,0,0,0,.029,0,.134.134,0,0,0,.04-.006.158.158,0,0,0,.062-.037l.744-.769a.124.124,0,0,0,.034-.048.137.137,0,0,0,.013-.059Z"/>
        <path id="Path_17514" data-name="Path 17514" class="cls-6" d="M19.329.854a1.707,1.707,0,0,0-.2-.306,2.174,2.174,0,0,0-.305-.216,3.893,3.893,0,0,0-4.1.833L11.74,4.8l-10.1-1.1a.431.431,0,0,0-.188.024.446.446,0,0,0-.161.1L.124,5.041A.454.454,0,0,0,0,5.421a.435.435,0,0,0,.229.324l7.751,2.84a1.084,1.084,0,0,1,.376.33L2.688,15.822a1.1,1.1,0,0,0-.246.79,1.291,1.291,0,0,0,.362.794,1.214,1.214,0,0,0,.773.373,1.02,1.02,0,0,0,.764-.254l6.679-5.859a1.112,1.112,0,0,1,.318.388l2.746,8.005a.416.416,0,0,0,.512.22.44.44,0,0,0,.169-.106l1.168-1.207a.466.466,0,0,0,.1-.166.478.478,0,0,0,.023-.195L15,8.175l3.521-3.09A4.228,4.228,0,0,0,19.329.854"/>
        <path id="Path_17515" data-name="Path 17515" class="cls-4" d="M16.129,1.412a1.693,1.693,0,0,1,1.926-.181.98.98,0,0,1,.419.433A1.837,1.837,0,0,1,18.3,3.652Z"/>
        <path id="Path_17516" data-name="Path 17516" class="cls-8" d="M11.639.439a1.5,1.5,0,1,1-2.121,0,1.5,1.5,0,0,1,2.121,0"/>
        <path id="Path_17517" data-name="Path 17517" class="cls-9" d="M19.639,8.439a1.5,1.5,0,1,1-2.121,0,1.5,1.5,0,0,1,2.121,0"/>
      </g>
    </g>
  </g>
</svg>
