<svg xmlns="http://www.w3.org/2000/svg" xmlns:xlink="http://www.w3.org/1999/xlink" width="8" height="18" viewBox="0 0 8 18"><defs><style>.a,.c{fill:#f9f6fe;}.b{clip-path:url(#a);}.d,.e{stroke:none;}.e{fill:#e3d5ff;}</style><clipPath id="a"><rect class="a" width="8" height="18" transform="translate(6699 966)"/></clipPath></defs><g class="b" transform="translate(-6699 -966)"><g class="c" transform="translate(11065 -524.999)"><path class="d" d="M -4370.00048828125 1576.4990234375 L -4681 1576.4990234375 C -4684.07177734375 1576.4990234375 -4686.95947265625 1575.302978515625 -4689.1318359375 1573.131103515625 C -4691.30419921875 1570.95947265625 -4692.50048828125 1568.07177734375 -4692.50048828125 1564.999633789062 L -4692.50048828125 1474.9990234375 C -4692.50048828125 1471.927001953125 -4691.30419921875 1469.039306640625 -4689.1318359375 1466.86767578125 C -4686.95947265625 1464.69580078125 -4684.07177734375 1463.499755859375 -4681 1463.499755859375 L -4370.00048828125 1463.499755859375 C -4366.9287109375 1463.499755859375 -4364.041015625 1464.69580078125 -4361.86865234375 1466.86767578125 C -4359.6962890625 1469.039184570312 -4358.5 1471.927001953125 -4358.5 1474.9990234375 L -4358.5 1477.519165039062 C -4361.85107421875 1477.776245117188 -4364.49951171875 1480.5849609375 -4364.49951171875 1483.999633789062 C -4364.49951171875 1487.415283203125 -4361.85107421875 1490.22412109375 -4358.5 1490.480224609375 L -4358.5 1495.519287109375 C -4361.85107421875 1495.7763671875 -4364.49951171875 1498.585083007812 -4364.49951171875 1501.999755859375 C -4364.49951171875 1505.41552734375 -4361.85107421875 1508.224365234375 -4358.5 1508.48046875 L -4358.5 1513.519409179688 C -4361.85107421875 1513.776489257812 -4364.49951171875 1516.585205078125 -4364.49951171875 1519.999877929688 C -4364.49951171875 1523.415649414062 -4361.85107421875 1526.224487304688 -4358.5 1526.480590820312 L -4358.5 1531.518432617188 C -4361.85107421875 1531.775512695312 -4364.49951171875 1534.584838867188 -4364.49951171875 1538.000122070312 C -4364.49951171875 1541.415893554688 -4361.85107421875 1544.224609375 -4358.5 1544.480712890625 L -4358.5 1549.5185546875 C -4361.85107421875 1549.775634765625 -4364.49951171875 1552.5849609375 -4364.49951171875 1556.000244140625 C -4364.49951171875 1559.416015625 -4361.85107421875 1562.224731445312 -4358.5 1562.480834960938 L -4358.5 1564.999633789062 C -4358.5 1568.07177734375 -4359.6962890625 1570.959594726562 -4361.86865234375 1573.130981445312 C -4364.041015625 1575.302978515625 -4366.9287109375 1576.4990234375 -4370.00048828125 1576.4990234375 Z"/><path class="e" d="M -4370.00048828125 1575.9990234375 C -4367.0625 1575.9990234375 -4364.2998046875 1574.85498046875 -4362.22216796875 1572.77734375 C -4360.14453125 1570.700317382812 -4359 1567.938232421875 -4359 1564.999633789062 L -4359 1562.9287109375 C -4362.3876953125 1562.442016601562 -4364.99951171875 1559.520385742188 -4364.99951171875 1556.000244140625 C -4364.99951171875 1552.48046875 -4362.38720703125 1549.558471679688 -4359 1549.07080078125 L -4359 1544.928588867188 C -4362.3876953125 1544.44189453125 -4364.99951171875 1541.520263671875 -4364.99951171875 1538.000122070312 C -4364.99951171875 1534.48046875 -4362.38720703125 1531.558349609375 -4359 1531.07080078125 L -4359 1526.928466796875 C -4362.3876953125 1526.441772460938 -4364.99951171875 1523.520141601562 -4364.99951171875 1519.999877929688 C -4364.99951171875 1516.480712890625 -4362.38720703125 1513.559204101562 -4359 1513.07177734375 L -4359 1508.928344726562 C -4362.3876953125 1508.441650390625 -4364.99951171875 1505.52001953125 -4364.99951171875 1501.999755859375 C -4364.99951171875 1498.480590820312 -4362.38720703125 1495.55908203125 -4359 1495.071655273438 L -4359 1490.928100585938 C -4362.3876953125 1490.44140625 -4364.99951171875 1487.519775390625 -4364.99951171875 1483.999633789062 C -4364.99951171875 1480.48046875 -4362.38720703125 1477.558959960938 -4359 1477.071411132812 L -4359 1474.9990234375 C -4359 1472.060546875 -4360.14453125 1469.29833984375 -4362.22216796875 1467.22119140625 C -4364.2998046875 1465.143798828125 -4367.0625 1463.999755859375 -4370.00048828125 1463.999755859375 L -4681 1463.999755859375 C -4683.93798828125 1463.999755859375 -4686.70068359375 1465.143798828125 -4688.7783203125 1467.221313476562 C -4690.85595703125 1469.298461914062 -4692.00048828125 1472.060546875 -4692.00048828125 1474.9990234375 L -4692.00048828125 1564.999633789062 C -4692.00048828125 1567.938110351562 -4690.85595703125 1570.700317382812 -4688.7783203125 1572.777465820312 C -4686.70068359375 1574.85498046875 -4683.9384765625 1575.9990234375 -4681 1575.9990234375 L -4370.00048828125 1575.9990234375 M -4370.00048828125 1576.9990234375 L -4681 1576.9990234375 C -4684.205078125 1576.9990234375 -4687.21875 1575.7509765625 -4689.4853515625 1573.484619140625 C -4691.75244140625 1571.218383789062 -4693.00048828125 1568.205078125 -4693.00048828125 1564.999633789062 L -4693.00048828125 1474.9990234375 C -4693.00048828125 1471.793701171875 -4691.75244140625 1468.780395507812 -4689.4853515625 1466.514038085938 C -4687.21875 1464.247802734375 -4684.205078125 1462.999755859375 -4681 1462.999755859375 L -4370.00048828125 1462.999755859375 C -4366.79541015625 1462.999755859375 -4363.78173828125 1464.247802734375 -4361.51513671875 1466.514038085938 C -4359.248046875 1468.780395507812 -4358 1471.793701171875 -4358 1474.9990234375 L -4358 1478 C -4361.3095703125 1478.0009765625 -4363.99951171875 1480.692016601562 -4363.99951171875 1483.999633789062 C -4363.99951171875 1487.307861328125 -4361.30810546875 1489.999267578125 -4358 1489.999267578125 L -4358 1496.000122070312 C -4361.3095703125 1496.001098632812 -4363.99951171875 1498.692138671875 -4363.99951171875 1501.999755859375 C -4363.99951171875 1505.307983398438 -4361.30810546875 1507.99951171875 -4358 1507.99951171875 L -4358 1514.000244140625 C -4361.3095703125 1514.001220703125 -4363.99951171875 1516.692260742188 -4363.99951171875 1519.999877929688 C -4363.99951171875 1523.30810546875 -4361.30810546875 1525.999633789062 -4358 1525.999633789062 L -4358 1531.999267578125 C -4361.3095703125 1532.000244140625 -4363.99951171875 1534.691772460938 -4363.99951171875 1538.000122070312 C -4363.99951171875 1541.308349609375 -4361.30810546875 1543.999755859375 -4358 1543.999755859375 L -4358 1549.999389648438 C -4361.3095703125 1550.000366210938 -4363.99951171875 1552.69189453125 -4363.99951171875 1556.000244140625 C -4363.99951171875 1559.308471679688 -4361.30810546875 1561.999877929688 -4358 1561.999877929688 L -4358 1564.999633789062 C -4358 1568.205078125 -4359.248046875 1571.218383789062 -4361.51513671875 1573.484619140625 C -4363.78173828125 1575.7509765625 -4366.79541015625 1576.9990234375 -4370.00048828125 1576.9990234375 Z"/></g></g></svg>