<svg xmlns="http://www.w3.org/2000/svg" xmlns:xlink="http://www.w3.org/1999/xlink" width="36" height="24" viewBox="0 0 36 24">
  <defs>
    <style>
      .cls-1 {
        fill: none;
      }

      .cls-2 {
        clip-path: url(#clip-path);
      }

      .cls-3 {
        fill: #fff;
        stroke: #707070;
        opacity: 0;
      }

      .cls-4 {
        fill: #8f63e6;
      }

      .cls-5 {
        clip-path: url(#clip-path-2);
      }

      .cls-6 {
        stroke: none;
      }
    </style>
    <clipPath id="clip-path">
      <rect class="cls-1" width="24" height="12"/>
    </clipPath>
    <clipPath id="clip-path-2">
      <rect class="cls-1" width="36" height="12"/>
    </clipPath>
  </defs>
  <g id="ic_x12_star_5" transform="translate(-322 -383)">
    <g id="ic_x12_star" class="cls-2" transform="translate(328 395)">
      <g id="ic_x12_star-2" data-name="ic_x12_star" transform="translate(-23 -383)">
        <g id="사각형_2914" data-name="사각형 2914" class="cls-3" transform="translate(23 383)">
          <rect class="cls-6" width="12" height="12"/>
          <rect class="cls-1" x="0.5" y="0.5" width="11" height="11"/>
        </g>
        <path id="Star_1" data-name="Star 1" class="cls-4" d="M4.543,1.022a.5.5,0,0,1,.913,0l.93,2.08a.5.5,0,0,0,.391.292l2.21.292a.5.5,0,0,1,.286.852L7.615,6.171a.5.5,0,0,0-.141.446L7.9,8.936a.5.5,0,0,1-.742.522l-1.9-1.1a.5.5,0,0,0-.5,0l-1.9,1.1A.5.5,0,0,1,2.1,8.936l.422-2.319a.5.5,0,0,0-.141-.446L.728,4.537a.5.5,0,0,1,.286-.852l2.21-.292A.5.5,0,0,0,3.614,3.1Z" transform="translate(24 384)"/>
      </g>
      <g id="ic_x12_star-3" data-name="ic_x12_star" transform="translate(-11 -383)">
        <g id="사각형_2914-2" data-name="사각형 2914" class="cls-3" transform="translate(23 383)">
          <rect class="cls-6" width="12" height="12"/>
          <rect class="cls-1" x="0.5" y="0.5" width="11" height="11"/>
        </g>
        <path id="Star_1-2" data-name="Star 1" class="cls-4" d="M4.543,1.022a.5.5,0,0,1,.913,0l.93,2.08a.5.5,0,0,0,.391.292l2.21.292a.5.5,0,0,1,.286.852L7.615,6.171a.5.5,0,0,0-.141.446L7.9,8.936a.5.5,0,0,1-.742.522l-1.9-1.1a.5.5,0,0,0-.5,0l-1.9,1.1A.5.5,0,0,1,2.1,8.936l.422-2.319a.5.5,0,0,0-.141-.446L.728,4.537a.5.5,0,0,1,.286-.852l2.21-.292A.5.5,0,0,0,3.614,3.1Z" transform="translate(24 384)"/>
      </g>
    </g>
    <g id="ic_x12_star-4" data-name="ic_x12_star" class="cls-5" transform="translate(322 383)">
      <g id="ic_x12_star-5" data-name="ic_x12_star" transform="translate(-23 -383)">
        <g id="사각형_2914-3" data-name="사각형 2914" class="cls-3" transform="translate(23 383)">
          <rect class="cls-6" width="12" height="12"/>
          <rect class="cls-1" x="0.5" y="0.5" width="11" height="11"/>
        </g>
        <path id="Star_1-3" data-name="Star 1" class="cls-4" d="M4.543,1.022a.5.5,0,0,1,.913,0l.93,2.08a.5.5,0,0,0,.391.292l2.21.292a.5.5,0,0,1,.286.852L7.615,6.171a.5.5,0,0,0-.141.446L7.9,8.936a.5.5,0,0,1-.742.522l-1.9-1.1a.5.5,0,0,0-.5,0l-1.9,1.1A.5.5,0,0,1,2.1,8.936l.422-2.319a.5.5,0,0,0-.141-.446L.728,4.537a.5.5,0,0,1,.286-.852l2.21-.292A.5.5,0,0,0,3.614,3.1Z" transform="translate(24 384)"/>
      </g>
      <g id="ic_x12_star-6" data-name="ic_x12_star" transform="translate(-11 -383)">
        <g id="사각형_2914-4" data-name="사각형 2914" class="cls-3" transform="translate(23 383)">
          <rect class="cls-6" width="12" height="12"/>
          <rect class="cls-1" x="0.5" y="0.5" width="11" height="11"/>
        </g>
        <path id="Star_1-4" data-name="Star 1" class="cls-4" d="M4.543,1.022a.5.5,0,0,1,.913,0l.93,2.08a.5.5,0,0,0,.391.292l2.21.292a.5.5,0,0,1,.286.852L7.615,6.171a.5.5,0,0,0-.141.446L7.9,8.936a.5.5,0,0,1-.742.522l-1.9-1.1a.5.5,0,0,0-.5,0l-1.9,1.1A.5.5,0,0,1,2.1,8.936l.422-2.319a.5.5,0,0,0-.141-.446L.728,4.537a.5.5,0,0,1,.286-.852l2.21-.292A.5.5,0,0,0,3.614,3.1Z" transform="translate(24 384)"/>
      </g>
      <g id="ic_x12_star-7" data-name="ic_x12_star" transform="translate(1 -383)">
        <g id="사각형_2914-5" data-name="사각형 2914" class="cls-3" transform="translate(23 383)">
          <rect class="cls-6" width="12" height="12"/>
          <rect class="cls-1" x="0.5" y="0.5" width="11" height="11"/>
        </g>
        <path id="Star_1-5" data-name="Star 1" class="cls-4" d="M4.543,1.022a.5.5,0,0,1,.913,0l.93,2.08a.5.5,0,0,0,.391.292l2.21.292a.5.5,0,0,1,.286.852L7.615,6.171a.5.5,0,0,0-.141.446L7.9,8.936a.5.5,0,0,1-.742.522l-1.9-1.1a.5.5,0,0,0-.5,0l-1.9,1.1A.5.5,0,0,1,2.1,8.936l.422-2.319a.5.5,0,0,0-.141-.446L.728,4.537a.5.5,0,0,1,.286-.852l2.21-.292A.5.5,0,0,0,3.614,3.1Z" transform="translate(24 384)"/>
      </g>
    </g>
  </g>
</svg>
