<svg id="ic_top2" xmlns="http://www.w3.org/2000/svg" width="40" height="18" viewBox="0 0 40 18">
  <rect id="Rectangle_37" data-name="Rectangle 37" width="40" height="18" rx="6" fill="#f9f6fe"/>
  <path id="best" d="M2.784-6.6H.38V-7.779h6.2V-6.6h-2.4V0H2.784ZM14.062-3.89A4.626,4.626,0,0,1,13.6-1.757,3.315,3.315,0,0,1,12.324-.372a3.537,3.537,0,0,1-1.833.479,3.534,3.534,0,0,1-1.836-.48A3.317,3.317,0,0,1,7.382-1.759,4.63,4.63,0,0,1,6.921-3.89a4.655,4.655,0,0,1,.46-2.135A3.293,3.293,0,0,1,8.651-7.407a3.552,3.552,0,0,1,1.84-.479,3.537,3.537,0,0,1,1.833.479A3.315,3.315,0,0,1,13.6-6.022,4.626,4.626,0,0,1,14.062-3.89Zm-1.409,0a3.679,3.679,0,0,0-.272-1.487,2.066,2.066,0,0,0-.762-.934,2.03,2.03,0,0,0-1.128-.317,2.027,2.027,0,0,0-1.13.317,2.083,2.083,0,0,0-.762.934A3.657,3.657,0,0,0,8.326-3.89,3.657,3.657,0,0,0,8.6-2.4a2.083,2.083,0,0,0,.762.934,2.027,2.027,0,0,0,1.13.317,2.03,2.03,0,0,0,1.128-.317,2.066,2.066,0,0,0,.762-.934A3.679,3.679,0,0,0,12.653-3.89ZM18-7.779a3.135,3.135,0,0,1,1.491.329,2.224,2.224,0,0,1,.934.912A2.749,2.749,0,0,1,20.74-5.2a2.733,2.733,0,0,1-.319,1.337,2.22,2.22,0,0,1-.942.908,3.194,3.194,0,0,1-1.5.327h-1.5V0H15.088V-7.779Zm-.205,4a1.813,1.813,0,0,0,.849-.179,1.156,1.156,0,0,0,.505-.5,1.6,1.6,0,0,0,.165-.744,1.381,1.381,0,0,0-.382-1.027,1.565,1.565,0,0,0-1.145-.378h-1.3v2.826ZM23.973,0l0-1.014,2.746-2.647q.448-.448.693-.737a2.588,2.588,0,0,0,.376-.568,1.382,1.382,0,0,0,.131-.594,1.127,1.127,0,0,0-.175-.627,1.137,1.137,0,0,0-.48-.414,1.586,1.586,0,0,0-.686-.144,1.462,1.462,0,0,0-.693.158,1.09,1.09,0,0,0-.458.45,1.406,1.406,0,0,0-.16.684H23.935a2.366,2.366,0,0,1,.334-1.276,2.267,2.267,0,0,1,.944-.853,3.054,3.054,0,0,1,1.381-.3,3.151,3.151,0,0,1,1.383.291,2.271,2.271,0,0,1,.94.8,2.066,2.066,0,0,1,.336,1.158,2.323,2.323,0,0,1-.175.872,3.788,3.788,0,0,1-.591.927A13.964,13.964,0,0,1,27.3-2.6L25.917-1.227v.057H29.37V0Z" transform="translate(6 13)" fill="#6531ce"/>
</svg>
