<svg xmlns="http://www.w3.org/2000/svg" width="24" height="24" viewBox="0 0 24 24">
    <g data-name="Group 15616">
        <g data-name="Group 15624">
            <path data-name="Path 17621" d="M20 8a2 2 0 0 1 1.368-1.9.988.988 0 0 0 .632-.951V3a3 3 0 0 0-3-3H3a3 3 0 0 0-3 3v2.149a.988.988 0 0 0 .632.951A2 2 0 0 1 2 8 2 2 0 0 1 .632 9.9a.988.988 0 0 0-.632.951V13a3 3 0 0 0 3 3h16a3 3 0 0 0 3-3v-2.149a.988.988 0 0 0-.632-.953A2 2 0 0 1 20 8" style="fill:#815311" transform="translate(1 4)"/>
            <path data-name="Path 17622" d="M10.868 11.648a3.648 3.648 0 1 1 2.732-6.06 1 1 0 1 1-1.5 1.323 1.648 1.648 0 1 0-1.237 2.737 1.635 1.635 0 0 0 1.327-.671 1 1 0 0 1 1.61 1.188 3.667 3.667 0 0 1-2.937 1.483" style="fill:#fff" transform="translate(1 4)"/>
        </g>
    </g>
</svg>
