<svg xmlns="http://www.w3.org/2000/svg" width="50" height="50" viewBox="0 0 50 50">
  <defs>
    <style>
      .cls-1 {
        fill: #ffdbdb;
        opacity: 0;
      }

      .cls-2 {
        fill: #aeaeae;
      }

      .cls-3 {
        fill: #cacaca;
      }

      .cls-4 {
        fill: #eaeaea;
      }

      .cls-5 {
        fill: #fff;
      }
    </style>
  </defs>
  <g id="Group_16621" data-name="Group 16621" transform="translate(-161 -354)">
    <rect id="Rectangle_12054" data-name="Rectangle 12054" class="cls-1" width="50" height="50" transform="translate(161 354)"/>
    <g id="Group_16622" data-name="Group 16622" transform="translate(-1.273 -4)">
      <rect id="Rectangle_12057" data-name="Rectangle 12057" class="cls-2" width="44" height="37" rx="3" transform="translate(168 365)"/>
      <path id="Path_21449" data-name="Path 21449" class="cls-3" d="M6.694,0H46.858a3.04,3.04,0,0,1,2.869,3.186L45.9,27.608a3.04,3.04,0,0,1-2.869,3.186H2.869A3.04,3.04,0,0,1,0,27.608L3.825,3.186A3.04,3.04,0,0,1,6.694,0Z" transform="translate(162.273 365)"/>
      <path id="Path_21450" data-name="Path 21450" class="cls-4" d="M0,0H9L7,13a3,3,0,0,1-3,3H1a3,3,0,0,1-3-3Z" transform="translate(172 365)"/>
      <rect id="Rectangle_12058" data-name="Rectangle 12058" class="cls-5" width="8" height="2" rx="1" transform="translate(170 383)"/>
      <rect id="Rectangle_12059" data-name="Rectangle 12059" class="cls-5" width="8" height="2" rx="1" transform="translate(169.5 387)"/>
      <path id="Union_57" data-name="Union 57" class="cls-5" d="M-3088.812,19.816a1.5,1.5,0,0,1-1.516-.983l-1.169-3.211h-1.9l-1.169,3.211a1.5,1.5,0,0,1-1.516.983,1.5,1.5,0,0,1-1.516-.983l-1.169-3.211h-2.619a1.5,1.5,0,0,1-1.5-1.5,1.5,1.5,0,0,1,1.5-1.5h1.527l-1.16-3.185a1.5,1.5,0,0,1,.9-1.922,1.5,1.5,0,0,1,1.921.9l1.533,4.211h1.169l1.533-4.211a1.5,1.5,0,0,1,1.516-.983,1.5,1.5,0,0,1,1.516.983l1.533,4.211h1.168l1.532-4.211a1.5,1.5,0,0,1,1.923-.9,1.5,1.5,0,0,1,.9,1.922l-1.159,3.185h1.655a1.5,1.5,0,0,1,1.5,1.5,1.5,1.5,0,0,1-1.5,1.5h-2.747l-1.169,3.211a1.5,1.5,0,0,1-1.409.987C-3088.741,19.82-3088.776,19.819-3088.812,19.816Z" transform="translate(3287.154 366.578)"/>
    </g>
  </g>
</svg>
