<svg xmlns="http://www.w3.org/2000/svg" width="40" height="40" viewBox="0 0 40 40">
    <defs>
        <style>
            .cls-2,.cls-3{fill:#63a1ff}.cls-2{opacity:0}
        </style>
    </defs>
    <g id="ic_x48_certification" transform="translate(-866.916 -419.916)">
        <circle id="타원_126" data-name="타원 126" cx="20" cy="20" r="20" transform="translate(866.916 419.916)" style="fill:#fff"/>
        <g id="ic_x24_Certified" transform="translate(636.917 272.917)">
            <path id="사각형_9914" data-name="사각형 9914" class="cls-3" d="M2-1h12a3 3 0 0 1 3 3v9a3 3 0 0 1-3 3H2a3 3 0 0 1-3-3V2a3 3 0 0 1 3-3zm12 13a1 1 0 0 0 1-1V2a1 1 0 0 0-1-1H2a1 1 0 0 0-1 1v9a1 1 0 0 0 1 1z" transform="translate(242 163)"/>
            <path id="패스_3147" data-name="패스 3147" class="cls-3" d="M12.655 7a1 1 0 0 1-1-1V4.654a2.655 2.655 0 0 0-5.309 0V6a1 1 0 0 1-2 0V4.654a4.655 4.655 0 0 1 9.309 0V6a1 1 0 0 1-1 1z" transform="translate(241 156)"/>
            <path id="패스_3148" data-name="패스 3148" class="cls-3" d="M8.533 15.366a1 1 0 0 1-.706-.289L5.886 13.16a.978.978 0 0 1 0-1.395 1.007 1.007 0 0 1 1.412 0l1.235 1.22 2.157-2.13a1.007 1.007 0 0 1 1.412 0 .978.978 0 0 1 0 1.395l-2.863 2.828a1 1 0 0 1-.706.288z" transform="translate(241.406 156.433)"/>
        </g>
    </g>
</svg>
