<svg xmlns="http://www.w3.org/2000/svg" xmlns:xlink="http://www.w3.org/1999/xlink" width="72" height="72" viewBox="0 0 72 72">
  <defs>
    <style>
      .cls-1 {
        fill: #ff0404;
        opacity: 0.21;
      }

      .cls-2 {
        clip-path: url(#clip-path);
      }

      .cls-3 {
        fill: #e83667;
      }

      .cls-4 {
        fill: #569aff;
      }

      .cls-5 {
        fill: #fff;
      }

      .cls-6 {
        fill: #18225c;
      }
    </style>
    <clipPath id="clip-path">
      <rect id="사각형_11812" data-name="사각형 11812" class="cls-1" width="72" height="72" transform="translate(705.799 164.799)"/>
    </clipPath>
  </defs>
  <g id="그룹_746" data-name="그룹 746" class="cls-2" transform="translate(-705.799 -164.799)">
    <g id="제주패스_icon_아웃라인_03" transform="translate(712.955 169.799)">
      <circle id="타원_1732" data-name="타원 1732" class="cls-3" cx="3" cy="3" r="3" transform="translate(50.844 2)"/>
      <path id="합치기_46" data-name="합치기 46" class="cls-4" d="M-1963.2,41.8a6,6,0,0,1-6-6V.8a6,6,0,0,1,6-6h13.887c.885,0,3.11-.111,4.291,1.935S-1942.2,1.8-1942.2,1.8h25a6,6,0,0,1,6,6v28a6,6,0,0,1-6,6Z" transform="translate(1969.045 9.202)"/>
      <path id="Path_21366" data-name="Path 21366" class="cls-5" d="M734.183,203.652a2.492,2.492,0,0,1-1.768-.732l-6.8-6.8a2.5,2.5,0,0,1,3.536-3.536l5.037,5.037,8.143-8.143a2.5,2.5,0,0,1,3.536,3.536l-9.911,9.911A2.492,2.492,0,0,1,734.183,203.652Z" transform="translate(-707.034 -164.742)"/>
      <rect id="사각형_11921" data-name="사각형 11921" class="cls-6" width="56.001" height="5" rx="2.5" transform="translate(0.844 56)"/>
    </g>
  </g>
</svg>
