<svg xmlns="http://www.w3.org/2000/svg" width="166" height="26" viewBox="0 0 166 26"><defs><style>.a{fill:none;}.b,.e,.g{fill:#fff;}.b{stroke:#707070;opacity:0;}.c{fill:#18225c;}.d{fill:#569aff;}.f{fill:#e83667;}.g{stroke-linejoin:round;}.h,.i{stroke:none;}.i{fill:#569aff;}</style></defs><rect class="a" width="26" height="26"/><g transform="translate(-488 -2743)"><g class="b" transform="translate(489 2744)"><rect class="h" width="24" height="24"/><rect class="a" x="0.5" y="0.5" width="23" height="23"/></g><rect class="c" width="2.625" height="4.5" rx="1.313" transform="translate(494.25 2744.75)"/><rect class="c" width="2.625" height="4.5" rx="1.313" transform="translate(505.125 2744.75)"/><rect class="d" width="21" height="19.5" rx="4" transform="translate(490.5 2747)"/><path class="e" d="M0,0H16a0,0,0,0,1,0,0V8.5a2,2,0,0,1-2,2H2a2,2,0,0,1-2-2V0A0,0,0,0,1,0,0Z" transform="translate(493 2753.5)"/><path class="f" d="M3,1.5A1.5,1.5,0,1,1,1.5,0,1.5,1.5,0,0,1,3,1.5Z" transform="translate(499.5 2756.75)"/></g><rect class="a" width="26" height="26" transform="translate(28)"/><g transform="translate(-460 -2743)"><g class="b" transform="translate(489 2744)"><rect class="h" width="24" height="24"/><rect class="a" x="0.5" y="0.5" width="23" height="23"/></g><g transform="translate(489.75 2746.749)"><path class="f" d="M3,1.5A1.5,1.5,0,1,1,1.5,0,1.5,1.5,0,0,1,3,1.5Z" transform="translate(9.751 6.751)"/><rect class="c" width="2.25" height="9" rx="1.125" transform="translate(10.25 11.251)"/><path class="d" d="M7.5,11.251h0a.788.788,0,0,0-.265-.555A5.39,5.39,0,0,0,3.75,9.751c-2.068,0-3.75.673-3.75,1.5A11.248,11.248,0,0,1,19.2,3.3,11.181,11.181,0,0,1,22.5,11.2c-.072-.811-1.718-1.446-3.749-1.446s-3.708.659-3.749,1.47c-.042-.811-1.724-1.47-3.751-1.47C9.182,9.751,7.5,10.424,7.5,11.251Z" transform="translate(0 0)"/></g><path class="f" d="M3,1.5A1.5,1.5,0,1,1,1.5,0,1.5,1.5,0,0,1,3,1.5Z" transform="translate(499.5 2744)"/></g><rect class="a" width="26" height="26" transform="translate(56)"/><g transform="translate(-421 -2731)"><g transform="translate(478 2732)"><g class="b"><rect class="h" width="24" height="24"/><rect class="a" x="0.5" y="0.5" width="23" height="23"/></g><g transform="translate(0 5.028)"><path class="c" d="M3,1.5A1.5,1.5,0,1,1,1.5,0,1.5,1.5,0,0,1,3,1.5Z" transform="translate(0 0.472)"/><path class="f" d="M3,1.5A1.5,1.5,0,1,1,1.5,0,1.5,1.5,0,0,1,3,1.5Z" transform="translate(21 0.472)"/><g class="g" transform="translate(6.138 -1)"><path class="h" d="M 13.77234363555908 7.94364070892334 L 11.72476291656494 7.94364070892334 L 3.36563107339316e-06 7.94364070892334 L -2.047576665878296 7.94364070892334 L -1.430186629295349 5.991360664367676 L 0.2913033664226532 0.5477208495140076 L 0.6226333379745483 -0.4999991655349731 L 1.721493363380432 -0.4999991655349731 L 10.00327301025391 -0.4999991655349731 L 11.10213375091553 -0.4999991655349731 L 11.43346309661865 0.5477208495140076 L 13.15495300292969 5.991360664367676 L 13.77234363555908 7.94364070892334 Z"/><path class="i" d="M 1.721493721008301 1.000000953674316 L 3.814697265625e-06 6.44364070892334 L 11.72476291656494 6.44364070892334 L 10.00327301025391 1.000000953674316 L 1.721493721008301 1.000000953674316 M 1.721493721008301 -1.999999046325684 L 10.00327301025391 -1.999999046325684 C 11.31166362762451 -1.999999046325684 12.46914291381836 -1.152059555053711 12.8636531829834 0.09544086456298828 L 14.58514308929443 5.539080619812012 C 14.87344360351562 6.450730800628662 14.70990371704102 7.445210933685303 14.14485359191895 8.216530799865723 C 13.57980346679688 8.987860679626465 12.68091297149658 9.44364070892334 11.72476291656494 9.44364070892334 L 3.814697265625e-06 9.44364070892334 C -0.956146240234375 9.44364070892334 -1.855036735534668 8.987860679626465 -2.420086860656738 8.216530799865723 C -2.985136985778809 7.445210933685303 -3.148676872253418 6.450730800628662 -2.860376358032227 5.539080619812012 L -1.138886451721191 0.09544086456298828 C -0.7443761825561523 -1.152059555053711 0.4131031036376953 -1.999999046325684 1.721493721008301 -1.999999046325684 Z"/></g><path class="d" d="M2.962,0H19.038A3.092,3.092,0,0,1,22,3.208V7.181a1.031,1.031,0,0,1-.987,1.069H.987A1.031,1.031,0,0,1,0,7.181V3.208A3.092,3.092,0,0,1,2.962,0Z" transform="translate(1 4.472)"/><circle class="e" cx="1.5" cy="1.5" r="1.5" transform="translate(3.5 7.472)"/><circle class="e" cx="1.5" cy="1.5" r="1.5" transform="translate(17.5 7.472)"/></g><rect class="c" width="22.999" height="2" rx="1" transform="translate(0.5 20)"/></g></g><rect class="a" width="26" height="26" transform="translate(84)"/><g transform="translate(85 1)"><g class="b"><rect class="h" width="24" height="24"/><rect class="a" x="0.5" y="0.5" width="23" height="23"/></g><g transform="translate(-10 -14)"><path class="d" d="M21,14H2a2,2,0,0,1-2-2V9A2,2,0,0,0,2,7,2,2,0,0,0,0,5V2A2,2,0,0,1,2,0H21a2,2,0,0,1,2,2V5a2,2,0,1,0,0,4v3A2,2,0,0,1,21,14Z" transform="translate(11 17)"/><rect class="c" width="23" height="2" rx="1" transform="translate(11 33)"/><rect class="e" width="13" height="8" rx="1" transform="translate(16 20)"/><circle class="f" cx="1.5" cy="1.5" r="1.5" transform="translate(21 22.43)"/></g></g><rect class="a" width="26" height="26" transform="translate(112)"/><g transform="translate(17 1)"><rect class="a" width="24" height="24" transform="translate(96)"/><g transform="translate(-102.18 -1.291)"><path class="e" d="M9.24,6.825a3.823,3.823,0,0,1,6.88,0l6.215,12.33A4,4,0,0,1,18.895,25H6.465a4,4,0,0,1-3.44-5.845Z" transform="translate(198 -1)"/><path class="d" d="M15.18,6.591a.94.94,0,0,0-.828.473l-8.1,13.409a.988.988,0,0,0-.023,1.013A.94.94,0,0,0,7.082,22h16.2a.94.94,0,0,0,.851-.514.988.988,0,0,0-.023-1.013l-8.1-13.409a.94.94,0,0,0-.828-.473m0-3a3.841,3.841,0,0,1,3.311,1.892l8.1,13.409A4,4,0,0,1,23.278,25H7.082a4,4,0,0,1-3.311-6.108l8.1-13.409A3.841,3.841,0,0,1,15.18,3.591Z" transform="translate(195 -1)"/><path class="f" d="M2.192,1.125A1.111,1.111,0,0,1,1.1,2.25,1.111,1.111,0,0,1,0,1.125,1.111,1.111,0,0,1,1.1,0,1.111,1.111,0,0,1,2.192,1.125Z" transform="translate(208.963 17)"/><rect class="c" width="2.25" height="6" rx="1.125" transform="translate(208.934 10)"/></g></g><rect class="a" width="26" height="26" transform="translate(140)"/><g transform="translate(-10 -30)"><g class="b" transform="translate(153 32)"><rect class="h" width="21" height="22"/><rect class="a" x="0.5" y="0.5" width="20" height="21"/></g><circle class="d" cx="12" cy="12" r="12" transform="translate(151 31)"/><circle class="e" cx="9" cy="9" r="9" transform="translate(154 34)"/><g transform="translate(162 37)"><path class="f" d="M2.5,1.25A1.25,1.25,0,1,1,1.25,0,1.25,1.25,0,0,1,2.5,1.25Z" transform="translate(0 1)"/><rect class="c" width="2.5" height="6" rx="1.25" transform="translate(0 4.5)"/></g></g></svg>